M48
; DRILL file {KiCad (6.0.6)} date Fri Sep 23 20:04:02 2022
; FORMAT={-:-/ absolute / inch / decimal}
; #@! TF.CreationDate,2022-09-23T20:04:02+09:00
; #@! TF.GenerationSoftware,Kicad,Pcbnew,(6.0.6)
; #@! TF.FileFunction,MixedPlating,1,4
FMAT,2
INCH
; #@! TA.AperFunction,Plated,PTH,ViaDrill
T1C0.0157
; #@! TA.AperFunction,Plated,PTH,ComponentDrill
T2C0.0197
; #@! TA.AperFunction,Plated,PTH,ComponentDrill
T3C0.0236
; #@! TA.AperFunction,Plated,PTH,ComponentDrill
T4C0.0374
; #@! TA.AperFunction,Plated,PTH,ComponentDrill
T5C0.0394
; #@! TA.AperFunction,Plated,PTH,ComponentDrill
T6C0.0520
; #@! TA.AperFunction,Plated,PTH,ComponentDrill
T7C0.1260
; #@! TA.AperFunction,Plated,PTH,ComponentDrill
T8C0.1661
; #@! TA.AperFunction,NonPlated,NPTH,ComponentDrill
T9C0.0256
; #@! TA.AperFunction,NonPlated,NPTH,ComponentDrill
T10C0.0433
; #@! TA.AperFunction,NonPlated,NPTH,ComponentDrill
T11C0.0630
; #@! TA.AperFunction,NonPlated,NPTH,ComponentDrill
T12C0.0941
; #@! TA.AperFunction,NonPlated,NPTH,ComponentDrill
T13C0.1398
%
G90
G05
T1
X4.3996Y-5.065
X4.5197Y-5.0787
X4.5472Y-5.2795
X4.6378Y-5.437
X4.6693Y-4.6929
X4.687Y-5.0197
X4.7126Y-5.5512
X4.7835Y-4.689
X4.7913Y-4.9232
X4.8543Y-4.122
X4.8543Y-4.189
X4.9252Y-5.8484
X4.9488Y-5.1181
X4.9567Y-4.5039
X4.9567Y-5.252
X4.9646Y-5.1588
X4.9959Y-4.173
X5.048Y-4.6646
X5.0551Y-4.9094
X5.0669Y-3.7913
X5.0709Y-5.4449
X5.0775Y-4.8031
X5.098Y-4.6618
X5.1193Y-4.8019
X5.1339Y-5.0906
X5.1339Y-5.7598
X5.1654Y-5.1535
X5.1732Y-4.5472
X5.1772Y-4.9606
X5.1772Y-5.2717
X5.1791Y-4.8327
X5.198Y-4.6654
X5.2185Y-4.9764
X5.2205Y-5.4291
X5.2276Y-4.552
X5.2402Y-5.6723
X5.2874Y-5.1417
X5.298Y-4.5484
X5.3031Y-5.063
X5.311Y-4.9921
X5.3189Y-4.811
X5.3543Y-5.6102
X5.374Y-4.2953
X5.378Y-5.2244
X5.3976Y-5.2677
X5.4016Y-5.0315
X5.4094Y-5.4646
X5.4173Y-4.5039
X5.4173Y-5.5276
X5.4183Y-5.122
X5.4409Y-5.3622
X5.448Y-4.8181
X5.4587Y-3.7854
X5.4764Y-4.9094
X5.5354Y-5.185
X5.5433Y-4.9764
X5.5669Y-5.2244
X5.5906Y-4.9606
X5.5945Y-4.7756
X5.5945Y-4.3976
X5.6181Y-5.4764
X5.6535Y-4.5512
X5.6535Y-5.4331
X5.6693Y-5.6142
X5.7191Y-5.0487
X5.7205Y-4.6772
X5.7244Y-4.3307
X5.7244Y-4.8819
X5.7274Y-5.5482
X5.7343Y-4.2087
X5.7362Y-4.7559
X5.7362Y-5.185
X5.7402Y-4.8386
X5.783Y-3.8233
X5.7913Y-4.7126
X5.8386Y-5.4331
X5.8543Y-4.6496
X5.8583Y-5.0039
X5.8583Y-5.2638
X5.8898Y-3.9961
X5.9055Y-5.2992
X5.9055Y-5.8228
X5.9094Y-5.1181
X5.9213Y-5.5984
X5.924Y-4.9803
X5.924Y-4.8858
X5.9331Y-4.5118
X5.9646Y-4.2126
X5.9764Y-4.5906
X5.9793Y-3.9793
X5.9902Y-5.9902
X6.0039Y-5.7795
X6.0288Y-4.2874
X6.0354Y-4.7559
X6.0482Y-3.6019
X6.0512Y-4.6969
X6.0512Y-4.9173
X6.0512Y-4.9646
X6.0842Y-5.3164
X6.0866Y-5.0984
X6.0984Y-4.4094
X6.1063Y-4.7913
X6.1654Y-4.3937
X6.189Y-4.6614
X6.2992Y-5.0591
X6.3543Y-5.0512
X6.42Y-5.328
X6.437Y-5.2283
X6.4803Y-3.1545
X6.4803Y-3.1821
X6.5118Y-3.1545
X6.5118Y-3.1821
X6.7023Y-5.1954
X6.7283Y-3.4449
X6.7298Y-3.5177
X6.7624Y-3.2573
X6.9921Y-5.4252
X7.1496Y-5.689
X7.2164Y-5.7008
X7.248Y-5.8937
X7.3189Y-6.0
X7.4109Y-5.6995
X7.4488Y-5.689
T2
X4.0394Y-2.3622
X4.0394Y-5.9055
X4.067Y-2.2954
X4.067Y-2.429
X4.067Y-5.8387
X4.067Y-5.9723
X4.1339Y-2.2677
X4.1339Y-2.4567
X4.1339Y-5.811
X4.1339Y-6.0
X4.2007Y-2.2954
X4.2007Y-2.429
X4.2007Y-5.8387
X4.2007Y-5.9723
X4.2283Y-2.3622
X4.2283Y-5.9055
X7.5827Y-2.3622
X7.5827Y-5.9055
X7.6104Y-2.2954
X7.6104Y-2.429
X7.6104Y-5.8387
X7.6104Y-5.9723
X7.6772Y-2.2677
X7.6772Y-2.4567
X7.6772Y-5.811
X7.6772Y-6.0
X7.744Y-2.2954
X7.744Y-2.429
X7.744Y-5.8387
X7.744Y-5.9723
X7.7717Y-2.3622
X7.7717Y-5.9055
T4
X4.2126Y-3.7106
X4.2126Y-3.8091
X4.2126Y-3.9075
X4.2126Y-4.0059
X4.2136Y-4.4094
X4.2136Y-4.5079
X4.2136Y-4.6063
X4.2165Y-5.439
X4.2165Y-5.5374
X4.2165Y-5.6358
X4.2175Y-4.8681
X4.2175Y-4.9665
X4.2175Y-5.065
X4.2175Y-5.1634
X5.0984Y-5.9163
X5.1969Y-5.9163
X5.2953Y-5.9163
X5.6102Y-5.9124
X5.7087Y-5.9124
X5.8071Y-5.9124
X5.9055Y-5.9124
X6.0039Y-5.9124
T5
X6.2559Y-3.9331
X6.4213Y-3.9331
T6
X4.4839Y-2.5984
X7.3272Y-2.5984
T7
X4.1339Y-2.3622
X4.1339Y-5.9055
X7.6772Y-2.3622
X7.6772Y-5.9055
T8
X7.7047Y-4.2402
X7.7067Y-5.1929
T9
X7.1813Y-5.8266
X7.4089Y-5.8266
T10
X5.815Y-5.1969
T11
X5.815Y-4.2126
T12
X7.3272Y-2.9083
T13
X4.824Y-2.9083
X6.9972Y-2.2886
T3
G00X7.125Y-5.7841
M15
G01X7.125Y-5.8274
M16
G05
G00X7.125Y-5.9585
M15
G01X7.125Y-5.9821
M16
G05
G00X7.4652Y-5.7841
M15
G01X7.4652Y-5.8274
M16
G05
G00X7.4652Y-5.9585
M15
G01X7.4652Y-5.9821
M16
G05
T5
G00X4.1299Y-3.2694
M15
G01X4.1299Y-3.3481
M16
G05
G00X4.2087Y-3.4938
M15
G01X4.2874Y-3.4938
M16
G05
G00X4.3661Y-3.2694
M15
G01X4.3661Y-3.3481
M16
G05
T0
M30
