%TF.GenerationSoftware,KiCad,Pcbnew,(6.0.6)*%
%TF.CreationDate,2022-10-20T14:17:53+09:00*%
%TF.ProjectId,LTE-base-H1,4c54452d-6261-4736-952d-48312e6b6963,rev?*%
%TF.SameCoordinates,Original*%
%TF.FileFunction,Legend,Top*%
%TF.FilePolarity,Positive*%
%FSLAX46Y46*%
G04 Gerber Fmt 4.6, Leading zero omitted, Abs format (unit mm)*
G04 Created by KiCad (PCBNEW (6.0.6)) date 2022-10-20 14:17:53*
%MOMM*%
%LPD*%
G01*
G04 APERTURE LIST*
G04 Aperture macros list*
%AMRoundRect*
0 Rectangle with rounded corners*
0 $1 Rounding radius*
0 $2 $3 $4 $5 $6 $7 $8 $9 X,Y pos of 4 corners*
0 Add a 4 corners polygon primitive as box body*
4,1,4,$2,$3,$4,$5,$6,$7,$8,$9,$2,$3,0*
0 Add four circle primitives for the rounded corners*
1,1,$1+$1,$2,$3*
1,1,$1+$1,$4,$5*
1,1,$1+$1,$6,$7*
1,1,$1+$1,$8,$9*
0 Add four rect primitives between the rounded corners*
20,1,$1+$1,$2,$3,$4,$5,0*
20,1,$1+$1,$4,$5,$6,$7,0*
20,1,$1+$1,$6,$7,$8,$9,0*
20,1,$1+$1,$8,$9,$2,$3,0*%
%AMFreePoly0*
4,1,22,0.500000,-0.750000,0.000000,-0.750000,0.000000,-0.745033,-0.079941,-0.743568,-0.215256,-0.701293,-0.333266,-0.622738,-0.424486,-0.514219,-0.481581,-0.384460,-0.499164,-0.250000,-0.500000,-0.250000,-0.500000,0.250000,-0.499164,0.250000,-0.499963,0.256109,-0.478152,0.396186,-0.417904,0.524511,-0.324060,0.630769,-0.204165,0.706417,-0.067858,0.745374,0.000000,0.744959,0.000000,0.750000,
0.500000,0.750000,0.500000,-0.750000,0.500000,-0.750000,$1*%
%AMFreePoly1*
4,1,20,0.000000,0.744959,0.073905,0.744508,0.209726,0.703889,0.328688,0.626782,0.421226,0.519385,0.479903,0.390333,0.500000,0.250000,0.500000,-0.250000,0.499851,-0.262216,0.476331,-0.402017,0.414519,-0.529596,0.319384,-0.634700,0.198574,-0.708877,0.061801,-0.746166,0.000000,-0.745033,0.000000,-0.750000,-0.500000,-0.750000,-0.500000,0.750000,0.000000,0.750000,0.000000,0.744959,
0.000000,0.744959,$1*%
G04 Aperture macros list end*
%ADD10C,0.150000*%
%ADD11C,0.120000*%
%ADD12C,0.100000*%
%ADD13C,0.127000*%
%ADD14C,0.400000*%
%ADD15RoundRect,0.225000X-0.225000X-0.250000X0.225000X-0.250000X0.225000X0.250000X-0.225000X0.250000X0*%
%ADD16RoundRect,0.250000X0.550000X-1.500000X0.550000X1.500000X-0.550000X1.500000X-0.550000X-1.500000X0*%
%ADD17RoundRect,0.250000X-0.450000X-0.425000X0.450000X-0.425000X0.450000X0.425000X-0.450000X0.425000X0*%
%ADD18C,0.800000*%
%ADD19C,6.400000*%
%ADD20C,6.200000*%
%ADD21RoundRect,0.200000X0.275000X-0.200000X0.275000X0.200000X-0.275000X0.200000X-0.275000X-0.200000X0*%
%ADD22RoundRect,0.200000X0.200000X0.275000X-0.200000X0.275000X-0.200000X-0.275000X0.200000X-0.275000X0*%
%ADD23RoundRect,0.250000X-0.725000X0.600000X-0.725000X-0.600000X0.725000X-0.600000X0.725000X0.600000X0*%
%ADD24O,1.950000X1.700000*%
%ADD25R,4.600000X1.100000*%
%ADD26R,9.400000X10.800000*%
%ADD27R,0.900000X1.350000*%
%ADD28R,1.100000X2.600000*%
%ADD29RoundRect,0.218750X0.218750X0.256250X-0.218750X0.256250X-0.218750X-0.256250X0.218750X-0.256250X0*%
%ADD30R,2.500000X1.800000*%
%ADD31R,0.600000X0.450000*%
%ADD32RoundRect,0.237500X-0.300000X-0.237500X0.300000X-0.237500X0.300000X0.237500X-0.300000X0.237500X0*%
%ADD33R,2.000000X2.400000*%
%ADD34RoundRect,0.237500X-0.250000X-0.237500X0.250000X-0.237500X0.250000X0.237500X-0.250000X0.237500X0*%
%ADD35RoundRect,0.200000X-0.275000X0.200000X-0.275000X-0.200000X0.275000X-0.200000X0.275000X0.200000X0*%
%ADD36RoundRect,0.150000X-0.587500X-0.150000X0.587500X-0.150000X0.587500X0.150000X-0.587500X0.150000X0*%
%ADD37RoundRect,0.250000X-0.450000X0.262500X-0.450000X-0.262500X0.450000X-0.262500X0.450000X0.262500X0*%
%ADD38RoundRect,0.250000X0.650000X-0.325000X0.650000X0.325000X-0.650000X0.325000X-0.650000X-0.325000X0*%
%ADD39RoundRect,0.225000X-0.250000X0.225000X-0.250000X-0.225000X0.250000X-0.225000X0.250000X0.225000X0*%
%ADD40R,5.400000X2.900000*%
%ADD41RoundRect,0.150000X-0.512500X-0.150000X0.512500X-0.150000X0.512500X0.150000X-0.512500X0.150000X0*%
%ADD42RoundRect,0.250000X-0.600000X-0.725000X0.600000X-0.725000X0.600000X0.725000X-0.600000X0.725000X0*%
%ADD43O,1.700000X1.950000*%
%ADD44C,2.000000*%
%ADD45C,1.100000*%
%ADD46C,1.600000*%
%ADD47R,2.000000X0.600000*%
%ADD48R,3.200000X2.300000*%
%ADD49RoundRect,0.135000X0.185000X-0.135000X0.185000X0.135000X-0.185000X0.135000X-0.185000X-0.135000X0*%
%ADD50RoundRect,0.237500X-0.237500X0.250000X-0.237500X-0.250000X0.237500X-0.250000X0.237500X0.250000X0*%
%ADD51RoundRect,0.150000X-0.150000X0.875000X-0.150000X-0.875000X0.150000X-0.875000X0.150000X0.875000X0*%
%ADD52RoundRect,0.200000X-0.200000X-0.275000X0.200000X-0.275000X0.200000X0.275000X-0.200000X0.275000X0*%
%ADD53RoundRect,0.250000X-0.250000X-0.475000X0.250000X-0.475000X0.250000X0.475000X-0.250000X0.475000X0*%
%ADD54RoundRect,0.225000X0.250000X-0.225000X0.250000X0.225000X-0.250000X0.225000X-0.250000X-0.225000X0*%
%ADD55RoundRect,0.150000X-0.675000X-0.150000X0.675000X-0.150000X0.675000X0.150000X-0.675000X0.150000X0*%
%ADD56C,3.550000*%
%ADD57C,2.390000*%
%ADD58C,1.980000*%
%ADD59RoundRect,0.237500X0.250000X0.237500X-0.250000X0.237500X-0.250000X-0.237500X0.250000X-0.237500X0*%
%ADD60RoundRect,0.075000X0.700000X0.075000X-0.700000X0.075000X-0.700000X-0.075000X0.700000X-0.075000X0*%
%ADD61RoundRect,0.075000X0.075000X0.700000X-0.075000X0.700000X-0.075000X-0.700000X0.075000X-0.700000X0*%
%ADD62FreePoly0,270.000000*%
%ADD63FreePoly1,270.000000*%
%ADD64RoundRect,0.150000X0.825000X0.150000X-0.825000X0.150000X-0.825000X-0.150000X0.825000X-0.150000X0*%
%ADD65C,0.650000*%
%ADD66R,0.600000X1.450000*%
%ADD67R,0.300000X1.450000*%
%ADD68O,1.000000X1.600000*%
%ADD69O,1.000000X2.100000*%
%ADD70RoundRect,0.225000X0.225000X0.250000X-0.225000X0.250000X-0.225000X-0.250000X0.225000X-0.250000X0*%
%ADD71RoundRect,0.250000X-0.325000X-0.650000X0.325000X-0.650000X0.325000X0.650000X-0.325000X0.650000X0*%
%ADD72R,1.550000X1.300000*%
%ADD73RoundRect,0.150000X0.512500X0.150000X-0.512500X0.150000X-0.512500X-0.150000X0.512500X-0.150000X0*%
%ADD74RoundRect,0.100000X-0.637500X-0.100000X0.637500X-0.100000X0.637500X0.100000X-0.637500X0.100000X0*%
%ADD75FreePoly0,90.000000*%
%ADD76FreePoly1,90.000000*%
%ADD77R,3.500000X3.500000*%
%ADD78RoundRect,0.750000X-0.750000X-1.000000X0.750000X-1.000000X0.750000X1.000000X-0.750000X1.000000X0*%
%ADD79RoundRect,0.875000X-0.875000X-0.875000X0.875000X-0.875000X0.875000X0.875000X-0.875000X0.875000X0*%
%ADD80RoundRect,0.237500X0.237500X-0.250000X0.237500X0.250000X-0.237500X0.250000X-0.237500X-0.250000X0*%
G04 APERTURE END LIST*
D10*
X199500000Y-135999999D02*
X141500000Y-136000000D01*
X141500000Y-103000000D01*
X199500000Y-103000000D01*
X199500000Y-135999999D01*
X113716666Y-115383333D02*
X113716666Y-115783333D01*
X113716666Y-115583333D02*
X113016666Y-115583333D01*
X113116666Y-115650000D01*
X113183333Y-115716666D01*
X113216666Y-115783333D01*
X113083333Y-115116666D02*
X113050000Y-115083333D01*
X113016666Y-115016666D01*
X113016666Y-114850000D01*
X113050000Y-114783333D01*
X113083333Y-114750000D01*
X113150000Y-114716666D01*
X113216666Y-114716666D01*
X113316666Y-114750000D01*
X113716666Y-115150000D01*
X113716666Y-114716666D01*
X113016666Y-114283333D02*
X113016666Y-114216666D01*
X113050000Y-114150000D01*
X113083333Y-114116666D01*
X113150000Y-114083333D01*
X113283333Y-114050000D01*
X113450000Y-114050000D01*
X113583333Y-114083333D01*
X113650000Y-114116666D01*
X113683333Y-114150000D01*
X113716666Y-114216666D01*
X113716666Y-114283333D01*
X113683333Y-114350000D01*
X113650000Y-114383333D01*
X113583333Y-114416666D01*
X113450000Y-114450000D01*
X113283333Y-114450000D01*
X113150000Y-114416666D01*
X113083333Y-114383333D01*
X113050000Y-114350000D01*
X113016666Y-114283333D01*
X113716666Y-113116666D02*
X113683333Y-113183333D01*
X113650000Y-113216666D01*
X113583333Y-113250000D01*
X113383333Y-113250000D01*
X113316666Y-113216666D01*
X113283333Y-113183333D01*
X113250000Y-113116666D01*
X113250000Y-113016666D01*
X113283333Y-112950000D01*
X113316666Y-112916666D01*
X113383333Y-112883333D01*
X113583333Y-112883333D01*
X113650000Y-112916666D01*
X113683333Y-112950000D01*
X113716666Y-113016666D01*
X113716666Y-113116666D01*
X113716666Y-112583333D02*
X113016666Y-112583333D01*
X113716666Y-112283333D02*
X113350000Y-112283333D01*
X113283333Y-112316666D01*
X113250000Y-112383333D01*
X113250000Y-112483333D01*
X113283333Y-112550000D01*
X113316666Y-112583333D01*
X113716666Y-111950000D02*
X113250000Y-111950000D01*
X113316666Y-111950000D02*
X113283333Y-111916666D01*
X113250000Y-111850000D01*
X113250000Y-111750000D01*
X113283333Y-111683333D01*
X113350000Y-111650000D01*
X113716666Y-111650000D01*
X113350000Y-111650000D02*
X113283333Y-111616666D01*
X113250000Y-111550000D01*
X113250000Y-111450000D01*
X113283333Y-111383333D01*
X113350000Y-111350000D01*
X113716666Y-111350000D01*
X113250000Y-110583333D02*
X113250000Y-110316666D01*
X113016666Y-110483333D02*
X113616666Y-110483333D01*
X113683333Y-110450000D01*
X113716666Y-110383333D01*
X113716666Y-110316666D01*
X113683333Y-109816666D02*
X113716666Y-109883333D01*
X113716666Y-110016666D01*
X113683333Y-110083333D01*
X113616666Y-110116666D01*
X113350000Y-110116666D01*
X113283333Y-110083333D01*
X113250000Y-110016666D01*
X113250000Y-109883333D01*
X113283333Y-109816666D01*
X113350000Y-109783333D01*
X113416666Y-109783333D01*
X113483333Y-110116666D01*
X113716666Y-109483333D02*
X113250000Y-109483333D01*
X113383333Y-109483333D02*
X113316666Y-109450000D01*
X113283333Y-109416666D01*
X113250000Y-109350000D01*
X113250000Y-109283333D01*
X113716666Y-109050000D02*
X113250000Y-109050000D01*
X113316666Y-109050000D02*
X113283333Y-109016666D01*
X113250000Y-108950000D01*
X113250000Y-108850000D01*
X113283333Y-108783333D01*
X113350000Y-108750000D01*
X113716666Y-108750000D01*
X113350000Y-108750000D02*
X113283333Y-108716666D01*
X113250000Y-108650000D01*
X113250000Y-108550000D01*
X113283333Y-108483333D01*
X113350000Y-108450000D01*
X113716666Y-108450000D01*
X113716666Y-108116666D02*
X113250000Y-108116666D01*
X113016666Y-108116666D02*
X113050000Y-108150000D01*
X113083333Y-108116666D01*
X113050000Y-108083333D01*
X113016666Y-108116666D01*
X113083333Y-108116666D01*
X113250000Y-107783333D02*
X113716666Y-107783333D01*
X113316666Y-107783333D02*
X113283333Y-107750000D01*
X113250000Y-107683333D01*
X113250000Y-107583333D01*
X113283333Y-107516666D01*
X113350000Y-107483333D01*
X113716666Y-107483333D01*
X113716666Y-106850000D02*
X113350000Y-106850000D01*
X113283333Y-106883333D01*
X113250000Y-106950000D01*
X113250000Y-107083333D01*
X113283333Y-107150000D01*
X113683333Y-106850000D02*
X113716666Y-106916666D01*
X113716666Y-107083333D01*
X113683333Y-107150000D01*
X113616666Y-107183333D01*
X113550000Y-107183333D01*
X113483333Y-107150000D01*
X113450000Y-107083333D01*
X113450000Y-106916666D01*
X113416666Y-106850000D01*
X113250000Y-106616666D02*
X113250000Y-106350000D01*
X113016666Y-106516666D02*
X113616666Y-106516666D01*
X113683333Y-106483333D01*
X113716666Y-106416666D01*
X113716666Y-106350000D01*
X113716666Y-106116666D02*
X113250000Y-106116666D01*
X113016666Y-106116666D02*
X113050000Y-106150000D01*
X113083333Y-106116666D01*
X113050000Y-106083333D01*
X113016666Y-106116666D01*
X113083333Y-106116666D01*
X113716666Y-105683333D02*
X113683333Y-105750000D01*
X113650000Y-105783333D01*
X113583333Y-105816666D01*
X113383333Y-105816666D01*
X113316666Y-105783333D01*
X113283333Y-105750000D01*
X113250000Y-105683333D01*
X113250000Y-105583333D01*
X113283333Y-105516666D01*
X113316666Y-105483333D01*
X113383333Y-105450000D01*
X113583333Y-105450000D01*
X113650000Y-105483333D01*
X113683333Y-105516666D01*
X113716666Y-105583333D01*
X113716666Y-105683333D01*
X113250000Y-105150000D02*
X113716666Y-105150000D01*
X113316666Y-105150000D02*
X113283333Y-105116666D01*
X113250000Y-105050000D01*
X113250000Y-104950000D01*
X113283333Y-104883333D01*
X113350000Y-104850000D01*
X113716666Y-104850000D01*
X102209523Y-75052380D02*
X101733333Y-75052380D01*
X101685714Y-75528571D01*
X101733333Y-75480952D01*
X101828571Y-75433333D01*
X102066666Y-75433333D01*
X102161904Y-75480952D01*
X102209523Y-75528571D01*
X102257142Y-75623809D01*
X102257142Y-75861904D01*
X102209523Y-75957142D01*
X102161904Y-76004761D01*
X102066666Y-76052380D01*
X101828571Y-76052380D01*
X101733333Y-76004761D01*
X101685714Y-75957142D01*
X102542857Y-75052380D02*
X102876190Y-76052380D01*
X103209523Y-75052380D01*
X103542857Y-75671428D02*
X104304761Y-75671428D01*
X104733333Y-75147619D02*
X104780952Y-75100000D01*
X104876190Y-75052380D01*
X105114285Y-75052380D01*
X105209523Y-75100000D01*
X105257142Y-75147619D01*
X105304761Y-75242857D01*
X105304761Y-75338095D01*
X105257142Y-75480952D01*
X104685714Y-76052380D01*
X105304761Y-76052380D01*
X105923809Y-75052380D02*
X106019047Y-75052380D01*
X106114285Y-75100000D01*
X106161904Y-75147619D01*
X106209523Y-75242857D01*
X106257142Y-75433333D01*
X106257142Y-75671428D01*
X106209523Y-75861904D01*
X106161904Y-75957142D01*
X106114285Y-76004761D01*
X106019047Y-76052380D01*
X105923809Y-76052380D01*
X105828571Y-76004761D01*
X105780952Y-75957142D01*
X105733333Y-75861904D01*
X105685714Y-75671428D01*
X105685714Y-75433333D01*
X105733333Y-75242857D01*
X105780952Y-75147619D01*
X105828571Y-75100000D01*
X105923809Y-75052380D01*
X106542857Y-75052380D02*
X106876190Y-76052380D01*
X107209523Y-75052380D01*
X170366666Y-106952380D02*
X169890476Y-106952380D01*
X169890476Y-105952380D01*
X170557142Y-105952380D02*
X171128571Y-105952380D01*
X170842857Y-106952380D02*
X170842857Y-105952380D01*
X171461904Y-106428571D02*
X171795238Y-106428571D01*
X171938095Y-106952380D02*
X171461904Y-106952380D01*
X171461904Y-105952380D01*
X171938095Y-105952380D01*
X173700000Y-106857142D02*
X173652380Y-106904761D01*
X173509523Y-106952380D01*
X173414285Y-106952380D01*
X173271428Y-106904761D01*
X173176190Y-106809523D01*
X173128571Y-106714285D01*
X173080952Y-106523809D01*
X173080952Y-106380952D01*
X173128571Y-106190476D01*
X173176190Y-106095238D01*
X173271428Y-106000000D01*
X173414285Y-105952380D01*
X173509523Y-105952380D01*
X173652380Y-106000000D01*
X173700000Y-106047619D01*
X174080952Y-106666666D02*
X174557142Y-106666666D01*
X173985714Y-106952380D02*
X174319047Y-105952380D01*
X174652380Y-106952380D01*
X174842857Y-105952380D02*
X175414285Y-105952380D01*
X175128571Y-106952380D02*
X175128571Y-105952380D01*
X175747619Y-106571428D02*
X176509523Y-106571428D01*
X176985714Y-106952380D02*
X176985714Y-105952380D01*
X177319047Y-106666666D01*
X177652380Y-105952380D01*
X177652380Y-106952380D01*
X178652380Y-106952380D02*
X178080952Y-106952380D01*
X178366666Y-106952380D02*
X178366666Y-105952380D01*
X178271428Y-106095238D01*
X178176190Y-106190476D01*
X178080952Y-106238095D01*
X179842857Y-106952380D02*
X179842857Y-105952380D01*
X180176190Y-106666666D01*
X180509523Y-105952380D01*
X180509523Y-106952380D01*
X180985714Y-106952380D02*
X180985714Y-106285714D01*
X180985714Y-105952380D02*
X180938095Y-106000000D01*
X180985714Y-106047619D01*
X181033333Y-106000000D01*
X180985714Y-105952380D01*
X180985714Y-106047619D01*
X181461904Y-106285714D02*
X181461904Y-106952380D01*
X181461904Y-106380952D02*
X181509523Y-106333333D01*
X181604761Y-106285714D01*
X181747619Y-106285714D01*
X181842857Y-106333333D01*
X181890476Y-106428571D01*
X181890476Y-106952380D01*
X182366666Y-106952380D02*
X182366666Y-106285714D01*
X182366666Y-105952380D02*
X182319047Y-106000000D01*
X182366666Y-106047619D01*
X182414285Y-106000000D01*
X182366666Y-105952380D01*
X182366666Y-106047619D01*
X183604761Y-106952380D02*
X183604761Y-105952380D01*
X183985714Y-105952380D01*
X184080952Y-106000000D01*
X184128571Y-106047619D01*
X184176190Y-106142857D01*
X184176190Y-106285714D01*
X184128571Y-106380952D01*
X184080952Y-106428571D01*
X183985714Y-106476190D01*
X183604761Y-106476190D01*
X185176190Y-106857142D02*
X185128571Y-106904761D01*
X184985714Y-106952380D01*
X184890476Y-106952380D01*
X184747619Y-106904761D01*
X184652380Y-106809523D01*
X184604761Y-106714285D01*
X184557142Y-106523809D01*
X184557142Y-106380952D01*
X184604761Y-106190476D01*
X184652380Y-106095238D01*
X184747619Y-106000000D01*
X184890476Y-105952380D01*
X184985714Y-105952380D01*
X185128571Y-106000000D01*
X185176190Y-106047619D01*
X185604761Y-106952380D02*
X185604761Y-105952380D01*
X186080952Y-106428571D02*
X186414285Y-106428571D01*
X186557142Y-106952380D02*
X186080952Y-106952380D01*
X186080952Y-105952380D01*
X186557142Y-105952380D01*
%TO.C,C10*%
X139950000Y-107750000D02*
X139916666Y-107783333D01*
X139816666Y-107816666D01*
X139750000Y-107816666D01*
X139650000Y-107783333D01*
X139583333Y-107716666D01*
X139550000Y-107650000D01*
X139516666Y-107516666D01*
X139516666Y-107416666D01*
X139550000Y-107283333D01*
X139583333Y-107216666D01*
X139650000Y-107150000D01*
X139750000Y-107116666D01*
X139816666Y-107116666D01*
X139916666Y-107150000D01*
X139950000Y-107183333D01*
X140616666Y-107816666D02*
X140216666Y-107816666D01*
X140416666Y-107816666D02*
X140416666Y-107116666D01*
X140350000Y-107216666D01*
X140283333Y-107283333D01*
X140216666Y-107316666D01*
X141050000Y-107116666D02*
X141116666Y-107116666D01*
X141183333Y-107150000D01*
X141216666Y-107183333D01*
X141250000Y-107250000D01*
X141283333Y-107383333D01*
X141283333Y-107550000D01*
X141250000Y-107683333D01*
X141216666Y-107750000D01*
X141183333Y-107783333D01*
X141116666Y-107816666D01*
X141050000Y-107816666D01*
X140983333Y-107783333D01*
X140950000Y-107750000D01*
X140916666Y-107683333D01*
X140883333Y-107550000D01*
X140883333Y-107383333D01*
X140916666Y-107250000D01*
X140950000Y-107183333D01*
X140983333Y-107150000D01*
X141050000Y-107116666D01*
%TO.C,C7*%
X117983333Y-79875000D02*
X117950000Y-79908333D01*
X117850000Y-79941666D01*
X117783333Y-79941666D01*
X117683333Y-79908333D01*
X117616666Y-79841666D01*
X117583333Y-79775000D01*
X117550000Y-79641666D01*
X117550000Y-79541666D01*
X117583333Y-79408333D01*
X117616666Y-79341666D01*
X117683333Y-79275000D01*
X117783333Y-79241666D01*
X117850000Y-79241666D01*
X117950000Y-79275000D01*
X117983333Y-79308333D01*
X118216666Y-79241666D02*
X118683333Y-79241666D01*
X118383333Y-79941666D01*
%TO.C,C5*%
X135883333Y-98000000D02*
X135850000Y-98033333D01*
X135750000Y-98066666D01*
X135683333Y-98066666D01*
X135583333Y-98033333D01*
X135516666Y-97966666D01*
X135483333Y-97900000D01*
X135450000Y-97766666D01*
X135450000Y-97666666D01*
X135483333Y-97533333D01*
X135516666Y-97466666D01*
X135583333Y-97400000D01*
X135683333Y-97366666D01*
X135750000Y-97366666D01*
X135850000Y-97400000D01*
X135883333Y-97433333D01*
X136516666Y-97366666D02*
X136183333Y-97366666D01*
X136150000Y-97700000D01*
X136183333Y-97666666D01*
X136250000Y-97633333D01*
X136416666Y-97633333D01*
X136483333Y-97666666D01*
X136516666Y-97700000D01*
X136550000Y-97766666D01*
X136550000Y-97933333D01*
X136516666Y-98000000D01*
X136483333Y-98033333D01*
X136416666Y-98066666D01*
X136250000Y-98066666D01*
X136183333Y-98033333D01*
X136150000Y-98000000D01*
%TO.C,R5*%
X110616666Y-113516666D02*
X110283333Y-113750000D01*
X110616666Y-113916666D02*
X109916666Y-113916666D01*
X109916666Y-113650000D01*
X109950000Y-113583333D01*
X109983333Y-113550000D01*
X110050000Y-113516666D01*
X110150000Y-113516666D01*
X110216666Y-113550000D01*
X110250000Y-113583333D01*
X110283333Y-113650000D01*
X110283333Y-113916666D01*
X109916666Y-112883333D02*
X109916666Y-113216666D01*
X110250000Y-113250000D01*
X110216666Y-113216666D01*
X110183333Y-113150000D01*
X110183333Y-112983333D01*
X110216666Y-112916666D01*
X110250000Y-112883333D01*
X110316666Y-112850000D01*
X110483333Y-112850000D01*
X110550000Y-112883333D01*
X110583333Y-112916666D01*
X110616666Y-112983333D01*
X110616666Y-113150000D01*
X110583333Y-113216666D01*
X110550000Y-113250000D01*
%TO.C,R6*%
X143983333Y-139816666D02*
X143750000Y-139483333D01*
X143583333Y-139816666D02*
X143583333Y-139116666D01*
X143850000Y-139116666D01*
X143916666Y-139150000D01*
X143950000Y-139183333D01*
X143983333Y-139250000D01*
X143983333Y-139350000D01*
X143950000Y-139416666D01*
X143916666Y-139450000D01*
X143850000Y-139483333D01*
X143583333Y-139483333D01*
X144583333Y-139116666D02*
X144450000Y-139116666D01*
X144383333Y-139150000D01*
X144350000Y-139183333D01*
X144283333Y-139283333D01*
X144250000Y-139416666D01*
X144250000Y-139683333D01*
X144283333Y-139750000D01*
X144316666Y-139783333D01*
X144383333Y-139816666D01*
X144516666Y-139816666D01*
X144583333Y-139783333D01*
X144616666Y-139750000D01*
X144650000Y-139683333D01*
X144650000Y-139516666D01*
X144616666Y-139450000D01*
X144583333Y-139416666D01*
X144516666Y-139383333D01*
X144383333Y-139383333D01*
X144316666Y-139416666D01*
X144283333Y-139450000D01*
X144250000Y-139516666D01*
%TO.C,R8*%
X119558333Y-125416666D02*
X119325000Y-125083333D01*
X119158333Y-125416666D02*
X119158333Y-124716666D01*
X119425000Y-124716666D01*
X119491666Y-124750000D01*
X119525000Y-124783333D01*
X119558333Y-124850000D01*
X119558333Y-124950000D01*
X119525000Y-125016666D01*
X119491666Y-125050000D01*
X119425000Y-125083333D01*
X119158333Y-125083333D01*
X119958333Y-125016666D02*
X119891666Y-124983333D01*
X119858333Y-124950000D01*
X119825000Y-124883333D01*
X119825000Y-124850000D01*
X119858333Y-124783333D01*
X119891666Y-124750000D01*
X119958333Y-124716666D01*
X120091666Y-124716666D01*
X120158333Y-124750000D01*
X120191666Y-124783333D01*
X120225000Y-124850000D01*
X120225000Y-124883333D01*
X120191666Y-124950000D01*
X120158333Y-124983333D01*
X120091666Y-125016666D01*
X119958333Y-125016666D01*
X119891666Y-125050000D01*
X119858333Y-125083333D01*
X119825000Y-125150000D01*
X119825000Y-125283333D01*
X119858333Y-125350000D01*
X119891666Y-125383333D01*
X119958333Y-125416666D01*
X120091666Y-125416666D01*
X120158333Y-125383333D01*
X120191666Y-125350000D01*
X120225000Y-125283333D01*
X120225000Y-125150000D01*
X120191666Y-125083333D01*
X120158333Y-125050000D01*
X120091666Y-125016666D01*
%TO.C,J11*%
X107816666Y-92566666D02*
X108316666Y-92566666D01*
X108416666Y-92600000D01*
X108483333Y-92666666D01*
X108516666Y-92766666D01*
X108516666Y-92833333D01*
X108516666Y-91866666D02*
X108516666Y-92266666D01*
X108516666Y-92066666D02*
X107816666Y-92066666D01*
X107916666Y-92133333D01*
X107983333Y-92200000D01*
X108016666Y-92266666D01*
X108516666Y-91200000D02*
X108516666Y-91600000D01*
X108516666Y-91400000D02*
X107816666Y-91400000D01*
X107916666Y-91466666D01*
X107983333Y-91533333D01*
X108016666Y-91600000D01*
%TO.C,U5*%
X113391666Y-98583333D02*
X113958333Y-98583333D01*
X114025000Y-98550000D01*
X114058333Y-98516666D01*
X114091666Y-98450000D01*
X114091666Y-98316666D01*
X114058333Y-98250000D01*
X114025000Y-98216666D01*
X113958333Y-98183333D01*
X113391666Y-98183333D01*
X113391666Y-97516666D02*
X113391666Y-97850000D01*
X113725000Y-97883333D01*
X113691666Y-97850000D01*
X113658333Y-97783333D01*
X113658333Y-97616666D01*
X113691666Y-97550000D01*
X113725000Y-97516666D01*
X113791666Y-97483333D01*
X113958333Y-97483333D01*
X114025000Y-97516666D01*
X114058333Y-97550000D01*
X114091666Y-97616666D01*
X114091666Y-97783333D01*
X114058333Y-97850000D01*
X114025000Y-97883333D01*
%TO.C,U6*%
X168866666Y-137316666D02*
X168866666Y-137883333D01*
X168900000Y-137950000D01*
X168933333Y-137983333D01*
X169000000Y-138016666D01*
X169133333Y-138016666D01*
X169200000Y-137983333D01*
X169233333Y-137950000D01*
X169266666Y-137883333D01*
X169266666Y-137316666D01*
X169900000Y-137316666D02*
X169766666Y-137316666D01*
X169700000Y-137350000D01*
X169666666Y-137383333D01*
X169600000Y-137483333D01*
X169566666Y-137616666D01*
X169566666Y-137883333D01*
X169600000Y-137950000D01*
X169633333Y-137983333D01*
X169700000Y-138016666D01*
X169833333Y-138016666D01*
X169900000Y-137983333D01*
X169933333Y-137950000D01*
X169966666Y-137883333D01*
X169966666Y-137716666D01*
X169933333Y-137650000D01*
X169900000Y-137616666D01*
X169833333Y-137583333D01*
X169700000Y-137583333D01*
X169633333Y-137616666D01*
X169600000Y-137650000D01*
X169566666Y-137716666D01*
%TO.C,D5*%
X117439333Y-141138666D02*
X117439333Y-140438666D01*
X117606000Y-140438666D01*
X117706000Y-140472000D01*
X117772666Y-140538666D01*
X117806000Y-140605333D01*
X117839333Y-140738666D01*
X117839333Y-140838666D01*
X117806000Y-140972000D01*
X117772666Y-141038666D01*
X117706000Y-141105333D01*
X117606000Y-141138666D01*
X117439333Y-141138666D01*
X118472666Y-140438666D02*
X118139333Y-140438666D01*
X118106000Y-140772000D01*
X118139333Y-140738666D01*
X118206000Y-140705333D01*
X118372666Y-140705333D01*
X118439333Y-140738666D01*
X118472666Y-140772000D01*
X118506000Y-140838666D01*
X118506000Y-141005333D01*
X118472666Y-141072000D01*
X118439333Y-141105333D01*
X118372666Y-141138666D01*
X118206000Y-141138666D01*
X118139333Y-141105333D01*
X118106000Y-141072000D01*
%TO.C,D3*%
X132983333Y-88141666D02*
X132983333Y-87441666D01*
X133150000Y-87441666D01*
X133250000Y-87475000D01*
X133316666Y-87541666D01*
X133350000Y-87608333D01*
X133383333Y-87741666D01*
X133383333Y-87841666D01*
X133350000Y-87975000D01*
X133316666Y-88041666D01*
X133250000Y-88108333D01*
X133150000Y-88141666D01*
X132983333Y-88141666D01*
X133616666Y-87441666D02*
X134050000Y-87441666D01*
X133816666Y-87708333D01*
X133916666Y-87708333D01*
X133983333Y-87741666D01*
X134016666Y-87775000D01*
X134050000Y-87841666D01*
X134050000Y-88008333D01*
X134016666Y-88075000D01*
X133983333Y-88108333D01*
X133916666Y-88141666D01*
X133716666Y-88141666D01*
X133650000Y-88108333D01*
X133616666Y-88075000D01*
%TO.C,R31*%
X119225000Y-120616666D02*
X118991666Y-120283333D01*
X118825000Y-120616666D02*
X118825000Y-119916666D01*
X119091666Y-119916666D01*
X119158333Y-119950000D01*
X119191666Y-119983333D01*
X119225000Y-120050000D01*
X119225000Y-120150000D01*
X119191666Y-120216666D01*
X119158333Y-120250000D01*
X119091666Y-120283333D01*
X118825000Y-120283333D01*
X119458333Y-119916666D02*
X119891666Y-119916666D01*
X119658333Y-120183333D01*
X119758333Y-120183333D01*
X119825000Y-120216666D01*
X119858333Y-120250000D01*
X119891666Y-120316666D01*
X119891666Y-120483333D01*
X119858333Y-120550000D01*
X119825000Y-120583333D01*
X119758333Y-120616666D01*
X119558333Y-120616666D01*
X119491666Y-120583333D01*
X119458333Y-120550000D01*
X120558333Y-120616666D02*
X120158333Y-120616666D01*
X120358333Y-120616666D02*
X120358333Y-119916666D01*
X120291666Y-120016666D01*
X120225000Y-120083333D01*
X120158333Y-120116666D01*
%TO.C,D10*%
X143600000Y-92916666D02*
X143600000Y-92216666D01*
X143766666Y-92216666D01*
X143866666Y-92250000D01*
X143933333Y-92316666D01*
X143966666Y-92383333D01*
X144000000Y-92516666D01*
X144000000Y-92616666D01*
X143966666Y-92750000D01*
X143933333Y-92816666D01*
X143866666Y-92883333D01*
X143766666Y-92916666D01*
X143600000Y-92916666D01*
X144666666Y-92916666D02*
X144266666Y-92916666D01*
X144466666Y-92916666D02*
X144466666Y-92216666D01*
X144400000Y-92316666D01*
X144333333Y-92383333D01*
X144266666Y-92416666D01*
X145100000Y-92216666D02*
X145166666Y-92216666D01*
X145233333Y-92250000D01*
X145266666Y-92283333D01*
X145300000Y-92350000D01*
X145333333Y-92483333D01*
X145333333Y-92650000D01*
X145300000Y-92783333D01*
X145266666Y-92850000D01*
X145233333Y-92883333D01*
X145166666Y-92916666D01*
X145100000Y-92916666D01*
X145033333Y-92883333D01*
X145000000Y-92850000D01*
X144966666Y-92783333D01*
X144933333Y-92650000D01*
X144933333Y-92483333D01*
X144966666Y-92350000D01*
X145000000Y-92283333D01*
X145033333Y-92250000D01*
X145100000Y-92216666D01*
%TO.C,R29*%
X152350000Y-89116666D02*
X152116666Y-88783333D01*
X151950000Y-89116666D02*
X151950000Y-88416666D01*
X152216666Y-88416666D01*
X152283333Y-88450000D01*
X152316666Y-88483333D01*
X152350000Y-88550000D01*
X152350000Y-88650000D01*
X152316666Y-88716666D01*
X152283333Y-88750000D01*
X152216666Y-88783333D01*
X151950000Y-88783333D01*
X152616666Y-88483333D02*
X152650000Y-88450000D01*
X152716666Y-88416666D01*
X152883333Y-88416666D01*
X152950000Y-88450000D01*
X152983333Y-88483333D01*
X153016666Y-88550000D01*
X153016666Y-88616666D01*
X152983333Y-88716666D01*
X152583333Y-89116666D01*
X153016666Y-89116666D01*
X153350000Y-89116666D02*
X153483333Y-89116666D01*
X153550000Y-89083333D01*
X153583333Y-89050000D01*
X153650000Y-88950000D01*
X153683333Y-88816666D01*
X153683333Y-88550000D01*
X153650000Y-88483333D01*
X153616666Y-88450000D01*
X153550000Y-88416666D01*
X153416666Y-88416666D01*
X153350000Y-88450000D01*
X153316666Y-88483333D01*
X153283333Y-88550000D01*
X153283333Y-88716666D01*
X153316666Y-88783333D01*
X153350000Y-88816666D01*
X153416666Y-88850000D01*
X153550000Y-88850000D01*
X153616666Y-88816666D01*
X153650000Y-88783333D01*
X153683333Y-88716666D01*
%TO.C,R3*%
X135066666Y-93466666D02*
X134733333Y-93700000D01*
X135066666Y-93866666D02*
X134366666Y-93866666D01*
X134366666Y-93600000D01*
X134400000Y-93533333D01*
X134433333Y-93500000D01*
X134500000Y-93466666D01*
X134600000Y-93466666D01*
X134666666Y-93500000D01*
X134700000Y-93533333D01*
X134733333Y-93600000D01*
X134733333Y-93866666D01*
X134366666Y-93233333D02*
X134366666Y-92800000D01*
X134633333Y-93033333D01*
X134633333Y-92933333D01*
X134666666Y-92866666D01*
X134700000Y-92833333D01*
X134766666Y-92800000D01*
X134933333Y-92800000D01*
X135000000Y-92833333D01*
X135033333Y-92866666D01*
X135066666Y-92933333D01*
X135066666Y-93133333D01*
X135033333Y-93200000D01*
X135000000Y-93233333D01*
%TO.C,R7*%
X120839333Y-136938666D02*
X120606000Y-136605333D01*
X120439333Y-136938666D02*
X120439333Y-136238666D01*
X120706000Y-136238666D01*
X120772666Y-136272000D01*
X120806000Y-136305333D01*
X120839333Y-136372000D01*
X120839333Y-136472000D01*
X120806000Y-136538666D01*
X120772666Y-136572000D01*
X120706000Y-136605333D01*
X120439333Y-136605333D01*
X121072666Y-136238666D02*
X121539333Y-136238666D01*
X121239333Y-136938666D01*
%TO.C,C6*%
X139983333Y-106250000D02*
X139950000Y-106283333D01*
X139850000Y-106316666D01*
X139783333Y-106316666D01*
X139683333Y-106283333D01*
X139616666Y-106216666D01*
X139583333Y-106150000D01*
X139550000Y-106016666D01*
X139550000Y-105916666D01*
X139583333Y-105783333D01*
X139616666Y-105716666D01*
X139683333Y-105650000D01*
X139783333Y-105616666D01*
X139850000Y-105616666D01*
X139950000Y-105650000D01*
X139983333Y-105683333D01*
X140583333Y-105616666D02*
X140450000Y-105616666D01*
X140383333Y-105650000D01*
X140350000Y-105683333D01*
X140283333Y-105783333D01*
X140250000Y-105916666D01*
X140250000Y-106183333D01*
X140283333Y-106250000D01*
X140316666Y-106283333D01*
X140383333Y-106316666D01*
X140516666Y-106316666D01*
X140583333Y-106283333D01*
X140616666Y-106250000D01*
X140650000Y-106183333D01*
X140650000Y-106016666D01*
X140616666Y-105950000D01*
X140583333Y-105916666D01*
X140516666Y-105883333D01*
X140383333Y-105883333D01*
X140316666Y-105916666D01*
X140283333Y-105950000D01*
X140250000Y-106016666D01*
%TO.C,D1*%
X116383333Y-110316666D02*
X116383333Y-109616666D01*
X116550000Y-109616666D01*
X116650000Y-109650000D01*
X116716666Y-109716666D01*
X116750000Y-109783333D01*
X116783333Y-109916666D01*
X116783333Y-110016666D01*
X116750000Y-110150000D01*
X116716666Y-110216666D01*
X116650000Y-110283333D01*
X116550000Y-110316666D01*
X116383333Y-110316666D01*
X117450000Y-110316666D02*
X117050000Y-110316666D01*
X117250000Y-110316666D02*
X117250000Y-109616666D01*
X117183333Y-109716666D01*
X117116666Y-109783333D01*
X117050000Y-109816666D01*
%TO.C,D2*%
X120489333Y-141138666D02*
X120489333Y-140438666D01*
X120656000Y-140438666D01*
X120756000Y-140472000D01*
X120822666Y-140538666D01*
X120856000Y-140605333D01*
X120889333Y-140738666D01*
X120889333Y-140838666D01*
X120856000Y-140972000D01*
X120822666Y-141038666D01*
X120756000Y-141105333D01*
X120656000Y-141138666D01*
X120489333Y-141138666D01*
X121156000Y-140505333D02*
X121189333Y-140472000D01*
X121256000Y-140438666D01*
X121422666Y-140438666D01*
X121489333Y-140472000D01*
X121522666Y-140505333D01*
X121556000Y-140572000D01*
X121556000Y-140638666D01*
X121522666Y-140738666D01*
X121122666Y-141138666D01*
X121556000Y-141138666D01*
%TO.C,R26*%
X184816666Y-85150000D02*
X184483333Y-85383333D01*
X184816666Y-85550000D02*
X184116666Y-85550000D01*
X184116666Y-85283333D01*
X184150000Y-85216666D01*
X184183333Y-85183333D01*
X184250000Y-85150000D01*
X184350000Y-85150000D01*
X184416666Y-85183333D01*
X184450000Y-85216666D01*
X184483333Y-85283333D01*
X184483333Y-85550000D01*
X184183333Y-84883333D02*
X184150000Y-84850000D01*
X184116666Y-84783333D01*
X184116666Y-84616666D01*
X184150000Y-84550000D01*
X184183333Y-84516666D01*
X184250000Y-84483333D01*
X184316666Y-84483333D01*
X184416666Y-84516666D01*
X184816666Y-84916666D01*
X184816666Y-84483333D01*
X184116666Y-83883333D02*
X184116666Y-84016666D01*
X184150000Y-84083333D01*
X184183333Y-84116666D01*
X184283333Y-84183333D01*
X184416666Y-84216666D01*
X184683333Y-84216666D01*
X184750000Y-84183333D01*
X184783333Y-84150000D01*
X184816666Y-84083333D01*
X184816666Y-83950000D01*
X184783333Y-83883333D01*
X184750000Y-83850000D01*
X184683333Y-83816666D01*
X184516666Y-83816666D01*
X184450000Y-83850000D01*
X184416666Y-83883333D01*
X184383333Y-83950000D01*
X184383333Y-84083333D01*
X184416666Y-84150000D01*
X184450000Y-84183333D01*
X184516666Y-84216666D01*
%TO.C,C21*%
X170050000Y-131750000D02*
X170016666Y-131783333D01*
X169916666Y-131816666D01*
X169850000Y-131816666D01*
X169750000Y-131783333D01*
X169683333Y-131716666D01*
X169650000Y-131650000D01*
X169616666Y-131516666D01*
X169616666Y-131416666D01*
X169650000Y-131283333D01*
X169683333Y-131216666D01*
X169750000Y-131150000D01*
X169850000Y-131116666D01*
X169916666Y-131116666D01*
X170016666Y-131150000D01*
X170050000Y-131183333D01*
X170316666Y-131183333D02*
X170350000Y-131150000D01*
X170416666Y-131116666D01*
X170583333Y-131116666D01*
X170650000Y-131150000D01*
X170683333Y-131183333D01*
X170716666Y-131250000D01*
X170716666Y-131316666D01*
X170683333Y-131416666D01*
X170283333Y-131816666D01*
X170716666Y-131816666D01*
X171383333Y-131816666D02*
X170983333Y-131816666D01*
X171183333Y-131816666D02*
X171183333Y-131116666D01*
X171116666Y-131216666D01*
X171050000Y-131283333D01*
X170983333Y-131316666D01*
%TO.C,Y2*%
X133066666Y-104383333D02*
X133066666Y-104716666D01*
X132833333Y-104016666D02*
X133066666Y-104383333D01*
X133300000Y-104016666D01*
X133500000Y-104083333D02*
X133533333Y-104050000D01*
X133600000Y-104016666D01*
X133766666Y-104016666D01*
X133833333Y-104050000D01*
X133866666Y-104083333D01*
X133900000Y-104150000D01*
X133900000Y-104216666D01*
X133866666Y-104316666D01*
X133466666Y-104716666D01*
X133900000Y-104716666D01*
%TO.C,R13*%
X128200000Y-142016666D02*
X127966666Y-141683333D01*
X127800000Y-142016666D02*
X127800000Y-141316666D01*
X128066666Y-141316666D01*
X128133333Y-141350000D01*
X128166666Y-141383333D01*
X128200000Y-141450000D01*
X128200000Y-141550000D01*
X128166666Y-141616666D01*
X128133333Y-141650000D01*
X128066666Y-141683333D01*
X127800000Y-141683333D01*
X128866666Y-142016666D02*
X128466666Y-142016666D01*
X128666666Y-142016666D02*
X128666666Y-141316666D01*
X128600000Y-141416666D01*
X128533333Y-141483333D01*
X128466666Y-141516666D01*
X129100000Y-141316666D02*
X129533333Y-141316666D01*
X129300000Y-141583333D01*
X129400000Y-141583333D01*
X129466666Y-141616666D01*
X129500000Y-141650000D01*
X129533333Y-141716666D01*
X129533333Y-141883333D01*
X129500000Y-141950000D01*
X129466666Y-141983333D01*
X129400000Y-142016666D01*
X129200000Y-142016666D01*
X129133333Y-141983333D01*
X129100000Y-141950000D01*
%TO.C,R4*%
X136466666Y-93416666D02*
X136133333Y-93650000D01*
X136466666Y-93816666D02*
X135766666Y-93816666D01*
X135766666Y-93550000D01*
X135800000Y-93483333D01*
X135833333Y-93450000D01*
X135900000Y-93416666D01*
X136000000Y-93416666D01*
X136066666Y-93450000D01*
X136100000Y-93483333D01*
X136133333Y-93550000D01*
X136133333Y-93816666D01*
X136000000Y-92816666D02*
X136466666Y-92816666D01*
X135733333Y-92983333D02*
X136233333Y-93150000D01*
X136233333Y-92716666D01*
%TO.C,Q1*%
X152033333Y-92983333D02*
X151966666Y-92950000D01*
X151900000Y-92883333D01*
X151800000Y-92783333D01*
X151733333Y-92750000D01*
X151666666Y-92750000D01*
X151700000Y-92916666D02*
X151633333Y-92883333D01*
X151566666Y-92816666D01*
X151533333Y-92683333D01*
X151533333Y-92450000D01*
X151566666Y-92316666D01*
X151633333Y-92250000D01*
X151700000Y-92216666D01*
X151833333Y-92216666D01*
X151900000Y-92250000D01*
X151966666Y-92316666D01*
X152000000Y-92450000D01*
X152000000Y-92683333D01*
X151966666Y-92816666D01*
X151900000Y-92883333D01*
X151833333Y-92916666D01*
X151700000Y-92916666D01*
X152666666Y-92916666D02*
X152266666Y-92916666D01*
X152466666Y-92916666D02*
X152466666Y-92216666D01*
X152400000Y-92316666D01*
X152333333Y-92383333D01*
X152266666Y-92416666D01*
%TO.C,R11*%
X189116666Y-139050000D02*
X188783333Y-139283333D01*
X189116666Y-139450000D02*
X188416666Y-139450000D01*
X188416666Y-139183333D01*
X188450000Y-139116666D01*
X188483333Y-139083333D01*
X188550000Y-139050000D01*
X188650000Y-139050000D01*
X188716666Y-139083333D01*
X188750000Y-139116666D01*
X188783333Y-139183333D01*
X188783333Y-139450000D01*
X189116666Y-138383333D02*
X189116666Y-138783333D01*
X189116666Y-138583333D02*
X188416666Y-138583333D01*
X188516666Y-138650000D01*
X188583333Y-138716666D01*
X188616666Y-138783333D01*
X189116666Y-137716666D02*
X189116666Y-138116666D01*
X189116666Y-137916666D02*
X188416666Y-137916666D01*
X188516666Y-137983333D01*
X188583333Y-138050000D01*
X188616666Y-138116666D01*
%TO.C,R10*%
X186516666Y-139050000D02*
X186183333Y-139283333D01*
X186516666Y-139450000D02*
X185816666Y-139450000D01*
X185816666Y-139183333D01*
X185850000Y-139116666D01*
X185883333Y-139083333D01*
X185950000Y-139050000D01*
X186050000Y-139050000D01*
X186116666Y-139083333D01*
X186150000Y-139116666D01*
X186183333Y-139183333D01*
X186183333Y-139450000D01*
X186516666Y-138383333D02*
X186516666Y-138783333D01*
X186516666Y-138583333D02*
X185816666Y-138583333D01*
X185916666Y-138650000D01*
X185983333Y-138716666D01*
X186016666Y-138783333D01*
X185816666Y-137950000D02*
X185816666Y-137883333D01*
X185850000Y-137816666D01*
X185883333Y-137783333D01*
X185950000Y-137750000D01*
X186083333Y-137716666D01*
X186250000Y-137716666D01*
X186383333Y-137750000D01*
X186450000Y-137783333D01*
X186483333Y-137816666D01*
X186516666Y-137883333D01*
X186516666Y-137950000D01*
X186483333Y-138016666D01*
X186450000Y-138050000D01*
X186383333Y-138083333D01*
X186250000Y-138116666D01*
X186083333Y-138116666D01*
X185950000Y-138083333D01*
X185883333Y-138050000D01*
X185850000Y-138016666D01*
X185816666Y-137950000D01*
%TO.C,C9*%
X128183333Y-81150000D02*
X128150000Y-81183333D01*
X128050000Y-81216666D01*
X127983333Y-81216666D01*
X127883333Y-81183333D01*
X127816666Y-81116666D01*
X127783333Y-81050000D01*
X127750000Y-80916666D01*
X127750000Y-80816666D01*
X127783333Y-80683333D01*
X127816666Y-80616666D01*
X127883333Y-80550000D01*
X127983333Y-80516666D01*
X128050000Y-80516666D01*
X128150000Y-80550000D01*
X128183333Y-80583333D01*
X128516666Y-81216666D02*
X128650000Y-81216666D01*
X128716666Y-81183333D01*
X128750000Y-81150000D01*
X128816666Y-81050000D01*
X128850000Y-80916666D01*
X128850000Y-80650000D01*
X128816666Y-80583333D01*
X128783333Y-80550000D01*
X128716666Y-80516666D01*
X128583333Y-80516666D01*
X128516666Y-80550000D01*
X128483333Y-80583333D01*
X128450000Y-80650000D01*
X128450000Y-80816666D01*
X128483333Y-80883333D01*
X128516666Y-80916666D01*
X128583333Y-80950000D01*
X128716666Y-80950000D01*
X128783333Y-80916666D01*
X128816666Y-80883333D01*
X128850000Y-80816666D01*
%TO.C,R1*%
X112405333Y-141286666D02*
X112172000Y-140953333D01*
X112005333Y-141286666D02*
X112005333Y-140586666D01*
X112272000Y-140586666D01*
X112338666Y-140620000D01*
X112372000Y-140653333D01*
X112405333Y-140720000D01*
X112405333Y-140820000D01*
X112372000Y-140886666D01*
X112338666Y-140920000D01*
X112272000Y-140953333D01*
X112005333Y-140953333D01*
X113072000Y-141286666D02*
X112672000Y-141286666D01*
X112872000Y-141286666D02*
X112872000Y-140586666D01*
X112805333Y-140686666D01*
X112738666Y-140753333D01*
X112672000Y-140786666D01*
%TO.C,C12*%
X115750000Y-134700000D02*
X115783333Y-134733333D01*
X115816666Y-134833333D01*
X115816666Y-134900000D01*
X115783333Y-135000000D01*
X115716666Y-135066666D01*
X115650000Y-135100000D01*
X115516666Y-135133333D01*
X115416666Y-135133333D01*
X115283333Y-135100000D01*
X115216666Y-135066666D01*
X115150000Y-135000000D01*
X115116666Y-134900000D01*
X115116666Y-134833333D01*
X115150000Y-134733333D01*
X115183333Y-134700000D01*
X115816666Y-134033333D02*
X115816666Y-134433333D01*
X115816666Y-134233333D02*
X115116666Y-134233333D01*
X115216666Y-134300000D01*
X115283333Y-134366666D01*
X115316666Y-134433333D01*
X115183333Y-133766666D02*
X115150000Y-133733333D01*
X115116666Y-133666666D01*
X115116666Y-133500000D01*
X115150000Y-133433333D01*
X115183333Y-133400000D01*
X115250000Y-133366666D01*
X115316666Y-133366666D01*
X115416666Y-133400000D01*
X115816666Y-133800000D01*
X115816666Y-133366666D01*
%TO.C,L2*%
X144183333Y-77341666D02*
X143850000Y-77341666D01*
X143850000Y-76641666D01*
X144383333Y-76708333D02*
X144416666Y-76675000D01*
X144483333Y-76641666D01*
X144650000Y-76641666D01*
X144716666Y-76675000D01*
X144750000Y-76708333D01*
X144783333Y-76775000D01*
X144783333Y-76841666D01*
X144750000Y-76941666D01*
X144350000Y-77341666D01*
X144783333Y-77341666D01*
%TO.C,U9*%
X176466666Y-82416666D02*
X176466666Y-82983333D01*
X176500000Y-83050000D01*
X176533333Y-83083333D01*
X176600000Y-83116666D01*
X176733333Y-83116666D01*
X176800000Y-83083333D01*
X176833333Y-83050000D01*
X176866666Y-82983333D01*
X176866666Y-82416666D01*
X177233333Y-83116666D02*
X177366666Y-83116666D01*
X177433333Y-83083333D01*
X177466666Y-83050000D01*
X177533333Y-82950000D01*
X177566666Y-82816666D01*
X177566666Y-82550000D01*
X177533333Y-82483333D01*
X177500000Y-82450000D01*
X177433333Y-82416666D01*
X177300000Y-82416666D01*
X177233333Y-82450000D01*
X177200000Y-82483333D01*
X177166666Y-82550000D01*
X177166666Y-82716666D01*
X177200000Y-82783333D01*
X177233333Y-82816666D01*
X177300000Y-82850000D01*
X177433333Y-82850000D01*
X177500000Y-82816666D01*
X177533333Y-82783333D01*
X177566666Y-82716666D01*
%TO.C,J7*%
X125466666Y-153216666D02*
X125466666Y-153716666D01*
X125433333Y-153816666D01*
X125366666Y-153883333D01*
X125266666Y-153916666D01*
X125200000Y-153916666D01*
X125733333Y-153216666D02*
X126200000Y-153216666D01*
X125900000Y-153916666D01*
%TO.C,TP2*%
X156516666Y-97416666D02*
X156916666Y-97416666D01*
X156716666Y-98116666D02*
X156716666Y-97416666D01*
X157150000Y-98116666D02*
X157150000Y-97416666D01*
X157416666Y-97416666D01*
X157483333Y-97450000D01*
X157516666Y-97483333D01*
X157550000Y-97550000D01*
X157550000Y-97650000D01*
X157516666Y-97716666D01*
X157483333Y-97750000D01*
X157416666Y-97783333D01*
X157150000Y-97783333D01*
X157816666Y-97483333D02*
X157850000Y-97450000D01*
X157916666Y-97416666D01*
X158083333Y-97416666D01*
X158150000Y-97450000D01*
X158183333Y-97483333D01*
X158216666Y-97550000D01*
X158216666Y-97616666D01*
X158183333Y-97716666D01*
X157783333Y-98116666D01*
X158216666Y-98116666D01*
%TO.C,J1*%
X154891666Y-103416666D02*
X154891666Y-103916666D01*
X154858333Y-104016666D01*
X154791666Y-104083333D01*
X154691666Y-104116666D01*
X154625000Y-104116666D01*
X155591666Y-104116666D02*
X155191666Y-104116666D01*
X155391666Y-104116666D02*
X155391666Y-103416666D01*
X155325000Y-103516666D01*
X155258333Y-103583333D01*
X155191666Y-103616666D01*
%TO.C,R22*%
X173416666Y-84350000D02*
X173083333Y-84583333D01*
X173416666Y-84750000D02*
X172716666Y-84750000D01*
X172716666Y-84483333D01*
X172750000Y-84416666D01*
X172783333Y-84383333D01*
X172850000Y-84350000D01*
X172950000Y-84350000D01*
X173016666Y-84383333D01*
X173050000Y-84416666D01*
X173083333Y-84483333D01*
X173083333Y-84750000D01*
X172783333Y-84083333D02*
X172750000Y-84050000D01*
X172716666Y-83983333D01*
X172716666Y-83816666D01*
X172750000Y-83750000D01*
X172783333Y-83716666D01*
X172850000Y-83683333D01*
X172916666Y-83683333D01*
X173016666Y-83716666D01*
X173416666Y-84116666D01*
X173416666Y-83683333D01*
X172783333Y-83416666D02*
X172750000Y-83383333D01*
X172716666Y-83316666D01*
X172716666Y-83150000D01*
X172750000Y-83083333D01*
X172783333Y-83050000D01*
X172850000Y-83016666D01*
X172916666Y-83016666D01*
X173016666Y-83050000D01*
X173416666Y-83450000D01*
X173416666Y-83016666D01*
%TO.C,C2*%
X117083333Y-118000000D02*
X117050000Y-118033333D01*
X116950000Y-118066666D01*
X116883333Y-118066666D01*
X116783333Y-118033333D01*
X116716666Y-117966666D01*
X116683333Y-117900000D01*
X116650000Y-117766666D01*
X116650000Y-117666666D01*
X116683333Y-117533333D01*
X116716666Y-117466666D01*
X116783333Y-117400000D01*
X116883333Y-117366666D01*
X116950000Y-117366666D01*
X117050000Y-117400000D01*
X117083333Y-117433333D01*
X117350000Y-117433333D02*
X117383333Y-117400000D01*
X117450000Y-117366666D01*
X117616666Y-117366666D01*
X117683333Y-117400000D01*
X117716666Y-117433333D01*
X117750000Y-117500000D01*
X117750000Y-117566666D01*
X117716666Y-117666666D01*
X117316666Y-118066666D01*
X117750000Y-118066666D01*
%TO.C,C22*%
X159550000Y-131850000D02*
X159516666Y-131883333D01*
X159416666Y-131916666D01*
X159350000Y-131916666D01*
X159250000Y-131883333D01*
X159183333Y-131816666D01*
X159150000Y-131750000D01*
X159116666Y-131616666D01*
X159116666Y-131516666D01*
X159150000Y-131383333D01*
X159183333Y-131316666D01*
X159250000Y-131250000D01*
X159350000Y-131216666D01*
X159416666Y-131216666D01*
X159516666Y-131250000D01*
X159550000Y-131283333D01*
X159816666Y-131283333D02*
X159850000Y-131250000D01*
X159916666Y-131216666D01*
X160083333Y-131216666D01*
X160150000Y-131250000D01*
X160183333Y-131283333D01*
X160216666Y-131350000D01*
X160216666Y-131416666D01*
X160183333Y-131516666D01*
X159783333Y-131916666D01*
X160216666Y-131916666D01*
X160483333Y-131283333D02*
X160516666Y-131250000D01*
X160583333Y-131216666D01*
X160750000Y-131216666D01*
X160816666Y-131250000D01*
X160850000Y-131283333D01*
X160883333Y-131350000D01*
X160883333Y-131416666D01*
X160850000Y-131516666D01*
X160450000Y-131916666D01*
X160883333Y-131916666D01*
%TO.C,C17*%
X121800000Y-134700000D02*
X121833333Y-134733333D01*
X121866666Y-134833333D01*
X121866666Y-134900000D01*
X121833333Y-135000000D01*
X121766666Y-135066666D01*
X121700000Y-135100000D01*
X121566666Y-135133333D01*
X121466666Y-135133333D01*
X121333333Y-135100000D01*
X121266666Y-135066666D01*
X121200000Y-135000000D01*
X121166666Y-134900000D01*
X121166666Y-134833333D01*
X121200000Y-134733333D01*
X121233333Y-134700000D01*
X121866666Y-134033333D02*
X121866666Y-134433333D01*
X121866666Y-134233333D02*
X121166666Y-134233333D01*
X121266666Y-134300000D01*
X121333333Y-134366666D01*
X121366666Y-134433333D01*
X121166666Y-133800000D02*
X121166666Y-133333333D01*
X121866666Y-133633333D01*
%TO.C,R15*%
X146316666Y-142850000D02*
X145983333Y-143083333D01*
X146316666Y-143250000D02*
X145616666Y-143250000D01*
X145616666Y-142983333D01*
X145650000Y-142916666D01*
X145683333Y-142883333D01*
X145750000Y-142850000D01*
X145850000Y-142850000D01*
X145916666Y-142883333D01*
X145950000Y-142916666D01*
X145983333Y-142983333D01*
X145983333Y-143250000D01*
X146316666Y-142183333D02*
X146316666Y-142583333D01*
X146316666Y-142383333D02*
X145616666Y-142383333D01*
X145716666Y-142450000D01*
X145783333Y-142516666D01*
X145816666Y-142583333D01*
X145616666Y-141550000D02*
X145616666Y-141883333D01*
X145950000Y-141916666D01*
X145916666Y-141883333D01*
X145883333Y-141816666D01*
X145883333Y-141650000D01*
X145916666Y-141583333D01*
X145950000Y-141550000D01*
X146016666Y-141516666D01*
X146183333Y-141516666D01*
X146250000Y-141550000D01*
X146283333Y-141583333D01*
X146316666Y-141650000D01*
X146316666Y-141816666D01*
X146283333Y-141883333D01*
X146250000Y-141916666D01*
%TO.C,C19*%
X118750000Y-134700000D02*
X118783333Y-134733333D01*
X118816666Y-134833333D01*
X118816666Y-134900000D01*
X118783333Y-135000000D01*
X118716666Y-135066666D01*
X118650000Y-135100000D01*
X118516666Y-135133333D01*
X118416666Y-135133333D01*
X118283333Y-135100000D01*
X118216666Y-135066666D01*
X118150000Y-135000000D01*
X118116666Y-134900000D01*
X118116666Y-134833333D01*
X118150000Y-134733333D01*
X118183333Y-134700000D01*
X118816666Y-134033333D02*
X118816666Y-134433333D01*
X118816666Y-134233333D02*
X118116666Y-134233333D01*
X118216666Y-134300000D01*
X118283333Y-134366666D01*
X118316666Y-134433333D01*
X118816666Y-133700000D02*
X118816666Y-133566666D01*
X118783333Y-133500000D01*
X118750000Y-133466666D01*
X118650000Y-133400000D01*
X118516666Y-133366666D01*
X118250000Y-133366666D01*
X118183333Y-133400000D01*
X118150000Y-133433333D01*
X118116666Y-133500000D01*
X118116666Y-133633333D01*
X118150000Y-133700000D01*
X118183333Y-133733333D01*
X118250000Y-133766666D01*
X118416666Y-133766666D01*
X118483333Y-133733333D01*
X118516666Y-133700000D01*
X118550000Y-133633333D01*
X118550000Y-133500000D01*
X118516666Y-133433333D01*
X118483333Y-133400000D01*
X118416666Y-133366666D01*
%TO.C,C11*%
X145850000Y-137050000D02*
X145816666Y-137083333D01*
X145716666Y-137116666D01*
X145650000Y-137116666D01*
X145550000Y-137083333D01*
X145483333Y-137016666D01*
X145450000Y-136950000D01*
X145416666Y-136816666D01*
X145416666Y-136716666D01*
X145450000Y-136583333D01*
X145483333Y-136516666D01*
X145550000Y-136450000D01*
X145650000Y-136416666D01*
X145716666Y-136416666D01*
X145816666Y-136450000D01*
X145850000Y-136483333D01*
X146516666Y-137116666D02*
X146116666Y-137116666D01*
X146316666Y-137116666D02*
X146316666Y-136416666D01*
X146250000Y-136516666D01*
X146183333Y-136583333D01*
X146116666Y-136616666D01*
X147183333Y-137116666D02*
X146783333Y-137116666D01*
X146983333Y-137116666D02*
X146983333Y-136416666D01*
X146916666Y-136516666D01*
X146850000Y-136583333D01*
X146783333Y-136616666D01*
%TO.C,R9*%
X117739333Y-136938666D02*
X117506000Y-136605333D01*
X117339333Y-136938666D02*
X117339333Y-136238666D01*
X117606000Y-136238666D01*
X117672666Y-136272000D01*
X117706000Y-136305333D01*
X117739333Y-136372000D01*
X117739333Y-136472000D01*
X117706000Y-136538666D01*
X117672666Y-136572000D01*
X117606000Y-136605333D01*
X117339333Y-136605333D01*
X118072666Y-136938666D02*
X118206000Y-136938666D01*
X118272666Y-136905333D01*
X118306000Y-136872000D01*
X118372666Y-136772000D01*
X118406000Y-136638666D01*
X118406000Y-136372000D01*
X118372666Y-136305333D01*
X118339333Y-136272000D01*
X118272666Y-136238666D01*
X118139333Y-136238666D01*
X118072666Y-136272000D01*
X118039333Y-136305333D01*
X118006000Y-136372000D01*
X118006000Y-136538666D01*
X118039333Y-136605333D01*
X118072666Y-136638666D01*
X118139333Y-136672000D01*
X118272666Y-136672000D01*
X118339333Y-136638666D01*
X118372666Y-136605333D01*
X118406000Y-136538666D01*
%TO.C,D7*%
X179783333Y-143816666D02*
X179783333Y-143116666D01*
X179950000Y-143116666D01*
X180050000Y-143150000D01*
X180116666Y-143216666D01*
X180150000Y-143283333D01*
X180183333Y-143416666D01*
X180183333Y-143516666D01*
X180150000Y-143650000D01*
X180116666Y-143716666D01*
X180050000Y-143783333D01*
X179950000Y-143816666D01*
X179783333Y-143816666D01*
X180416666Y-143116666D02*
X180883333Y-143116666D01*
X180583333Y-143816666D01*
%TO.C,C14*%
X114250000Y-134700000D02*
X114283333Y-134733333D01*
X114316666Y-134833333D01*
X114316666Y-134900000D01*
X114283333Y-135000000D01*
X114216666Y-135066666D01*
X114150000Y-135100000D01*
X114016666Y-135133333D01*
X113916666Y-135133333D01*
X113783333Y-135100000D01*
X113716666Y-135066666D01*
X113650000Y-135000000D01*
X113616666Y-134900000D01*
X113616666Y-134833333D01*
X113650000Y-134733333D01*
X113683333Y-134700000D01*
X114316666Y-134033333D02*
X114316666Y-134433333D01*
X114316666Y-134233333D02*
X113616666Y-134233333D01*
X113716666Y-134300000D01*
X113783333Y-134366666D01*
X113816666Y-134433333D01*
X113850000Y-133433333D02*
X114316666Y-133433333D01*
X113583333Y-133600000D02*
X114083333Y-133766666D01*
X114083333Y-133333333D01*
%TO.C,U3*%
X139466666Y-115316666D02*
X139466666Y-115883333D01*
X139500000Y-115950000D01*
X139533333Y-115983333D01*
X139600000Y-116016666D01*
X139733333Y-116016666D01*
X139800000Y-115983333D01*
X139833333Y-115950000D01*
X139866666Y-115883333D01*
X139866666Y-115316666D01*
X140133333Y-115316666D02*
X140566666Y-115316666D01*
X140333333Y-115583333D01*
X140433333Y-115583333D01*
X140500000Y-115616666D01*
X140533333Y-115650000D01*
X140566666Y-115716666D01*
X140566666Y-115883333D01*
X140533333Y-115950000D01*
X140500000Y-115983333D01*
X140433333Y-116016666D01*
X140233333Y-116016666D01*
X140166666Y-115983333D01*
X140133333Y-115950000D01*
%TO.C,Y1*%
X124366666Y-114983333D02*
X124366666Y-115316666D01*
X124133333Y-114616666D02*
X124366666Y-114983333D01*
X124600000Y-114616666D01*
X125200000Y-115316666D02*
X124800000Y-115316666D01*
X125000000Y-115316666D02*
X125000000Y-114616666D01*
X124933333Y-114716666D01*
X124866666Y-114783333D01*
X124800000Y-114816666D01*
%TO.C,TP1*%
X161616666Y-97316666D02*
X162016666Y-97316666D01*
X161816666Y-98016666D02*
X161816666Y-97316666D01*
X162250000Y-98016666D02*
X162250000Y-97316666D01*
X162516666Y-97316666D01*
X162583333Y-97350000D01*
X162616666Y-97383333D01*
X162650000Y-97450000D01*
X162650000Y-97550000D01*
X162616666Y-97616666D01*
X162583333Y-97650000D01*
X162516666Y-97683333D01*
X162250000Y-97683333D01*
X163316666Y-98016666D02*
X162916666Y-98016666D01*
X163116666Y-98016666D02*
X163116666Y-97316666D01*
X163050000Y-97416666D01*
X162983333Y-97483333D01*
X162916666Y-97516666D01*
%TO.C,R25*%
X165150000Y-86416666D02*
X164916666Y-86083333D01*
X164750000Y-86416666D02*
X164750000Y-85716666D01*
X165016666Y-85716666D01*
X165083333Y-85750000D01*
X165116666Y-85783333D01*
X165150000Y-85850000D01*
X165150000Y-85950000D01*
X165116666Y-86016666D01*
X165083333Y-86050000D01*
X165016666Y-86083333D01*
X164750000Y-86083333D01*
X165416666Y-85783333D02*
X165450000Y-85750000D01*
X165516666Y-85716666D01*
X165683333Y-85716666D01*
X165750000Y-85750000D01*
X165783333Y-85783333D01*
X165816666Y-85850000D01*
X165816666Y-85916666D01*
X165783333Y-86016666D01*
X165383333Y-86416666D01*
X165816666Y-86416666D01*
X166450000Y-85716666D02*
X166116666Y-85716666D01*
X166083333Y-86050000D01*
X166116666Y-86016666D01*
X166183333Y-85983333D01*
X166350000Y-85983333D01*
X166416666Y-86016666D01*
X166450000Y-86050000D01*
X166483333Y-86116666D01*
X166483333Y-86283333D01*
X166450000Y-86350000D01*
X166416666Y-86383333D01*
X166350000Y-86416666D01*
X166183333Y-86416666D01*
X166116666Y-86383333D01*
X166083333Y-86350000D01*
%TO.C,C26*%
X181450000Y-78850000D02*
X181416666Y-78883333D01*
X181316666Y-78916666D01*
X181250000Y-78916666D01*
X181150000Y-78883333D01*
X181083333Y-78816666D01*
X181050000Y-78750000D01*
X181016666Y-78616666D01*
X181016666Y-78516666D01*
X181050000Y-78383333D01*
X181083333Y-78316666D01*
X181150000Y-78250000D01*
X181250000Y-78216666D01*
X181316666Y-78216666D01*
X181416666Y-78250000D01*
X181450000Y-78283333D01*
X181716666Y-78283333D02*
X181750000Y-78250000D01*
X181816666Y-78216666D01*
X181983333Y-78216666D01*
X182050000Y-78250000D01*
X182083333Y-78283333D01*
X182116666Y-78350000D01*
X182116666Y-78416666D01*
X182083333Y-78516666D01*
X181683333Y-78916666D01*
X182116666Y-78916666D01*
X182716666Y-78216666D02*
X182583333Y-78216666D01*
X182516666Y-78250000D01*
X182483333Y-78283333D01*
X182416666Y-78383333D01*
X182383333Y-78516666D01*
X182383333Y-78783333D01*
X182416666Y-78850000D01*
X182450000Y-78883333D01*
X182516666Y-78916666D01*
X182650000Y-78916666D01*
X182716666Y-78883333D01*
X182750000Y-78850000D01*
X182783333Y-78783333D01*
X182783333Y-78616666D01*
X182750000Y-78550000D01*
X182716666Y-78516666D01*
X182650000Y-78483333D01*
X182516666Y-78483333D01*
X182450000Y-78516666D01*
X182416666Y-78550000D01*
X182383333Y-78616666D01*
%TO.C,C25*%
X180450000Y-85175000D02*
X180483333Y-85208333D01*
X180516666Y-85308333D01*
X180516666Y-85375000D01*
X180483333Y-85475000D01*
X180416666Y-85541666D01*
X180350000Y-85575000D01*
X180216666Y-85608333D01*
X180116666Y-85608333D01*
X179983333Y-85575000D01*
X179916666Y-85541666D01*
X179850000Y-85475000D01*
X179816666Y-85375000D01*
X179816666Y-85308333D01*
X179850000Y-85208333D01*
X179883333Y-85175000D01*
X179883333Y-84908333D02*
X179850000Y-84875000D01*
X179816666Y-84808333D01*
X179816666Y-84641666D01*
X179850000Y-84575000D01*
X179883333Y-84541666D01*
X179950000Y-84508333D01*
X180016666Y-84508333D01*
X180116666Y-84541666D01*
X180516666Y-84941666D01*
X180516666Y-84508333D01*
X179816666Y-83875000D02*
X179816666Y-84208333D01*
X180150000Y-84241666D01*
X180116666Y-84208333D01*
X180083333Y-84141666D01*
X180083333Y-83975000D01*
X180116666Y-83908333D01*
X180150000Y-83875000D01*
X180216666Y-83841666D01*
X180383333Y-83841666D01*
X180450000Y-83875000D01*
X180483333Y-83908333D01*
X180516666Y-83975000D01*
X180516666Y-84141666D01*
X180483333Y-84208333D01*
X180450000Y-84241666D01*
%TO.C,C20*%
X159550000Y-134350000D02*
X159516666Y-134383333D01*
X159416666Y-134416666D01*
X159350000Y-134416666D01*
X159250000Y-134383333D01*
X159183333Y-134316666D01*
X159150000Y-134250000D01*
X159116666Y-134116666D01*
X159116666Y-134016666D01*
X159150000Y-133883333D01*
X159183333Y-133816666D01*
X159250000Y-133750000D01*
X159350000Y-133716666D01*
X159416666Y-133716666D01*
X159516666Y-133750000D01*
X159550000Y-133783333D01*
X159816666Y-133783333D02*
X159850000Y-133750000D01*
X159916666Y-133716666D01*
X160083333Y-133716666D01*
X160150000Y-133750000D01*
X160183333Y-133783333D01*
X160216666Y-133850000D01*
X160216666Y-133916666D01*
X160183333Y-134016666D01*
X159783333Y-134416666D01*
X160216666Y-134416666D01*
X160650000Y-133716666D02*
X160716666Y-133716666D01*
X160783333Y-133750000D01*
X160816666Y-133783333D01*
X160850000Y-133850000D01*
X160883333Y-133983333D01*
X160883333Y-134150000D01*
X160850000Y-134283333D01*
X160816666Y-134350000D01*
X160783333Y-134383333D01*
X160716666Y-134416666D01*
X160650000Y-134416666D01*
X160583333Y-134383333D01*
X160550000Y-134350000D01*
X160516666Y-134283333D01*
X160483333Y-134150000D01*
X160483333Y-133983333D01*
X160516666Y-133850000D01*
X160550000Y-133783333D01*
X160583333Y-133750000D01*
X160650000Y-133716666D01*
%TO.C,R2*%
X137883333Y-144116666D02*
X137650000Y-143783333D01*
X137483333Y-144116666D02*
X137483333Y-143416666D01*
X137750000Y-143416666D01*
X137816666Y-143450000D01*
X137850000Y-143483333D01*
X137883333Y-143550000D01*
X137883333Y-143650000D01*
X137850000Y-143716666D01*
X137816666Y-143750000D01*
X137750000Y-143783333D01*
X137483333Y-143783333D01*
X138150000Y-143483333D02*
X138183333Y-143450000D01*
X138250000Y-143416666D01*
X138416666Y-143416666D01*
X138483333Y-143450000D01*
X138516666Y-143483333D01*
X138550000Y-143550000D01*
X138550000Y-143616666D01*
X138516666Y-143716666D01*
X138116666Y-144116666D01*
X138550000Y-144116666D01*
%TO.C,D6*%
X116383333Y-105066666D02*
X116383333Y-104366666D01*
X116550000Y-104366666D01*
X116650000Y-104400000D01*
X116716666Y-104466666D01*
X116750000Y-104533333D01*
X116783333Y-104666666D01*
X116783333Y-104766666D01*
X116750000Y-104900000D01*
X116716666Y-104966666D01*
X116650000Y-105033333D01*
X116550000Y-105066666D01*
X116383333Y-105066666D01*
X117383333Y-104366666D02*
X117250000Y-104366666D01*
X117183333Y-104400000D01*
X117150000Y-104433333D01*
X117083333Y-104533333D01*
X117050000Y-104666666D01*
X117050000Y-104933333D01*
X117083333Y-105000000D01*
X117116666Y-105033333D01*
X117183333Y-105066666D01*
X117316666Y-105066666D01*
X117383333Y-105033333D01*
X117416666Y-105000000D01*
X117450000Y-104933333D01*
X117450000Y-104766666D01*
X117416666Y-104700000D01*
X117383333Y-104666666D01*
X117316666Y-104633333D01*
X117183333Y-104633333D01*
X117116666Y-104666666D01*
X117083333Y-104700000D01*
X117050000Y-104766666D01*
%TO.C,D9*%
X165083333Y-90816666D02*
X165083333Y-90116666D01*
X165250000Y-90116666D01*
X165350000Y-90150000D01*
X165416666Y-90216666D01*
X165450000Y-90283333D01*
X165483333Y-90416666D01*
X165483333Y-90516666D01*
X165450000Y-90650000D01*
X165416666Y-90716666D01*
X165350000Y-90783333D01*
X165250000Y-90816666D01*
X165083333Y-90816666D01*
X165816666Y-90816666D02*
X165950000Y-90816666D01*
X166016666Y-90783333D01*
X166050000Y-90750000D01*
X166116666Y-90650000D01*
X166150000Y-90516666D01*
X166150000Y-90250000D01*
X166116666Y-90183333D01*
X166083333Y-90150000D01*
X166016666Y-90116666D01*
X165883333Y-90116666D01*
X165816666Y-90150000D01*
X165783333Y-90183333D01*
X165750000Y-90250000D01*
X165750000Y-90416666D01*
X165783333Y-90483333D01*
X165816666Y-90516666D01*
X165883333Y-90550000D01*
X166016666Y-90550000D01*
X166083333Y-90516666D01*
X166116666Y-90483333D01*
X166150000Y-90416666D01*
%TO.C,J9*%
X107216666Y-121533333D02*
X107716666Y-121533333D01*
X107816666Y-121566666D01*
X107883333Y-121633333D01*
X107916666Y-121733333D01*
X107916666Y-121800000D01*
X107916666Y-121166666D02*
X107916666Y-121033333D01*
X107883333Y-120966666D01*
X107850000Y-120933333D01*
X107750000Y-120866666D01*
X107616666Y-120833333D01*
X107350000Y-120833333D01*
X107283333Y-120866666D01*
X107250000Y-120900000D01*
X107216666Y-120966666D01*
X107216666Y-121100000D01*
X107250000Y-121166666D01*
X107283333Y-121200000D01*
X107350000Y-121233333D01*
X107516666Y-121233333D01*
X107583333Y-121200000D01*
X107616666Y-121166666D01*
X107650000Y-121100000D01*
X107650000Y-120966666D01*
X107616666Y-120900000D01*
X107583333Y-120866666D01*
X107516666Y-120833333D01*
%TO.C,R17*%
X150150000Y-136916666D02*
X149916666Y-136583333D01*
X149750000Y-136916666D02*
X149750000Y-136216666D01*
X150016666Y-136216666D01*
X150083333Y-136250000D01*
X150116666Y-136283333D01*
X150150000Y-136350000D01*
X150150000Y-136450000D01*
X150116666Y-136516666D01*
X150083333Y-136550000D01*
X150016666Y-136583333D01*
X149750000Y-136583333D01*
X150816666Y-136916666D02*
X150416666Y-136916666D01*
X150616666Y-136916666D02*
X150616666Y-136216666D01*
X150550000Y-136316666D01*
X150483333Y-136383333D01*
X150416666Y-136416666D01*
X151050000Y-136216666D02*
X151516666Y-136216666D01*
X151216666Y-136916666D01*
%TO.C,U1*%
X133166666Y-77241666D02*
X133166666Y-77808333D01*
X133200000Y-77875000D01*
X133233333Y-77908333D01*
X133300000Y-77941666D01*
X133433333Y-77941666D01*
X133500000Y-77908333D01*
X133533333Y-77875000D01*
X133566666Y-77808333D01*
X133566666Y-77241666D01*
X134266666Y-77941666D02*
X133866666Y-77941666D01*
X134066666Y-77941666D02*
X134066666Y-77241666D01*
X134000000Y-77341666D01*
X133933333Y-77408333D01*
X133866666Y-77441666D01*
%TO.C,BT1*%
X112814285Y-57028571D02*
X112957142Y-57076190D01*
X113004761Y-57123809D01*
X113052380Y-57219047D01*
X113052380Y-57361904D01*
X113004761Y-57457142D01*
X112957142Y-57504761D01*
X112861904Y-57552380D01*
X112480952Y-57552380D01*
X112480952Y-56552380D01*
X112814285Y-56552380D01*
X112909523Y-56600000D01*
X112957142Y-56647619D01*
X113004761Y-56742857D01*
X113004761Y-56838095D01*
X112957142Y-56933333D01*
X112909523Y-56980952D01*
X112814285Y-57028571D01*
X112480952Y-57028571D01*
X113338095Y-56552380D02*
X113909523Y-56552380D01*
X113623809Y-57552380D02*
X113623809Y-56552380D01*
X114766666Y-57552380D02*
X114195238Y-57552380D01*
X114480952Y-57552380D02*
X114480952Y-56552380D01*
X114385714Y-56695238D01*
X114290476Y-56790476D01*
X114195238Y-56838095D01*
%TO.C,C18*%
X120200000Y-134700000D02*
X120233333Y-134733333D01*
X120266666Y-134833333D01*
X120266666Y-134900000D01*
X120233333Y-135000000D01*
X120166666Y-135066666D01*
X120100000Y-135100000D01*
X119966666Y-135133333D01*
X119866666Y-135133333D01*
X119733333Y-135100000D01*
X119666666Y-135066666D01*
X119600000Y-135000000D01*
X119566666Y-134900000D01*
X119566666Y-134833333D01*
X119600000Y-134733333D01*
X119633333Y-134700000D01*
X120266666Y-134033333D02*
X120266666Y-134433333D01*
X120266666Y-134233333D02*
X119566666Y-134233333D01*
X119666666Y-134300000D01*
X119733333Y-134366666D01*
X119766666Y-134433333D01*
X119866666Y-133633333D02*
X119833333Y-133700000D01*
X119800000Y-133733333D01*
X119733333Y-133766666D01*
X119700000Y-133766666D01*
X119633333Y-133733333D01*
X119600000Y-133700000D01*
X119566666Y-133633333D01*
X119566666Y-133500000D01*
X119600000Y-133433333D01*
X119633333Y-133400000D01*
X119700000Y-133366666D01*
X119733333Y-133366666D01*
X119800000Y-133400000D01*
X119833333Y-133433333D01*
X119866666Y-133500000D01*
X119866666Y-133633333D01*
X119900000Y-133700000D01*
X119933333Y-133733333D01*
X120000000Y-133766666D01*
X120133333Y-133766666D01*
X120200000Y-133733333D01*
X120233333Y-133700000D01*
X120266666Y-133633333D01*
X120266666Y-133500000D01*
X120233333Y-133433333D01*
X120200000Y-133400000D01*
X120133333Y-133366666D01*
X120000000Y-133366666D01*
X119933333Y-133400000D01*
X119900000Y-133433333D01*
X119866666Y-133500000D01*
%TO.C,R14*%
X128200000Y-143666666D02*
X127966666Y-143333333D01*
X127800000Y-143666666D02*
X127800000Y-142966666D01*
X128066666Y-142966666D01*
X128133333Y-143000000D01*
X128166666Y-143033333D01*
X128200000Y-143100000D01*
X128200000Y-143200000D01*
X128166666Y-143266666D01*
X128133333Y-143300000D01*
X128066666Y-143333333D01*
X127800000Y-143333333D01*
X128866666Y-143666666D02*
X128466666Y-143666666D01*
X128666666Y-143666666D02*
X128666666Y-142966666D01*
X128600000Y-143066666D01*
X128533333Y-143133333D01*
X128466666Y-143166666D01*
X129466666Y-143200000D02*
X129466666Y-143666666D01*
X129300000Y-142933333D02*
X129133333Y-143433333D01*
X129566666Y-143433333D01*
%TO.C,U2*%
X132866666Y-122116666D02*
X132866666Y-122683333D01*
X132900000Y-122750000D01*
X132933333Y-122783333D01*
X133000000Y-122816666D01*
X133133333Y-122816666D01*
X133200000Y-122783333D01*
X133233333Y-122750000D01*
X133266666Y-122683333D01*
X133266666Y-122116666D01*
X133566666Y-122183333D02*
X133600000Y-122150000D01*
X133666666Y-122116666D01*
X133833333Y-122116666D01*
X133900000Y-122150000D01*
X133933333Y-122183333D01*
X133966666Y-122250000D01*
X133966666Y-122316666D01*
X133933333Y-122416666D01*
X133533333Y-122816666D01*
X133966666Y-122816666D01*
X139616666Y-134900000D02*
X139616666Y-135300000D01*
X139616666Y-135100000D02*
X138916666Y-135100000D01*
X139016666Y-135166666D01*
X139083333Y-135233333D01*
X139116666Y-135300000D01*
X139616666Y-124433333D02*
X139616666Y-124833333D01*
X139616666Y-124633333D02*
X138916666Y-124633333D01*
X139016666Y-124700000D01*
X139083333Y-124766666D01*
X139116666Y-124833333D01*
X138916666Y-123833333D02*
X138916666Y-123966666D01*
X138950000Y-124033333D01*
X138983333Y-124066666D01*
X139083333Y-124133333D01*
X139216666Y-124166666D01*
X139483333Y-124166666D01*
X139550000Y-124133333D01*
X139583333Y-124100000D01*
X139616666Y-124033333D01*
X139616666Y-123900000D01*
X139583333Y-123833333D01*
X139550000Y-123800000D01*
X139483333Y-123766666D01*
X139316666Y-123766666D01*
X139250000Y-123800000D01*
X139216666Y-123833333D01*
X139183333Y-123900000D01*
X139183333Y-124033333D01*
X139216666Y-124100000D01*
X139250000Y-124133333D01*
X139316666Y-124166666D01*
X127150000Y-136100000D02*
X127616666Y-136100000D01*
X126883333Y-136266666D02*
X127383333Y-136433333D01*
X127383333Y-136000000D01*
X127216666Y-135633333D02*
X127183333Y-135700000D01*
X127150000Y-135733333D01*
X127083333Y-135766666D01*
X127050000Y-135766666D01*
X126983333Y-135733333D01*
X126950000Y-135700000D01*
X126916666Y-135633333D01*
X126916666Y-135500000D01*
X126950000Y-135433333D01*
X126983333Y-135400000D01*
X127050000Y-135366666D01*
X127083333Y-135366666D01*
X127150000Y-135400000D01*
X127183333Y-135433333D01*
X127216666Y-135500000D01*
X127216666Y-135633333D01*
X127250000Y-135700000D01*
X127283333Y-135733333D01*
X127350000Y-135766666D01*
X127483333Y-135766666D01*
X127550000Y-135733333D01*
X127583333Y-135700000D01*
X127616666Y-135633333D01*
X127616666Y-135500000D01*
X127583333Y-135433333D01*
X127550000Y-135400000D01*
X127483333Y-135366666D01*
X127350000Y-135366666D01*
X127283333Y-135400000D01*
X127250000Y-135433333D01*
X127216666Y-135500000D01*
X127016666Y-124866666D02*
X127016666Y-124433333D01*
X127283333Y-124666666D01*
X127283333Y-124566666D01*
X127316666Y-124500000D01*
X127350000Y-124466666D01*
X127416666Y-124433333D01*
X127583333Y-124433333D01*
X127650000Y-124466666D01*
X127683333Y-124500000D01*
X127716666Y-124566666D01*
X127716666Y-124766666D01*
X127683333Y-124833333D01*
X127650000Y-124866666D01*
X127083333Y-124166666D02*
X127050000Y-124133333D01*
X127016666Y-124066666D01*
X127016666Y-123900000D01*
X127050000Y-123833333D01*
X127083333Y-123800000D01*
X127150000Y-123766666D01*
X127216666Y-123766666D01*
X127316666Y-123800000D01*
X127716666Y-124200000D01*
X127716666Y-123766666D01*
%TO.C,C1*%
X152783333Y-139750000D02*
X152750000Y-139783333D01*
X152650000Y-139816666D01*
X152583333Y-139816666D01*
X152483333Y-139783333D01*
X152416666Y-139716666D01*
X152383333Y-139650000D01*
X152350000Y-139516666D01*
X152350000Y-139416666D01*
X152383333Y-139283333D01*
X152416666Y-139216666D01*
X152483333Y-139150000D01*
X152583333Y-139116666D01*
X152650000Y-139116666D01*
X152750000Y-139150000D01*
X152783333Y-139183333D01*
X153450000Y-139816666D02*
X153050000Y-139816666D01*
X153250000Y-139816666D02*
X153250000Y-139116666D01*
X153183333Y-139216666D01*
X153116666Y-139283333D01*
X153050000Y-139316666D01*
%TO.C,R19*%
X132650000Y-140316666D02*
X132416666Y-139983333D01*
X132250000Y-140316666D02*
X132250000Y-139616666D01*
X132516666Y-139616666D01*
X132583333Y-139650000D01*
X132616666Y-139683333D01*
X132650000Y-139750000D01*
X132650000Y-139850000D01*
X132616666Y-139916666D01*
X132583333Y-139950000D01*
X132516666Y-139983333D01*
X132250000Y-139983333D01*
X133316666Y-140316666D02*
X132916666Y-140316666D01*
X133116666Y-140316666D02*
X133116666Y-139616666D01*
X133050000Y-139716666D01*
X132983333Y-139783333D01*
X132916666Y-139816666D01*
X133650000Y-140316666D02*
X133783333Y-140316666D01*
X133850000Y-140283333D01*
X133883333Y-140250000D01*
X133950000Y-140150000D01*
X133983333Y-140016666D01*
X133983333Y-139750000D01*
X133950000Y-139683333D01*
X133916666Y-139650000D01*
X133850000Y-139616666D01*
X133716666Y-139616666D01*
X133650000Y-139650000D01*
X133616666Y-139683333D01*
X133583333Y-139750000D01*
X133583333Y-139916666D01*
X133616666Y-139983333D01*
X133650000Y-140016666D01*
X133716666Y-140050000D01*
X133850000Y-140050000D01*
X133916666Y-140016666D01*
X133950000Y-139983333D01*
X133983333Y-139916666D01*
%TO.C,JP1*%
X109316666Y-110883333D02*
X109816666Y-110883333D01*
X109916666Y-110916666D01*
X109983333Y-110983333D01*
X110016666Y-111083333D01*
X110016666Y-111150000D01*
X110016666Y-110550000D02*
X109316666Y-110550000D01*
X109316666Y-110283333D01*
X109350000Y-110216666D01*
X109383333Y-110183333D01*
X109450000Y-110150000D01*
X109550000Y-110150000D01*
X109616666Y-110183333D01*
X109650000Y-110216666D01*
X109683333Y-110283333D01*
X109683333Y-110550000D01*
X110016666Y-109483333D02*
X110016666Y-109883333D01*
X110016666Y-109683333D02*
X109316666Y-109683333D01*
X109416666Y-109750000D01*
X109483333Y-109816666D01*
X109516666Y-109883333D01*
%TO.C,C4*%
X140633333Y-98750000D02*
X140600000Y-98783333D01*
X140500000Y-98816666D01*
X140433333Y-98816666D01*
X140333333Y-98783333D01*
X140266666Y-98716666D01*
X140233333Y-98650000D01*
X140200000Y-98516666D01*
X140200000Y-98416666D01*
X140233333Y-98283333D01*
X140266666Y-98216666D01*
X140333333Y-98150000D01*
X140433333Y-98116666D01*
X140500000Y-98116666D01*
X140600000Y-98150000D01*
X140633333Y-98183333D01*
X141233333Y-98350000D02*
X141233333Y-98816666D01*
X141066666Y-98083333D02*
X140900000Y-98583333D01*
X141333333Y-98583333D01*
%TO.C,U4*%
X121966666Y-104316666D02*
X121966666Y-104883333D01*
X122000000Y-104950000D01*
X122033333Y-104983333D01*
X122100000Y-105016666D01*
X122233333Y-105016666D01*
X122300000Y-104983333D01*
X122333333Y-104950000D01*
X122366666Y-104883333D01*
X122366666Y-104316666D01*
X123000000Y-104550000D02*
X123000000Y-105016666D01*
X122833333Y-104283333D02*
X122666666Y-104783333D01*
X123100000Y-104783333D01*
%TO.C,J5*%
X185162155Y-144212155D02*
X185162155Y-144712155D01*
X185128822Y-144812155D01*
X185062155Y-144878822D01*
X184962155Y-144912155D01*
X184895489Y-144912155D01*
X185828822Y-144212155D02*
X185495489Y-144212155D01*
X185462155Y-144545489D01*
X185495489Y-144512155D01*
X185562155Y-144478822D01*
X185728822Y-144478822D01*
X185795489Y-144512155D01*
X185828822Y-144545489D01*
X185862155Y-144612155D01*
X185862155Y-144778822D01*
X185828822Y-144845489D01*
X185795489Y-144878822D01*
X185728822Y-144912155D01*
X185562155Y-144912155D01*
X185495489Y-144878822D01*
X185462155Y-144845489D01*
%TO.C,C24*%
X152050000Y-78075000D02*
X152016666Y-78108333D01*
X151916666Y-78141666D01*
X151850000Y-78141666D01*
X151750000Y-78108333D01*
X151683333Y-78041666D01*
X151650000Y-77975000D01*
X151616666Y-77841666D01*
X151616666Y-77741666D01*
X151650000Y-77608333D01*
X151683333Y-77541666D01*
X151750000Y-77475000D01*
X151850000Y-77441666D01*
X151916666Y-77441666D01*
X152016666Y-77475000D01*
X152050000Y-77508333D01*
X152316666Y-77508333D02*
X152350000Y-77475000D01*
X152416666Y-77441666D01*
X152583333Y-77441666D01*
X152650000Y-77475000D01*
X152683333Y-77508333D01*
X152716666Y-77575000D01*
X152716666Y-77641666D01*
X152683333Y-77741666D01*
X152283333Y-78141666D01*
X152716666Y-78141666D01*
X153316666Y-77675000D02*
X153316666Y-78141666D01*
X153150000Y-77408333D02*
X152983333Y-77908333D01*
X153416666Y-77908333D01*
%TO.C,C3*%
X124483333Y-118000000D02*
X124450000Y-118033333D01*
X124350000Y-118066666D01*
X124283333Y-118066666D01*
X124183333Y-118033333D01*
X124116666Y-117966666D01*
X124083333Y-117900000D01*
X124050000Y-117766666D01*
X124050000Y-117666666D01*
X124083333Y-117533333D01*
X124116666Y-117466666D01*
X124183333Y-117400000D01*
X124283333Y-117366666D01*
X124350000Y-117366666D01*
X124450000Y-117400000D01*
X124483333Y-117433333D01*
X124716666Y-117366666D02*
X125150000Y-117366666D01*
X124916666Y-117633333D01*
X125016666Y-117633333D01*
X125083333Y-117666666D01*
X125116666Y-117700000D01*
X125150000Y-117766666D01*
X125150000Y-117933333D01*
X125116666Y-118000000D01*
X125083333Y-118033333D01*
X125016666Y-118066666D01*
X124816666Y-118066666D01*
X124750000Y-118033333D01*
X124716666Y-118000000D01*
%TO.C,C27*%
X139900000Y-101750000D02*
X139866666Y-101783333D01*
X139766666Y-101816666D01*
X139700000Y-101816666D01*
X139600000Y-101783333D01*
X139533333Y-101716666D01*
X139500000Y-101650000D01*
X139466666Y-101516666D01*
X139466666Y-101416666D01*
X139500000Y-101283333D01*
X139533333Y-101216666D01*
X139600000Y-101150000D01*
X139700000Y-101116666D01*
X139766666Y-101116666D01*
X139866666Y-101150000D01*
X139900000Y-101183333D01*
X140166666Y-101183333D02*
X140200000Y-101150000D01*
X140266666Y-101116666D01*
X140433333Y-101116666D01*
X140500000Y-101150000D01*
X140533333Y-101183333D01*
X140566666Y-101250000D01*
X140566666Y-101316666D01*
X140533333Y-101416666D01*
X140133333Y-101816666D01*
X140566666Y-101816666D01*
X140800000Y-101116666D02*
X141266666Y-101116666D01*
X140966666Y-101816666D01*
%TO.C,C16*%
X117300000Y-134700000D02*
X117333333Y-134733333D01*
X117366666Y-134833333D01*
X117366666Y-134900000D01*
X117333333Y-135000000D01*
X117266666Y-135066666D01*
X117200000Y-135100000D01*
X117066666Y-135133333D01*
X116966666Y-135133333D01*
X116833333Y-135100000D01*
X116766666Y-135066666D01*
X116700000Y-135000000D01*
X116666666Y-134900000D01*
X116666666Y-134833333D01*
X116700000Y-134733333D01*
X116733333Y-134700000D01*
X117366666Y-134033333D02*
X117366666Y-134433333D01*
X117366666Y-134233333D02*
X116666666Y-134233333D01*
X116766666Y-134300000D01*
X116833333Y-134366666D01*
X116866666Y-134433333D01*
X116666666Y-133433333D02*
X116666666Y-133566666D01*
X116700000Y-133633333D01*
X116733333Y-133666666D01*
X116833333Y-133733333D01*
X116966666Y-133766666D01*
X117233333Y-133766666D01*
X117300000Y-133733333D01*
X117333333Y-133700000D01*
X117366666Y-133633333D01*
X117366666Y-133500000D01*
X117333333Y-133433333D01*
X117300000Y-133400000D01*
X117233333Y-133366666D01*
X117066666Y-133366666D01*
X117000000Y-133400000D01*
X116966666Y-133433333D01*
X116933333Y-133500000D01*
X116933333Y-133633333D01*
X116966666Y-133700000D01*
X117000000Y-133733333D01*
X117066666Y-133766666D01*
%TO.C,R18*%
X132650000Y-138916666D02*
X132416666Y-138583333D01*
X132250000Y-138916666D02*
X132250000Y-138216666D01*
X132516666Y-138216666D01*
X132583333Y-138250000D01*
X132616666Y-138283333D01*
X132650000Y-138350000D01*
X132650000Y-138450000D01*
X132616666Y-138516666D01*
X132583333Y-138550000D01*
X132516666Y-138583333D01*
X132250000Y-138583333D01*
X133316666Y-138916666D02*
X132916666Y-138916666D01*
X133116666Y-138916666D02*
X133116666Y-138216666D01*
X133050000Y-138316666D01*
X132983333Y-138383333D01*
X132916666Y-138416666D01*
X133716666Y-138516666D02*
X133650000Y-138483333D01*
X133616666Y-138450000D01*
X133583333Y-138383333D01*
X133583333Y-138350000D01*
X133616666Y-138283333D01*
X133650000Y-138250000D01*
X133716666Y-138216666D01*
X133850000Y-138216666D01*
X133916666Y-138250000D01*
X133950000Y-138283333D01*
X133983333Y-138350000D01*
X133983333Y-138383333D01*
X133950000Y-138450000D01*
X133916666Y-138483333D01*
X133850000Y-138516666D01*
X133716666Y-138516666D01*
X133650000Y-138550000D01*
X133616666Y-138583333D01*
X133583333Y-138650000D01*
X133583333Y-138783333D01*
X133616666Y-138850000D01*
X133650000Y-138883333D01*
X133716666Y-138916666D01*
X133850000Y-138916666D01*
X133916666Y-138883333D01*
X133950000Y-138850000D01*
X133983333Y-138783333D01*
X133983333Y-138650000D01*
X133950000Y-138583333D01*
X133916666Y-138550000D01*
X133850000Y-138516666D01*
%TO.C,C13*%
X113750000Y-127750000D02*
X113716666Y-127783333D01*
X113616666Y-127816666D01*
X113550000Y-127816666D01*
X113450000Y-127783333D01*
X113383333Y-127716666D01*
X113350000Y-127650000D01*
X113316666Y-127516666D01*
X113316666Y-127416666D01*
X113350000Y-127283333D01*
X113383333Y-127216666D01*
X113450000Y-127150000D01*
X113550000Y-127116666D01*
X113616666Y-127116666D01*
X113716666Y-127150000D01*
X113750000Y-127183333D01*
X114416666Y-127816666D02*
X114016666Y-127816666D01*
X114216666Y-127816666D02*
X114216666Y-127116666D01*
X114150000Y-127216666D01*
X114083333Y-127283333D01*
X114016666Y-127316666D01*
X114650000Y-127116666D02*
X115083333Y-127116666D01*
X114850000Y-127383333D01*
X114950000Y-127383333D01*
X115016666Y-127416666D01*
X115050000Y-127450000D01*
X115083333Y-127516666D01*
X115083333Y-127683333D01*
X115050000Y-127750000D01*
X115016666Y-127783333D01*
X114950000Y-127816666D01*
X114750000Y-127816666D01*
X114683333Y-127783333D01*
X114650000Y-127750000D01*
%TO.C,JP3*%
X114541666Y-121533333D02*
X115041666Y-121533333D01*
X115141666Y-121566666D01*
X115208333Y-121633333D01*
X115241666Y-121733333D01*
X115241666Y-121800000D01*
X115241666Y-121200000D02*
X114541666Y-121200000D01*
X114541666Y-120933333D01*
X114575000Y-120866666D01*
X114608333Y-120833333D01*
X114675000Y-120800000D01*
X114775000Y-120800000D01*
X114841666Y-120833333D01*
X114875000Y-120866666D01*
X114908333Y-120933333D01*
X114908333Y-121200000D01*
X114541666Y-120566666D02*
X114541666Y-120133333D01*
X114808333Y-120366666D01*
X114808333Y-120266666D01*
X114841666Y-120200000D01*
X114875000Y-120166666D01*
X114941666Y-120133333D01*
X115108333Y-120133333D01*
X115175000Y-120166666D01*
X115208333Y-120200000D01*
X115241666Y-120266666D01*
X115241666Y-120466666D01*
X115208333Y-120533333D01*
X115175000Y-120566666D01*
%TO.C,J12*%
X107716666Y-109366666D02*
X108216666Y-109366666D01*
X108316666Y-109400000D01*
X108383333Y-109466666D01*
X108416666Y-109566666D01*
X108416666Y-109633333D01*
X108416666Y-108666666D02*
X108416666Y-109066666D01*
X108416666Y-108866666D02*
X107716666Y-108866666D01*
X107816666Y-108933333D01*
X107883333Y-109000000D01*
X107916666Y-109066666D01*
X107783333Y-108400000D02*
X107750000Y-108366666D01*
X107716666Y-108300000D01*
X107716666Y-108133333D01*
X107750000Y-108066666D01*
X107783333Y-108033333D01*
X107850000Y-108000000D01*
X107916666Y-108000000D01*
X108016666Y-108033333D01*
X108416666Y-108433333D01*
X108416666Y-108000000D01*
%TO.C,R30*%
X122550000Y-112016666D02*
X122316666Y-111683333D01*
X122150000Y-112016666D02*
X122150000Y-111316666D01*
X122416666Y-111316666D01*
X122483333Y-111350000D01*
X122516666Y-111383333D01*
X122550000Y-111450000D01*
X122550000Y-111550000D01*
X122516666Y-111616666D01*
X122483333Y-111650000D01*
X122416666Y-111683333D01*
X122150000Y-111683333D01*
X122783333Y-111316666D02*
X123216666Y-111316666D01*
X122983333Y-111583333D01*
X123083333Y-111583333D01*
X123150000Y-111616666D01*
X123183333Y-111650000D01*
X123216666Y-111716666D01*
X123216666Y-111883333D01*
X123183333Y-111950000D01*
X123150000Y-111983333D01*
X123083333Y-112016666D01*
X122883333Y-112016666D01*
X122816666Y-111983333D01*
X122783333Y-111950000D01*
X123650000Y-111316666D02*
X123716666Y-111316666D01*
X123783333Y-111350000D01*
X123816666Y-111383333D01*
X123850000Y-111450000D01*
X123883333Y-111583333D01*
X123883333Y-111750000D01*
X123850000Y-111883333D01*
X123816666Y-111950000D01*
X123783333Y-111983333D01*
X123716666Y-112016666D01*
X123650000Y-112016666D01*
X123583333Y-111983333D01*
X123550000Y-111950000D01*
X123516666Y-111883333D01*
X123483333Y-111750000D01*
X123483333Y-111583333D01*
X123516666Y-111450000D01*
X123550000Y-111383333D01*
X123583333Y-111350000D01*
X123650000Y-111316666D01*
%TO.C,R27*%
X148600000Y-100616666D02*
X148366666Y-100283333D01*
X148200000Y-100616666D02*
X148200000Y-99916666D01*
X148466666Y-99916666D01*
X148533333Y-99950000D01*
X148566666Y-99983333D01*
X148600000Y-100050000D01*
X148600000Y-100150000D01*
X148566666Y-100216666D01*
X148533333Y-100250000D01*
X148466666Y-100283333D01*
X148200000Y-100283333D01*
X148866666Y-99983333D02*
X148900000Y-99950000D01*
X148966666Y-99916666D01*
X149133333Y-99916666D01*
X149200000Y-99950000D01*
X149233333Y-99983333D01*
X149266666Y-100050000D01*
X149266666Y-100116666D01*
X149233333Y-100216666D01*
X148833333Y-100616666D01*
X149266666Y-100616666D01*
X149500000Y-99916666D02*
X149966666Y-99916666D01*
X149666666Y-100616666D01*
%TO.C,SW3*%
X112166666Y-153883333D02*
X112266666Y-153916666D01*
X112433333Y-153916666D01*
X112500000Y-153883333D01*
X112533333Y-153850000D01*
X112566666Y-153783333D01*
X112566666Y-153716666D01*
X112533333Y-153650000D01*
X112500000Y-153616666D01*
X112433333Y-153583333D01*
X112300000Y-153550000D01*
X112233333Y-153516666D01*
X112200000Y-153483333D01*
X112166666Y-153416666D01*
X112166666Y-153350000D01*
X112200000Y-153283333D01*
X112233333Y-153250000D01*
X112300000Y-153216666D01*
X112466666Y-153216666D01*
X112566666Y-153250000D01*
X112800000Y-153216666D02*
X112966666Y-153916666D01*
X113100000Y-153416666D01*
X113233333Y-153916666D01*
X113400000Y-153216666D01*
X113600000Y-153216666D02*
X114033333Y-153216666D01*
X113800000Y-153483333D01*
X113900000Y-153483333D01*
X113966666Y-153516666D01*
X114000000Y-153550000D01*
X114033333Y-153616666D01*
X114033333Y-153783333D01*
X114000000Y-153850000D01*
X113966666Y-153883333D01*
X113900000Y-153916666D01*
X113700000Y-153916666D01*
X113633333Y-153883333D01*
X113600000Y-153850000D01*
%TO.C,C15*%
X113750000Y-129250000D02*
X113716666Y-129283333D01*
X113616666Y-129316666D01*
X113550000Y-129316666D01*
X113450000Y-129283333D01*
X113383333Y-129216666D01*
X113350000Y-129150000D01*
X113316666Y-129016666D01*
X113316666Y-128916666D01*
X113350000Y-128783333D01*
X113383333Y-128716666D01*
X113450000Y-128650000D01*
X113550000Y-128616666D01*
X113616666Y-128616666D01*
X113716666Y-128650000D01*
X113750000Y-128683333D01*
X114416666Y-129316666D02*
X114016666Y-129316666D01*
X114216666Y-129316666D02*
X114216666Y-128616666D01*
X114150000Y-128716666D01*
X114083333Y-128783333D01*
X114016666Y-128816666D01*
X115050000Y-128616666D02*
X114716666Y-128616666D01*
X114683333Y-128950000D01*
X114716666Y-128916666D01*
X114783333Y-128883333D01*
X114950000Y-128883333D01*
X115016666Y-128916666D01*
X115050000Y-128950000D01*
X115083333Y-129016666D01*
X115083333Y-129183333D01*
X115050000Y-129250000D01*
X115016666Y-129283333D01*
X114950000Y-129316666D01*
X114783333Y-129316666D01*
X114716666Y-129283333D01*
X114683333Y-129250000D01*
%TO.C,U10*%
X169833333Y-84916666D02*
X169833333Y-85483333D01*
X169866666Y-85550000D01*
X169900000Y-85583333D01*
X169966666Y-85616666D01*
X170100000Y-85616666D01*
X170166666Y-85583333D01*
X170200000Y-85550000D01*
X170233333Y-85483333D01*
X170233333Y-84916666D01*
X170933333Y-85616666D02*
X170533333Y-85616666D01*
X170733333Y-85616666D02*
X170733333Y-84916666D01*
X170666666Y-85016666D01*
X170600000Y-85083333D01*
X170533333Y-85116666D01*
X171366666Y-84916666D02*
X171433333Y-84916666D01*
X171500000Y-84950000D01*
X171533333Y-84983333D01*
X171566666Y-85050000D01*
X171600000Y-85183333D01*
X171600000Y-85350000D01*
X171566666Y-85483333D01*
X171533333Y-85550000D01*
X171500000Y-85583333D01*
X171433333Y-85616666D01*
X171366666Y-85616666D01*
X171300000Y-85583333D01*
X171266666Y-85550000D01*
X171233333Y-85483333D01*
X171200000Y-85350000D01*
X171200000Y-85183333D01*
X171233333Y-85050000D01*
X171266666Y-84983333D01*
X171300000Y-84950000D01*
X171366666Y-84916666D01*
%TO.C,C23*%
X159650000Y-80675000D02*
X159616666Y-80708333D01*
X159516666Y-80741666D01*
X159450000Y-80741666D01*
X159350000Y-80708333D01*
X159283333Y-80641666D01*
X159250000Y-80575000D01*
X159216666Y-80441666D01*
X159216666Y-80341666D01*
X159250000Y-80208333D01*
X159283333Y-80141666D01*
X159350000Y-80075000D01*
X159450000Y-80041666D01*
X159516666Y-80041666D01*
X159616666Y-80075000D01*
X159650000Y-80108333D01*
X159916666Y-80108333D02*
X159950000Y-80075000D01*
X160016666Y-80041666D01*
X160183333Y-80041666D01*
X160250000Y-80075000D01*
X160283333Y-80108333D01*
X160316666Y-80175000D01*
X160316666Y-80241666D01*
X160283333Y-80341666D01*
X159883333Y-80741666D01*
X160316666Y-80741666D01*
X160550000Y-80041666D02*
X160983333Y-80041666D01*
X160750000Y-80308333D01*
X160850000Y-80308333D01*
X160916666Y-80341666D01*
X160950000Y-80375000D01*
X160983333Y-80441666D01*
X160983333Y-80608333D01*
X160950000Y-80675000D01*
X160916666Y-80708333D01*
X160850000Y-80741666D01*
X160650000Y-80741666D01*
X160583333Y-80708333D01*
X160550000Y-80675000D01*
%TO.C,D8*%
X153233333Y-136891666D02*
X153233333Y-136191666D01*
X153400000Y-136191666D01*
X153500000Y-136225000D01*
X153566666Y-136291666D01*
X153600000Y-136358333D01*
X153633333Y-136491666D01*
X153633333Y-136591666D01*
X153600000Y-136725000D01*
X153566666Y-136791666D01*
X153500000Y-136858333D01*
X153400000Y-136891666D01*
X153233333Y-136891666D01*
X154033333Y-136491666D02*
X153966666Y-136458333D01*
X153933333Y-136425000D01*
X153900000Y-136358333D01*
X153900000Y-136325000D01*
X153933333Y-136258333D01*
X153966666Y-136225000D01*
X154033333Y-136191666D01*
X154166666Y-136191666D01*
X154233333Y-136225000D01*
X154266666Y-136258333D01*
X154300000Y-136325000D01*
X154300000Y-136358333D01*
X154266666Y-136425000D01*
X154233333Y-136458333D01*
X154166666Y-136491666D01*
X154033333Y-136491666D01*
X153966666Y-136525000D01*
X153933333Y-136558333D01*
X153900000Y-136625000D01*
X153900000Y-136758333D01*
X153933333Y-136825000D01*
X153966666Y-136858333D01*
X154033333Y-136891666D01*
X154166666Y-136891666D01*
X154233333Y-136858333D01*
X154266666Y-136825000D01*
X154300000Y-136758333D01*
X154300000Y-136625000D01*
X154266666Y-136558333D01*
X154233333Y-136525000D01*
X154166666Y-136491666D01*
%TO.C,U8*%
X169566666Y-77741666D02*
X169566666Y-78308333D01*
X169600000Y-78375000D01*
X169633333Y-78408333D01*
X169700000Y-78441666D01*
X169833333Y-78441666D01*
X169900000Y-78408333D01*
X169933333Y-78375000D01*
X169966666Y-78308333D01*
X169966666Y-77741666D01*
X170400000Y-78041666D02*
X170333333Y-78008333D01*
X170300000Y-77975000D01*
X170266666Y-77908333D01*
X170266666Y-77875000D01*
X170300000Y-77808333D01*
X170333333Y-77775000D01*
X170400000Y-77741666D01*
X170533333Y-77741666D01*
X170600000Y-77775000D01*
X170633333Y-77808333D01*
X170666666Y-77875000D01*
X170666666Y-77908333D01*
X170633333Y-77975000D01*
X170600000Y-78008333D01*
X170533333Y-78041666D01*
X170400000Y-78041666D01*
X170333333Y-78075000D01*
X170300000Y-78108333D01*
X170266666Y-78175000D01*
X170266666Y-78308333D01*
X170300000Y-78375000D01*
X170333333Y-78408333D01*
X170400000Y-78441666D01*
X170533333Y-78441666D01*
X170600000Y-78408333D01*
X170633333Y-78375000D01*
X170666666Y-78308333D01*
X170666666Y-78175000D01*
X170633333Y-78108333D01*
X170600000Y-78075000D01*
X170533333Y-78041666D01*
%TO.C,R12*%
X157750000Y-130216666D02*
X157516666Y-129883333D01*
X157350000Y-130216666D02*
X157350000Y-129516666D01*
X157616666Y-129516666D01*
X157683333Y-129550000D01*
X157716666Y-129583333D01*
X157750000Y-129650000D01*
X157750000Y-129750000D01*
X157716666Y-129816666D01*
X157683333Y-129850000D01*
X157616666Y-129883333D01*
X157350000Y-129883333D01*
X158416666Y-130216666D02*
X158016666Y-130216666D01*
X158216666Y-130216666D02*
X158216666Y-129516666D01*
X158150000Y-129616666D01*
X158083333Y-129683333D01*
X158016666Y-129716666D01*
X158683333Y-129583333D02*
X158716666Y-129550000D01*
X158783333Y-129516666D01*
X158950000Y-129516666D01*
X159016666Y-129550000D01*
X159050000Y-129583333D01*
X159083333Y-129650000D01*
X159083333Y-129716666D01*
X159050000Y-129816666D01*
X158650000Y-130216666D01*
X159083333Y-130216666D01*
%TO.C,R20*%
X139850000Y-137716666D02*
X139616666Y-137383333D01*
X139450000Y-137716666D02*
X139450000Y-137016666D01*
X139716666Y-137016666D01*
X139783333Y-137050000D01*
X139816666Y-137083333D01*
X139850000Y-137150000D01*
X139850000Y-137250000D01*
X139816666Y-137316666D01*
X139783333Y-137350000D01*
X139716666Y-137383333D01*
X139450000Y-137383333D01*
X140116666Y-137083333D02*
X140150000Y-137050000D01*
X140216666Y-137016666D01*
X140383333Y-137016666D01*
X140450000Y-137050000D01*
X140483333Y-137083333D01*
X140516666Y-137150000D01*
X140516666Y-137216666D01*
X140483333Y-137316666D01*
X140083333Y-137716666D01*
X140516666Y-137716666D01*
X140950000Y-137016666D02*
X141016666Y-137016666D01*
X141083333Y-137050000D01*
X141116666Y-137083333D01*
X141150000Y-137150000D01*
X141183333Y-137283333D01*
X141183333Y-137450000D01*
X141150000Y-137583333D01*
X141116666Y-137650000D01*
X141083333Y-137683333D01*
X141016666Y-137716666D01*
X140950000Y-137716666D01*
X140883333Y-137683333D01*
X140850000Y-137650000D01*
X140816666Y-137583333D01*
X140783333Y-137450000D01*
X140783333Y-137283333D01*
X140816666Y-137150000D01*
X140850000Y-137083333D01*
X140883333Y-137050000D01*
X140950000Y-137016666D01*
%TO.C,R24*%
X112072000Y-136968666D02*
X111838666Y-136635333D01*
X111672000Y-136968666D02*
X111672000Y-136268666D01*
X111938666Y-136268666D01*
X112005333Y-136302000D01*
X112038666Y-136335333D01*
X112072000Y-136402000D01*
X112072000Y-136502000D01*
X112038666Y-136568666D01*
X112005333Y-136602000D01*
X111938666Y-136635333D01*
X111672000Y-136635333D01*
X112338666Y-136335333D02*
X112372000Y-136302000D01*
X112438666Y-136268666D01*
X112605333Y-136268666D01*
X112672000Y-136302000D01*
X112705333Y-136335333D01*
X112738666Y-136402000D01*
X112738666Y-136468666D01*
X112705333Y-136568666D01*
X112305333Y-136968666D01*
X112738666Y-136968666D01*
X113338666Y-136502000D02*
X113338666Y-136968666D01*
X113172000Y-136235333D02*
X113005333Y-136735333D01*
X113438666Y-136735333D01*
%TO.C,J6*%
X107216666Y-134633333D02*
X107716666Y-134633333D01*
X107816666Y-134666666D01*
X107883333Y-134733333D01*
X107916666Y-134833333D01*
X107916666Y-134900000D01*
X107216666Y-134000000D02*
X107216666Y-134133333D01*
X107250000Y-134200000D01*
X107283333Y-134233333D01*
X107383333Y-134300000D01*
X107516666Y-134333333D01*
X107783333Y-134333333D01*
X107850000Y-134300000D01*
X107883333Y-134266666D01*
X107916666Y-134200000D01*
X107916666Y-134066666D01*
X107883333Y-134000000D01*
X107850000Y-133966666D01*
X107783333Y-133933333D01*
X107616666Y-133933333D01*
X107550000Y-133966666D01*
X107516666Y-134000000D01*
X107483333Y-134066666D01*
X107483333Y-134200000D01*
X107516666Y-134266666D01*
X107550000Y-134300000D01*
X107616666Y-134333333D01*
%TO.C,JP2*%
X114541666Y-125033333D02*
X115041666Y-125033333D01*
X115141666Y-125066666D01*
X115208333Y-125133333D01*
X115241666Y-125233333D01*
X115241666Y-125300000D01*
X115241666Y-124700000D02*
X114541666Y-124700000D01*
X114541666Y-124433333D01*
X114575000Y-124366666D01*
X114608333Y-124333333D01*
X114675000Y-124300000D01*
X114775000Y-124300000D01*
X114841666Y-124333333D01*
X114875000Y-124366666D01*
X114908333Y-124433333D01*
X114908333Y-124700000D01*
X114608333Y-124033333D02*
X114575000Y-124000000D01*
X114541666Y-123933333D01*
X114541666Y-123766666D01*
X114575000Y-123700000D01*
X114608333Y-123666666D01*
X114675000Y-123633333D01*
X114741666Y-123633333D01*
X114841666Y-123666666D01*
X115241666Y-124066666D01*
X115241666Y-123633333D01*
%TO.C,C8*%
X125683333Y-81150000D02*
X125650000Y-81183333D01*
X125550000Y-81216666D01*
X125483333Y-81216666D01*
X125383333Y-81183333D01*
X125316666Y-81116666D01*
X125283333Y-81050000D01*
X125250000Y-80916666D01*
X125250000Y-80816666D01*
X125283333Y-80683333D01*
X125316666Y-80616666D01*
X125383333Y-80550000D01*
X125483333Y-80516666D01*
X125550000Y-80516666D01*
X125650000Y-80550000D01*
X125683333Y-80583333D01*
X126083333Y-80816666D02*
X126016666Y-80783333D01*
X125983333Y-80750000D01*
X125950000Y-80683333D01*
X125950000Y-80650000D01*
X125983333Y-80583333D01*
X126016666Y-80550000D01*
X126083333Y-80516666D01*
X126216666Y-80516666D01*
X126283333Y-80550000D01*
X126316666Y-80583333D01*
X126350000Y-80650000D01*
X126350000Y-80683333D01*
X126316666Y-80750000D01*
X126283333Y-80783333D01*
X126216666Y-80816666D01*
X126083333Y-80816666D01*
X126016666Y-80850000D01*
X125983333Y-80883333D01*
X125950000Y-80950000D01*
X125950000Y-81083333D01*
X125983333Y-81150000D01*
X126016666Y-81183333D01*
X126083333Y-81216666D01*
X126216666Y-81216666D01*
X126283333Y-81183333D01*
X126316666Y-81150000D01*
X126350000Y-81083333D01*
X126350000Y-80950000D01*
X126316666Y-80883333D01*
X126283333Y-80850000D01*
X126216666Y-80816666D01*
%TO.C,J8*%
X138466666Y-153216666D02*
X138466666Y-153716666D01*
X138433333Y-153816666D01*
X138366666Y-153883333D01*
X138266666Y-153916666D01*
X138200000Y-153916666D01*
X138900000Y-153516666D02*
X138833333Y-153483333D01*
X138800000Y-153450000D01*
X138766666Y-153383333D01*
X138766666Y-153350000D01*
X138800000Y-153283333D01*
X138833333Y-153250000D01*
X138900000Y-153216666D01*
X139033333Y-153216666D01*
X139100000Y-153250000D01*
X139133333Y-153283333D01*
X139166666Y-153350000D01*
X139166666Y-153383333D01*
X139133333Y-153450000D01*
X139100000Y-153483333D01*
X139033333Y-153516666D01*
X138900000Y-153516666D01*
X138833333Y-153550000D01*
X138800000Y-153583333D01*
X138766666Y-153650000D01*
X138766666Y-153783333D01*
X138800000Y-153850000D01*
X138833333Y-153883333D01*
X138900000Y-153916666D01*
X139033333Y-153916666D01*
X139100000Y-153883333D01*
X139133333Y-153850000D01*
X139166666Y-153783333D01*
X139166666Y-153650000D01*
X139133333Y-153583333D01*
X139100000Y-153550000D01*
X139033333Y-153516666D01*
%TO.C,R28*%
X151750000Y-100616666D02*
X151516666Y-100283333D01*
X151350000Y-100616666D02*
X151350000Y-99916666D01*
X151616666Y-99916666D01*
X151683333Y-99950000D01*
X151716666Y-99983333D01*
X151750000Y-100050000D01*
X151750000Y-100150000D01*
X151716666Y-100216666D01*
X151683333Y-100250000D01*
X151616666Y-100283333D01*
X151350000Y-100283333D01*
X152016666Y-99983333D02*
X152050000Y-99950000D01*
X152116666Y-99916666D01*
X152283333Y-99916666D01*
X152350000Y-99950000D01*
X152383333Y-99983333D01*
X152416666Y-100050000D01*
X152416666Y-100116666D01*
X152383333Y-100216666D01*
X151983333Y-100616666D01*
X152416666Y-100616666D01*
X152816666Y-100216666D02*
X152750000Y-100183333D01*
X152716666Y-100150000D01*
X152683333Y-100083333D01*
X152683333Y-100050000D01*
X152716666Y-99983333D01*
X152750000Y-99950000D01*
X152816666Y-99916666D01*
X152950000Y-99916666D01*
X153016666Y-99950000D01*
X153050000Y-99983333D01*
X153083333Y-100050000D01*
X153083333Y-100083333D01*
X153050000Y-100150000D01*
X153016666Y-100183333D01*
X152950000Y-100216666D01*
X152816666Y-100216666D01*
X152750000Y-100250000D01*
X152716666Y-100283333D01*
X152683333Y-100350000D01*
X152683333Y-100483333D01*
X152716666Y-100550000D01*
X152750000Y-100583333D01*
X152816666Y-100616666D01*
X152950000Y-100616666D01*
X153016666Y-100583333D01*
X153050000Y-100550000D01*
X153083333Y-100483333D01*
X153083333Y-100350000D01*
X153050000Y-100283333D01*
X153016666Y-100250000D01*
X152950000Y-100216666D01*
%TO.C,J2*%
X110566666Y-80616666D02*
X110566666Y-81116666D01*
X110533333Y-81216666D01*
X110466666Y-81283333D01*
X110366666Y-81316666D01*
X110300000Y-81316666D01*
X110866666Y-80683333D02*
X110900000Y-80650000D01*
X110966666Y-80616666D01*
X111133333Y-80616666D01*
X111200000Y-80650000D01*
X111233333Y-80683333D01*
X111266666Y-80750000D01*
X111266666Y-80816666D01*
X111233333Y-80916666D01*
X110833333Y-81316666D01*
X111266666Y-81316666D01*
%TO.C,R23*%
X169350000Y-91716666D02*
X169116666Y-91383333D01*
X168950000Y-91716666D02*
X168950000Y-91016666D01*
X169216666Y-91016666D01*
X169283333Y-91050000D01*
X169316666Y-91083333D01*
X169350000Y-91150000D01*
X169350000Y-91250000D01*
X169316666Y-91316666D01*
X169283333Y-91350000D01*
X169216666Y-91383333D01*
X168950000Y-91383333D01*
X169616666Y-91083333D02*
X169650000Y-91050000D01*
X169716666Y-91016666D01*
X169883333Y-91016666D01*
X169950000Y-91050000D01*
X169983333Y-91083333D01*
X170016666Y-91150000D01*
X170016666Y-91216666D01*
X169983333Y-91316666D01*
X169583333Y-91716666D01*
X170016666Y-91716666D01*
X170250000Y-91016666D02*
X170683333Y-91016666D01*
X170450000Y-91283333D01*
X170550000Y-91283333D01*
X170616666Y-91316666D01*
X170650000Y-91350000D01*
X170683333Y-91416666D01*
X170683333Y-91583333D01*
X170650000Y-91650000D01*
X170616666Y-91683333D01*
X170550000Y-91716666D01*
X170350000Y-91716666D01*
X170283333Y-91683333D01*
X170250000Y-91650000D01*
%TO.C,R16*%
X150716666Y-142825000D02*
X150383333Y-143058333D01*
X150716666Y-143225000D02*
X150016666Y-143225000D01*
X150016666Y-142958333D01*
X150050000Y-142891666D01*
X150083333Y-142858333D01*
X150150000Y-142825000D01*
X150250000Y-142825000D01*
X150316666Y-142858333D01*
X150350000Y-142891666D01*
X150383333Y-142958333D01*
X150383333Y-143225000D01*
X150716666Y-142158333D02*
X150716666Y-142558333D01*
X150716666Y-142358333D02*
X150016666Y-142358333D01*
X150116666Y-142425000D01*
X150183333Y-142491666D01*
X150216666Y-142558333D01*
X150016666Y-141558333D02*
X150016666Y-141691666D01*
X150050000Y-141758333D01*
X150083333Y-141791666D01*
X150183333Y-141858333D01*
X150316666Y-141891666D01*
X150583333Y-141891666D01*
X150650000Y-141858333D01*
X150683333Y-141825000D01*
X150716666Y-141758333D01*
X150716666Y-141625000D01*
X150683333Y-141558333D01*
X150650000Y-141525000D01*
X150583333Y-141491666D01*
X150416666Y-141491666D01*
X150350000Y-141525000D01*
X150316666Y-141558333D01*
X150283333Y-141625000D01*
X150283333Y-141758333D01*
X150316666Y-141825000D01*
X150350000Y-141858333D01*
X150416666Y-141891666D01*
%TO.C,R21*%
X139850000Y-141616666D02*
X139616666Y-141283333D01*
X139450000Y-141616666D02*
X139450000Y-140916666D01*
X139716666Y-140916666D01*
X139783333Y-140950000D01*
X139816666Y-140983333D01*
X139850000Y-141050000D01*
X139850000Y-141150000D01*
X139816666Y-141216666D01*
X139783333Y-141250000D01*
X139716666Y-141283333D01*
X139450000Y-141283333D01*
X140116666Y-140983333D02*
X140150000Y-140950000D01*
X140216666Y-140916666D01*
X140383333Y-140916666D01*
X140450000Y-140950000D01*
X140483333Y-140983333D01*
X140516666Y-141050000D01*
X140516666Y-141116666D01*
X140483333Y-141216666D01*
X140083333Y-141616666D01*
X140516666Y-141616666D01*
X141183333Y-141616666D02*
X140783333Y-141616666D01*
X140983333Y-141616666D02*
X140983333Y-140916666D01*
X140916666Y-141016666D01*
X140850000Y-141083333D01*
X140783333Y-141116666D01*
D11*
%TO.C,C10*%
X137759420Y-106990000D02*
X138040580Y-106990000D01*
X137759420Y-108010000D02*
X138040580Y-108010000D01*
%TO.C,C7*%
X117090000Y-80415000D02*
X119440000Y-80415000D01*
X118258750Y-87868750D02*
X119046250Y-87868750D01*
X117090000Y-86170563D02*
X117090000Y-80415000D01*
X118652500Y-88262500D02*
X118652500Y-87475000D01*
X118154437Y-87235000D02*
X119440000Y-87235000D01*
X118154437Y-87235000D02*
X117090000Y-86170563D01*
X123910000Y-80415000D02*
X121560000Y-80415000D01*
X122845563Y-87235000D02*
X121560000Y-87235000D01*
X122845563Y-87235000D02*
X123910000Y-86170563D01*
X123910000Y-86170563D02*
X123910000Y-80415000D01*
%TO.C,C5*%
X138286000Y-100302500D02*
X138286000Y-98397500D01*
X133079000Y-99477000D02*
X133079000Y-100239000D01*
X133714000Y-98397500D02*
X133714000Y-100302500D01*
X133714000Y-100302500D02*
X138286000Y-100302500D01*
X132698000Y-99858000D02*
X133460000Y-99858000D01*
X138286000Y-98397500D02*
X133714000Y-98397500D01*
G36*
X135428500Y-100556500D02*
G01*
X134793500Y-100556500D01*
X134793500Y-100302500D01*
X135428500Y-100302500D01*
X135428500Y-100556500D01*
G37*
D12*
X135428500Y-100556500D02*
X134793500Y-100556500D01*
X134793500Y-100302500D01*
X135428500Y-100302500D01*
X135428500Y-100556500D01*
G36*
X135428500Y-98397500D02*
G01*
X134793500Y-98397500D01*
X134793500Y-98143500D01*
X135428500Y-98143500D01*
X135428500Y-98397500D01*
G37*
X135428500Y-98397500D02*
X134793500Y-98397500D01*
X134793500Y-98143500D01*
X135428500Y-98143500D01*
X135428500Y-98397500D01*
D11*
%TO.C,R5*%
X111922500Y-113687258D02*
X111922500Y-113212742D01*
X110877500Y-113687258D02*
X110877500Y-113212742D01*
%TO.C,R6*%
X146537258Y-139027500D02*
X146062742Y-139027500D01*
X146537258Y-140072500D02*
X146062742Y-140072500D01*
%TO.C,R8*%
X119912258Y-123277500D02*
X119437742Y-123277500D01*
X119912258Y-124322500D02*
X119437742Y-124322500D01*
%TO.C,J11*%
X101200000Y-92650000D02*
X101200000Y-103350000D01*
X101200000Y-103350000D02*
X105500000Y-103350000D01*
X100490000Y-91640000D02*
X100490000Y-104360000D01*
X107110000Y-95300000D02*
X107110000Y-91640000D01*
X106710000Y-98800000D02*
X106710000Y-97200000D01*
X107410000Y-91340000D02*
X106160000Y-91340000D01*
X106110000Y-95300000D02*
X107110000Y-95300000D01*
X107110000Y-104360000D02*
X107110000Y-100700000D01*
X106110000Y-100700000D02*
X106110000Y-98800000D01*
X106110000Y-97200000D02*
X106110000Y-95300000D01*
X100490000Y-104360000D02*
X107110000Y-104360000D01*
X105500000Y-103350000D02*
X105500000Y-92650000D01*
X106710000Y-97200000D02*
X106110000Y-97200000D01*
X103800000Y-91640000D02*
X103800000Y-92650000D01*
X106110000Y-98800000D02*
X106710000Y-98800000D01*
X107110000Y-100700000D02*
X106110000Y-100700000D01*
X107410000Y-92590000D02*
X107410000Y-91340000D01*
X107110000Y-91640000D02*
X100490000Y-91640000D01*
X103800000Y-104360000D02*
X103800000Y-103350000D01*
X105500000Y-92650000D02*
X101200000Y-92650000D01*
%TO.C,U5*%
X124425000Y-103250000D02*
X125925000Y-103250000D01*
X125925000Y-93800000D02*
X127025000Y-93800000D01*
X125925000Y-103250000D02*
X125925000Y-102300000D01*
X124425000Y-92850000D02*
X125925000Y-92850000D01*
X125925000Y-92850000D02*
X125925000Y-93800000D01*
X125925000Y-102300000D02*
X131050000Y-102300000D01*
%TO.C,U6*%
X174000000Y-154150000D02*
X174000000Y-137150000D01*
X174000000Y-137150000D02*
X170800000Y-137150000D01*
X158650000Y-154150000D02*
X174000000Y-154150000D01*
X170800000Y-138550000D02*
X170800000Y-137150000D01*
X158650000Y-138550000D02*
X170800000Y-138550000D01*
X158650000Y-138550000D02*
X158650000Y-154150000D01*
%TO.C,D5*%
X117056000Y-140257000D02*
X119341000Y-140257000D01*
X119341000Y-140257000D02*
X119341000Y-138787000D01*
X119341000Y-138787000D02*
X117056000Y-138787000D01*
%TO.C,D3*%
X136900000Y-83775000D02*
X131500000Y-83775000D01*
X136900000Y-87075000D02*
X131500000Y-87075000D01*
X136900000Y-87075000D02*
X136900000Y-83775000D01*
%TO.C,R31*%
X119912258Y-122122500D02*
X119437742Y-122122500D01*
X119912258Y-121077500D02*
X119437742Y-121077500D01*
%TO.C,D10*%
X141050000Y-93150000D02*
X141050000Y-96450000D01*
X141050000Y-96450000D02*
X146450000Y-96450000D01*
X141050000Y-93150000D02*
X146450000Y-93150000D01*
%TO.C,R29*%
X153037258Y-90722500D02*
X152562742Y-90722500D01*
X153037258Y-89677500D02*
X152562742Y-89677500D01*
%TO.C,R3*%
X135222500Y-95737258D02*
X135222500Y-95262742D01*
X134177500Y-95737258D02*
X134177500Y-95262742D01*
%TO.C,R7*%
X121293258Y-138444500D02*
X120818742Y-138444500D01*
X121293258Y-137399500D02*
X120818742Y-137399500D01*
%TO.C,C6*%
X137759420Y-105490000D02*
X138040580Y-105490000D01*
X137759420Y-106510000D02*
X138040580Y-106510000D01*
%TO.C,D1*%
X115400000Y-107650000D02*
X115400000Y-109350000D01*
X115400000Y-109350000D02*
X117950000Y-109350000D01*
X115400000Y-107650000D02*
X117950000Y-107650000D01*
%TO.C,kibuzzard-61FFCA5B*%
G36*
X105966466Y-77277341D02*
G01*
X106021631Y-77304725D01*
X106057350Y-77351556D01*
X106069256Y-77419025D01*
X106024806Y-77529356D01*
X105966466Y-77558527D01*
X105880344Y-77568250D01*
X105837481Y-77568250D01*
X105837481Y-77272975D01*
X105869231Y-77269006D01*
X105896219Y-77268212D01*
X105966466Y-77277341D01*
G37*
G36*
X102829367Y-77277142D02*
G01*
X102883937Y-77303931D01*
X102919061Y-77352152D01*
X102930769Y-77425375D01*
X102918862Y-77502567D01*
X102883144Y-77553169D01*
X102824009Y-77581148D01*
X102741856Y-77590475D01*
X102662481Y-77590475D01*
X102662481Y-77272975D01*
X102710900Y-77269006D01*
X102759319Y-77268212D01*
X102829367Y-77277142D01*
G37*
G36*
X103653081Y-77284087D02*
G01*
X103699912Y-77357112D01*
X103722137Y-77465856D01*
X103726305Y-77530745D01*
X103727694Y-77600000D01*
X103726305Y-77669056D01*
X103722137Y-77733350D01*
X103699912Y-77842094D01*
X103652287Y-77915913D01*
X103572119Y-77942900D01*
X103491156Y-77915913D01*
X103444325Y-77842888D01*
X103422100Y-77734144D01*
X103417933Y-77669255D01*
X103416544Y-77600000D01*
X103417933Y-77530944D01*
X103422100Y-77466650D01*
X103444325Y-77357906D01*
X103491156Y-77284087D01*
X103572119Y-77257100D01*
X103653081Y-77284087D01*
G37*
G36*
X101270993Y-77600000D02*
G01*
X101954589Y-76574607D01*
X106845411Y-76574607D01*
X107529007Y-77600000D01*
X106845411Y-78625393D01*
X101954589Y-78625393D01*
X101599077Y-78092125D01*
X102467219Y-78092125D01*
X102662481Y-78092125D01*
X102662481Y-77760338D01*
X102732331Y-77760338D01*
X102849718Y-77751606D01*
X102947878Y-77725413D01*
X103026812Y-77681756D01*
X103084580Y-77618521D01*
X103092138Y-77600000D01*
X103218106Y-77600000D01*
X103223811Y-77719211D01*
X103240927Y-77822845D01*
X103269452Y-77910902D01*
X103309387Y-77983381D01*
X103379326Y-78055260D01*
X103467432Y-78098387D01*
X103573706Y-78112763D01*
X103677423Y-78098387D01*
X103764206Y-78055260D01*
X103834056Y-77983381D01*
X103874339Y-77910902D01*
X103903112Y-77822845D01*
X103920377Y-77719211D01*
X103926131Y-77600000D01*
X103920476Y-77480789D01*
X103903509Y-77377155D01*
X103875232Y-77289098D01*
X103835644Y-77216619D01*
X103766147Y-77144740D01*
X103694292Y-77109462D01*
X104005506Y-77109462D01*
X104009078Y-77230708D01*
X104013444Y-77356319D01*
X104018802Y-77483716D01*
X104025350Y-77610319D01*
X104033089Y-77735731D01*
X104042019Y-77859556D01*
X104052337Y-77979214D01*
X104064244Y-78092125D01*
X104226169Y-78092125D01*
X104259506Y-77987747D01*
X104296019Y-77874638D01*
X104333325Y-77761528D01*
X104369044Y-77657150D01*
X104403969Y-77764505D01*
X104438894Y-77877019D01*
X104473819Y-77988342D01*
X104508744Y-78092125D01*
X104670669Y-78092125D01*
X104862756Y-78092125D01*
X105492994Y-78092125D01*
X105642219Y-78092125D01*
X105837481Y-78092125D01*
X105837481Y-77730175D01*
X105939081Y-77730175D01*
X105992858Y-77820067D01*
X106043063Y-77908769D01*
X106088505Y-77998661D01*
X106127994Y-78092125D01*
X106332781Y-78092125D01*
X106287538Y-77988144D01*
X106232769Y-77878606D01*
X106174031Y-77773831D01*
X106116881Y-77682550D01*
X106186334Y-77637703D01*
X106232769Y-77576187D01*
X106258963Y-77502369D01*
X106267694Y-77420612D01*
X106261145Y-77343420D01*
X106241500Y-77276944D01*
X106166094Y-77176137D01*
X106112119Y-77141609D01*
X106048619Y-77117400D01*
X105976388Y-77103112D01*
X105896219Y-77098350D01*
X105840656Y-77099938D01*
X105773981Y-77103906D01*
X105704925Y-77111844D01*
X105642219Y-77123750D01*
X105642219Y-78092125D01*
X105492994Y-78092125D01*
X105492994Y-77930200D01*
X105058019Y-77930200D01*
X105058019Y-77653975D01*
X105405681Y-77653975D01*
X105405681Y-77492050D01*
X105058019Y-77492050D01*
X105058019Y-77271387D01*
X105458069Y-77271387D01*
X105458069Y-77109462D01*
X104862756Y-77109462D01*
X104862756Y-78092125D01*
X104670669Y-78092125D01*
X104681186Y-77979413D01*
X104690513Y-77860350D01*
X104698648Y-77737120D01*
X104705594Y-77611906D01*
X104711547Y-77485303D01*
X104716706Y-77357906D01*
X104721469Y-77231898D01*
X104726231Y-77109462D01*
X104545256Y-77109462D01*
X104545653Y-77204911D01*
X104546844Y-77303931D01*
X104548431Y-77404142D01*
X104550019Y-77503162D01*
X104551606Y-77600595D01*
X104553194Y-77696044D01*
X104554384Y-77787523D01*
X104554781Y-77873050D01*
X104519063Y-77746050D01*
X104485725Y-77630163D01*
X104457944Y-77531737D01*
X104438894Y-77457125D01*
X104296019Y-77457125D01*
X104273794Y-77534912D01*
X104242837Y-77642863D01*
X104207912Y-77761925D01*
X104175369Y-77873050D01*
X104175766Y-77787523D01*
X104176956Y-77696044D01*
X104178544Y-77600397D01*
X104180131Y-77502369D01*
X104181719Y-77402952D01*
X104183306Y-77303137D01*
X104184894Y-77204712D01*
X104186481Y-77109462D01*
X104005506Y-77109462D01*
X103694292Y-77109462D01*
X103678305Y-77101613D01*
X103572119Y-77087237D01*
X103469108Y-77101613D01*
X103382324Y-77144740D01*
X103311769Y-77216619D01*
X103270791Y-77289098D01*
X103241522Y-77377155D01*
X103223960Y-77480789D01*
X103218106Y-77600000D01*
X103092138Y-77600000D01*
X103119240Y-77533590D01*
X103130794Y-77426962D01*
X103119328Y-77321394D01*
X103084933Y-77237521D01*
X103027606Y-77175344D01*
X102949466Y-77132569D01*
X102852628Y-77106905D01*
X102737094Y-77098350D01*
X102675181Y-77099938D01*
X102603744Y-77103906D01*
X102531512Y-77111050D01*
X102467219Y-77122162D01*
X102467219Y-78092125D01*
X101599077Y-78092125D01*
X101270993Y-77600000D01*
G37*
%TO.C,D2*%
X120256000Y-140257000D02*
X122541000Y-140257000D01*
X122541000Y-140257000D02*
X122541000Y-138787000D01*
X122541000Y-138787000D02*
X120256000Y-138787000D01*
%TO.C,R26*%
X183722500Y-84937258D02*
X183722500Y-84462742D01*
X182677500Y-84937258D02*
X182677500Y-84462742D01*
%TO.C,C21*%
X167553733Y-130990000D02*
X167846267Y-130990000D01*
X167553733Y-132010000D02*
X167846267Y-132010000D01*
%TO.C,Y2*%
X136000000Y-105000000D02*
X130250000Y-105000000D01*
X130250000Y-105000000D02*
X130250000Y-108600000D01*
X130250000Y-108600000D02*
X136000000Y-108600000D01*
%TO.C,R13*%
X125745276Y-141177500D02*
X126254724Y-141177500D01*
X125745276Y-142222500D02*
X126254724Y-142222500D01*
%TO.C,R4*%
X136722500Y-95262742D02*
X136722500Y-95737258D01*
X135677500Y-95262742D02*
X135677500Y-95737258D01*
%TO.C,Q1*%
X152100000Y-93240000D02*
X150425000Y-93240000D01*
X152100000Y-96360000D02*
X151450000Y-96360000D01*
X152100000Y-96360000D02*
X152750000Y-96360000D01*
X152100000Y-93240000D02*
X152750000Y-93240000D01*
%TO.C,R11*%
X189535000Y-141172936D02*
X189535000Y-141627064D01*
X188065000Y-141172936D02*
X188065000Y-141627064D01*
%TO.C,R10*%
X186935000Y-141172936D02*
X186935000Y-141627064D01*
X185465000Y-141172936D02*
X185465000Y-141627064D01*
%TO.C,C9*%
X129210000Y-84411252D02*
X129210000Y-82988748D01*
X127390000Y-84411252D02*
X127390000Y-82988748D01*
%TO.C,R1*%
X112759258Y-139099500D02*
X112284742Y-139099500D01*
X112759258Y-140144500D02*
X112284742Y-140144500D01*
%TO.C,C12*%
X116010000Y-131609420D02*
X116010000Y-131890580D01*
X114990000Y-131609420D02*
X114990000Y-131890580D01*
%TO.C,L2*%
X150600000Y-90525000D02*
X147600000Y-90525000D01*
X141000000Y-90525000D02*
X138000000Y-90525000D01*
X138000000Y-77925000D02*
X141000000Y-77925000D01*
X147600000Y-77925000D02*
X150600000Y-77925000D01*
X138000000Y-90525000D02*
X138000000Y-77925000D01*
X150600000Y-77925000D02*
X150600000Y-90525000D01*
%TO.C,kibuzzard-61FFCAE2*%
G36*
X109625393Y-111354689D02*
G01*
X109625393Y-114645311D01*
X107574607Y-114645311D01*
X107574607Y-113686594D01*
X108087237Y-113686594D01*
X108095770Y-113779661D01*
X108121369Y-113865188D01*
X108163437Y-113941388D01*
X108221381Y-114006475D01*
X108294605Y-114059458D01*
X108382512Y-114099344D01*
X108484509Y-114124347D01*
X108600000Y-114132681D01*
X108715987Y-114125835D01*
X108817884Y-114105297D01*
X108905693Y-114071066D01*
X108979413Y-114023144D01*
X109053496Y-113939183D01*
X109097946Y-113833349D01*
X109112763Y-113705644D01*
X109107405Y-113618927D01*
X109091331Y-113542925D01*
X109044500Y-113431006D01*
X108890513Y-113480219D01*
X108925438Y-113560388D01*
X108942900Y-113686594D01*
X108920477Y-113799902D01*
X108853206Y-113876300D01*
X108784679Y-113908491D01*
X108698690Y-113927806D01*
X108595237Y-113934244D01*
X108506337Y-113928886D01*
X108433312Y-113912813D01*
X108329331Y-113857250D01*
X108273769Y-113779463D01*
X108257100Y-113689769D01*
X108273769Y-113571500D01*
X108314250Y-113483394D01*
X108158675Y-113432594D01*
X108139625Y-113465138D01*
X108115812Y-113518319D01*
X108095969Y-113592138D01*
X108087237Y-113686594D01*
X107574607Y-113686594D01*
X107574607Y-113088106D01*
X108109462Y-113088106D01*
X108218157Y-113121741D01*
X108329927Y-113155972D01*
X108444772Y-113190798D01*
X108562694Y-113226219D01*
X108660325Y-113254730D01*
X108762084Y-113283115D01*
X108867970Y-113311372D01*
X108977984Y-113339503D01*
X109092125Y-113367506D01*
X109092125Y-113164306D01*
X108865113Y-113119856D01*
X108865113Y-112857919D01*
X109092125Y-112811881D01*
X109092125Y-112602331D01*
X108980714Y-112628525D01*
X108872542Y-112655036D01*
X108767608Y-112681865D01*
X108665913Y-112709011D01*
X108567456Y-112736475D01*
X108448046Y-112771053D01*
X108331911Y-112805730D01*
X108219050Y-112840506D01*
X108109462Y-112875381D01*
X108109462Y-113088106D01*
X107574607Y-113088106D01*
X107574607Y-112515019D01*
X108109462Y-112515019D01*
X109092125Y-112515019D01*
X109092125Y-112338806D01*
X108439662Y-112338806D01*
X108548583Y-112279804D01*
X108657326Y-112223448D01*
X108765894Y-112169737D01*
X108874461Y-112118673D01*
X108983205Y-112070254D01*
X109092125Y-112024481D01*
X109092125Y-111867319D01*
X108109462Y-111867319D01*
X108109462Y-112043531D01*
X108714300Y-112043531D01*
X108652388Y-112071511D01*
X108580950Y-112104650D01*
X108503559Y-112141956D01*
X108423787Y-112182437D01*
X108342627Y-112225102D01*
X108261069Y-112268956D01*
X108182289Y-112313406D01*
X108109462Y-112357856D01*
X108109462Y-112515019D01*
X107574607Y-112515019D01*
X107574607Y-111354689D01*
X109625393Y-111354689D01*
G37*
G36*
X108703188Y-113083344D02*
G01*
X108601588Y-113063500D01*
X108503956Y-113041275D01*
X108405531Y-113015875D01*
X108299962Y-112986506D01*
X108405531Y-112957137D01*
X108503956Y-112931737D01*
X108601588Y-112910306D01*
X108703188Y-112891256D01*
X108703188Y-113083344D01*
G37*
%TO.C,U9*%
X177000000Y-83440000D02*
X175200000Y-83440000D01*
X177000000Y-86560000D02*
X177800000Y-86560000D01*
X177000000Y-86560000D02*
X176200000Y-86560000D01*
X177000000Y-83440000D02*
X177800000Y-83440000D01*
%TO.C,J7*%
X126940000Y-153785000D02*
X137060000Y-153785000D01*
X130250000Y-148575000D02*
X133750000Y-148575000D01*
X126950000Y-150075000D02*
X127700000Y-150075000D01*
X130250000Y-147825000D02*
X130250000Y-148575000D01*
X137060000Y-147815000D02*
X126940000Y-147815000D01*
X127700000Y-150075000D02*
X127700000Y-153025000D01*
X127900000Y-147525000D02*
X126650000Y-147525000D01*
X126950000Y-148575000D02*
X128750000Y-148575000D01*
X137050000Y-148575000D02*
X137050000Y-147825000D01*
X135250000Y-147825000D02*
X135250000Y-148575000D01*
X136300000Y-150075000D02*
X136300000Y-153025000D01*
X126950000Y-147825000D02*
X126950000Y-148575000D01*
X128750000Y-148575000D02*
X128750000Y-147825000D01*
X133750000Y-148575000D02*
X133750000Y-147825000D01*
X128750000Y-147825000D02*
X126950000Y-147825000D01*
X137050000Y-147825000D02*
X135250000Y-147825000D01*
X136300000Y-153025000D02*
X132000000Y-153025000D01*
X137060000Y-153785000D02*
X137060000Y-147815000D01*
X126940000Y-147815000D02*
X126940000Y-153785000D01*
X126650000Y-147525000D02*
X126650000Y-148775000D01*
X133750000Y-147825000D02*
X130250000Y-147825000D01*
X127700000Y-153025000D02*
X132000000Y-153025000D01*
X137050000Y-150075000D02*
X136300000Y-150075000D01*
X135250000Y-148575000D02*
X137050000Y-148575000D01*
%TO.C,kibuzzard-6200D0E6*%
G36*
X107780164Y-146302155D02*
G01*
X107780164Y-145789525D01*
X108303906Y-145789525D01*
X109286569Y-145789525D01*
X109286569Y-145159288D01*
X109124644Y-145159288D01*
X109124644Y-145594263D01*
X108848419Y-145594263D01*
X108848419Y-145246600D01*
X108686494Y-145246600D01*
X108686494Y-145594263D01*
X108465831Y-145594263D01*
X108465831Y-145194213D01*
X108303906Y-145194213D01*
X108303906Y-145789525D01*
X107780164Y-145789525D01*
X107780164Y-145062450D01*
X108303906Y-145062450D01*
X108767456Y-144805275D01*
X108837108Y-144844169D01*
X108909538Y-144884650D01*
X108982364Y-144924933D01*
X109053206Y-144963231D01*
X109120675Y-144998950D01*
X109183381Y-145031494D01*
X109286569Y-145078325D01*
X109286569Y-144867188D01*
X109200645Y-144830675D01*
X109104800Y-144787813D01*
X109005780Y-144741775D01*
X108910331Y-144695738D01*
X109008756Y-144649105D01*
X109107181Y-144604456D01*
X109201241Y-144564173D01*
X109286569Y-144530638D01*
X109286569Y-144319500D01*
X109182588Y-144362363D01*
X109119088Y-144391533D01*
X109050825Y-144425069D01*
X108979189Y-144462177D01*
X108905569Y-144502063D01*
X108832544Y-144543734D01*
X108762694Y-144586200D01*
X108303906Y-144335375D01*
X108303906Y-144532225D01*
X108618231Y-144695738D01*
X108303906Y-144851313D01*
X108303906Y-145062450D01*
X107780164Y-145062450D01*
X107780164Y-144262350D01*
X108303906Y-144262350D01*
X108465831Y-144262350D01*
X108465831Y-144003588D01*
X109286569Y-144003588D01*
X109286569Y-143806738D01*
X108465831Y-143806738D01*
X108465831Y-143547975D01*
X108303906Y-143547975D01*
X108303906Y-144262350D01*
X107780164Y-144262350D01*
X107780164Y-143408275D01*
X108303906Y-143408275D01*
X109286569Y-143408275D01*
X109286569Y-142778038D01*
X109124644Y-142778038D01*
X109124644Y-143213013D01*
X108848419Y-143213013D01*
X108848419Y-142865350D01*
X108686494Y-142865350D01*
X108686494Y-143213013D01*
X108465831Y-143213013D01*
X108465831Y-142812963D01*
X108303906Y-142812963D01*
X108303906Y-143408275D01*
X107780164Y-143408275D01*
X107780164Y-142374813D01*
X108292794Y-142374813D01*
X108294381Y-142430375D01*
X108298350Y-142497050D01*
X108306287Y-142566106D01*
X108318194Y-142628813D01*
X109286569Y-142628813D01*
X109286569Y-142433550D01*
X108924619Y-142433550D01*
X108924619Y-142331950D01*
X109014511Y-142278173D01*
X109103213Y-142227969D01*
X109193105Y-142182527D01*
X109286569Y-142143038D01*
X109286569Y-141938250D01*
X109182588Y-141983494D01*
X109073050Y-142038263D01*
X108968275Y-142097000D01*
X108876994Y-142154150D01*
X108832147Y-142084697D01*
X108770631Y-142038263D01*
X108696812Y-142012069D01*
X108615056Y-142003338D01*
X108537864Y-142009886D01*
X108471387Y-142029531D01*
X108370581Y-142104938D01*
X108336053Y-142158913D01*
X108311844Y-142222413D01*
X108297556Y-142294644D01*
X108292794Y-142374813D01*
X107780164Y-142374813D01*
X107780164Y-141847763D01*
X108303906Y-141847763D01*
X109286569Y-141847763D01*
X109286569Y-141671550D01*
X108634106Y-141671550D01*
X108743026Y-141612548D01*
X108851770Y-141556192D01*
X108960338Y-141502481D01*
X109068905Y-141451417D01*
X109177649Y-141402998D01*
X109286569Y-141357225D01*
X109286569Y-141200062D01*
X108303906Y-141200062D01*
X108303906Y-141376275D01*
X108908744Y-141376275D01*
X108846831Y-141404255D01*
X108775394Y-141437394D01*
X108698003Y-141474700D01*
X108618231Y-141515181D01*
X108537070Y-141557845D01*
X108455512Y-141601700D01*
X108376733Y-141646150D01*
X108303906Y-141690600D01*
X108303906Y-141847763D01*
X107780164Y-141847763D01*
X107780164Y-140833350D01*
X108303906Y-140833350D01*
X108412600Y-140866985D01*
X108524370Y-140901216D01*
X108639216Y-140936041D01*
X108757137Y-140971463D01*
X108854769Y-140999974D01*
X108956528Y-141028359D01*
X109062414Y-141056616D01*
X109172428Y-141084747D01*
X109286569Y-141112750D01*
X109286569Y-140909550D01*
X109059556Y-140865100D01*
X109059556Y-140603162D01*
X109286569Y-140557125D01*
X109286569Y-140347575D01*
X109175158Y-140373769D01*
X109066986Y-140400280D01*
X108962052Y-140427109D01*
X108860357Y-140454255D01*
X108761900Y-140481719D01*
X108642490Y-140516296D01*
X108526355Y-140550973D01*
X108413493Y-140585750D01*
X108303906Y-140620625D01*
X108303906Y-140833350D01*
X107780164Y-140833350D01*
X107780164Y-140220575D01*
X108303906Y-140220575D01*
X109286569Y-140220575D01*
X109286569Y-139603037D01*
X109124644Y-139603037D01*
X109124644Y-140023725D01*
X108303906Y-140023725D01*
X108303906Y-140220575D01*
X107780164Y-140220575D01*
X107780164Y-138683875D01*
X108303906Y-138683875D01*
X108930969Y-138683875D01*
X109012725Y-138679906D01*
X109086544Y-138668000D01*
X109151234Y-138646569D01*
X109205606Y-138614025D01*
X109281013Y-138511631D01*
X109300658Y-138439598D01*
X109307206Y-138352087D01*
X109300658Y-138263187D01*
X109281013Y-138190162D01*
X109249064Y-138131425D01*
X109205606Y-138085387D01*
X109151234Y-138051653D01*
X109086544Y-138029825D01*
X109012725Y-138017919D01*
X108930969Y-138013950D01*
X108303906Y-138013950D01*
X108303906Y-138209212D01*
X108916681Y-138209212D01*
X109020663Y-138215562D01*
X109088925Y-138237787D01*
X109126231Y-138280650D01*
X109137344Y-138348912D01*
X109126231Y-138417175D01*
X109089719Y-138459244D01*
X109022250Y-138480675D01*
X108918269Y-138487025D01*
X108303906Y-138487025D01*
X108303906Y-138683875D01*
X107780164Y-138683875D01*
X107780164Y-137658350D01*
X108303906Y-137658350D01*
X108412600Y-137691985D01*
X108524370Y-137726216D01*
X108639216Y-137761041D01*
X108757137Y-137796462D01*
X108854769Y-137824974D01*
X108956528Y-137853358D01*
X109062414Y-137881616D01*
X109172428Y-137909746D01*
X109286569Y-137937750D01*
X109286569Y-137734550D01*
X109059556Y-137690100D01*
X109059556Y-137428162D01*
X109286569Y-137382125D01*
X109286569Y-137172575D01*
X109175158Y-137198769D01*
X109066986Y-137225280D01*
X108962052Y-137252109D01*
X108860357Y-137279255D01*
X108761900Y-137306719D01*
X108642490Y-137341296D01*
X108526355Y-137375973D01*
X108413493Y-137410750D01*
X108303906Y-137445625D01*
X108303906Y-137658350D01*
X107780164Y-137658350D01*
X107780164Y-136818562D01*
X108292794Y-136818562D01*
X108294381Y-136874125D01*
X108298350Y-136940800D01*
X108306287Y-137009856D01*
X108318194Y-137072562D01*
X109286569Y-137072562D01*
X109286569Y-136877300D01*
X108924619Y-136877300D01*
X108924619Y-136775700D01*
X109014511Y-136721923D01*
X109103213Y-136671719D01*
X109193105Y-136626277D01*
X109286569Y-136586787D01*
X109286569Y-136382000D01*
X109182588Y-136427244D01*
X109073050Y-136482012D01*
X108968275Y-136540750D01*
X108876994Y-136597900D01*
X108832147Y-136528447D01*
X108770631Y-136482012D01*
X108696812Y-136455819D01*
X108615056Y-136447087D01*
X108537864Y-136453636D01*
X108471387Y-136473281D01*
X108370581Y-136548687D01*
X108336053Y-136602662D01*
X108311844Y-136666163D01*
X108297556Y-136738394D01*
X108292794Y-136818562D01*
X107780164Y-136818562D01*
X107780164Y-136324850D01*
X108303906Y-136324850D01*
X108465831Y-136324850D01*
X108465831Y-136066087D01*
X109286569Y-136066087D01*
X109286569Y-135869237D01*
X108465831Y-135869237D01*
X108465831Y-135610475D01*
X108303906Y-135610475D01*
X108303906Y-136324850D01*
X107780164Y-136324850D01*
X107780164Y-135097845D01*
X109819836Y-135097845D01*
X109819836Y-146302155D01*
X107780164Y-146302155D01*
G37*
G36*
X108723800Y-142246225D02*
G01*
X108752970Y-142304566D01*
X108762694Y-142390688D01*
X108762694Y-142433550D01*
X108467419Y-142433550D01*
X108463450Y-142401800D01*
X108462656Y-142374813D01*
X108471784Y-142304566D01*
X108499169Y-142249400D01*
X108546000Y-142213681D01*
X108613469Y-142201775D01*
X108723800Y-142246225D01*
G37*
G36*
X108723800Y-136689975D02*
G01*
X108752970Y-136748316D01*
X108762694Y-136834437D01*
X108762694Y-136877300D01*
X108467419Y-136877300D01*
X108463450Y-136845550D01*
X108462656Y-136818562D01*
X108471784Y-136748316D01*
X108499169Y-136693150D01*
X108546000Y-136657431D01*
X108613469Y-136645525D01*
X108723800Y-136689975D01*
G37*
G36*
X108897631Y-137653587D02*
G01*
X108796031Y-137633744D01*
X108698400Y-137611519D01*
X108599975Y-137586119D01*
X108494406Y-137556750D01*
X108599975Y-137527381D01*
X108698400Y-137501981D01*
X108796031Y-137480550D01*
X108897631Y-137461500D01*
X108897631Y-137653587D01*
G37*
G36*
X108897631Y-140828588D02*
G01*
X108796031Y-140808744D01*
X108698400Y-140786519D01*
X108599975Y-140761119D01*
X108494406Y-140731750D01*
X108599975Y-140702381D01*
X108698400Y-140676981D01*
X108796031Y-140655550D01*
X108897631Y-140636500D01*
X108897631Y-140828588D01*
G37*
D10*
%TO.C,TP2*%
X158800000Y-100000000D02*
G75*
G03*
X158800000Y-100000000I-1400000J0D01*
G01*
D11*
%TO.C,J1*%
X152400000Y-117100000D02*
X152400000Y-114300000D01*
X143000000Y-106300000D02*
X143000000Y-107100000D01*
X143000000Y-113900000D02*
X143000000Y-116700000D01*
X152400000Y-134700000D02*
X152400000Y-131900000D01*
X152400000Y-107500000D02*
X152400000Y-104300000D01*
X146100000Y-134700000D02*
X152400000Y-134700000D01*
X152400000Y-104300000D02*
X146100000Y-104300000D01*
X143000000Y-131500000D02*
X143000000Y-132700000D01*
%TO.C,R22*%
X174480000Y-84053641D02*
X174480000Y-83746359D01*
X173720000Y-84053641D02*
X173720000Y-83746359D01*
%TO.C,C2*%
X119234420Y-117240000D02*
X119515580Y-117240000D01*
X119234420Y-118260000D02*
X119515580Y-118260000D01*
%TO.C,C22*%
X162553733Y-132010000D02*
X162846267Y-132010000D01*
X162553733Y-130990000D02*
X162846267Y-130990000D01*
%TO.C,C17*%
X122010000Y-131609420D02*
X122010000Y-131890580D01*
X120990000Y-131609420D02*
X120990000Y-131890580D01*
%TO.C,R15*%
X147722500Y-142145276D02*
X147722500Y-142654724D01*
X146677500Y-142145276D02*
X146677500Y-142654724D01*
%TO.C,C19*%
X117990000Y-131609420D02*
X117990000Y-131890580D01*
X119010000Y-131609420D02*
X119010000Y-131890580D01*
%TO.C,C11*%
X146159420Y-138510000D02*
X146440580Y-138510000D01*
X146159420Y-137490000D02*
X146440580Y-137490000D01*
%TO.C,R9*%
X118093258Y-138444500D02*
X117618742Y-138444500D01*
X118093258Y-137399500D02*
X117618742Y-137399500D01*
%TO.C,D7*%
X176900000Y-139450000D02*
X176900000Y-142750000D01*
X176900000Y-142750000D02*
X182300000Y-142750000D01*
X176900000Y-139450000D02*
X182300000Y-139450000D01*
%TO.C,C14*%
X114510000Y-131609420D02*
X114510000Y-131890580D01*
X113490000Y-131609420D02*
X113490000Y-131890580D01*
%TO.C,U3*%
X139185000Y-115700000D02*
X139185000Y-119560000D01*
X139185000Y-115700000D02*
X139185000Y-111840000D01*
X127415000Y-119560000D02*
X127660000Y-119560000D01*
X139185000Y-119560000D02*
X138940000Y-119560000D01*
X138940000Y-111840000D02*
X138940000Y-110025000D01*
X139185000Y-111840000D02*
X138940000Y-111840000D01*
X127415000Y-115700000D02*
X127415000Y-119560000D01*
X127415000Y-115700000D02*
X127415000Y-111840000D01*
X127415000Y-111840000D02*
X127660000Y-111840000D01*
%TO.C,Y1*%
X117800000Y-113200000D02*
X117800000Y-116800000D01*
X117800000Y-116800000D02*
X123550000Y-116800000D01*
X123550000Y-113200000D02*
X117800000Y-113200000D01*
D10*
%TO.C,TP1*%
X163900000Y-99900000D02*
G75*
G03*
X163900000Y-99900000I-1400000J0D01*
G01*
D11*
%TO.C,R25*%
X165362742Y-86877500D02*
X165837258Y-86877500D01*
X165362742Y-87922500D02*
X165837258Y-87922500D01*
%TO.C,C26*%
X181638748Y-80735000D02*
X182161252Y-80735000D01*
X181638748Y-79265000D02*
X182161252Y-79265000D01*
%TO.C,C25*%
X181910000Y-84840580D02*
X181910000Y-84559420D01*
X180890000Y-84840580D02*
X180890000Y-84559420D01*
%TO.C,C20*%
X162553733Y-133590000D02*
X162846267Y-133590000D01*
X162553733Y-134610000D02*
X162846267Y-134610000D01*
%TO.C,R2*%
X138237258Y-143022500D02*
X137762742Y-143022500D01*
X138237258Y-141977500D02*
X137762742Y-141977500D01*
%TO.C,D6*%
X115400000Y-105350000D02*
X115400000Y-107050000D01*
X115400000Y-107050000D02*
X117950000Y-107050000D01*
X115400000Y-105350000D02*
X117950000Y-105350000D01*
%TO.C,D9*%
X164800000Y-89935000D02*
X167085000Y-89935000D01*
X167085000Y-88465000D02*
X164800000Y-88465000D01*
X167085000Y-89935000D02*
X167085000Y-88465000D01*
%TO.C,J9*%
X105825000Y-122900000D02*
X106575000Y-122900000D01*
X106875000Y-120800000D02*
X105625000Y-120800000D01*
X106875000Y-122050000D02*
X106875000Y-120800000D01*
X106575000Y-122900000D02*
X106575000Y-121100000D01*
X106575000Y-130400000D02*
X106575000Y-124400000D01*
X105825000Y-130400000D02*
X106575000Y-130400000D01*
X106575000Y-133700000D02*
X106575000Y-131900000D01*
X106575000Y-131900000D02*
X105825000Y-131900000D01*
X100615000Y-121090000D02*
X100615000Y-133710000D01*
X106575000Y-124400000D02*
X105825000Y-124400000D01*
X104325000Y-121850000D02*
X101375000Y-121850000D01*
X101375000Y-132950000D02*
X101375000Y-127400000D01*
X105825000Y-131900000D02*
X105825000Y-133700000D01*
X100615000Y-133710000D02*
X106585000Y-133710000D01*
X105825000Y-133700000D02*
X106575000Y-133700000D01*
X104325000Y-121100000D02*
X104325000Y-121850000D01*
X104325000Y-133700000D02*
X104325000Y-132950000D01*
X105825000Y-121100000D02*
X105825000Y-122900000D01*
X106585000Y-133710000D02*
X106585000Y-121090000D01*
X106585000Y-121090000D02*
X100615000Y-121090000D01*
X101375000Y-121850000D02*
X101375000Y-127400000D01*
X106575000Y-121100000D02*
X105825000Y-121100000D01*
X104325000Y-132950000D02*
X101375000Y-132950000D01*
X105825000Y-124400000D02*
X105825000Y-130400000D01*
%TO.C,R17*%
X150362742Y-137252500D02*
X150837258Y-137252500D01*
X150362742Y-138297500D02*
X150837258Y-138297500D01*
%TO.C,U1*%
X133700000Y-83385000D02*
X131750000Y-83385000D01*
X133700000Y-78265000D02*
X135650000Y-78265000D01*
X133700000Y-78265000D02*
X130250000Y-78265000D01*
X133700000Y-83385000D02*
X135650000Y-83385000D01*
D13*
%TO.C,BT1*%
X188525000Y-55675000D02*
X111475000Y-55675000D01*
X110500000Y-64300000D02*
X109000000Y-64300000D01*
X190250000Y-65050000D02*
X190250000Y-63550000D01*
X188525000Y-76325000D02*
X188525000Y-55675000D01*
X111475000Y-55675000D02*
X111475000Y-76325000D01*
X111475000Y-76325000D02*
X188525000Y-76325000D01*
X189500000Y-64300000D02*
X191000000Y-64300000D01*
D11*
%TO.C,C18*%
X119490000Y-131609420D02*
X119490000Y-131890580D01*
X120510000Y-131609420D02*
X120510000Y-131890580D01*
%TO.C,R14*%
X126254724Y-143822500D02*
X125745276Y-143822500D01*
X126254724Y-142777500D02*
X125745276Y-142777500D01*
%TO.C,U2*%
X132550000Y-136831000D02*
X132550000Y-137085000D01*
X126569000Y-123369000D02*
X126569000Y-136831000D01*
X126569000Y-136831000D02*
X139015000Y-136831000D01*
X140031000Y-131850000D02*
X140285000Y-131850000D01*
X140031000Y-129350000D02*
X140412000Y-129350000D01*
X140031000Y-126850000D02*
X140285000Y-126850000D01*
X140031000Y-123369000D02*
X126569000Y-123369000D01*
X126569000Y-132350000D02*
X126315000Y-132350000D01*
X135550000Y-123369000D02*
X135550000Y-122988000D01*
X130550000Y-122988000D02*
X130550000Y-123369000D01*
X126569000Y-129850000D02*
X126188000Y-129850000D01*
X133050000Y-123369000D02*
X133050000Y-123115000D01*
X126569000Y-127350000D02*
X126315000Y-127350000D01*
X135050000Y-136831000D02*
X135050000Y-137212000D01*
X130050000Y-136831000D02*
X130050000Y-137212000D01*
X140031000Y-135815000D02*
X140031000Y-123369000D01*
X139015000Y-136831000D02*
X140031000Y-135815000D01*
D14*
X139269000Y-135942000D02*
G75*
G03*
X139269000Y-135942000I-127000J0D01*
G01*
D11*
%TO.C,C1*%
X150459420Y-140085000D02*
X150740580Y-140085000D01*
X150459420Y-139065000D02*
X150740580Y-139065000D01*
%TO.C,R19*%
X135362742Y-139577500D02*
X135837258Y-139577500D01*
X135362742Y-140622500D02*
X135837258Y-140622500D01*
%TO.C,JP1*%
X111100000Y-108900000D02*
X111700000Y-108900000D01*
X112400000Y-109600000D02*
X112400000Y-111000000D01*
X111700000Y-111700000D02*
X111100000Y-111700000D01*
X110400000Y-111000000D02*
X110400000Y-109600000D01*
X112400000Y-109600000D02*
G75*
G03*
X111700000Y-108900000I-699999J1D01*
G01*
X111100000Y-108900000D02*
G75*
G03*
X110400000Y-109600000I-1J-699999D01*
G01*
X111700000Y-111700000D02*
G75*
G03*
X112400000Y-111000000I0J700000D01*
G01*
X110400000Y-111000000D02*
G75*
G03*
X111100000Y-111700000I700000J0D01*
G01*
%TO.C,C4*%
X146086000Y-97947500D02*
X141514000Y-97947500D01*
X141514000Y-97947500D02*
X141514000Y-99852500D01*
X140498000Y-99408000D02*
X141260000Y-99408000D01*
X146086000Y-99852500D02*
X146086000Y-97947500D01*
X140879000Y-99027000D02*
X140879000Y-99789000D01*
X141514000Y-99852500D02*
X146086000Y-99852500D01*
G36*
X143228500Y-100106500D02*
G01*
X142593500Y-100106500D01*
X142593500Y-99852500D01*
X143228500Y-99852500D01*
X143228500Y-100106500D01*
G37*
D12*
X143228500Y-100106500D02*
X142593500Y-100106500D01*
X142593500Y-99852500D01*
X143228500Y-99852500D01*
X143228500Y-100106500D01*
G36*
X143228500Y-97947500D02*
G01*
X142593500Y-97947500D01*
X142593500Y-97693500D01*
X143228500Y-97693500D01*
X143228500Y-97947500D01*
G37*
X143228500Y-97947500D02*
X142593500Y-97947500D01*
X142593500Y-97693500D01*
X143228500Y-97693500D01*
X143228500Y-97947500D01*
%TO.C,kibuzzard-61FFCBC3*%
G36*
X147344450Y-145795994D02*
G01*
X147409538Y-145869812D01*
X147442875Y-145976175D01*
X147452400Y-146100000D01*
X147449423Y-146170048D01*
X147440494Y-146234144D01*
X147400806Y-146339713D01*
X147327781Y-146409563D01*
X147215862Y-146434963D01*
X147198400Y-146434963D01*
X147180937Y-146433375D01*
X147180937Y-145772975D01*
X147209512Y-145769006D01*
X147238087Y-145768212D01*
X147344450Y-145795994D01*
G37*
G36*
X148909725Y-145772181D02*
G01*
X148954175Y-145788056D01*
X148984338Y-145821394D01*
X148995450Y-145877750D01*
X148957350Y-145967444D01*
X148844638Y-145999987D01*
X148768438Y-145999987D01*
X148768438Y-145774562D01*
X148811300Y-145769800D01*
X148857338Y-145768212D01*
X148909725Y-145772181D01*
G37*
G36*
X143275820Y-145074607D02*
G01*
X151324180Y-145074607D01*
X151324180Y-147125393D01*
X143275820Y-147125393D01*
X143275820Y-146538150D01*
X143788450Y-146538150D01*
X143897987Y-146586569D01*
X143983316Y-146606214D01*
X144093250Y-146612763D01*
X144204640Y-146604384D01*
X144295392Y-146579249D01*
X144365506Y-146537356D01*
X144432777Y-146446273D01*
X144455200Y-146323838D01*
X144448453Y-146249820D01*
X144428212Y-146189694D01*
X144359156Y-146100794D01*
X144267081Y-146043644D01*
X144171037Y-146004750D01*
X144109919Y-145980937D01*
X144054356Y-145951569D01*
X144013875Y-145913469D01*
X143998000Y-145863462D01*
X144015286Y-145800844D01*
X144067144Y-145763274D01*
X144153575Y-145750750D01*
X144265494Y-145766625D01*
X144353600Y-145804725D01*
X144410750Y-145653912D01*
X144301157Y-145609462D01*
X144555212Y-145609462D01*
X144558784Y-145730708D01*
X144563150Y-145856319D01*
X144568508Y-145983716D01*
X144575056Y-146110319D01*
X144582795Y-146235731D01*
X144591725Y-146359556D01*
X144602044Y-146479214D01*
X144613950Y-146592125D01*
X144775875Y-146592125D01*
X144809212Y-146487747D01*
X144845725Y-146374638D01*
X144883031Y-146261528D01*
X144918750Y-146157150D01*
X144953675Y-146264505D01*
X144988600Y-146377019D01*
X145023525Y-146488342D01*
X145058450Y-146592125D01*
X145220375Y-146592125D01*
X145221412Y-146581013D01*
X145398175Y-146581013D01*
X145505331Y-146599269D01*
X145607725Y-146604825D01*
X145703570Y-146597880D01*
X145774411Y-146581013D01*
X146985675Y-146581013D01*
X147092831Y-146599269D01*
X147195225Y-146604825D01*
X147291070Y-146597880D01*
X147315241Y-146592125D01*
X147793713Y-146592125D01*
X148423950Y-146592125D01*
X148423950Y-146576250D01*
X148573175Y-146576250D01*
X148641834Y-146588752D01*
X148711288Y-146597681D01*
X148779947Y-146603039D01*
X148846225Y-146604825D01*
X148924608Y-146601055D01*
X148997831Y-146589744D01*
X149063713Y-146569503D01*
X149120069Y-146538944D01*
X149201825Y-146443694D01*
X149224447Y-146376820D01*
X149231988Y-146295263D01*
X149224121Y-146236525D01*
X149343113Y-146236525D01*
X149347081Y-146318281D01*
X149358988Y-146392100D01*
X149380419Y-146456791D01*
X149412963Y-146511163D01*
X149515356Y-146586569D01*
X149587389Y-146606214D01*
X149674900Y-146612763D01*
X149763800Y-146606214D01*
X149836825Y-146586569D01*
X149895563Y-146554620D01*
X149941600Y-146511163D01*
X149975334Y-146456791D01*
X149997163Y-146392100D01*
X150009069Y-146318281D01*
X150013038Y-146236525D01*
X150013038Y-146100000D01*
X150117813Y-146100000D01*
X150124956Y-146219261D01*
X150146388Y-146323044D01*
X150180916Y-146411150D01*
X150227350Y-146483381D01*
X150285095Y-146539738D01*
X150353556Y-146580219D01*
X150431939Y-146604627D01*
X150519450Y-146612763D01*
X150616486Y-146608794D01*
X150698044Y-146596888D01*
X150806788Y-146568313D01*
X150806788Y-146077775D01*
X150611525Y-146077775D01*
X150611525Y-146436550D01*
X150573425Y-146441313D01*
X150535325Y-146442900D01*
X150440472Y-146422064D01*
X150371813Y-146359556D01*
X150340944Y-146293675D01*
X150322424Y-146207156D01*
X150316250Y-146100000D01*
X150319623Y-146027173D01*
X150329744Y-145961094D01*
X150374194Y-145853144D01*
X150452775Y-145782500D01*
X150570250Y-145757100D01*
X150675025Y-145774562D01*
X150760750Y-145814250D01*
X150811550Y-145658675D01*
X150779006Y-145639625D01*
X150724238Y-145615812D01*
X150645656Y-145595969D01*
X150543263Y-145587237D01*
X150457141Y-145595373D01*
X150376575Y-145619781D01*
X150303947Y-145660461D01*
X150241638Y-145717412D01*
X150190441Y-145790239D01*
X150151150Y-145878544D01*
X150126147Y-145981930D01*
X150117813Y-146100000D01*
X150013038Y-146100000D01*
X150013038Y-145609462D01*
X149817775Y-145609462D01*
X149817775Y-146222238D01*
X149811425Y-146326219D01*
X149789200Y-146394481D01*
X149746338Y-146431788D01*
X149678075Y-146442900D01*
X149609813Y-146431788D01*
X149567744Y-146395275D01*
X149546313Y-146327806D01*
X149539963Y-146223825D01*
X149539963Y-145609462D01*
X149343113Y-145609462D01*
X149343113Y-146236525D01*
X149224121Y-146236525D01*
X149223058Y-146228588D01*
X149196269Y-146165088D01*
X149144477Y-146109525D01*
X149060538Y-146066662D01*
X149151819Y-145980937D01*
X149177417Y-145922994D01*
X149185950Y-145857112D01*
X149171663Y-145765037D01*
X149117688Y-145681694D01*
X149008150Y-145621369D01*
X148927981Y-145604105D01*
X148827175Y-145598350D01*
X148695413Y-145605494D01*
X148573175Y-145622162D01*
X148573175Y-146576250D01*
X148423950Y-146576250D01*
X148423950Y-146430200D01*
X147988975Y-146430200D01*
X147988975Y-146153975D01*
X148336638Y-146153975D01*
X148336638Y-145992050D01*
X147988975Y-145992050D01*
X147988975Y-145771387D01*
X148389025Y-145771387D01*
X148389025Y-145609462D01*
X147793713Y-145609462D01*
X147793713Y-146592125D01*
X147315241Y-146592125D01*
X147378581Y-146577044D01*
X147456170Y-146541127D01*
X147522250Y-146488938D01*
X147576027Y-146419683D01*
X147616706Y-146332569D01*
X147642305Y-146226405D01*
X147650838Y-146100000D01*
X147643098Y-145976373D01*
X147619881Y-145872194D01*
X147582773Y-145786072D01*
X147533363Y-145716619D01*
X147471648Y-145663636D01*
X147397631Y-145626925D01*
X147313295Y-145605494D01*
X147220625Y-145598350D01*
X147111087Y-145603112D01*
X146985675Y-145622162D01*
X146985675Y-146581013D01*
X145774411Y-146581013D01*
X145791081Y-146577044D01*
X145868670Y-146541127D01*
X145934750Y-146488938D01*
X145988527Y-146419683D01*
X146029206Y-146332569D01*
X146054805Y-146226405D01*
X146063337Y-146100000D01*
X146055598Y-145976373D01*
X146032381Y-145872194D01*
X145995273Y-145786072D01*
X145945862Y-145716619D01*
X145884148Y-145663636D01*
X145810131Y-145626925D01*
X145725795Y-145605494D01*
X145633125Y-145598350D01*
X145523587Y-145603112D01*
X145398175Y-145622162D01*
X145398175Y-146581013D01*
X145221412Y-146581013D01*
X145230892Y-146479413D01*
X145240219Y-146360350D01*
X145248355Y-146237120D01*
X145255300Y-146111906D01*
X145261253Y-145985303D01*
X145266413Y-145857906D01*
X145271175Y-145731898D01*
X145275938Y-145609462D01*
X145094962Y-145609462D01*
X145095359Y-145704911D01*
X145096550Y-145803931D01*
X145098137Y-145904142D01*
X145099725Y-146003162D01*
X145101312Y-146100595D01*
X145102900Y-146196044D01*
X145104091Y-146287523D01*
X145104487Y-146373050D01*
X145068769Y-146246050D01*
X145035431Y-146130163D01*
X145007650Y-146031737D01*
X144988600Y-145957125D01*
X144845725Y-145957125D01*
X144823500Y-146034912D01*
X144792544Y-146142863D01*
X144757619Y-146261925D01*
X144725075Y-146373050D01*
X144725472Y-146287523D01*
X144726662Y-146196044D01*
X144728250Y-146100397D01*
X144729837Y-146002369D01*
X144731425Y-145902952D01*
X144733012Y-145803137D01*
X144734600Y-145704712D01*
X144736187Y-145609462D01*
X144555212Y-145609462D01*
X144301157Y-145609462D01*
X144297244Y-145607875D01*
X144224020Y-145592397D01*
X144139287Y-145587237D01*
X144042009Y-145595881D01*
X143959724Y-145621810D01*
X143892431Y-145665025D01*
X143825161Y-145757894D01*
X143802737Y-145880925D01*
X143828137Y-145997606D01*
X143892431Y-146076187D01*
X143978950Y-146128575D01*
X144071025Y-146165088D01*
X144137700Y-146192869D01*
X144198025Y-146226206D01*
X144242475Y-146268275D01*
X144259937Y-146322250D01*
X144252794Y-146369081D01*
X144226600Y-146410356D01*
X144175006Y-146438931D01*
X144093250Y-146449250D01*
X144014073Y-146443694D01*
X143947994Y-146427025D01*
X143845600Y-146379400D01*
X143788450Y-146538150D01*
X143275820Y-146538150D01*
X143275820Y-145074607D01*
G37*
G36*
X145756950Y-145795994D02*
G01*
X145822037Y-145869812D01*
X145855375Y-145976175D01*
X145864900Y-146100000D01*
X145861923Y-146170048D01*
X145852994Y-146234144D01*
X145813306Y-146339713D01*
X145740281Y-146409563D01*
X145628362Y-146434963D01*
X145610900Y-146434963D01*
X145593437Y-146433375D01*
X145593437Y-145772975D01*
X145622012Y-145769006D01*
X145650587Y-145768212D01*
X145756950Y-145795994D01*
G37*
G36*
X148994656Y-146192869D02*
G01*
X149039900Y-146295263D01*
X149024025Y-146365906D01*
X148983544Y-146408769D01*
X148927188Y-146429406D01*
X148862100Y-146434963D01*
X148813681Y-146433375D01*
X148768438Y-146428613D01*
X148768438Y-146161913D01*
X148873213Y-146161913D01*
X148994656Y-146192869D01*
G37*
%TO.C,kibuzzard-61FFCA2F*%
G36*
X169600682Y-97500000D02*
G01*
X170565529Y-96052729D01*
X197234471Y-96052729D01*
X198199318Y-97500000D01*
X197234471Y-98947271D01*
X170565529Y-98947271D01*
X169617351Y-97525003D01*
X171078159Y-97525003D01*
X171093935Y-97703895D01*
X171141262Y-97869094D01*
X171212998Y-98013159D01*
X171301997Y-98128650D01*
X171405879Y-98222114D01*
X171522262Y-98300100D01*
X171643111Y-98360227D01*
X171760387Y-98400113D01*
X171875283Y-98422437D01*
X171988987Y-98429878D01*
X172104180Y-98420353D01*
X172223541Y-98391778D01*
X172384275Y-98329866D01*
X172466428Y-98279859D01*
X172541437Y-98220328D01*
X172573584Y-98136984D01*
X172521197Y-98003634D01*
X172438448Y-97903622D01*
X172361653Y-97870284D01*
X172247353Y-97917909D01*
X172204491Y-97948866D01*
X172110431Y-97986966D01*
X171971128Y-98006016D01*
X171816942Y-97979822D01*
X171668709Y-97901241D01*
X171547266Y-97751222D01*
X171511547Y-97649721D01*
X171501009Y-97548816D01*
X172695028Y-97548816D01*
X172710878Y-97723540D01*
X172758429Y-97885763D01*
X172837680Y-98035484D01*
X172948631Y-98172703D01*
X173082204Y-98287301D01*
X173229321Y-98369156D01*
X173389981Y-98418270D01*
X173564184Y-98434641D01*
X173738016Y-98418046D01*
X173897559Y-98368263D01*
X174042816Y-98285292D01*
X174148278Y-98191753D01*
X174576216Y-98191753D01*
X174579787Y-98277478D01*
X174602409Y-98339391D01*
X174665512Y-98387611D01*
X174783384Y-98403684D01*
X174904828Y-98387611D01*
X174969122Y-98339391D01*
X174991744Y-98278669D01*
X174995316Y-98196516D01*
X174995316Y-97394034D01*
X175039369Y-97453268D01*
X175147716Y-97602394D01*
X175264992Y-97762830D01*
X175335834Y-97855997D01*
X175354884Y-97882191D01*
X175417987Y-97931006D01*
X175515619Y-97956009D01*
X175615631Y-97928625D01*
X175673972Y-97885763D01*
X175716834Y-97829803D01*
X175768627Y-97759259D01*
X175862091Y-97628588D01*
X175962698Y-97489582D01*
X176035922Y-97394034D01*
X176035922Y-98191753D01*
X176047828Y-98315578D01*
X176081166Y-98363203D01*
X176143078Y-98391778D01*
X176252616Y-98403684D01*
X176366916Y-98389397D01*
X176434781Y-98326889D01*
X176457403Y-98196516D01*
X176457403Y-98191753D01*
X176647903Y-98191753D01*
X176651475Y-98277478D01*
X176674097Y-98339391D01*
X176737200Y-98387611D01*
X176855072Y-98403684D01*
X176976516Y-98387611D01*
X177040809Y-98339391D01*
X177063431Y-98278669D01*
X177067003Y-98196516D01*
X177067003Y-97394034D01*
X177111056Y-97453268D01*
X177219403Y-97602394D01*
X177336680Y-97762830D01*
X177407522Y-97855997D01*
X177426572Y-97882191D01*
X177489675Y-97931006D01*
X177587306Y-97956009D01*
X177687319Y-97928625D01*
X177745659Y-97885763D01*
X177788522Y-97829803D01*
X177840314Y-97759259D01*
X177933778Y-97628588D01*
X178034386Y-97489582D01*
X178107609Y-97394034D01*
X178107609Y-98191753D01*
X178119516Y-98315578D01*
X178152853Y-98363203D01*
X178214766Y-98391778D01*
X178324303Y-98403684D01*
X178438603Y-98389397D01*
X178506469Y-98326889D01*
X178529091Y-98196516D01*
X178529091Y-97775034D01*
X178719591Y-97775034D01*
X178737185Y-97940796D01*
X178789970Y-98088830D01*
X178877944Y-98219138D01*
X178992641Y-98320341D01*
X179125594Y-98381063D01*
X179276803Y-98401303D01*
X179453016Y-98348916D01*
X179517309Y-98296528D01*
X179560172Y-98248903D01*
X179583984Y-98346534D01*
X179645302Y-98389397D01*
X179762578Y-98403684D01*
X179882236Y-98388206D01*
X179945934Y-98341772D01*
X179968556Y-98281050D01*
X179972128Y-98201278D01*
X179972128Y-98194134D01*
X180162628Y-98194134D01*
X180166200Y-98276288D01*
X180186441Y-98339391D01*
X180248948Y-98387611D01*
X180369797Y-98403684D01*
X180491836Y-98387611D01*
X180553153Y-98339391D01*
X180575775Y-98278669D01*
X180579347Y-98196516D01*
X180579347Y-97775034D01*
X180637687Y-97625016D01*
X180790087Y-97567866D01*
X180940106Y-97622634D01*
X180996066Y-97775034D01*
X180996066Y-98194134D01*
X181010353Y-98315578D01*
X181072266Y-98381658D01*
X181205616Y-98403684D01*
X181328250Y-98387611D01*
X181391353Y-98339391D01*
X181411594Y-98278669D01*
X181415166Y-98196516D01*
X181605666Y-98196516D01*
X181609237Y-98279859D01*
X181629478Y-98341772D01*
X181691986Y-98389992D01*
X181812834Y-98406066D01*
X181934873Y-98390588D01*
X181996191Y-98344153D01*
X182018812Y-98281050D01*
X182022384Y-98198897D01*
X182022384Y-97773844D01*
X182177166Y-97773844D01*
X182192644Y-97920886D01*
X182239078Y-98054831D01*
X182309920Y-98169429D01*
X182398622Y-98258428D01*
X182536999Y-98347064D01*
X182679080Y-98400245D01*
X182824866Y-98417972D01*
X183007031Y-98394159D01*
X183158241Y-98322722D01*
X183256467Y-98241164D01*
X183289209Y-98153653D01*
X183234441Y-98029828D01*
X183139786Y-97935173D01*
X183060609Y-97903622D01*
X182954644Y-97947675D01*
X182814150Y-97991728D01*
X182672466Y-97935769D01*
X182605791Y-97778606D01*
X182606829Y-97776225D01*
X183408272Y-97776225D01*
X183427851Y-97935372D01*
X183486589Y-98081025D01*
X183584484Y-98213184D01*
X183705267Y-98317695D01*
X183832664Y-98380401D01*
X183966675Y-98401303D01*
X184143185Y-98369752D01*
X184260759Y-98275097D01*
X184311956Y-98369156D01*
X184485788Y-98401303D01*
X184591455Y-98385825D01*
X184648903Y-98339391D01*
X184669144Y-98276288D01*
X184672716Y-98194134D01*
X184672716Y-97391653D01*
X184803684Y-97391653D01*
X184838213Y-97529766D01*
X184925128Y-97570247D01*
X185022759Y-97563103D01*
X185022759Y-97915528D01*
X185037047Y-98076130D01*
X185079909Y-98202336D01*
X185151347Y-98294147D01*
X185250301Y-98356324D01*
X185375714Y-98393630D01*
X185527584Y-98406066D01*
X185607356Y-98402494D01*
X185670459Y-98382253D01*
X185720466Y-98319745D01*
X185737134Y-98198897D01*
X185736317Y-98196516D01*
X185932397Y-98196516D01*
X185935969Y-98279859D01*
X185956209Y-98341772D01*
X186018717Y-98389992D01*
X186139566Y-98406066D01*
X186261605Y-98390588D01*
X186322922Y-98344153D01*
X186345544Y-98281050D01*
X186349116Y-98198897D01*
X186349116Y-97779797D01*
X186503897Y-97779797D01*
X186529198Y-97960474D01*
X186605100Y-98121506D01*
X186717912Y-98254261D01*
X186853941Y-98350106D01*
X187003959Y-98408149D01*
X187158741Y-98427497D01*
X187313224Y-98409340D01*
X187462350Y-98354869D01*
X187597784Y-98262000D01*
X187655500Y-98194134D01*
X187968366Y-98194134D01*
X187971937Y-98276288D01*
X187992178Y-98339391D01*
X188054686Y-98387611D01*
X188175534Y-98403684D01*
X188297573Y-98387611D01*
X188358891Y-98339391D01*
X188381513Y-98278669D01*
X188385084Y-98196516D01*
X188385084Y-97775034D01*
X188443425Y-97625016D01*
X188595825Y-97567866D01*
X188745844Y-97622634D01*
X188801803Y-97775034D01*
X188801803Y-98194134D01*
X188816091Y-98315578D01*
X188878003Y-98381658D01*
X189011353Y-98403684D01*
X189133988Y-98387611D01*
X189197091Y-98339391D01*
X189217331Y-98278669D01*
X189220903Y-98196516D01*
X189220903Y-98189372D01*
X190013859Y-98189372D01*
X190028147Y-98313197D01*
X190091250Y-98381063D01*
X190223409Y-98403684D01*
X190849678Y-98403684D01*
X190992950Y-98385825D01*
X191121141Y-98332247D01*
X191234250Y-98242950D01*
X191322753Y-98127195D01*
X191377125Y-97994242D01*
X191397366Y-97844091D01*
X191389854Y-97779797D01*
X191516428Y-97779797D01*
X191541729Y-97960474D01*
X191617631Y-98121506D01*
X191730443Y-98254261D01*
X191866472Y-98350106D01*
X192016491Y-98408149D01*
X192171272Y-98427497D01*
X192325755Y-98409340D01*
X192474881Y-98354869D01*
X192610315Y-98262000D01*
X192723722Y-98128650D01*
X192800517Y-97964046D01*
X192826116Y-97777416D01*
X192825970Y-97776225D01*
X192945178Y-97776225D01*
X192964757Y-97935372D01*
X193023495Y-98081025D01*
X193121391Y-98213184D01*
X193242173Y-98317695D01*
X193369570Y-98380401D01*
X193503581Y-98401303D01*
X193680091Y-98369752D01*
X193797666Y-98275097D01*
X193848863Y-98369156D01*
X194022694Y-98401303D01*
X194128362Y-98385825D01*
X194185809Y-98339391D01*
X194206050Y-98276288D01*
X194206619Y-98263191D01*
X194400122Y-98263191D01*
X194442984Y-98365584D01*
X194607291Y-98406066D01*
X194728734Y-98390588D01*
X194793028Y-98344153D01*
X194815650Y-98281050D01*
X194819222Y-98198897D01*
X194819222Y-97778606D01*
X195464541Y-97778606D01*
X195484120Y-97937621D01*
X195542857Y-98082877D01*
X195640753Y-98214375D01*
X195762461Y-98318224D01*
X195892636Y-98380533D01*
X196031278Y-98401303D01*
X196190227Y-98372728D01*
X196309884Y-98287003D01*
X196365546Y-98374514D01*
X196494431Y-98403684D01*
X196627484Y-98387611D01*
X196695647Y-98339391D01*
X196718269Y-98278669D01*
X196721841Y-98196516D01*
X196721841Y-96774909D01*
X196718269Y-96692756D01*
X196696838Y-96629653D01*
X196633734Y-96579647D01*
X196513481Y-96565359D01*
X196393228Y-96579647D01*
X196330125Y-96628462D01*
X196308694Y-96690375D01*
X196305122Y-96772528D01*
X196305122Y-97272591D01*
X196187845Y-97183294D01*
X196031278Y-97153528D01*
X195893827Y-97174430D01*
X195764049Y-97237136D01*
X195641944Y-97341647D01*
X195543386Y-97473806D01*
X195484252Y-97619459D01*
X195464541Y-97778606D01*
X194819222Y-97778606D01*
X194819222Y-97698834D01*
X194875181Y-97589297D01*
X194995434Y-97544053D01*
X195099019Y-97563103D01*
X195181172Y-97582153D01*
X195312141Y-97491666D01*
X195357384Y-97324978D01*
X195327619Y-97214250D01*
X195252609Y-97165434D01*
X195169266Y-97145194D01*
X195075206Y-97139241D01*
X194945428Y-97179722D01*
X194848988Y-97244016D01*
X194814459Y-97284497D01*
X194788266Y-97205916D01*
X194725758Y-97164839D01*
X194609672Y-97151147D01*
X194487038Y-97167220D01*
X194423934Y-97215441D01*
X194403694Y-97276162D01*
X194400122Y-97358316D01*
X194400122Y-98263191D01*
X194206619Y-98263191D01*
X194209622Y-98194134D01*
X194209622Y-97360697D01*
X194206050Y-97278544D01*
X194184619Y-97215441D01*
X194121516Y-97165434D01*
X193983403Y-97151147D01*
X193849458Y-97184484D01*
X193795284Y-97284497D01*
X193752422Y-97235681D01*
X193659553Y-97182103D01*
X193511916Y-97153528D01*
X193374465Y-97174298D01*
X193244686Y-97236607D01*
X193122581Y-97340456D01*
X193024024Y-97471954D01*
X192964890Y-97617210D01*
X192945178Y-97776225D01*
X192825970Y-97776225D01*
X192804155Y-97598160D01*
X192738274Y-97441395D01*
X192628472Y-97307119D01*
X192490095Y-97204593D01*
X192338489Y-97143077D01*
X192173653Y-97122572D01*
X192008553Y-97143209D01*
X191856153Y-97205122D01*
X191716453Y-97308309D01*
X191605328Y-97443247D01*
X191538653Y-97600409D01*
X191516428Y-97779797D01*
X191389854Y-97779797D01*
X191381755Y-97710476D01*
X191334924Y-97585857D01*
X191256872Y-97470234D01*
X191324738Y-97332717D01*
X191347359Y-97182103D01*
X191330161Y-97044520D01*
X191278568Y-96920695D01*
X191192578Y-96810628D01*
X191086216Y-96725961D01*
X190963978Y-96675161D01*
X190825866Y-96658228D01*
X190225791Y-96658228D01*
X190103156Y-96674302D01*
X190040053Y-96722522D01*
X190017431Y-96784434D01*
X190013859Y-96867778D01*
X190013859Y-98189372D01*
X189220903Y-98189372D01*
X189220903Y-97777416D01*
X189203308Y-97611654D01*
X189150524Y-97463620D01*
X189062550Y-97333312D01*
X188948118Y-97232109D01*
X188815958Y-97171387D01*
X188666072Y-97151147D01*
X188487478Y-97205916D01*
X188423184Y-97255922D01*
X188380322Y-97303547D01*
X188356509Y-97205916D01*
X188295192Y-97164839D01*
X188177916Y-97151147D01*
X188057067Y-97166030D01*
X187994559Y-97210678D01*
X187971937Y-97271400D01*
X187968366Y-97351172D01*
X187968366Y-98194134D01*
X187655500Y-98194134D01*
X187711191Y-98128650D01*
X187787986Y-97964046D01*
X187813584Y-97777416D01*
X187791624Y-97598160D01*
X187725743Y-97441395D01*
X187615941Y-97307119D01*
X187477564Y-97204593D01*
X187325957Y-97143077D01*
X187161122Y-97122572D01*
X186996022Y-97143209D01*
X186843622Y-97205122D01*
X186703922Y-97308309D01*
X186592797Y-97443247D01*
X186526122Y-97600409D01*
X186503897Y-97779797D01*
X186349116Y-97779797D01*
X186349116Y-97365459D01*
X186346734Y-97296403D01*
X186303872Y-97194009D01*
X186141947Y-97153528D01*
X186019313Y-97169006D01*
X185956209Y-97215441D01*
X185935969Y-97278544D01*
X185932397Y-97360697D01*
X185932397Y-98196516D01*
X185736317Y-98196516D01*
X185682366Y-98039353D01*
X185619263Y-98016731D01*
X185533538Y-98013159D01*
X185457338Y-97984584D01*
X185437097Y-97891716D01*
X185437097Y-97563103D01*
X185591878Y-97572628D01*
X185674031Y-97569056D01*
X185737134Y-97548816D01*
X185785355Y-97486308D01*
X185801428Y-97365459D01*
X185785950Y-97243420D01*
X185739516Y-97182103D01*
X185676413Y-97159481D01*
X185595450Y-97155909D01*
X185437097Y-97165434D01*
X185437097Y-96932072D01*
X185425191Y-96810628D01*
X185388464Y-96772528D01*
X185932397Y-96772528D01*
X185935969Y-96854681D01*
X185957400Y-96917784D01*
X186020503Y-96967791D01*
X186140756Y-96982078D01*
X186261009Y-96967791D01*
X186324113Y-96918975D01*
X186345544Y-96857062D01*
X186349116Y-96774909D01*
X186345544Y-96692756D01*
X186322922Y-96629653D01*
X186262200Y-96581433D01*
X186141947Y-96565359D01*
X186019313Y-96581433D01*
X185956209Y-96629653D01*
X185935969Y-96690375D01*
X185932397Y-96772528D01*
X185388464Y-96772528D01*
X185361492Y-96744548D01*
X185232309Y-96722522D01*
X185110270Y-96737405D01*
X185048953Y-96782053D01*
X185026331Y-96839203D01*
X185022759Y-96920166D01*
X185022759Y-97165434D01*
X184944178Y-97155909D01*
X184848928Y-97186866D01*
X184815591Y-97249969D01*
X184803684Y-97391653D01*
X184672716Y-97391653D01*
X184672716Y-97360697D01*
X184669144Y-97278544D01*
X184647713Y-97215441D01*
X184584609Y-97165434D01*
X184446497Y-97151147D01*
X184312552Y-97184484D01*
X184258378Y-97284497D01*
X184215516Y-97235681D01*
X184122647Y-97182103D01*
X183975009Y-97153528D01*
X183837558Y-97174298D01*
X183707780Y-97236607D01*
X183585675Y-97340456D01*
X183487118Y-97471954D01*
X183427983Y-97617210D01*
X183408272Y-97776225D01*
X182606829Y-97776225D01*
X182674847Y-97620253D01*
X182823675Y-97563103D01*
X182946309Y-97603584D01*
X183074897Y-97655972D01*
X183155264Y-97623230D01*
X183239203Y-97525003D01*
X183289209Y-97388081D01*
X183227297Y-97279734D01*
X183160622Y-97234491D01*
X183122522Y-97210678D01*
X182996316Y-97161862D01*
X182820103Y-97136859D01*
X182673789Y-97154322D01*
X182533295Y-97206709D01*
X182398622Y-97294022D01*
X182309920Y-97382426D01*
X182239078Y-97495237D01*
X182192644Y-97627397D01*
X182177166Y-97773844D01*
X182022384Y-97773844D01*
X182022384Y-97365459D01*
X182020003Y-97296403D01*
X181977141Y-97194009D01*
X181815216Y-97153528D01*
X181692581Y-97169006D01*
X181629478Y-97215441D01*
X181609237Y-97278544D01*
X181605666Y-97360697D01*
X181605666Y-98196516D01*
X181415166Y-98196516D01*
X181415166Y-97777416D01*
X181397571Y-97611654D01*
X181344786Y-97463620D01*
X181256812Y-97333312D01*
X181142380Y-97232109D01*
X181010221Y-97171387D01*
X180860334Y-97151147D01*
X180681741Y-97205916D01*
X180617447Y-97255922D01*
X180574584Y-97303547D01*
X180550772Y-97205916D01*
X180489455Y-97164839D01*
X180372178Y-97151147D01*
X180251330Y-97166030D01*
X180188822Y-97210678D01*
X180166200Y-97271400D01*
X180162628Y-97351172D01*
X180162628Y-98194134D01*
X179972128Y-98194134D01*
X179972128Y-97358316D01*
X179968556Y-97276162D01*
X179948316Y-97213059D01*
X179885808Y-97164839D01*
X179764959Y-97148766D01*
X179642920Y-97164244D01*
X179581603Y-97210678D01*
X179558981Y-97273781D01*
X179555409Y-97355934D01*
X179555409Y-97777416D01*
X179497069Y-97927434D01*
X179344669Y-97984584D01*
X179194650Y-97929816D01*
X179138691Y-97777416D01*
X179138691Y-97360697D01*
X179124403Y-97239253D01*
X179061300Y-97171387D01*
X178929141Y-97148766D01*
X178806506Y-97164839D01*
X178743403Y-97213059D01*
X178723162Y-97274972D01*
X178719591Y-97358316D01*
X178719591Y-97775034D01*
X178529091Y-97775034D01*
X178529091Y-96874922D01*
X178525519Y-96791578D01*
X178518816Y-96772528D01*
X181605666Y-96772528D01*
X181609237Y-96854681D01*
X181630669Y-96917784D01*
X181693772Y-96967791D01*
X181814025Y-96982078D01*
X181934278Y-96967791D01*
X181997381Y-96918975D01*
X182018812Y-96857062D01*
X182022384Y-96774909D01*
X182018812Y-96692756D01*
X181996191Y-96629653D01*
X181935469Y-96581433D01*
X181815216Y-96565359D01*
X181692581Y-96581433D01*
X181629478Y-96629653D01*
X181609237Y-96690375D01*
X181605666Y-96772528D01*
X178518816Y-96772528D01*
X178502897Y-96727284D01*
X178440091Y-96679064D01*
X178318350Y-96662991D01*
X178194823Y-96679064D01*
X178126659Y-96727284D01*
X178061604Y-96810438D01*
X177975021Y-96922737D01*
X177866913Y-97064184D01*
X177737277Y-97234776D01*
X177586116Y-97434516D01*
X177045572Y-96724903D01*
X177031284Y-96710616D01*
X176970562Y-96678469D01*
X176859834Y-96662991D01*
X176738391Y-96678469D01*
X176674097Y-96724903D01*
X176651475Y-96788006D01*
X176647903Y-96870159D01*
X176647903Y-98191753D01*
X176457403Y-98191753D01*
X176457403Y-96874922D01*
X176453831Y-96791578D01*
X176431209Y-96727284D01*
X176368404Y-96679064D01*
X176246662Y-96662991D01*
X176123135Y-96679064D01*
X176054972Y-96727284D01*
X175989916Y-96810438D01*
X175903334Y-96922737D01*
X175795225Y-97064184D01*
X175665590Y-97234776D01*
X175514428Y-97434516D01*
X174973884Y-96724903D01*
X174959597Y-96710616D01*
X174898875Y-96678469D01*
X174788147Y-96662991D01*
X174666703Y-96678469D01*
X174602409Y-96724903D01*
X174579787Y-96788006D01*
X174576216Y-96870159D01*
X174576216Y-98191753D01*
X174148278Y-98191753D01*
X174173784Y-98169131D01*
X174282131Y-98029382D01*
X174359522Y-97875642D01*
X174405956Y-97707913D01*
X174421434Y-97526194D01*
X174405212Y-97345144D01*
X174356545Y-97179424D01*
X174275434Y-97029033D01*
X174161878Y-96893972D01*
X174026296Y-96782500D01*
X173879105Y-96702877D01*
X173720305Y-96655103D01*
X173549897Y-96639178D01*
X173387972Y-96655847D01*
X173230809Y-96705853D01*
X173084958Y-96785030D01*
X172956966Y-96889209D01*
X172849809Y-97019880D01*
X172766466Y-97178531D01*
X172712887Y-97357423D01*
X172695028Y-97548816D01*
X171501009Y-97548816D01*
X171499641Y-97535719D01*
X171511547Y-97421716D01*
X171547266Y-97320216D01*
X171666328Y-97172578D01*
X171817537Y-97092211D01*
X171971128Y-97065422D01*
X172121147Y-97085662D01*
X172237828Y-97146384D01*
X172359272Y-97198772D01*
X172437853Y-97166625D01*
X172525959Y-97070184D01*
X172575966Y-96938025D01*
X172514053Y-96824916D01*
X172447378Y-96782053D01*
X172390228Y-96748716D01*
X172215206Y-96678469D01*
X172100609Y-96652573D01*
X171987797Y-96643941D01*
X171830899Y-96658228D01*
X171674530Y-96701091D01*
X171518691Y-96772528D01*
X171401712Y-96847240D01*
X171298425Y-96938025D01*
X171210616Y-97049944D01*
X171140072Y-97188056D01*
X171093637Y-97347898D01*
X171078159Y-97525003D01*
X169617351Y-97525003D01*
X169600682Y-97500000D01*
G37*
G36*
X173718073Y-97093402D02*
G01*
X173863031Y-97191628D01*
X173939099Y-97288466D01*
X173984740Y-97404353D01*
X173999953Y-97539291D01*
X173984872Y-97673964D01*
X173939628Y-97789057D01*
X173864222Y-97884572D01*
X173720156Y-97981013D01*
X173559422Y-98013159D01*
X173398390Y-97980120D01*
X173253431Y-97881000D01*
X173177364Y-97784030D01*
X173131723Y-97669333D01*
X173116509Y-97536909D01*
X173131591Y-97404485D01*
X173176834Y-97289789D01*
X173252241Y-97192819D01*
X173396306Y-97093699D01*
X173557041Y-97060659D01*
X173718073Y-97093402D01*
G37*
G36*
X187318284Y-97598822D02*
G01*
X187373648Y-97670855D01*
X187392103Y-97772653D01*
X187372458Y-97875047D01*
X187313522Y-97948866D01*
X187156359Y-98008397D01*
X187001578Y-97950056D01*
X186944428Y-97877428D01*
X186925378Y-97776225D01*
X186943833Y-97674724D01*
X186999197Y-97601203D01*
X187158741Y-97541672D01*
X187318284Y-97598822D01*
G37*
G36*
X196242019Y-97636922D02*
G01*
X196297978Y-97780988D01*
X196239638Y-97922672D01*
X196093191Y-97986966D01*
X195943172Y-97922672D01*
X195881259Y-97779797D01*
X195938409Y-97635731D01*
X196090809Y-97570247D01*
X196242019Y-97636922D01*
G37*
G36*
X192330816Y-97598822D02*
G01*
X192386180Y-97670855D01*
X192404634Y-97772653D01*
X192384989Y-97875047D01*
X192326053Y-97948866D01*
X192168891Y-98008397D01*
X192014109Y-97950056D01*
X191956959Y-97877428D01*
X191937909Y-97776225D01*
X191956364Y-97674724D01*
X192011728Y-97601203D01*
X192171272Y-97541672D01*
X192330816Y-97598822D01*
G37*
G36*
X193722656Y-97634541D02*
G01*
X193778616Y-97778606D01*
X193720275Y-97920291D01*
X193573828Y-97984584D01*
X193423809Y-97921481D01*
X193361897Y-97779797D01*
X193420238Y-97634541D01*
X193572638Y-97567866D01*
X193722656Y-97634541D01*
G37*
G36*
X190886588Y-97103522D02*
G01*
X190925878Y-97186866D01*
X190918734Y-97272591D01*
X190804434Y-97322597D01*
X190657988Y-97355934D01*
X190613934Y-97492856D01*
X190656797Y-97629778D01*
X190785384Y-97663116D01*
X190918734Y-97682166D01*
X190962788Y-97729791D01*
X190975884Y-97820278D01*
X190938380Y-97941722D01*
X190825866Y-97982203D01*
X190435341Y-97982203D01*
X190435341Y-97079709D01*
X190768716Y-97079709D01*
X190886588Y-97103522D01*
G37*
G36*
X184185750Y-97634541D02*
G01*
X184241709Y-97778606D01*
X184183369Y-97920291D01*
X184036922Y-97984584D01*
X183886903Y-97921481D01*
X183824991Y-97779797D01*
X183883331Y-97634541D01*
X184035731Y-97567866D01*
X184185750Y-97634541D01*
G37*
D11*
%TO.C,U4*%
X122500000Y-105340000D02*
X120550000Y-105340000D01*
X122500000Y-105340000D02*
X124450000Y-105340000D01*
X122500000Y-110460000D02*
X120550000Y-110460000D01*
X122500000Y-110460000D02*
X125950000Y-110460000D01*
%TO.C,J5*%
X189995489Y-148695489D02*
X189995489Y-150695489D01*
X180595489Y-154495489D02*
X189995489Y-154495489D01*
X180595489Y-148695489D02*
X180595489Y-150695489D01*
X189995489Y-152595489D02*
X189995489Y-154495489D01*
X180595489Y-152595489D02*
X180595489Y-154495489D01*
%TO.C,C24*%
X158310000Y-78615000D02*
X155960000Y-78615000D01*
X157245563Y-85435000D02*
X155960000Y-85435000D01*
X151490000Y-78615000D02*
X153840000Y-78615000D01*
X152554437Y-85435000D02*
X151490000Y-84370563D01*
X152658750Y-86068750D02*
X153446250Y-86068750D01*
X158310000Y-84370563D02*
X158310000Y-78615000D01*
X151490000Y-84370563D02*
X151490000Y-78615000D01*
X153052500Y-86462500D02*
X153052500Y-85675000D01*
X157245563Y-85435000D02*
X158310000Y-84370563D01*
X152554437Y-85435000D02*
X153840000Y-85435000D01*
%TO.C,C3*%
X122515580Y-117240000D02*
X122234420Y-117240000D01*
X122515580Y-118260000D02*
X122234420Y-118260000D01*
%TO.C,C27*%
X143088748Y-102360000D02*
X144511252Y-102360000D01*
X143088748Y-100540000D02*
X144511252Y-100540000D01*
%TO.C,C16*%
X116490000Y-131609420D02*
X116490000Y-131890580D01*
X117510000Y-131609420D02*
X117510000Y-131890580D01*
%TO.C,R18*%
X135362742Y-138077500D02*
X135837258Y-138077500D01*
X135362742Y-139122500D02*
X135837258Y-139122500D01*
%TO.C,C13*%
X116940580Y-126990000D02*
X116659420Y-126990000D01*
X116940580Y-128010000D02*
X116659420Y-128010000D01*
%TO.C,JP3*%
X117025000Y-122350000D02*
X116425000Y-122350000D01*
X117725000Y-120250000D02*
X117725000Y-121650000D01*
X115725000Y-121650000D02*
X115725000Y-120250000D01*
X116425000Y-119550000D02*
X117025000Y-119550000D01*
X115725000Y-121650000D02*
G75*
G03*
X116425000Y-122350000I700000J0D01*
G01*
X117725000Y-120250000D02*
G75*
G03*
X117025000Y-119550000I-699999J1D01*
G01*
X117025000Y-122350000D02*
G75*
G03*
X117725000Y-121650000I0J700000D01*
G01*
X116425000Y-119550000D02*
G75*
G03*
X115725000Y-120250000I-1J-699999D01*
G01*
%TO.C,J12*%
X106010000Y-114150000D02*
X106610000Y-114150000D01*
X106010000Y-115750000D02*
X106010000Y-114150000D01*
X105400000Y-109250000D02*
X101100000Y-109250000D01*
X107010000Y-118460000D02*
X107010000Y-115750000D01*
X107010000Y-108240000D02*
X100390000Y-108240000D01*
X106610000Y-114150000D02*
X106610000Y-112550000D01*
X100390000Y-108240000D02*
X100390000Y-118460000D01*
X100390000Y-118460000D02*
X107010000Y-118460000D01*
X106010000Y-112550000D02*
X106010000Y-110950000D01*
X101100000Y-117450000D02*
X105400000Y-117450000D01*
X107310000Y-107940000D02*
X106060000Y-107940000D01*
X103700000Y-118460000D02*
X103700000Y-117450000D01*
X107010000Y-110950000D02*
X107010000Y-108240000D01*
X101100000Y-109250000D02*
X101100000Y-117450000D01*
X105400000Y-117450000D02*
X105400000Y-109250000D01*
X107310000Y-109190000D02*
X107310000Y-107940000D01*
X103700000Y-108240000D02*
X103700000Y-109250000D01*
X106010000Y-110950000D02*
X107010000Y-110950000D01*
X106610000Y-112550000D02*
X106010000Y-112550000D01*
X107010000Y-115750000D02*
X106010000Y-115750000D01*
%TO.C,R30*%
X120437258Y-112222500D02*
X119962742Y-112222500D01*
X120437258Y-111177500D02*
X119962742Y-111177500D01*
%TO.C,R27*%
X148812742Y-98377500D02*
X149287258Y-98377500D01*
X148812742Y-99422500D02*
X149287258Y-99422500D01*
%TO.C,SW3*%
X116170000Y-147600000D02*
X116170000Y-147570000D01*
X116170000Y-154030000D02*
X122630000Y-154030000D01*
X116170000Y-147570000D02*
X122630000Y-147570000D01*
X122630000Y-147570000D02*
X122630000Y-147600000D01*
X116170000Y-149500000D02*
X116170000Y-152100000D01*
X116170000Y-154030000D02*
X116170000Y-154000000D01*
X122630000Y-149500000D02*
X122630000Y-152100000D01*
X122630000Y-154030000D02*
X122630000Y-154000000D01*
%TO.C,C15*%
X116940580Y-128490000D02*
X116659420Y-128490000D01*
X116940580Y-129510000D02*
X116659420Y-129510000D01*
%TO.C,U10*%
X170700000Y-89060000D02*
X169900000Y-89060000D01*
X170700000Y-85940000D02*
X171500000Y-85940000D01*
X170700000Y-89060000D02*
X172500000Y-89060000D01*
X170700000Y-85940000D02*
X169900000Y-85940000D01*
%TO.C,kibuzzard-61FFCA89*%
G36*
X107753526Y-94173127D02*
G01*
X109446474Y-94173127D01*
X109446474Y-101626873D01*
X107753526Y-101626873D01*
X107753526Y-101114243D01*
X108375257Y-101114243D01*
X108791501Y-101114243D01*
X108791501Y-100930427D01*
X108375257Y-100930427D01*
X108375257Y-101114243D01*
X107753526Y-101114243D01*
X107753526Y-99125532D01*
X108377757Y-99125532D01*
X108800063Y-99125532D01*
X108800063Y-98939039D01*
X108377757Y-98939039D01*
X108377757Y-99125532D01*
X107753526Y-99125532D01*
X107753526Y-96953700D01*
X108266156Y-96953700D01*
X108266156Y-97111668D01*
X108511710Y-97111668D01*
X108511710Y-97383811D01*
X108677498Y-97383811D01*
X108677498Y-97111668D01*
X108923052Y-97111668D01*
X108923052Y-96953700D01*
X108677498Y-96953700D01*
X108677498Y-96681557D01*
X108511710Y-96681557D01*
X108511710Y-96953700D01*
X108266156Y-96953700D01*
X107753526Y-96953700D01*
X107753526Y-94961982D01*
X108267094Y-94961982D01*
X108267094Y-95122319D01*
X108516332Y-95122319D01*
X108516332Y-95398544D01*
X108684607Y-95398544D01*
X108684607Y-95122319D01*
X108933844Y-95122319D01*
X108933844Y-94961982D01*
X108684607Y-94961982D01*
X108684607Y-94685757D01*
X108516332Y-94685757D01*
X108516332Y-94961982D01*
X108267094Y-94961982D01*
X107753526Y-94961982D01*
X107753526Y-94173127D01*
G37*
%TO.C,C23*%
X159190000Y-83936252D02*
X159190000Y-82513748D01*
X161010000Y-83936252D02*
X161010000Y-82513748D01*
%TO.C,D8*%
X152950000Y-138510000D02*
X155235000Y-138510000D01*
X155235000Y-138510000D02*
X155235000Y-137040000D01*
X155235000Y-137040000D02*
X152950000Y-137040000D01*
%TO.C,kibuzzard-61FFCBAB*%
G36*
X133889138Y-146005531D02*
G01*
X133914537Y-146103956D01*
X133935969Y-146201588D01*
X133955019Y-146303188D01*
X133762931Y-146303188D01*
X133782775Y-146201588D01*
X133805000Y-146103956D01*
X133830400Y-146005531D01*
X133859769Y-145899962D01*
X133889138Y-146005531D01*
G37*
G36*
X134668203Y-145877341D02*
G01*
X134723369Y-145904725D01*
X134759088Y-145951556D01*
X134770994Y-146019025D01*
X134726544Y-146129356D01*
X134668203Y-146158527D01*
X134582081Y-146168250D01*
X134539219Y-146168250D01*
X134539219Y-145872975D01*
X134570969Y-145869006D01*
X134597956Y-145868212D01*
X134668203Y-145877341D01*
G37*
G36*
X129918006Y-145872181D02*
G01*
X129962456Y-145888056D01*
X129992619Y-145921394D01*
X130003731Y-145977750D01*
X129965631Y-146067444D01*
X129852919Y-146099987D01*
X129776719Y-146099987D01*
X129776719Y-145874562D01*
X129819581Y-145869800D01*
X129865619Y-145868212D01*
X129918006Y-145872181D01*
G37*
G36*
X127481326Y-145174607D02*
G01*
X136318674Y-145174607D01*
X136318674Y-147225393D01*
X127481326Y-147225393D01*
X127481326Y-146681013D01*
X127993956Y-146681013D01*
X128101112Y-146699269D01*
X128203506Y-146704825D01*
X128299352Y-146697880D01*
X128323523Y-146692125D01*
X128801994Y-146692125D01*
X129432231Y-146692125D01*
X129432231Y-146676250D01*
X129581456Y-146676250D01*
X129650116Y-146688752D01*
X129719569Y-146697681D01*
X129788228Y-146703039D01*
X129854506Y-146704825D01*
X129932889Y-146701055D01*
X130006112Y-146689744D01*
X130071994Y-146669503D01*
X130128350Y-146638944D01*
X130210106Y-146543694D01*
X130232728Y-146476820D01*
X130240269Y-146395263D01*
X130232402Y-146336525D01*
X130351394Y-146336525D01*
X130355362Y-146418281D01*
X130367269Y-146492100D01*
X130388700Y-146556791D01*
X130421244Y-146611163D01*
X130523637Y-146686569D01*
X130595670Y-146706214D01*
X130683181Y-146712763D01*
X130772081Y-146706214D01*
X130845106Y-146686569D01*
X130903844Y-146654620D01*
X130949881Y-146611163D01*
X130983616Y-146556791D01*
X131005444Y-146492100D01*
X131017350Y-146418281D01*
X131021319Y-146336525D01*
X131021319Y-146200000D01*
X131126094Y-146200000D01*
X131133237Y-146319261D01*
X131154669Y-146423044D01*
X131189197Y-146511150D01*
X131235631Y-146583381D01*
X131293377Y-146639738D01*
X131361837Y-146680219D01*
X131440220Y-146704627D01*
X131527731Y-146712763D01*
X131624767Y-146708794D01*
X131706325Y-146696888D01*
X131815069Y-146668313D01*
X131815069Y-146336525D01*
X132732644Y-146336525D01*
X132736613Y-146418281D01*
X132748519Y-146492100D01*
X132769950Y-146556791D01*
X132802494Y-146611163D01*
X132904887Y-146686569D01*
X132976920Y-146706214D01*
X133064431Y-146712763D01*
X133153331Y-146706214D01*
X133205703Y-146692125D01*
X133478769Y-146692125D01*
X133681969Y-146692125D01*
X133726419Y-146465113D01*
X133988356Y-146465113D01*
X134034394Y-146692125D01*
X134243944Y-146692125D01*
X134343956Y-146692125D01*
X134539219Y-146692125D01*
X134539219Y-146330175D01*
X134640819Y-146330175D01*
X134694595Y-146420067D01*
X134744800Y-146508769D01*
X134790242Y-146598661D01*
X134829731Y-146692125D01*
X135034519Y-146692125D01*
X134989275Y-146588144D01*
X134934506Y-146478606D01*
X134875769Y-146373831D01*
X134818619Y-146282550D01*
X134888072Y-146237703D01*
X134934506Y-146176187D01*
X134960700Y-146102369D01*
X134969431Y-146020612D01*
X134962883Y-145943420D01*
X134943238Y-145876944D01*
X134867831Y-145776137D01*
X134813856Y-145741609D01*
X134750356Y-145717400D01*
X134710227Y-145709462D01*
X135091669Y-145709462D01*
X135091669Y-145871387D01*
X135350431Y-145871387D01*
X135350431Y-146692125D01*
X135547281Y-146692125D01*
X135547281Y-145871387D01*
X135806044Y-145871387D01*
X135806044Y-145709462D01*
X135091669Y-145709462D01*
X134710227Y-145709462D01*
X134678125Y-145703112D01*
X134597956Y-145698350D01*
X134542394Y-145699938D01*
X134475719Y-145703906D01*
X134406663Y-145711844D01*
X134343956Y-145723750D01*
X134343956Y-146692125D01*
X134243944Y-146692125D01*
X134217750Y-146580714D01*
X134191239Y-146472542D01*
X134164410Y-146367608D01*
X134137264Y-146265913D01*
X134109800Y-146167456D01*
X134075222Y-146048046D01*
X134040545Y-145931911D01*
X134005769Y-145819050D01*
X133970894Y-145709462D01*
X133758169Y-145709462D01*
X133724534Y-145818157D01*
X133690303Y-145929927D01*
X133655477Y-146044772D01*
X133620056Y-146162694D01*
X133591545Y-146260325D01*
X133563160Y-146362084D01*
X133534903Y-146467970D01*
X133506772Y-146577984D01*
X133478769Y-146692125D01*
X133205703Y-146692125D01*
X133226356Y-146686569D01*
X133285094Y-146654620D01*
X133331131Y-146611163D01*
X133364866Y-146556791D01*
X133386694Y-146492100D01*
X133398600Y-146418281D01*
X133402569Y-146336525D01*
X133402569Y-145709462D01*
X133207306Y-145709462D01*
X133207306Y-146322238D01*
X133200956Y-146426219D01*
X133178731Y-146494481D01*
X133135869Y-146531788D01*
X133067606Y-146542900D01*
X132999344Y-146531788D01*
X132957275Y-146495275D01*
X132935844Y-146427806D01*
X132929494Y-146323825D01*
X132929494Y-145709462D01*
X132732644Y-145709462D01*
X132732644Y-146336525D01*
X131815069Y-146336525D01*
X131815069Y-146177775D01*
X131619806Y-146177775D01*
X131619806Y-146536550D01*
X131581706Y-146541313D01*
X131543606Y-146542900D01*
X131448753Y-146522064D01*
X131380094Y-146459556D01*
X131349226Y-146393675D01*
X131330705Y-146307156D01*
X131324531Y-146200000D01*
X131327905Y-146127173D01*
X131338025Y-146061094D01*
X131382475Y-145953144D01*
X131461056Y-145882500D01*
X131578531Y-145857100D01*
X131683306Y-145874562D01*
X131769031Y-145914250D01*
X131819831Y-145758675D01*
X131787287Y-145739625D01*
X131732519Y-145715812D01*
X131653937Y-145695969D01*
X131551544Y-145687237D01*
X131465422Y-145695373D01*
X131384856Y-145719781D01*
X131312228Y-145760461D01*
X131249919Y-145817412D01*
X131198722Y-145890239D01*
X131159431Y-145978544D01*
X131134428Y-146081930D01*
X131126094Y-146200000D01*
X131021319Y-146200000D01*
X131021319Y-145709462D01*
X130826056Y-145709462D01*
X130826056Y-146322238D01*
X130819706Y-146426219D01*
X130797481Y-146494481D01*
X130754619Y-146531788D01*
X130686356Y-146542900D01*
X130618094Y-146531788D01*
X130576025Y-146495275D01*
X130554594Y-146427806D01*
X130548244Y-146323825D01*
X130548244Y-145709462D01*
X130351394Y-145709462D01*
X130351394Y-146336525D01*
X130232402Y-146336525D01*
X130231339Y-146328588D01*
X130204550Y-146265088D01*
X130152758Y-146209525D01*
X130068819Y-146166662D01*
X130160100Y-146080937D01*
X130185698Y-146022994D01*
X130194231Y-145957112D01*
X130179944Y-145865037D01*
X130125969Y-145781694D01*
X130016431Y-145721369D01*
X129936262Y-145704105D01*
X129835456Y-145698350D01*
X129703694Y-145705494D01*
X129581456Y-145722162D01*
X129581456Y-146676250D01*
X129432231Y-146676250D01*
X129432231Y-146530200D01*
X128997256Y-146530200D01*
X128997256Y-146253975D01*
X129344919Y-146253975D01*
X129344919Y-146092050D01*
X128997256Y-146092050D01*
X128997256Y-145871387D01*
X129397306Y-145871387D01*
X129397306Y-145709462D01*
X128801994Y-145709462D01*
X128801994Y-146692125D01*
X128323523Y-146692125D01*
X128386862Y-146677044D01*
X128464452Y-146641127D01*
X128530531Y-146588938D01*
X128584308Y-146519683D01*
X128624987Y-146432569D01*
X128650586Y-146326405D01*
X128659119Y-146200000D01*
X128651380Y-146076373D01*
X128628162Y-145972194D01*
X128591055Y-145886072D01*
X128541644Y-145816619D01*
X128479930Y-145763636D01*
X128405912Y-145726925D01*
X128321577Y-145705494D01*
X128228906Y-145698350D01*
X128119369Y-145703112D01*
X127993956Y-145722162D01*
X127993956Y-146681013D01*
X127481326Y-146681013D01*
X127481326Y-145174607D01*
G37*
G36*
X130002937Y-146292869D02*
G01*
X130048181Y-146395263D01*
X130032306Y-146465906D01*
X129991825Y-146508769D01*
X129935469Y-146529406D01*
X129870381Y-146534963D01*
X129821962Y-146533375D01*
X129776719Y-146528613D01*
X129776719Y-146261913D01*
X129881494Y-146261913D01*
X130002937Y-146292869D01*
G37*
G36*
X128352731Y-145895994D02*
G01*
X128417819Y-145969812D01*
X128451156Y-146076175D01*
X128460681Y-146200000D01*
X128457705Y-146270048D01*
X128448775Y-146334144D01*
X128409087Y-146439713D01*
X128336062Y-146509563D01*
X128224144Y-146534963D01*
X128206681Y-146534963D01*
X128189219Y-146533375D01*
X128189219Y-145872975D01*
X128217794Y-145869006D01*
X128246369Y-145868212D01*
X128352731Y-145895994D01*
G37*
%TO.C,U8*%
X170100000Y-78815000D02*
X166500000Y-78815000D01*
X170100000Y-82035000D02*
X167900000Y-82035000D01*
X170100000Y-78815000D02*
X172300000Y-78815000D01*
X170100000Y-82035000D02*
X172300000Y-82035000D01*
%TO.C,R12*%
X160645276Y-130422500D02*
X161154724Y-130422500D01*
X160645276Y-129377500D02*
X161154724Y-129377500D01*
%TO.C,R20*%
X140062742Y-139122500D02*
X140537258Y-139122500D01*
X140062742Y-138077500D02*
X140537258Y-138077500D01*
%TO.C,R24*%
X112759258Y-138444500D02*
X112284742Y-138444500D01*
X112759258Y-137399500D02*
X112284742Y-137399500D01*
%TO.C,J6*%
X107510000Y-136490000D02*
X107510000Y-135240000D01*
X105600000Y-136550000D02*
X101300000Y-136550000D01*
X105600000Y-144750000D02*
X105600000Y-136550000D01*
X100590000Y-145760000D02*
X107210000Y-145760000D01*
X101300000Y-144750000D02*
X105600000Y-144750000D01*
X100590000Y-135540000D02*
X100590000Y-145760000D01*
X106810000Y-139850000D02*
X106210000Y-139850000D01*
X107210000Y-143050000D02*
X106210000Y-143050000D01*
X106210000Y-139850000D02*
X106210000Y-138250000D01*
X103900000Y-135540000D02*
X103900000Y-136550000D01*
X103900000Y-145760000D02*
X103900000Y-144750000D01*
X106210000Y-141450000D02*
X106810000Y-141450000D01*
X107210000Y-145760000D02*
X107210000Y-143050000D01*
X107510000Y-135240000D02*
X106260000Y-135240000D01*
X106810000Y-141450000D02*
X106810000Y-139850000D01*
X106210000Y-143050000D02*
X106210000Y-141450000D01*
X107210000Y-138250000D02*
X107210000Y-135540000D01*
X106210000Y-138250000D02*
X107210000Y-138250000D01*
X101300000Y-136550000D02*
X101300000Y-144750000D01*
X107210000Y-135540000D02*
X100590000Y-135540000D01*
%TO.C,JP2*%
X115725000Y-125150000D02*
X115725000Y-123750000D01*
X117025000Y-125850000D02*
X116425000Y-125850000D01*
X117725000Y-123750000D02*
X117725000Y-125150000D01*
X116425000Y-123050000D02*
X117025000Y-123050000D01*
X115725000Y-125150000D02*
G75*
G03*
X116425000Y-125850000I699999J-1D01*
G01*
X117725000Y-123750000D02*
G75*
G03*
X117025000Y-123050000I-700000J0D01*
G01*
X116425000Y-123050000D02*
G75*
G03*
X115725000Y-123750000I0J-700000D01*
G01*
X117025000Y-125850000D02*
G75*
G03*
X117725000Y-125150000I1J699999D01*
G01*
%TO.C,C8*%
X124890000Y-84411252D02*
X124890000Y-82988748D01*
X126710000Y-84411252D02*
X126710000Y-82988748D01*
%TO.C,J8*%
X155050000Y-149975000D02*
X154300000Y-149975000D01*
X155060000Y-147715000D02*
X139940000Y-147715000D01*
X140700000Y-152925000D02*
X147500000Y-152925000D01*
X141750000Y-147725000D02*
X139950000Y-147725000D01*
X154300000Y-149975000D02*
X154300000Y-152925000D01*
X140900000Y-147425000D02*
X139650000Y-147425000D01*
X153250000Y-148475000D02*
X155050000Y-148475000D01*
X139940000Y-147715000D02*
X139940000Y-153685000D01*
X153250000Y-147725000D02*
X153250000Y-148475000D01*
X151750000Y-147725000D02*
X143250000Y-147725000D01*
X151750000Y-148475000D02*
X151750000Y-147725000D01*
X139950000Y-147725000D02*
X139950000Y-148475000D01*
X140700000Y-149975000D02*
X140700000Y-152925000D01*
X143250000Y-148475000D02*
X151750000Y-148475000D01*
X141750000Y-148475000D02*
X141750000Y-147725000D01*
X139950000Y-148475000D02*
X141750000Y-148475000D01*
X139950000Y-149975000D02*
X140700000Y-149975000D01*
X139650000Y-147425000D02*
X139650000Y-148675000D01*
X139940000Y-153685000D02*
X155060000Y-153685000D01*
X143250000Y-147725000D02*
X143250000Y-148475000D01*
X155060000Y-153685000D02*
X155060000Y-147715000D01*
X155050000Y-148475000D02*
X155050000Y-147725000D01*
X155050000Y-147725000D02*
X153250000Y-147725000D01*
X154300000Y-152925000D02*
X147500000Y-152925000D01*
%TO.C,R28*%
X152012742Y-98377500D02*
X152487258Y-98377500D01*
X152012742Y-99422500D02*
X152487258Y-99422500D01*
%TO.C,J2*%
X112000000Y-80292500D02*
X112000000Y-79242500D01*
X111800000Y-88642500D02*
X109900000Y-88642500D01*
X111800000Y-79442500D02*
X111800000Y-82042500D01*
X97100000Y-79442500D02*
X111800000Y-79442500D01*
X110950000Y-79242500D02*
X112000000Y-79242500D01*
X111800000Y-85942500D02*
X111800000Y-88642500D01*
X97100000Y-88642500D02*
X97100000Y-79442500D01*
X105900000Y-88642500D02*
X97100000Y-88642500D01*
%TO.C,R23*%
X169562742Y-90722500D02*
X170037258Y-90722500D01*
X169562742Y-89677500D02*
X170037258Y-89677500D01*
%TO.C,R16*%
X148477500Y-142654724D02*
X148477500Y-142145276D01*
X149522500Y-142654724D02*
X149522500Y-142145276D01*
%TO.C,R21*%
X140062742Y-139577500D02*
X140537258Y-139577500D01*
X140062742Y-140622500D02*
X140537258Y-140622500D01*
%TO.C,kibuzzard-61FFCAF5*%
G36*
X118002578Y-145877341D02*
G01*
X118057744Y-145904725D01*
X118093462Y-145951556D01*
X118105369Y-146019025D01*
X118060919Y-146129356D01*
X118002578Y-146158527D01*
X117916456Y-146168250D01*
X117873594Y-146168250D01*
X117873594Y-145872975D01*
X117905344Y-145869006D01*
X117932331Y-145868212D01*
X118002578Y-145877341D01*
G37*
G36*
X117165701Y-145174607D02*
G01*
X122034299Y-145174607D01*
X122034299Y-147225393D01*
X117165701Y-147225393D01*
X117165701Y-146692125D01*
X117678331Y-146692125D01*
X117873594Y-146692125D01*
X117873594Y-146330175D01*
X117975194Y-146330175D01*
X118028970Y-146420067D01*
X118079175Y-146508769D01*
X118124617Y-146598661D01*
X118164106Y-146692125D01*
X118368894Y-146692125D01*
X118486369Y-146692125D01*
X119116606Y-146692125D01*
X119116606Y-146638150D01*
X119243606Y-146638150D01*
X119353144Y-146686569D01*
X119438472Y-146706214D01*
X119548406Y-146712763D01*
X119659796Y-146704384D01*
X119704058Y-146692125D01*
X120073869Y-146692125D01*
X120704106Y-146692125D01*
X120704106Y-146530200D01*
X120269131Y-146530200D01*
X120269131Y-146253975D01*
X120616794Y-146253975D01*
X120616794Y-146092050D01*
X120269131Y-146092050D01*
X120269131Y-145871387D01*
X120669181Y-145871387D01*
X120807294Y-145871387D01*
X121066056Y-145871387D01*
X121066056Y-146692125D01*
X121262906Y-146692125D01*
X121262906Y-145871387D01*
X121521669Y-145871387D01*
X121521669Y-145709462D01*
X120807294Y-145709462D01*
X120807294Y-145871387D01*
X120669181Y-145871387D01*
X120669181Y-145709462D01*
X120073869Y-145709462D01*
X120073869Y-146692125D01*
X119704058Y-146692125D01*
X119750548Y-146679249D01*
X119820663Y-146637356D01*
X119887933Y-146546273D01*
X119910356Y-146423838D01*
X119903609Y-146349820D01*
X119883369Y-146289694D01*
X119814313Y-146200794D01*
X119722238Y-146143644D01*
X119626194Y-146104750D01*
X119565075Y-146080937D01*
X119509512Y-146051569D01*
X119469031Y-146013469D01*
X119453156Y-145963462D01*
X119470442Y-145900844D01*
X119522301Y-145863274D01*
X119608731Y-145850750D01*
X119720650Y-145866625D01*
X119808756Y-145904725D01*
X119865906Y-145753912D01*
X119752400Y-145707875D01*
X119679177Y-145692397D01*
X119594444Y-145687237D01*
X119497165Y-145695881D01*
X119414880Y-145721810D01*
X119347588Y-145765025D01*
X119280317Y-145857894D01*
X119257894Y-145980925D01*
X119283294Y-146097606D01*
X119347588Y-146176187D01*
X119434106Y-146228575D01*
X119526181Y-146265088D01*
X119592856Y-146292869D01*
X119653181Y-146326206D01*
X119697631Y-146368275D01*
X119715094Y-146422250D01*
X119707950Y-146469081D01*
X119681756Y-146510356D01*
X119630163Y-146538931D01*
X119548406Y-146549250D01*
X119469230Y-146543694D01*
X119403150Y-146527025D01*
X119300756Y-146479400D01*
X119243606Y-146638150D01*
X119116606Y-146638150D01*
X119116606Y-146530200D01*
X118681631Y-146530200D01*
X118681631Y-146253975D01*
X119029294Y-146253975D01*
X119029294Y-146092050D01*
X118681631Y-146092050D01*
X118681631Y-145871387D01*
X119081681Y-145871387D01*
X119081681Y-145709462D01*
X118486369Y-145709462D01*
X118486369Y-146692125D01*
X118368894Y-146692125D01*
X118323650Y-146588144D01*
X118268881Y-146478606D01*
X118210144Y-146373831D01*
X118152994Y-146282550D01*
X118222447Y-146237703D01*
X118268881Y-146176187D01*
X118295075Y-146102369D01*
X118303806Y-146020612D01*
X118297258Y-145943420D01*
X118277612Y-145876944D01*
X118202206Y-145776137D01*
X118148231Y-145741609D01*
X118084731Y-145717400D01*
X118012500Y-145703112D01*
X117932331Y-145698350D01*
X117876769Y-145699938D01*
X117810094Y-145703906D01*
X117741037Y-145711844D01*
X117678331Y-145723750D01*
X117678331Y-146692125D01*
X117165701Y-146692125D01*
X117165701Y-145174607D01*
G37*
%TD*%
%LPC*%
D15*
%TO.C,C10*%
X137125000Y-107500000D03*
X138675000Y-107500000D03*
%TD*%
D16*
%TO.C,C7*%
X120500000Y-86525000D03*
X120500000Y-81125000D03*
%TD*%
D17*
%TO.C,C5*%
X134650000Y-99350000D03*
X137350000Y-99350000D03*
%TD*%
D18*
%TO.C,H4*%
X195000000Y-57600000D03*
X196697056Y-58302944D03*
X195000000Y-62400000D03*
D19*
X195000000Y-60000000D03*
D18*
X197400000Y-60000000D03*
X192600000Y-60000000D03*
X193302944Y-61697056D03*
X193302944Y-58302944D03*
X196697056Y-61697056D03*
%TD*%
D20*
%TO.C,J4*%
X195700000Y-107400000D03*
%TD*%
D21*
%TO.C,R5*%
X111400000Y-114275000D03*
X111400000Y-112625000D03*
%TD*%
D22*
%TO.C,R6*%
X147125000Y-139550000D03*
X145475000Y-139550000D03*
%TD*%
%TO.C,R8*%
X120500000Y-123800000D03*
X118850000Y-123800000D03*
%TD*%
D23*
%TO.C,J11*%
X103800000Y-94250000D03*
D24*
X103800000Y-96750000D03*
X103800000Y-99250000D03*
X103800000Y-101750000D03*
%TD*%
D18*
%TO.C,H2*%
X105000000Y-152400000D03*
X103302944Y-148302944D03*
X103302944Y-151697056D03*
X106697056Y-151697056D03*
X106697056Y-148302944D03*
X107400000Y-150000000D03*
X105000000Y-147600000D03*
X102600000Y-150000000D03*
D19*
X105000000Y-150000000D03*
%TD*%
D25*
%TO.C,U5*%
X128750000Y-101450000D03*
X128750000Y-99750000D03*
X128750000Y-98050000D03*
D26*
X119600000Y-98050000D03*
D25*
X128750000Y-96350000D03*
X128750000Y-94650000D03*
%TD*%
D27*
%TO.C,U6*%
X161270000Y-137800000D03*
X163780000Y-137800000D03*
X166300000Y-137800000D03*
X160000000Y-137800000D03*
X162520000Y-137800000D03*
X165040000Y-137800000D03*
D28*
X174650000Y-140250000D03*
X158000000Y-140250000D03*
X158000000Y-152799999D03*
X174650000Y-152800000D03*
%TD*%
D29*
%TO.C,D5*%
X118643500Y-139522000D03*
X117068500Y-139522000D03*
%TD*%
D30*
%TO.C,D3*%
X135500000Y-85425000D03*
X131500000Y-85425000D03*
%TD*%
D22*
%TO.C,R31*%
X120500000Y-121600000D03*
X118850000Y-121600000D03*
%TD*%
D30*
%TO.C,D10*%
X142450000Y-94800000D03*
X146450000Y-94800000D03*
%TD*%
D22*
%TO.C,R29*%
X153625000Y-90200000D03*
X151975000Y-90200000D03*
%TD*%
D21*
%TO.C,R3*%
X134700000Y-96325000D03*
X134700000Y-94675000D03*
%TD*%
D22*
%TO.C,R7*%
X121881000Y-137922000D03*
X120231000Y-137922000D03*
%TD*%
D15*
%TO.C,C6*%
X137125000Y-106000000D03*
X138675000Y-106000000D03*
%TD*%
D31*
%TO.C,D1*%
X115850000Y-108500000D03*
X117950000Y-108500000D03*
%TD*%
D29*
%TO.C,D2*%
X121843500Y-139522000D03*
X120268500Y-139522000D03*
%TD*%
D21*
%TO.C,R26*%
X183200000Y-85525000D03*
X183200000Y-83875000D03*
%TD*%
D32*
%TO.C,C21*%
X166837500Y-131500000D03*
X168562500Y-131500000D03*
%TD*%
D33*
%TO.C,Y2*%
X131450000Y-106800000D03*
X135150000Y-106800000D03*
%TD*%
D34*
%TO.C,R13*%
X125087500Y-141700000D03*
X126912500Y-141700000D03*
%TD*%
D35*
%TO.C,R4*%
X136200000Y-94675000D03*
X136200000Y-96325000D03*
%TD*%
D36*
%TO.C,Q1*%
X151162500Y-93850000D03*
X151162500Y-95750000D03*
X153037500Y-94800000D03*
%TD*%
D37*
%TO.C,R11*%
X188800000Y-140487500D03*
X188800000Y-142312500D03*
%TD*%
%TO.C,R10*%
X186200000Y-140487500D03*
X186200000Y-142312500D03*
%TD*%
D38*
%TO.C,C9*%
X128300000Y-85175000D03*
X128300000Y-82225000D03*
%TD*%
D20*
%TO.C,J3*%
X195750000Y-131600000D03*
%TD*%
D22*
%TO.C,R1*%
X113347000Y-139622000D03*
X111697000Y-139622000D03*
%TD*%
D39*
%TO.C,C12*%
X115500000Y-130975000D03*
X115500000Y-132525000D03*
%TD*%
D40*
%TO.C,L2*%
X144300000Y-89175000D03*
X144300000Y-79275000D03*
%TD*%
D41*
%TO.C,U9*%
X175862500Y-84050000D03*
X175862500Y-85000000D03*
X175862500Y-85950000D03*
X178137500Y-85950000D03*
X178137500Y-85000000D03*
X178137500Y-84050000D03*
%TD*%
D42*
%TO.C,J7*%
X129500000Y-150275000D03*
D43*
X132000000Y-150275000D03*
X134500000Y-150275000D03*
%TD*%
D18*
%TO.C,H1*%
X195000000Y-152400000D03*
X196697056Y-148302944D03*
D19*
X195000000Y-150000000D03*
D18*
X193302944Y-148302944D03*
X195000000Y-147600000D03*
X193302944Y-151697056D03*
X197400000Y-150000000D03*
X196697056Y-151697056D03*
X192600000Y-150000000D03*
%TD*%
D44*
%TO.C,TP2*%
X157400000Y-100000000D03*
%TD*%
D45*
%TO.C,J1*%
X147700000Y-132000000D03*
D46*
X147700000Y-107000000D03*
D47*
X143600000Y-107700000D03*
X151800000Y-108100000D03*
X143600000Y-108500000D03*
X151800000Y-108900000D03*
X143600000Y-109300000D03*
X151800000Y-109700000D03*
X143600000Y-110100000D03*
X151800000Y-110500000D03*
X143600000Y-110900000D03*
X151800000Y-111300000D03*
X143600000Y-111700000D03*
X151800000Y-112100000D03*
X143600000Y-112500000D03*
X151800000Y-112900000D03*
X143600000Y-113300000D03*
X151800000Y-113700000D03*
X143600000Y-117300000D03*
X151800000Y-117700000D03*
X143600000Y-118100000D03*
X151800000Y-118500000D03*
X143600000Y-118900000D03*
X151800000Y-119300000D03*
X143600000Y-119700000D03*
X151800000Y-120100000D03*
X143600000Y-120500000D03*
X151800000Y-120900000D03*
X143600000Y-121300000D03*
X151800000Y-121700000D03*
X143600000Y-122100000D03*
X151800000Y-122500000D03*
X143600000Y-122900000D03*
X151800000Y-123300000D03*
X143600000Y-123700000D03*
X151800000Y-124100000D03*
X143600000Y-124500000D03*
X151800000Y-124900000D03*
X143600000Y-125300000D03*
X151800000Y-125700000D03*
X143600000Y-126100000D03*
X151800000Y-126500000D03*
X143600000Y-126900000D03*
X151800000Y-127300000D03*
X143600000Y-127700000D03*
X151800000Y-128100000D03*
X143600000Y-128500000D03*
X151800000Y-128900000D03*
X143600000Y-129300000D03*
X151800000Y-129700000D03*
X143600000Y-130100000D03*
X151800000Y-130500000D03*
X143600000Y-130900000D03*
X151800000Y-131300000D03*
D48*
X144200000Y-134150000D03*
X144200000Y-104850000D03*
%TD*%
D49*
%TO.C,R22*%
X174100000Y-84410000D03*
X174100000Y-83390000D03*
%TD*%
D15*
%TO.C,C2*%
X118600000Y-117750000D03*
X120150000Y-117750000D03*
%TD*%
D32*
%TO.C,C22*%
X161837500Y-131500000D03*
X163562500Y-131500000D03*
%TD*%
D39*
%TO.C,C17*%
X121500000Y-130975000D03*
X121500000Y-132525000D03*
%TD*%
D50*
%TO.C,R15*%
X147200000Y-141487500D03*
X147200000Y-143312500D03*
%TD*%
D39*
%TO.C,C19*%
X118500000Y-130975000D03*
X118500000Y-132525000D03*
%TD*%
D15*
%TO.C,C11*%
X145525000Y-138000000D03*
X147075000Y-138000000D03*
%TD*%
D22*
%TO.C,R9*%
X118681000Y-137922000D03*
X117031000Y-137922000D03*
%TD*%
D30*
%TO.C,D7*%
X178300000Y-141100000D03*
X182300000Y-141100000D03*
%TD*%
D39*
%TO.C,C14*%
X114000000Y-130975000D03*
X114000000Y-132525000D03*
%TD*%
D51*
%TO.C,U3*%
X138380000Y-111050000D03*
X137110000Y-111050000D03*
X135840000Y-111050000D03*
X134570000Y-111050000D03*
X133300000Y-111050000D03*
X132030000Y-111050000D03*
X130760000Y-111050000D03*
X129490000Y-111050000D03*
X128220000Y-111050000D03*
X128220000Y-120350000D03*
X129490000Y-120350000D03*
X130760000Y-120350000D03*
X132030000Y-120350000D03*
X133300000Y-120350000D03*
X134570000Y-120350000D03*
X135840000Y-120350000D03*
X137110000Y-120350000D03*
X138380000Y-120350000D03*
%TD*%
D33*
%TO.C,Y1*%
X119000000Y-115000000D03*
X122700000Y-115000000D03*
%TD*%
D44*
%TO.C,TP1*%
X162500000Y-99900000D03*
%TD*%
D52*
%TO.C,R25*%
X164775000Y-87400000D03*
X166425000Y-87400000D03*
%TD*%
D53*
%TO.C,C26*%
X180950000Y-80000000D03*
X182850000Y-80000000D03*
%TD*%
D54*
%TO.C,C25*%
X181400000Y-85475000D03*
X181400000Y-83925000D03*
%TD*%
D32*
%TO.C,C20*%
X161837500Y-134100000D03*
X163562500Y-134100000D03*
%TD*%
D22*
%TO.C,R2*%
X138825000Y-142500000D03*
X137175000Y-142500000D03*
%TD*%
D31*
%TO.C,D6*%
X115850000Y-106200000D03*
X117950000Y-106200000D03*
%TD*%
D29*
%TO.C,D9*%
X166387500Y-89200000D03*
X164812500Y-89200000D03*
%TD*%
D23*
%TO.C,J9*%
X104125000Y-123650000D03*
D24*
X104125000Y-126150000D03*
X104125000Y-128650000D03*
X104125000Y-131150000D03*
%TD*%
D52*
%TO.C,R17*%
X149775000Y-137775000D03*
X151425000Y-137775000D03*
%TD*%
D55*
%TO.C,U1*%
X131075000Y-78920000D03*
X131075000Y-80190000D03*
X131075000Y-81460000D03*
X131075000Y-82730000D03*
X136325000Y-82730000D03*
X136325000Y-81460000D03*
X136325000Y-80190000D03*
X136325000Y-78920000D03*
%TD*%
D56*
%TO.C,BT1*%
X177730000Y-58130000D03*
D57*
X186110000Y-73870000D03*
D56*
X122530000Y-73870000D03*
D58*
X186110000Y-66000000D03*
X113890000Y-66000000D03*
%TD*%
D39*
%TO.C,C18*%
X120000000Y-130975000D03*
X120000000Y-132525000D03*
%TD*%
D59*
%TO.C,R14*%
X126912500Y-143300000D03*
X125087500Y-143300000D03*
%TD*%
D60*
%TO.C,U2*%
X138975000Y-133850000D03*
X138975000Y-133350000D03*
X138975000Y-132850000D03*
X138975000Y-132350000D03*
X138975000Y-131850000D03*
X138975000Y-131350000D03*
X138975000Y-130850000D03*
X138975000Y-130350000D03*
X138975000Y-129850000D03*
X138975000Y-129350000D03*
X138975000Y-128850000D03*
X138975000Y-128350000D03*
X138975000Y-127850000D03*
X138975000Y-127350000D03*
X138975000Y-126850000D03*
X138975000Y-126350000D03*
D61*
X137050000Y-124425000D03*
X136550000Y-124425000D03*
X136050000Y-124425000D03*
X135550000Y-124425000D03*
X135050000Y-124425000D03*
X134550000Y-124425000D03*
X134050000Y-124425000D03*
X133550000Y-124425000D03*
X133050000Y-124425000D03*
X132550000Y-124425000D03*
X132050000Y-124425000D03*
X131550000Y-124425000D03*
X131050000Y-124425000D03*
X130550000Y-124425000D03*
X130050000Y-124425000D03*
X129550000Y-124425000D03*
D60*
X127625000Y-126350000D03*
X127625000Y-126850000D03*
X127625000Y-127350000D03*
X127625000Y-127850000D03*
X127625000Y-128350000D03*
X127625000Y-128850000D03*
X127625000Y-129350000D03*
X127625000Y-129850000D03*
X127625000Y-130350000D03*
X127625000Y-130850000D03*
X127625000Y-131350000D03*
X127625000Y-131850000D03*
X127625000Y-132350000D03*
X127625000Y-132850000D03*
X127625000Y-133350000D03*
X127625000Y-133850000D03*
D61*
X129550000Y-135775000D03*
X130050000Y-135775000D03*
X130550000Y-135775000D03*
X131050000Y-135775000D03*
X131550000Y-135775000D03*
X132050000Y-135775000D03*
X132550000Y-135775000D03*
X133050000Y-135775000D03*
X133550000Y-135775000D03*
X134050000Y-135775000D03*
X134550000Y-135775000D03*
X135050000Y-135775000D03*
X135550000Y-135775000D03*
X136050000Y-135775000D03*
X136550000Y-135775000D03*
X137050000Y-135775000D03*
%TD*%
D15*
%TO.C,C1*%
X149825000Y-139575000D03*
X151375000Y-139575000D03*
%TD*%
D52*
%TO.C,R19*%
X134775000Y-140100000D03*
X136425000Y-140100000D03*
%TD*%
D62*
%TO.C,JP1*%
X111400000Y-109650000D03*
D63*
X111400000Y-110950000D03*
%TD*%
D17*
%TO.C,C4*%
X142450000Y-98900000D03*
X145150000Y-98900000D03*
%TD*%
D64*
%TO.C,U4*%
X124975000Y-109805000D03*
X124975000Y-108535000D03*
X124975000Y-107265000D03*
X124975000Y-105995000D03*
X120025000Y-105995000D03*
X120025000Y-107265000D03*
X120025000Y-108535000D03*
X120025000Y-109805000D03*
%TD*%
D65*
%TO.C,J5*%
X182405489Y-147995489D03*
X188185489Y-147995489D03*
D66*
X182045489Y-146550489D03*
X182845489Y-146550489D03*
D67*
X184045489Y-146550489D03*
X185045489Y-146550489D03*
X185545489Y-146550489D03*
X186545489Y-146550489D03*
D66*
X187745489Y-146550489D03*
X188545489Y-146550489D03*
X188545489Y-146550489D03*
X187745489Y-146550489D03*
D67*
X187045489Y-146550489D03*
X186045489Y-146550489D03*
X184545489Y-146550489D03*
X183545489Y-146550489D03*
D66*
X182845489Y-146550489D03*
X182045489Y-146550489D03*
D68*
X180975489Y-151645489D03*
X189615489Y-151645489D03*
D69*
X189615489Y-147465489D03*
X180975489Y-147465489D03*
%TD*%
D16*
%TO.C,C24*%
X154900000Y-84725000D03*
X154900000Y-79325000D03*
%TD*%
D70*
%TO.C,C3*%
X123150000Y-117750000D03*
X121600000Y-117750000D03*
%TD*%
D71*
%TO.C,C27*%
X142325000Y-101450000D03*
X145275000Y-101450000D03*
%TD*%
D39*
%TO.C,C16*%
X117000000Y-130975000D03*
X117000000Y-132525000D03*
%TD*%
D52*
%TO.C,R18*%
X134775000Y-138600000D03*
X136425000Y-138600000D03*
%TD*%
D70*
%TO.C,C13*%
X117575000Y-127500000D03*
X116025000Y-127500000D03*
%TD*%
D62*
%TO.C,JP3*%
X116725000Y-120300000D03*
D63*
X116725000Y-121600000D03*
%TD*%
D23*
%TO.C,J12*%
X103700000Y-110850000D03*
D24*
X103700000Y-113350000D03*
X103700000Y-115850000D03*
%TD*%
D22*
%TO.C,R30*%
X121025000Y-111700000D03*
X119375000Y-111700000D03*
%TD*%
D52*
%TO.C,R27*%
X148225000Y-98900000D03*
X149875000Y-98900000D03*
%TD*%
D18*
%TO.C,H3*%
X102600000Y-60000000D03*
X103302944Y-61697056D03*
X106697056Y-58302944D03*
D19*
X105000000Y-60000000D03*
D18*
X103302944Y-58302944D03*
X106697056Y-61697056D03*
X105000000Y-62400000D03*
X107400000Y-60000000D03*
X105000000Y-57600000D03*
%TD*%
D72*
%TO.C,SW3*%
X115420000Y-148550000D03*
X123380000Y-148550000D03*
X115420000Y-153050000D03*
X123380000Y-153050000D03*
%TD*%
D70*
%TO.C,C15*%
X117575000Y-129000000D03*
X116025000Y-129000000D03*
%TD*%
D73*
%TO.C,U10*%
X171837500Y-88450000D03*
X171837500Y-87500000D03*
X171837500Y-86550000D03*
X169562500Y-86550000D03*
X169562500Y-88450000D03*
%TD*%
D38*
%TO.C,C23*%
X160100000Y-84700000D03*
X160100000Y-81750000D03*
%TD*%
D29*
%TO.C,D8*%
X154537500Y-137775000D03*
X152962500Y-137775000D03*
%TD*%
D74*
%TO.C,U8*%
X167237500Y-79450000D03*
X167237500Y-80100000D03*
X167237500Y-80750000D03*
X167237500Y-81400000D03*
X172962500Y-81400000D03*
X172962500Y-80750000D03*
X172962500Y-80100000D03*
X172962500Y-79450000D03*
%TD*%
D34*
%TO.C,R12*%
X159987500Y-129900000D03*
X161812500Y-129900000D03*
%TD*%
D52*
%TO.C,R20*%
X139475000Y-138600000D03*
X141125000Y-138600000D03*
%TD*%
D22*
%TO.C,R24*%
X113347000Y-137922000D03*
X111697000Y-137922000D03*
%TD*%
D23*
%TO.C,J6*%
X103900000Y-138150000D03*
D24*
X103900000Y-140650000D03*
X103900000Y-143150000D03*
%TD*%
D75*
%TO.C,JP2*%
X116725000Y-125100000D03*
D76*
X116725000Y-123800000D03*
%TD*%
D38*
%TO.C,C8*%
X125800000Y-85175000D03*
X125800000Y-82225000D03*
%TD*%
D42*
%TO.C,J8*%
X142500000Y-150175000D03*
D43*
X145000000Y-150175000D03*
X147500000Y-150175000D03*
X150000000Y-150175000D03*
X152500000Y-150175000D03*
%TD*%
D52*
%TO.C,R28*%
X151425000Y-98900000D03*
X153075000Y-98900000D03*
%TD*%
D77*
%TO.C,J2*%
X110900000Y-84042500D03*
D78*
X104900000Y-84042500D03*
D79*
X107900000Y-88742500D03*
%TD*%
D52*
%TO.C,R23*%
X168975000Y-90200000D03*
X170625000Y-90200000D03*
%TD*%
D80*
%TO.C,R16*%
X149000000Y-143312500D03*
X149000000Y-141487500D03*
%TD*%
D52*
%TO.C,R21*%
X139475000Y-140100000D03*
X141125000Y-140100000D03*
%TD*%
M02*
