%TF.GenerationSoftware,KiCad,Pcbnew,(6.0.6)*%
%TF.CreationDate,2022-10-20T14:17:53+09:00*%
%TF.ProjectId,LTE-base-H1,4c54452d-6261-4736-952d-48312e6b6963,rev?*%
%TF.SameCoordinates,Original*%
%TF.FileFunction,Legend,Bot*%
%TF.FilePolarity,Positive*%
%FSLAX46Y46*%
G04 Gerber Fmt 4.6, Leading zero omitted, Abs format (unit mm)*
G04 Created by KiCad (PCBNEW (6.0.6)) date 2022-10-20 14:17:53*
%MOMM*%
%LPD*%
G01*
G04 APERTURE LIST*
G04 Aperture macros list*
%AMRoundRect*
0 Rectangle with rounded corners*
0 $1 Rounding radius*
0 $2 $3 $4 $5 $6 $7 $8 $9 X,Y pos of 4 corners*
0 Add a 4 corners polygon primitive as box body*
4,1,4,$2,$3,$4,$5,$6,$7,$8,$9,$2,$3,0*
0 Add four circle primitives for the rounded corners*
1,1,$1+$1,$2,$3*
1,1,$1+$1,$4,$5*
1,1,$1+$1,$6,$7*
1,1,$1+$1,$8,$9*
0 Add four rect primitives between the rounded corners*
20,1,$1+$1,$2,$3,$4,$5,0*
20,1,$1+$1,$4,$5,$6,$7,0*
20,1,$1+$1,$6,$7,$8,$9,0*
20,1,$1+$1,$8,$9,$2,$3,0*%
G04 Aperture macros list end*
%ADD10C,0.200000*%
%ADD11C,0.150000*%
%ADD12C,0.800000*%
%ADD13C,6.400000*%
%ADD14C,6.200000*%
%ADD15RoundRect,0.250000X-0.725000X0.600000X-0.725000X-0.600000X0.725000X-0.600000X0.725000X0.600000X0*%
%ADD16O,1.950000X1.700000*%
%ADD17RoundRect,0.250000X-0.600000X-0.725000X0.600000X-0.725000X0.600000X0.725000X-0.600000X0.725000X0*%
%ADD18O,1.700000X1.950000*%
%ADD19C,2.000000*%
%ADD20C,1.100000*%
%ADD21C,1.600000*%
%ADD22C,3.550000*%
%ADD23C,2.390000*%
%ADD24C,1.980000*%
%ADD25C,0.650000*%
%ADD26O,1.000000X1.600000*%
%ADD27O,1.000000X2.100000*%
%ADD28R,3.500000X3.500000*%
%ADD29RoundRect,0.750000X-0.750000X-1.000000X0.750000X-1.000000X0.750000X1.000000X-0.750000X1.000000X0*%
%ADD30RoundRect,0.875000X-0.875000X-0.875000X0.875000X-0.875000X0.875000X0.875000X-0.875000X0.875000X0*%
G04 APERTURE END LIST*
D10*
X108321428Y-123909809D02*
X108192857Y-123947904D01*
X107978571Y-123947904D01*
X107892857Y-123909809D01*
X107850000Y-123871714D01*
X107807142Y-123795523D01*
X107807142Y-123719333D01*
X107850000Y-123643142D01*
X107892857Y-123605047D01*
X107978571Y-123566952D01*
X108150000Y-123528857D01*
X108235714Y-123490761D01*
X108278571Y-123452666D01*
X108321428Y-123376476D01*
X108321428Y-123300285D01*
X108278571Y-123224095D01*
X108235714Y-123186000D01*
X108150000Y-123147904D01*
X107935714Y-123147904D01*
X107807142Y-123186000D01*
X106907142Y-123871714D02*
X106950000Y-123909809D01*
X107078571Y-123947904D01*
X107164285Y-123947904D01*
X107292857Y-123909809D01*
X107378571Y-123833619D01*
X107421428Y-123757428D01*
X107464285Y-123605047D01*
X107464285Y-123490761D01*
X107421428Y-123338380D01*
X107378571Y-123262190D01*
X107292857Y-123186000D01*
X107164285Y-123147904D01*
X107078571Y-123147904D01*
X106950000Y-123186000D01*
X106907142Y-123224095D01*
X106092857Y-123947904D02*
X106521428Y-123947904D01*
X106521428Y-123147904D01*
X108342857Y-126485809D02*
X108214285Y-126523904D01*
X108000000Y-126523904D01*
X107914285Y-126485809D01*
X107871428Y-126447714D01*
X107828571Y-126371523D01*
X107828571Y-126295333D01*
X107871428Y-126219142D01*
X107914285Y-126181047D01*
X108000000Y-126142952D01*
X108171428Y-126104857D01*
X108257142Y-126066761D01*
X108300000Y-126028666D01*
X108342857Y-125952476D01*
X108342857Y-125876285D01*
X108300000Y-125800095D01*
X108257142Y-125762000D01*
X108171428Y-125723904D01*
X107957142Y-125723904D01*
X107828571Y-125762000D01*
X107442857Y-126523904D02*
X107442857Y-125723904D01*
X107228571Y-125723904D01*
X107100000Y-125762000D01*
X107014285Y-125838190D01*
X106971428Y-125914380D01*
X106928571Y-126066761D01*
X106928571Y-126181047D01*
X106971428Y-126333428D01*
X107014285Y-126409619D01*
X107100000Y-126485809D01*
X107228571Y-126523904D01*
X107442857Y-126523904D01*
X106585714Y-126295333D02*
X106157142Y-126295333D01*
X106671428Y-126523904D02*
X106371428Y-125723904D01*
X106071428Y-126523904D01*
X108835714Y-128795142D02*
X108150000Y-128795142D01*
X108492857Y-129099904D02*
X108492857Y-128490380D01*
X107807142Y-128299904D02*
X107250000Y-128299904D01*
X107550000Y-128604666D01*
X107421428Y-128604666D01*
X107335714Y-128642761D01*
X107292857Y-128680857D01*
X107250000Y-128757047D01*
X107250000Y-128947523D01*
X107292857Y-129023714D01*
X107335714Y-129061809D01*
X107421428Y-129099904D01*
X107678571Y-129099904D01*
X107764285Y-129061809D01*
X107807142Y-129023714D01*
X106992857Y-128299904D02*
X106692857Y-129099904D01*
X106392857Y-128299904D01*
X106178571Y-128299904D02*
X105621428Y-128299904D01*
X105921428Y-128604666D01*
X105792857Y-128604666D01*
X105707142Y-128642761D01*
X105664285Y-128680857D01*
X105621428Y-128757047D01*
X105621428Y-128947523D01*
X105664285Y-129023714D01*
X105707142Y-129061809D01*
X105792857Y-129099904D01*
X106050000Y-129099904D01*
X106135714Y-129061809D01*
X106178571Y-129023714D01*
X107935714Y-130914000D02*
X108021428Y-130875904D01*
X108150000Y-130875904D01*
X108278571Y-130914000D01*
X108364285Y-130990190D01*
X108407142Y-131066380D01*
X108450000Y-131218761D01*
X108450000Y-131333047D01*
X108407142Y-131485428D01*
X108364285Y-131561619D01*
X108278571Y-131637809D01*
X108150000Y-131675904D01*
X108064285Y-131675904D01*
X107935714Y-131637809D01*
X107892857Y-131599714D01*
X107892857Y-131333047D01*
X108064285Y-131333047D01*
X107507142Y-131675904D02*
X107507142Y-130875904D01*
X106992857Y-131675904D01*
X106992857Y-130875904D01*
X106564285Y-131675904D02*
X106564285Y-130875904D01*
X106350000Y-130875904D01*
X106221428Y-130914000D01*
X106135714Y-130990190D01*
X106092857Y-131066380D01*
X106050000Y-131218761D01*
X106050000Y-131333047D01*
X106092857Y-131485428D01*
X106135714Y-131561619D01*
X106221428Y-131637809D01*
X106350000Y-131675904D01*
X106564285Y-131675904D01*
X106192857Y-94193142D02*
X105507142Y-94193142D01*
X105850000Y-94497904D02*
X105850000Y-93888380D01*
X106192857Y-96769142D02*
X105507142Y-96769142D01*
X105850000Y-97073904D02*
X105850000Y-96464380D01*
X106192857Y-99345142D02*
X105507142Y-99345142D01*
X106192857Y-101921142D02*
X105507142Y-101921142D01*
D11*
X183019047Y-107752380D02*
X183019047Y-108466666D01*
X183066666Y-108609523D01*
X183161904Y-108704761D01*
X183304761Y-108752380D01*
X183400000Y-108752380D01*
X182066666Y-108752380D02*
X182542857Y-108752380D01*
X182542857Y-107752380D01*
X181161904Y-108657142D02*
X181209523Y-108704761D01*
X181352380Y-108752380D01*
X181447619Y-108752380D01*
X181590476Y-108704761D01*
X181685714Y-108609523D01*
X181733333Y-108514285D01*
X181780952Y-108323809D01*
X181780952Y-108180952D01*
X181733333Y-107990476D01*
X181685714Y-107895238D01*
X181590476Y-107800000D01*
X181447619Y-107752380D01*
X181352380Y-107752380D01*
X181209523Y-107800000D01*
X181161904Y-107847619D01*
X180447619Y-107752380D02*
X180447619Y-108466666D01*
X180495238Y-108609523D01*
X180590476Y-108704761D01*
X180733333Y-108752380D01*
X180828571Y-108752380D01*
X179495238Y-108752380D02*
X179971428Y-108752380D01*
X179971428Y-107752380D01*
X178590476Y-108657142D02*
X178638095Y-108704761D01*
X178780952Y-108752380D01*
X178876190Y-108752380D01*
X179019047Y-108704761D01*
X179114285Y-108609523D01*
X179161904Y-108514285D01*
X179209523Y-108323809D01*
X179209523Y-108180952D01*
X179161904Y-107990476D01*
X179114285Y-107895238D01*
X179019047Y-107800000D01*
X178876190Y-107752380D01*
X178780952Y-107752380D01*
X178638095Y-107800000D01*
X178590476Y-107847619D01*
X177876190Y-107752380D02*
X177876190Y-108466666D01*
X177923809Y-108609523D01*
X178019047Y-108704761D01*
X178161904Y-108752380D01*
X178257142Y-108752380D01*
X176923809Y-108752380D02*
X177400000Y-108752380D01*
X177400000Y-107752380D01*
X176019047Y-108657142D02*
X176066666Y-108704761D01*
X176209523Y-108752380D01*
X176304761Y-108752380D01*
X176447619Y-108704761D01*
X176542857Y-108609523D01*
X176590476Y-108514285D01*
X176638095Y-108323809D01*
X176638095Y-108180952D01*
X176590476Y-107990476D01*
X176542857Y-107895238D01*
X176447619Y-107800000D01*
X176304761Y-107752380D01*
X176209523Y-107752380D01*
X176066666Y-107800000D01*
X176019047Y-107847619D01*
X175304761Y-107752380D02*
X175304761Y-108466666D01*
X175352380Y-108609523D01*
X175447619Y-108704761D01*
X175590476Y-108752380D01*
X175685714Y-108752380D01*
X174352380Y-108752380D02*
X174828571Y-108752380D01*
X174828571Y-107752380D01*
X173447619Y-108657142D02*
X173495238Y-108704761D01*
X173638095Y-108752380D01*
X173733333Y-108752380D01*
X173876190Y-108704761D01*
X173971428Y-108609523D01*
X174019047Y-108514285D01*
X174066666Y-108323809D01*
X174066666Y-108180952D01*
X174019047Y-107990476D01*
X173971428Y-107895238D01*
X173876190Y-107800000D01*
X173733333Y-107752380D01*
X173638095Y-107752380D01*
X173495238Y-107800000D01*
X173447619Y-107847619D01*
D10*
X107642857Y-111109714D02*
X107685714Y-111147809D01*
X107814285Y-111185904D01*
X107900000Y-111185904D01*
X108028571Y-111147809D01*
X108114285Y-111071619D01*
X108157142Y-110995428D01*
X108200000Y-110843047D01*
X108200000Y-110728761D01*
X108157142Y-110576380D01*
X108114285Y-110500190D01*
X108028571Y-110424000D01*
X107900000Y-110385904D01*
X107814285Y-110385904D01*
X107685714Y-110424000D01*
X107642857Y-110462095D01*
X107300000Y-110957333D02*
X106871428Y-110957333D01*
X107385714Y-111185904D02*
X107085714Y-110385904D01*
X106785714Y-111185904D01*
X106485714Y-111185904D02*
X106485714Y-110385904D01*
X105971428Y-111185904D01*
X105971428Y-110385904D01*
X105114285Y-111185904D02*
X105542857Y-111185904D01*
X105542857Y-110385904D01*
X107385714Y-113000000D02*
X107471428Y-112961904D01*
X107600000Y-112961904D01*
X107728571Y-113000000D01*
X107814285Y-113076190D01*
X107857142Y-113152380D01*
X107900000Y-113304761D01*
X107900000Y-113419047D01*
X107857142Y-113571428D01*
X107814285Y-113647619D01*
X107728571Y-113723809D01*
X107600000Y-113761904D01*
X107514285Y-113761904D01*
X107385714Y-113723809D01*
X107342857Y-113685714D01*
X107342857Y-113419047D01*
X107514285Y-113419047D01*
X106957142Y-113761904D02*
X106957142Y-112961904D01*
X106442857Y-113761904D01*
X106442857Y-112961904D01*
X106014285Y-113761904D02*
X106014285Y-112961904D01*
X105800000Y-112961904D01*
X105671428Y-113000000D01*
X105585714Y-113076190D01*
X105542857Y-113152380D01*
X105500000Y-113304761D01*
X105500000Y-113419047D01*
X105542857Y-113571428D01*
X105585714Y-113647619D01*
X105671428Y-113723809D01*
X105800000Y-113761904D01*
X106014285Y-113761904D01*
X107750000Y-116261714D02*
X107792857Y-116299809D01*
X107921428Y-116337904D01*
X108007142Y-116337904D01*
X108135714Y-116299809D01*
X108221428Y-116223619D01*
X108264285Y-116147428D01*
X108307142Y-115995047D01*
X108307142Y-115880761D01*
X108264285Y-115728380D01*
X108221428Y-115652190D01*
X108135714Y-115576000D01*
X108007142Y-115537904D01*
X107921428Y-115537904D01*
X107792857Y-115576000D01*
X107750000Y-115614095D01*
X107407142Y-116109333D02*
X106978571Y-116109333D01*
X107492857Y-116337904D02*
X107192857Y-115537904D01*
X106892857Y-116337904D01*
X106592857Y-116337904D02*
X106592857Y-115537904D01*
X106078571Y-116337904D01*
X106078571Y-115537904D01*
X105650000Y-116337904D02*
X105650000Y-115537904D01*
X105650000Y-115918857D02*
X105135714Y-115918857D01*
X105135714Y-116337904D02*
X105135714Y-115537904D01*
X141909904Y-145585714D02*
X141909904Y-146142857D01*
X142214666Y-145842857D01*
X142214666Y-145971428D01*
X142252761Y-146057142D01*
X142290857Y-146100000D01*
X142367047Y-146142857D01*
X142557523Y-146142857D01*
X142633714Y-146100000D01*
X142671809Y-146057142D01*
X142709904Y-145971428D01*
X142709904Y-145714285D01*
X142671809Y-145628571D01*
X142633714Y-145585714D01*
X141909904Y-146400000D02*
X142709904Y-146700000D01*
X141909904Y-147000000D01*
X141909904Y-147214285D02*
X141909904Y-147771428D01*
X142214666Y-147471428D01*
X142214666Y-147600000D01*
X142252761Y-147685714D01*
X142290857Y-147728571D01*
X142367047Y-147771428D01*
X142557523Y-147771428D01*
X142633714Y-147728571D01*
X142671809Y-147685714D01*
X142709904Y-147600000D01*
X142709904Y-147342857D01*
X142671809Y-147257142D01*
X142633714Y-147214285D01*
X145247809Y-144664285D02*
X145285904Y-144792857D01*
X145285904Y-145007142D01*
X145247809Y-145092857D01*
X145209714Y-145135714D01*
X145133523Y-145178571D01*
X145057333Y-145178571D01*
X144981142Y-145135714D01*
X144943047Y-145092857D01*
X144904952Y-145007142D01*
X144866857Y-144835714D01*
X144828761Y-144750000D01*
X144790666Y-144707142D01*
X144714476Y-144664285D01*
X144638285Y-144664285D01*
X144562095Y-144707142D01*
X144524000Y-144750000D01*
X144485904Y-144835714D01*
X144485904Y-145050000D01*
X144524000Y-145178571D01*
X144485904Y-145478571D02*
X145285904Y-145692857D01*
X144714476Y-145864285D01*
X145285904Y-146035714D01*
X144485904Y-146250000D01*
X145209714Y-147107142D02*
X145247809Y-147064285D01*
X145285904Y-146935714D01*
X145285904Y-146850000D01*
X145247809Y-146721428D01*
X145171619Y-146635714D01*
X145095428Y-146592857D01*
X144943047Y-146550000D01*
X144828761Y-146550000D01*
X144676380Y-146592857D01*
X144600190Y-146635714D01*
X144524000Y-146721428D01*
X144485904Y-146850000D01*
X144485904Y-146935714D01*
X144524000Y-147064285D01*
X144562095Y-147107142D01*
X145285904Y-147921428D02*
X145285904Y-147492857D01*
X144485904Y-147492857D01*
X145285904Y-148221428D02*
X144485904Y-148221428D01*
X145285904Y-148735714D02*
X144828761Y-148350000D01*
X144485904Y-148735714D02*
X144943047Y-148221428D01*
X147100000Y-146014285D02*
X147061904Y-145928571D01*
X147061904Y-145800000D01*
X147100000Y-145671428D01*
X147176190Y-145585714D01*
X147252380Y-145542857D01*
X147404761Y-145500000D01*
X147519047Y-145500000D01*
X147671428Y-145542857D01*
X147747619Y-145585714D01*
X147823809Y-145671428D01*
X147861904Y-145800000D01*
X147861904Y-145885714D01*
X147823809Y-146014285D01*
X147785714Y-146057142D01*
X147519047Y-146057142D01*
X147519047Y-145885714D01*
X147861904Y-146442857D02*
X147061904Y-146442857D01*
X147861904Y-146957142D01*
X147061904Y-146957142D01*
X147861904Y-147385714D02*
X147061904Y-147385714D01*
X147061904Y-147600000D01*
X147100000Y-147728571D01*
X147176190Y-147814285D01*
X147252380Y-147857142D01*
X147404761Y-147900000D01*
X147519047Y-147900000D01*
X147671428Y-147857142D01*
X147747619Y-147814285D01*
X147823809Y-147728571D01*
X147861904Y-147600000D01*
X147861904Y-147385714D01*
X150399809Y-144792857D02*
X150437904Y-144921428D01*
X150437904Y-145135714D01*
X150399809Y-145221428D01*
X150361714Y-145264285D01*
X150285523Y-145307142D01*
X150209333Y-145307142D01*
X150133142Y-145264285D01*
X150095047Y-145221428D01*
X150056952Y-145135714D01*
X150018857Y-144964285D01*
X149980761Y-144878571D01*
X149942666Y-144835714D01*
X149866476Y-144792857D01*
X149790285Y-144792857D01*
X149714095Y-144835714D01*
X149676000Y-144878571D01*
X149637904Y-144964285D01*
X149637904Y-145178571D01*
X149676000Y-145307142D01*
X149637904Y-145607142D02*
X150437904Y-145821428D01*
X149866476Y-145992857D01*
X150437904Y-146164285D01*
X149637904Y-146378571D01*
X150437904Y-146721428D02*
X149637904Y-146721428D01*
X149637904Y-146935714D01*
X149676000Y-147064285D01*
X149752190Y-147150000D01*
X149828380Y-147192857D01*
X149980761Y-147235714D01*
X150095047Y-147235714D01*
X150247428Y-147192857D01*
X150323619Y-147150000D01*
X150399809Y-147064285D01*
X150437904Y-146935714D01*
X150437904Y-146721428D01*
X150437904Y-147621428D02*
X149637904Y-147621428D01*
X149637904Y-148221428D02*
X149637904Y-148392857D01*
X149676000Y-148478571D01*
X149752190Y-148564285D01*
X149904571Y-148607142D01*
X150171238Y-148607142D01*
X150323619Y-148564285D01*
X150399809Y-148478571D01*
X150437904Y-148392857D01*
X150437904Y-148221428D01*
X150399809Y-148135714D01*
X150323619Y-148050000D01*
X150171238Y-148007142D01*
X149904571Y-148007142D01*
X149752190Y-148050000D01*
X149676000Y-148135714D01*
X149637904Y-148221428D01*
X153013904Y-145221428D02*
X152213904Y-145221428D01*
X153013904Y-145735714D01*
X152213904Y-145735714D01*
X153013904Y-146678571D02*
X152632952Y-146378571D01*
X153013904Y-146164285D02*
X152213904Y-146164285D01*
X152213904Y-146507142D01*
X152252000Y-146592857D01*
X152290095Y-146635714D01*
X152366285Y-146678571D01*
X152480571Y-146678571D01*
X152556761Y-146635714D01*
X152594857Y-146592857D01*
X152632952Y-146507142D01*
X152632952Y-146164285D01*
X152975809Y-147021428D02*
X153013904Y-147150000D01*
X153013904Y-147364285D01*
X152975809Y-147450000D01*
X152937714Y-147492857D01*
X152861523Y-147535714D01*
X152785333Y-147535714D01*
X152709142Y-147492857D01*
X152671047Y-147450000D01*
X152632952Y-147364285D01*
X152594857Y-147192857D01*
X152556761Y-147107142D01*
X152518666Y-147064285D01*
X152442476Y-147021428D01*
X152366285Y-147021428D01*
X152290095Y-147064285D01*
X152252000Y-147107142D01*
X152213904Y-147192857D01*
X152213904Y-147407142D01*
X152252000Y-147535714D01*
X152213904Y-147792857D02*
X152213904Y-148307142D01*
X153013904Y-148050000D02*
X152213904Y-148050000D01*
X110271428Y-137685904D02*
X109757142Y-137685904D01*
X110014285Y-138485904D02*
X110014285Y-137685904D01*
X109542857Y-137685904D02*
X108942857Y-138485904D01*
X108942857Y-137685904D02*
X109542857Y-138485904D01*
X108342857Y-138790666D02*
X108385714Y-138752571D01*
X108471428Y-138638285D01*
X108514285Y-138562095D01*
X108557142Y-138447809D01*
X108600000Y-138257333D01*
X108600000Y-138104952D01*
X108557142Y-137914476D01*
X108514285Y-137800190D01*
X108471428Y-137724000D01*
X108385714Y-137609714D01*
X108342857Y-137571619D01*
X107828571Y-137685904D02*
X107657142Y-137685904D01*
X107571428Y-137724000D01*
X107485714Y-137800190D01*
X107442857Y-137952571D01*
X107442857Y-138219238D01*
X107485714Y-138371619D01*
X107571428Y-138447809D01*
X107657142Y-138485904D01*
X107828571Y-138485904D01*
X107914285Y-138447809D01*
X108000000Y-138371619D01*
X108042857Y-138219238D01*
X108042857Y-137952571D01*
X108000000Y-137800190D01*
X107914285Y-137724000D01*
X107828571Y-137685904D01*
X107057142Y-137685904D02*
X107057142Y-138333523D01*
X107014285Y-138409714D01*
X106971428Y-138447809D01*
X106885714Y-138485904D01*
X106714285Y-138485904D01*
X106628571Y-138447809D01*
X106585714Y-138409714D01*
X106542857Y-138333523D01*
X106542857Y-137685904D01*
X106242857Y-137685904D02*
X105728571Y-137685904D01*
X105985714Y-138485904D02*
X105985714Y-137685904D01*
X105514285Y-138790666D02*
X105471428Y-138752571D01*
X105385714Y-138638285D01*
X105342857Y-138562095D01*
X105300000Y-138447809D01*
X105257142Y-138257333D01*
X105257142Y-138104952D01*
X105300000Y-137914476D01*
X105342857Y-137800190D01*
X105385714Y-137724000D01*
X105471428Y-137609714D01*
X105514285Y-137571619D01*
X109135714Y-141061904D02*
X109435714Y-140680952D01*
X109650000Y-141061904D02*
X109650000Y-140261904D01*
X109307142Y-140261904D01*
X109221428Y-140300000D01*
X109178571Y-140338095D01*
X109135714Y-140414285D01*
X109135714Y-140528571D01*
X109178571Y-140604761D01*
X109221428Y-140642857D01*
X109307142Y-140680952D01*
X109650000Y-140680952D01*
X108835714Y-140261904D02*
X108235714Y-141061904D01*
X108235714Y-140261904D02*
X108835714Y-141061904D01*
X107635714Y-141366666D02*
X107678571Y-141328571D01*
X107764285Y-141214285D01*
X107807142Y-141138095D01*
X107850000Y-141023809D01*
X107892857Y-140833333D01*
X107892857Y-140680952D01*
X107850000Y-140490476D01*
X107807142Y-140376190D01*
X107764285Y-140300000D01*
X107678571Y-140185714D01*
X107635714Y-140147619D01*
X107292857Y-141061904D02*
X107292857Y-140261904D01*
X106864285Y-141061904D02*
X106864285Y-140261904D01*
X106350000Y-141061904D01*
X106350000Y-140261904D01*
X106007142Y-141366666D02*
X105964285Y-141328571D01*
X105878571Y-141214285D01*
X105835714Y-141138095D01*
X105792857Y-141023809D01*
X105750000Y-140833333D01*
X105750000Y-140680952D01*
X105792857Y-140490476D01*
X105835714Y-140376190D01*
X105878571Y-140300000D01*
X105964285Y-140185714D01*
X106007142Y-140147619D01*
X108385714Y-142876000D02*
X108471428Y-142837904D01*
X108600000Y-142837904D01*
X108728571Y-142876000D01*
X108814285Y-142952190D01*
X108857142Y-143028380D01*
X108900000Y-143180761D01*
X108900000Y-143295047D01*
X108857142Y-143447428D01*
X108814285Y-143523619D01*
X108728571Y-143599809D01*
X108600000Y-143637904D01*
X108514285Y-143637904D01*
X108385714Y-143599809D01*
X108342857Y-143561714D01*
X108342857Y-143295047D01*
X108514285Y-143295047D01*
X107957142Y-143637904D02*
X107957142Y-142837904D01*
X107442857Y-143637904D01*
X107442857Y-142837904D01*
X107014285Y-143637904D02*
X107014285Y-142837904D01*
X106800000Y-142837904D01*
X106671428Y-142876000D01*
X106585714Y-142952190D01*
X106542857Y-143028380D01*
X106500000Y-143180761D01*
X106500000Y-143295047D01*
X106542857Y-143447428D01*
X106585714Y-143523619D01*
X106671428Y-143599809D01*
X106800000Y-143637904D01*
X107014285Y-143637904D01*
X128885904Y-146914285D02*
X128885904Y-147428571D01*
X129685904Y-147171428D02*
X128885904Y-147171428D01*
X128885904Y-147642857D02*
X129685904Y-148242857D01*
X128885904Y-148242857D02*
X129685904Y-147642857D01*
X132261904Y-147450000D02*
X131880952Y-147150000D01*
X132261904Y-146935714D02*
X131461904Y-146935714D01*
X131461904Y-147278571D01*
X131500000Y-147364285D01*
X131538095Y-147407142D01*
X131614285Y-147450000D01*
X131728571Y-147450000D01*
X131804761Y-147407142D01*
X131842857Y-147364285D01*
X131880952Y-147278571D01*
X131880952Y-146935714D01*
X131461904Y-147750000D02*
X132261904Y-148350000D01*
X131461904Y-148350000D02*
X132261904Y-147750000D01*
X134076000Y-146914285D02*
X134037904Y-146828571D01*
X134037904Y-146700000D01*
X134076000Y-146571428D01*
X134152190Y-146485714D01*
X134228380Y-146442857D01*
X134380761Y-146400000D01*
X134495047Y-146400000D01*
X134647428Y-146442857D01*
X134723619Y-146485714D01*
X134799809Y-146571428D01*
X134837904Y-146700000D01*
X134837904Y-146785714D01*
X134799809Y-146914285D01*
X134761714Y-146957142D01*
X134495047Y-146957142D01*
X134495047Y-146785714D01*
X134837904Y-147342857D02*
X134037904Y-147342857D01*
X134837904Y-147857142D01*
X134037904Y-147857142D01*
X134837904Y-148285714D02*
X134037904Y-148285714D01*
X134037904Y-148500000D01*
X134076000Y-148628571D01*
X134152190Y-148714285D01*
X134228380Y-148757142D01*
X134380761Y-148800000D01*
X134495047Y-148800000D01*
X134647428Y-148757142D01*
X134723619Y-148714285D01*
X134799809Y-148628571D01*
X134837904Y-148500000D01*
X134837904Y-148285714D01*
%LPC*%
D12*
%TO.C,H4*%
X195000000Y-57600000D03*
X196697056Y-58302944D03*
X195000000Y-62400000D03*
D13*
X195000000Y-60000000D03*
D12*
X197400000Y-60000000D03*
X192600000Y-60000000D03*
X193302944Y-61697056D03*
X193302944Y-58302944D03*
X196697056Y-61697056D03*
%TD*%
D14*
%TO.C,J4*%
X195700000Y-107400000D03*
%TD*%
D15*
%TO.C,J11*%
X103800000Y-94250000D03*
D16*
X103800000Y-96750000D03*
X103800000Y-99250000D03*
X103800000Y-101750000D03*
%TD*%
D12*
%TO.C,H2*%
X105000000Y-152400000D03*
X103302944Y-148302944D03*
X103302944Y-151697056D03*
X106697056Y-151697056D03*
X106697056Y-148302944D03*
X107400000Y-150000000D03*
X105000000Y-147600000D03*
X102600000Y-150000000D03*
D13*
X105000000Y-150000000D03*
%TD*%
D14*
%TO.C,J3*%
X195750000Y-131600000D03*
%TD*%
D17*
%TO.C,J7*%
X129500000Y-150275000D03*
D18*
X132000000Y-150275000D03*
X134500000Y-150275000D03*
%TD*%
D12*
%TO.C,H1*%
X195000000Y-152400000D03*
X196697056Y-148302944D03*
D13*
X195000000Y-150000000D03*
D12*
X193302944Y-148302944D03*
X195000000Y-147600000D03*
X193302944Y-151697056D03*
X197400000Y-150000000D03*
X196697056Y-151697056D03*
X192600000Y-150000000D03*
%TD*%
D19*
%TO.C,TP2*%
X157400000Y-100000000D03*
%TD*%
D20*
%TO.C,J1*%
X147700000Y-132000000D03*
D21*
X147700000Y-107000000D03*
%TD*%
D19*
%TO.C,TP1*%
X162500000Y-99900000D03*
%TD*%
D15*
%TO.C,J9*%
X104125000Y-123650000D03*
D16*
X104125000Y-126150000D03*
X104125000Y-128650000D03*
X104125000Y-131150000D03*
%TD*%
D22*
%TO.C,BT1*%
X177730000Y-58130000D03*
D23*
X186110000Y-73870000D03*
D22*
X122530000Y-73870000D03*
D24*
X186110000Y-66000000D03*
X113890000Y-66000000D03*
%TD*%
D25*
%TO.C,J5*%
X182405489Y-147995489D03*
X188185489Y-147995489D03*
D26*
X180975489Y-151645489D03*
X189615489Y-151645489D03*
D27*
X189615489Y-147465489D03*
X180975489Y-147465489D03*
%TD*%
D15*
%TO.C,J12*%
X103700000Y-110850000D03*
D16*
X103700000Y-113350000D03*
X103700000Y-115850000D03*
%TD*%
D12*
%TO.C,H3*%
X102600000Y-60000000D03*
X103302944Y-61697056D03*
X106697056Y-58302944D03*
D13*
X105000000Y-60000000D03*
D12*
X103302944Y-58302944D03*
X106697056Y-61697056D03*
X105000000Y-62400000D03*
X107400000Y-60000000D03*
X105000000Y-57600000D03*
%TD*%
D15*
%TO.C,J6*%
X103900000Y-138150000D03*
D16*
X103900000Y-140650000D03*
X103900000Y-143150000D03*
%TD*%
D17*
%TO.C,J8*%
X142500000Y-150175000D03*
D18*
X145000000Y-150175000D03*
X147500000Y-150175000D03*
X150000000Y-150175000D03*
X152500000Y-150175000D03*
%TD*%
D28*
%TO.C,J2*%
X110900000Y-84042500D03*
D29*
X104900000Y-84042500D03*
D30*
X107900000Y-88742500D03*
%TD*%
M02*
