%TF.GenerationSoftware,KiCad,Pcbnew,(6.0.6)*%
%TF.CreationDate,2022-09-15T15:55:45+09:00*%
%TF.ProjectId,LSM6DS3-breakout,4c534d36-4453-4332-9d62-7265616b6f75,rev?*%
%TF.SameCoordinates,Original*%
%TF.FileFunction,Copper,L2,Bot*%
%TF.FilePolarity,Positive*%
%FSLAX46Y46*%
G04 Gerber Fmt 4.6, Leading zero omitted, Abs format (unit mm)*
G04 Created by KiCad (PCBNEW (6.0.6)) date 2022-09-15 15:55:45*
%MOMM*%
%LPD*%
G01*
G04 APERTURE LIST*
G04 Aperture macros list*
%AMRoundRect*
0 Rectangle with rounded corners*
0 $1 Rounding radius*
0 $2 $3 $4 $5 $6 $7 $8 $9 X,Y pos of 4 corners*
0 Add a 4 corners polygon primitive as box body*
4,1,4,$2,$3,$4,$5,$6,$7,$8,$9,$2,$3,0*
0 Add four circle primitives for the rounded corners*
1,1,$1+$1,$2,$3*
1,1,$1+$1,$4,$5*
1,1,$1+$1,$6,$7*
1,1,$1+$1,$8,$9*
0 Add four rect primitives between the rounded corners*
20,1,$1+$1,$2,$3,$4,$5,0*
20,1,$1+$1,$4,$5,$6,$7,0*
20,1,$1+$1,$6,$7,$8,$9,0*
20,1,$1+$1,$8,$9,$2,$3,0*%
G04 Aperture macros list end*
%TA.AperFunction,ComponentPad*%
%ADD10C,0.800000*%
%TD*%
%TA.AperFunction,ComponentPad*%
%ADD11C,6.400000*%
%TD*%
%TA.AperFunction,ComponentPad*%
%ADD12C,2.000000*%
%TD*%
%TA.AperFunction,ComponentPad*%
%ADD13RoundRect,0.250000X-0.600000X-0.725000X0.600000X-0.725000X0.600000X0.725000X-0.600000X0.725000X0*%
%TD*%
%TA.AperFunction,ComponentPad*%
%ADD14O,1.700000X1.950000*%
%TD*%
%TA.AperFunction,ComponentPad*%
%ADD15RoundRect,0.250000X-0.725000X0.600000X-0.725000X-0.600000X0.725000X-0.600000X0.725000X0.600000X0*%
%TD*%
%TA.AperFunction,ComponentPad*%
%ADD16O,1.950000X1.700000*%
%TD*%
%TA.AperFunction,ViaPad*%
%ADD17C,0.800000*%
%TD*%
%TA.AperFunction,Conductor*%
%ADD18C,0.200000*%
%TD*%
%TA.AperFunction,Conductor*%
%ADD19C,0.800000*%
%TD*%
G04 APERTURE END LIST*
D10*
%TO.P,H3,1*%
%TO.N,N/C*%
X105697056Y-92697056D03*
X104000000Y-88600000D03*
X102302944Y-92697056D03*
X102302944Y-89302944D03*
D11*
X104000000Y-91000000D03*
D10*
X106400000Y-91000000D03*
X105697056Y-89302944D03*
X101600000Y-91000000D03*
X104000000Y-93400000D03*
%TD*%
D12*
%TO.P,TP2,1,1*%
%TO.N,INT2*%
X137200000Y-80600000D03*
%TD*%
D13*
%TO.P,J2,1,Pin_1*%
%TO.N,SCL*%
X121000000Y-68000000D03*
D14*
%TO.P,J2,2,Pin_2*%
%TO.N,SDA*%
X123500000Y-68000000D03*
%TO.P,J2,3,Pin_3*%
%TO.N,+3.3V*%
X126000000Y-68000000D03*
%TO.P,J2,4,Pin_4*%
%TO.N,GND*%
X128500000Y-68000000D03*
%TD*%
D10*
%TO.P,H4,1*%
%TO.N,N/C*%
X102302944Y-70697056D03*
X104000000Y-71400000D03*
D11*
X104000000Y-69000000D03*
D10*
X101600000Y-69000000D03*
X102302944Y-67302944D03*
X104000000Y-66600000D03*
X105697056Y-67302944D03*
X105697056Y-70697056D03*
X106400000Y-69000000D03*
%TD*%
D15*
%TO.P,J1,1,Pin_1*%
%TO.N,SCL*%
X103600000Y-76000000D03*
D16*
%TO.P,J1,2,Pin_2*%
%TO.N,SDA*%
X103600000Y-78500000D03*
%TO.P,J1,3,Pin_3*%
%TO.N,+3.3V*%
X103600000Y-81000000D03*
%TO.P,J1,4,Pin_4*%
%TO.N,GND*%
X103600000Y-83500000D03*
%TD*%
D11*
%TO.P,H2,1*%
%TO.N,N/C*%
X146000000Y-91000000D03*
D10*
X146000000Y-93400000D03*
X144302944Y-92697056D03*
X147697056Y-92697056D03*
X148400000Y-91000000D03*
X143600000Y-91000000D03*
X144302944Y-89302944D03*
X147697056Y-89302944D03*
X146000000Y-88600000D03*
%TD*%
%TO.P,H1,1*%
%TO.N,N/C*%
X143600000Y-69000000D03*
X146000000Y-66600000D03*
X148400000Y-69000000D03*
X147697056Y-67302944D03*
X144302944Y-70697056D03*
X144302944Y-67302944D03*
X147697056Y-70697056D03*
X146000000Y-71400000D03*
D11*
X146000000Y-69000000D03*
%TD*%
D12*
%TO.P,TP1,1,1*%
%TO.N,INT1*%
X137200000Y-84000000D03*
%TD*%
D17*
%TO.N,+3.3V*%
X128500000Y-74600000D03*
X115200000Y-72600000D03*
X115200000Y-81600000D03*
%TO.N,GND*%
X140000000Y-70000000D03*
X140000000Y-75000000D03*
X121000000Y-81000000D03*
X127600000Y-81900000D03*
X145000000Y-85000000D03*
X145000000Y-80000000D03*
X110000000Y-70000000D03*
X135000000Y-75000000D03*
X110000000Y-90000000D03*
X135000000Y-90000000D03*
X145000000Y-75000000D03*
X140000000Y-85000000D03*
X113000000Y-86000000D03*
X115000000Y-86000000D03*
X125000000Y-75000000D03*
X110000000Y-75000000D03*
X135000000Y-70000000D03*
X128500000Y-81900000D03*
X128000000Y-86000000D03*
X130000000Y-90000000D03*
X140000000Y-90000000D03*
%TO.N,SCL*%
X118000000Y-76000000D03*
%TO.N,SDA*%
X116500000Y-78500000D03*
%TO.N,INT1*%
X124044622Y-83955378D03*
%TD*%
D18*
%TO.N,+3.3V*%
X128500000Y-74600000D02*
X126000000Y-72100000D01*
D19*
X115200000Y-72600000D02*
X115200000Y-71272918D01*
X120047918Y-66425000D02*
X124425000Y-66425000D01*
X124425000Y-66425000D02*
X126000000Y-68000000D01*
X115200000Y-71272918D02*
X120047918Y-66425000D01*
X115200000Y-81600000D02*
X115200000Y-72600000D01*
D18*
X126000000Y-72100000D02*
X126000000Y-68000000D01*
%TO.N,SCL*%
X121000000Y-73000000D02*
X121000000Y-68000000D01*
X118000000Y-76000000D02*
X121000000Y-73000000D01*
%TO.N,SDA*%
X123500000Y-71500000D02*
X123500000Y-68000000D01*
X116500000Y-78500000D02*
X123500000Y-71500000D01*
%TO.N,INT1*%
X124044622Y-83955378D02*
X124089244Y-84000000D01*
X124089244Y-84000000D02*
X137200000Y-84000000D01*
%TD*%
%TA.AperFunction,Conductor*%
%TO.N,GND*%
G36*
X119447943Y-65528502D02*
G01*
X119494436Y-65582158D01*
X119504540Y-65652432D01*
X119475046Y-65717012D01*
X119464128Y-65728140D01*
X119460135Y-65731735D01*
X119455138Y-65736003D01*
X119439177Y-65748928D01*
X119424662Y-65763443D01*
X119419877Y-65767984D01*
X119369052Y-65813747D01*
X119365173Y-65819086D01*
X119365172Y-65819087D01*
X119360778Y-65825135D01*
X119347937Y-65840168D01*
X114615168Y-70572937D01*
X114600135Y-70585778D01*
X114588747Y-70594052D01*
X114584327Y-70598961D01*
X114542984Y-70644877D01*
X114538443Y-70649662D01*
X114523928Y-70664177D01*
X114521852Y-70666741D01*
X114511006Y-70680134D01*
X114506722Y-70685149D01*
X114465381Y-70731063D01*
X114465377Y-70731068D01*
X114460960Y-70735974D01*
X114457660Y-70741690D01*
X114457657Y-70741694D01*
X114453927Y-70748155D01*
X114442727Y-70764451D01*
X114433871Y-70775388D01*
X114402815Y-70836339D01*
X114399669Y-70842133D01*
X114365473Y-70901362D01*
X114363432Y-70907644D01*
X114363431Y-70907646D01*
X114361125Y-70914744D01*
X114353560Y-70933010D01*
X114347171Y-70945548D01*
X114345463Y-70951921D01*
X114345463Y-70951922D01*
X114329469Y-71011613D01*
X114327600Y-71017921D01*
X114306458Y-71082990D01*
X114305768Y-71089555D01*
X114305766Y-71089564D01*
X114304985Y-71096993D01*
X114301383Y-71116427D01*
X114299453Y-71123632D01*
X114297743Y-71130015D01*
X114297398Y-71136606D01*
X114297397Y-71136610D01*
X114294164Y-71198302D01*
X114293647Y-71204876D01*
X114291844Y-71222034D01*
X114291500Y-71225308D01*
X114291500Y-71245844D01*
X114291327Y-71252438D01*
X114287748Y-71320728D01*
X114288780Y-71327243D01*
X114289949Y-71334623D01*
X114291500Y-71354335D01*
X114291500Y-72545784D01*
X114290810Y-72558955D01*
X114286496Y-72600000D01*
X114289816Y-72631583D01*
X114290810Y-72641045D01*
X114291500Y-72654216D01*
X114291500Y-81545784D01*
X114290810Y-81558955D01*
X114286496Y-81600000D01*
X114287186Y-81606565D01*
X114291500Y-81647610D01*
X114298447Y-81713703D01*
X114306458Y-81789928D01*
X114308498Y-81796205D01*
X114308498Y-81796207D01*
X114317586Y-81824176D01*
X114365473Y-81971556D01*
X114368776Y-81977278D01*
X114368777Y-81977279D01*
X114402686Y-82036010D01*
X114460960Y-82136944D01*
X114465378Y-82141851D01*
X114465379Y-82141852D01*
X114492505Y-82171978D01*
X114588747Y-82278866D01*
X114743248Y-82391118D01*
X114749276Y-82393802D01*
X114749278Y-82393803D01*
X114856451Y-82441519D01*
X114917712Y-82468794D01*
X115002588Y-82486835D01*
X115098056Y-82507128D01*
X115098061Y-82507128D01*
X115104513Y-82508500D01*
X115295487Y-82508500D01*
X115301939Y-82507128D01*
X115301944Y-82507128D01*
X115397412Y-82486835D01*
X115482288Y-82468794D01*
X115543549Y-82441519D01*
X115650722Y-82393803D01*
X115650724Y-82393802D01*
X115656752Y-82391118D01*
X115811253Y-82278866D01*
X115907495Y-82171978D01*
X115934621Y-82141852D01*
X115934622Y-82141851D01*
X115939040Y-82136944D01*
X115997314Y-82036010D01*
X116031223Y-81977279D01*
X116031224Y-81977278D01*
X116034527Y-81971556D01*
X116093542Y-81789928D01*
X116101554Y-81713703D01*
X116108500Y-81647610D01*
X116112814Y-81606565D01*
X116113504Y-81600000D01*
X116109190Y-81558955D01*
X116108500Y-81545784D01*
X116108500Y-80600000D01*
X135686835Y-80600000D01*
X135705465Y-80836711D01*
X135760895Y-81067594D01*
X135851760Y-81286963D01*
X135854346Y-81291183D01*
X135973241Y-81485202D01*
X135973245Y-81485208D01*
X135975824Y-81489416D01*
X136130031Y-81669969D01*
X136310584Y-81824176D01*
X136314792Y-81826755D01*
X136314798Y-81826759D01*
X136508817Y-81945654D01*
X136513037Y-81948240D01*
X136517607Y-81950133D01*
X136517611Y-81950135D01*
X136727833Y-82037211D01*
X136732406Y-82039105D01*
X136812609Y-82058360D01*
X136958476Y-82093380D01*
X136958482Y-82093381D01*
X136963289Y-82094535D01*
X137200000Y-82113165D01*
X137436711Y-82094535D01*
X137441518Y-82093381D01*
X137441524Y-82093380D01*
X137587391Y-82058360D01*
X137667594Y-82039105D01*
X137672167Y-82037211D01*
X137882389Y-81950135D01*
X137882393Y-81950133D01*
X137886963Y-81948240D01*
X137891183Y-81945654D01*
X138085202Y-81826759D01*
X138085208Y-81826755D01*
X138089416Y-81824176D01*
X138269969Y-81669969D01*
X138424176Y-81489416D01*
X138426755Y-81485208D01*
X138426759Y-81485202D01*
X138545654Y-81291183D01*
X138548240Y-81286963D01*
X138639105Y-81067594D01*
X138694535Y-80836711D01*
X138713165Y-80600000D01*
X138694535Y-80363289D01*
X138674910Y-80281542D01*
X138655631Y-80201243D01*
X138639105Y-80132406D01*
X138559873Y-79941122D01*
X138550135Y-79917611D01*
X138550133Y-79917607D01*
X138548240Y-79913037D01*
X138525774Y-79876376D01*
X138426759Y-79714798D01*
X138426755Y-79714792D01*
X138424176Y-79710584D01*
X138269969Y-79530031D01*
X138089416Y-79375824D01*
X138085208Y-79373245D01*
X138085202Y-79373241D01*
X137891183Y-79254346D01*
X137886963Y-79251760D01*
X137882393Y-79249867D01*
X137882389Y-79249865D01*
X137672167Y-79162789D01*
X137672165Y-79162788D01*
X137667594Y-79160895D01*
X137587391Y-79141640D01*
X137441524Y-79106620D01*
X137441518Y-79106619D01*
X137436711Y-79105465D01*
X137200000Y-79086835D01*
X136963289Y-79105465D01*
X136958482Y-79106619D01*
X136958476Y-79106620D01*
X136812609Y-79141640D01*
X136732406Y-79160895D01*
X136727835Y-79162788D01*
X136727833Y-79162789D01*
X136517611Y-79249865D01*
X136517607Y-79249867D01*
X136513037Y-79251760D01*
X136508817Y-79254346D01*
X136314798Y-79373241D01*
X136314792Y-79373245D01*
X136310584Y-79375824D01*
X136130031Y-79530031D01*
X135975824Y-79710584D01*
X135973245Y-79714792D01*
X135973241Y-79714798D01*
X135874226Y-79876376D01*
X135851760Y-79913037D01*
X135849867Y-79917607D01*
X135849865Y-79917611D01*
X135840127Y-79941122D01*
X135760895Y-80132406D01*
X135744369Y-80201243D01*
X135725091Y-80281542D01*
X135705465Y-80363289D01*
X135686835Y-80600000D01*
X116108500Y-80600000D01*
X116108500Y-79501178D01*
X116128502Y-79433057D01*
X116182158Y-79386564D01*
X116252432Y-79376460D01*
X116260697Y-79377931D01*
X116398056Y-79407128D01*
X116398061Y-79407128D01*
X116404513Y-79408500D01*
X116595487Y-79408500D01*
X116601939Y-79407128D01*
X116601944Y-79407128D01*
X116698687Y-79386564D01*
X116782288Y-79368794D01*
X116920301Y-79307347D01*
X116950722Y-79293803D01*
X116950724Y-79293802D01*
X116956752Y-79291118D01*
X117111253Y-79178866D01*
X117176663Y-79106221D01*
X117234621Y-79041852D01*
X117234622Y-79041851D01*
X117239040Y-79036944D01*
X117322844Y-78891791D01*
X117331223Y-78877279D01*
X117331224Y-78877278D01*
X117334527Y-78871556D01*
X117393542Y-78689928D01*
X117413504Y-78500000D01*
X117413316Y-78498214D01*
X117432816Y-78431804D01*
X117449719Y-78410830D01*
X123896229Y-71964319D01*
X123908620Y-71953452D01*
X123927437Y-71939013D01*
X123933987Y-71933987D01*
X123998891Y-71849403D01*
X124031524Y-71806876D01*
X124050192Y-71761809D01*
X124089678Y-71666479D01*
X124092838Y-71658851D01*
X124094105Y-71649231D01*
X124099854Y-71605557D01*
X124108500Y-71539886D01*
X124108500Y-71539880D01*
X124112672Y-71508189D01*
X124113750Y-71500000D01*
X124109578Y-71468307D01*
X124108500Y-71451864D01*
X124108500Y-69415766D01*
X124128502Y-69347645D01*
X124169133Y-69308048D01*
X124303317Y-69226623D01*
X124343134Y-69192072D01*
X124473412Y-69079023D01*
X124473414Y-69079021D01*
X124477445Y-69075523D01*
X124535133Y-69005168D01*
X124620240Y-68901373D01*
X124620244Y-68901367D01*
X124623624Y-68897245D01*
X124641552Y-68865750D01*
X124692632Y-68816445D01*
X124762262Y-68802583D01*
X124828333Y-68828566D01*
X124855573Y-68857716D01*
X124937441Y-68979319D01*
X124941120Y-68983176D01*
X124941122Y-68983178D01*
X124957170Y-69000000D01*
X125096576Y-69146135D01*
X125281542Y-69283754D01*
X125322606Y-69304632D01*
X125374263Y-69353334D01*
X125391500Y-69416948D01*
X125391500Y-72051864D01*
X125390422Y-72068307D01*
X125386250Y-72100000D01*
X125387328Y-72108189D01*
X125391500Y-72139880D01*
X125391500Y-72139883D01*
X125392124Y-72144620D01*
X125392125Y-72144630D01*
X125402938Y-72226762D01*
X125407162Y-72258851D01*
X125468476Y-72406876D01*
X125473503Y-72413427D01*
X125473504Y-72413429D01*
X125541520Y-72502069D01*
X125541526Y-72502075D01*
X125566013Y-72533987D01*
X125572568Y-72539017D01*
X125591379Y-72553452D01*
X125603770Y-72564319D01*
X127550281Y-74510830D01*
X127584307Y-74573142D01*
X127586841Y-74596716D01*
X127586496Y-74600000D01*
X127606458Y-74789928D01*
X127665473Y-74971556D01*
X127760960Y-75136944D01*
X127765378Y-75141851D01*
X127765379Y-75141852D01*
X127825733Y-75208882D01*
X127888747Y-75278866D01*
X128043248Y-75391118D01*
X128049276Y-75393802D01*
X128049278Y-75393803D01*
X128204824Y-75463056D01*
X128217712Y-75468794D01*
X128311112Y-75488647D01*
X128398056Y-75507128D01*
X128398061Y-75507128D01*
X128404513Y-75508500D01*
X128595487Y-75508500D01*
X128601939Y-75507128D01*
X128601944Y-75507128D01*
X128688888Y-75488647D01*
X128782288Y-75468794D01*
X128795176Y-75463056D01*
X128950722Y-75393803D01*
X128950724Y-75393802D01*
X128956752Y-75391118D01*
X129111253Y-75278866D01*
X129174267Y-75208882D01*
X129234621Y-75141852D01*
X129234622Y-75141851D01*
X129239040Y-75136944D01*
X129334527Y-74971556D01*
X129393542Y-74789928D01*
X129413504Y-74600000D01*
X129393542Y-74410072D01*
X129334527Y-74228444D01*
X129239040Y-74063056D01*
X129111253Y-73921134D01*
X128956752Y-73808882D01*
X128950724Y-73806198D01*
X128950722Y-73806197D01*
X128788319Y-73733891D01*
X128788318Y-73733891D01*
X128782288Y-73731206D01*
X128688888Y-73711353D01*
X128601944Y-73692872D01*
X128601939Y-73692872D01*
X128595487Y-73691500D01*
X128504238Y-73691500D01*
X128436117Y-73671498D01*
X128415143Y-73654595D01*
X126645405Y-71884856D01*
X126611379Y-71822544D01*
X126608500Y-71795761D01*
X126608500Y-69415766D01*
X126628502Y-69347645D01*
X126669133Y-69308048D01*
X126803317Y-69226623D01*
X126843134Y-69192072D01*
X126973412Y-69079023D01*
X126973414Y-69079021D01*
X126977445Y-69075523D01*
X127035133Y-69005168D01*
X127120240Y-68901373D01*
X127120244Y-68901367D01*
X127123624Y-68897245D01*
X127136681Y-68874308D01*
X127141829Y-68865265D01*
X127192912Y-68815959D01*
X127262542Y-68802098D01*
X127328613Y-68828082D01*
X127355851Y-68857232D01*
X127434852Y-68974578D01*
X127441519Y-68982870D01*
X127593228Y-69141900D01*
X127601186Y-69148941D01*
X127777525Y-69280141D01*
X127786562Y-69285745D01*
X127982484Y-69385357D01*
X127992335Y-69389357D01*
X128202240Y-69454534D01*
X128212624Y-69456817D01*
X128228043Y-69458861D01*
X128242207Y-69456665D01*
X128246000Y-69443478D01*
X128246000Y-69441192D01*
X128754000Y-69441192D01*
X128757973Y-69454723D01*
X128768580Y-69456248D01*
X128886421Y-69431523D01*
X128896617Y-69428463D01*
X129101029Y-69347737D01*
X129110561Y-69343006D01*
X129298462Y-69228984D01*
X129307052Y-69222720D01*
X129473052Y-69078673D01*
X129480472Y-69071042D01*
X129619826Y-68901089D01*
X129625850Y-68892322D01*
X129734576Y-68701318D01*
X129739041Y-68691654D01*
X129814031Y-68485059D01*
X129816802Y-68474792D01*
X129853504Y-68271826D01*
X129852085Y-68258586D01*
X129837450Y-68254000D01*
X128772115Y-68254000D01*
X128756876Y-68258475D01*
X128755671Y-68259865D01*
X128754000Y-68267548D01*
X128754000Y-69441192D01*
X128246000Y-69441192D01*
X128246000Y-67727885D01*
X128754000Y-67727885D01*
X128758475Y-67743124D01*
X128759865Y-67744329D01*
X128767548Y-67746000D01*
X129833849Y-67746000D01*
X129848527Y-67741690D01*
X129850590Y-67729807D01*
X129843876Y-67650675D01*
X129842086Y-67640203D01*
X129786870Y-67427465D01*
X129783335Y-67417425D01*
X129693063Y-67217030D01*
X129687894Y-67207744D01*
X129565150Y-67025425D01*
X129558481Y-67017130D01*
X129406772Y-66858100D01*
X129398814Y-66851059D01*
X129222475Y-66719859D01*
X129213438Y-66714255D01*
X129017516Y-66614643D01*
X129007665Y-66610643D01*
X128797760Y-66545466D01*
X128787376Y-66543183D01*
X128771957Y-66541139D01*
X128757793Y-66543335D01*
X128754000Y-66556522D01*
X128754000Y-67727885D01*
X128246000Y-67727885D01*
X128246000Y-66558808D01*
X128242027Y-66545277D01*
X128231420Y-66543752D01*
X128113579Y-66568477D01*
X128103383Y-66571537D01*
X127898971Y-66652263D01*
X127889439Y-66656994D01*
X127701538Y-66771016D01*
X127692948Y-66777280D01*
X127526948Y-66921327D01*
X127519528Y-66928958D01*
X127380174Y-67098911D01*
X127374152Y-67107674D01*
X127358762Y-67134711D01*
X127307680Y-67184018D01*
X127238049Y-67197880D01*
X127171978Y-67171897D01*
X127144739Y-67142747D01*
X127108869Y-67089468D01*
X127062559Y-67020681D01*
X126903424Y-66853865D01*
X126718458Y-66716246D01*
X126713707Y-66713830D01*
X126713703Y-66713828D01*
X126601918Y-66656994D01*
X126512949Y-66611760D01*
X126507855Y-66610178D01*
X126507852Y-66610177D01*
X126297871Y-66544976D01*
X126292773Y-66543393D01*
X126287484Y-66542692D01*
X126069511Y-66513802D01*
X126069506Y-66513802D01*
X126064226Y-66513102D01*
X126058897Y-66513302D01*
X126058895Y-66513302D01*
X125862494Y-66520675D01*
X125793671Y-66503243D01*
X125768672Y-66483859D01*
X125124981Y-65840168D01*
X125112140Y-65825135D01*
X125107746Y-65819087D01*
X125107745Y-65819086D01*
X125103866Y-65813747D01*
X125053041Y-65767984D01*
X125048256Y-65763443D01*
X125033741Y-65748928D01*
X125017795Y-65736015D01*
X125017784Y-65736006D01*
X125012773Y-65731726D01*
X125008790Y-65728140D01*
X124971547Y-65667695D01*
X124972896Y-65596712D01*
X125012407Y-65537725D01*
X125077537Y-65509464D01*
X125093096Y-65508500D01*
X144158955Y-65508500D01*
X144227076Y-65528502D01*
X144273569Y-65582158D01*
X144283673Y-65652432D01*
X144254179Y-65717012D01*
X144216158Y-65746767D01*
X144146147Y-65782439D01*
X144146140Y-65782443D01*
X144143206Y-65783938D01*
X143817207Y-65995643D01*
X143515124Y-66240266D01*
X143240266Y-66515124D01*
X143238194Y-66517682D01*
X143238191Y-66517686D01*
X143231068Y-66526482D01*
X142995643Y-66817207D01*
X142993848Y-66819970D01*
X142993848Y-66819971D01*
X142789455Y-67134711D01*
X142783938Y-67143206D01*
X142782443Y-67146140D01*
X142782439Y-67146147D01*
X142712366Y-67283673D01*
X142607468Y-67489547D01*
X142468167Y-67852438D01*
X142367562Y-68227901D01*
X142306754Y-68611824D01*
X142286411Y-69000000D01*
X142306754Y-69388176D01*
X142307267Y-69391416D01*
X142307268Y-69391424D01*
X142321852Y-69483500D01*
X142367562Y-69772099D01*
X142468167Y-70147562D01*
X142607468Y-70510453D01*
X142608966Y-70513393D01*
X142775010Y-70839271D01*
X142783938Y-70856794D01*
X142785734Y-70859560D01*
X142785736Y-70859563D01*
X142935100Y-71089564D01*
X142995643Y-71182793D01*
X143240266Y-71484876D01*
X143515124Y-71759734D01*
X143517682Y-71761806D01*
X143517686Y-71761809D01*
X143666165Y-71882045D01*
X143817207Y-72004357D01*
X143819970Y-72006152D01*
X143819971Y-72006152D01*
X144033194Y-72144620D01*
X144143205Y-72216062D01*
X144146139Y-72217557D01*
X144146146Y-72217561D01*
X144486607Y-72391034D01*
X144489547Y-72392532D01*
X144852438Y-72531833D01*
X145227901Y-72632438D01*
X145431793Y-72664732D01*
X145608576Y-72692732D01*
X145608584Y-72692733D01*
X145611824Y-72693246D01*
X146000000Y-72713589D01*
X146388176Y-72693246D01*
X146391416Y-72692733D01*
X146391424Y-72692732D01*
X146568207Y-72664732D01*
X146772099Y-72632438D01*
X147147562Y-72531833D01*
X147510453Y-72392532D01*
X147513393Y-72391034D01*
X147853854Y-72217561D01*
X147853861Y-72217557D01*
X147856795Y-72216062D01*
X147966807Y-72144620D01*
X148180029Y-72006152D01*
X148180030Y-72006152D01*
X148182793Y-72004357D01*
X148333835Y-71882045D01*
X148482314Y-71761809D01*
X148482318Y-71761806D01*
X148484876Y-71759734D01*
X148759734Y-71484876D01*
X149004357Y-71182793D01*
X149064900Y-71089564D01*
X149214264Y-70859563D01*
X149214266Y-70859560D01*
X149216062Y-70856794D01*
X149224991Y-70839271D01*
X149253233Y-70783842D01*
X149301981Y-70732227D01*
X149370896Y-70715161D01*
X149438098Y-70738062D01*
X149482250Y-70793659D01*
X149491500Y-70841045D01*
X149491500Y-89158955D01*
X149471498Y-89227076D01*
X149417842Y-89273569D01*
X149347568Y-89283673D01*
X149282988Y-89254179D01*
X149253233Y-89216158D01*
X149217561Y-89146147D01*
X149217557Y-89146140D01*
X149216062Y-89143206D01*
X149004357Y-88817207D01*
X148759734Y-88515124D01*
X148484876Y-88240266D01*
X148182793Y-87995643D01*
X147856795Y-87783938D01*
X147853861Y-87782443D01*
X147853854Y-87782439D01*
X147513393Y-87608966D01*
X147510453Y-87607468D01*
X147147562Y-87468167D01*
X146772099Y-87367562D01*
X146568207Y-87335268D01*
X146391424Y-87307268D01*
X146391416Y-87307267D01*
X146388176Y-87306754D01*
X146000000Y-87286411D01*
X145611824Y-87306754D01*
X145608584Y-87307267D01*
X145608576Y-87307268D01*
X145431793Y-87335268D01*
X145227901Y-87367562D01*
X144852438Y-87468167D01*
X144489547Y-87607468D01*
X144486607Y-87608966D01*
X144146147Y-87782439D01*
X144146140Y-87782443D01*
X144143206Y-87783938D01*
X143817207Y-87995643D01*
X143515124Y-88240266D01*
X143240266Y-88515124D01*
X142995643Y-88817207D01*
X142783938Y-89143206D01*
X142782443Y-89146140D01*
X142782439Y-89146147D01*
X142712366Y-89283673D01*
X142607468Y-89489547D01*
X142468167Y-89852438D01*
X142367562Y-90227901D01*
X142306754Y-90611824D01*
X142286411Y-91000000D01*
X142306754Y-91388176D01*
X142367562Y-91772099D01*
X142468167Y-92147562D01*
X142607468Y-92510453D01*
X142608966Y-92513393D01*
X142720468Y-92732227D01*
X142783938Y-92856794D01*
X142995643Y-93182793D01*
X143240266Y-93484876D01*
X143515124Y-93759734D01*
X143817207Y-94004357D01*
X144143205Y-94216062D01*
X144146139Y-94217557D01*
X144146146Y-94217561D01*
X144216157Y-94253233D01*
X144267772Y-94301981D01*
X144284838Y-94370896D01*
X144261937Y-94438098D01*
X144206340Y-94482250D01*
X144158954Y-94491500D01*
X105841046Y-94491500D01*
X105772925Y-94471498D01*
X105726432Y-94417842D01*
X105716328Y-94347568D01*
X105745822Y-94282988D01*
X105783843Y-94253233D01*
X105853854Y-94217561D01*
X105853861Y-94217557D01*
X105856795Y-94216062D01*
X106182793Y-94004357D01*
X106484876Y-93759734D01*
X106759734Y-93484876D01*
X107004357Y-93182793D01*
X107216062Y-92856794D01*
X107279533Y-92732227D01*
X107391034Y-92513393D01*
X107392532Y-92510453D01*
X107531833Y-92147562D01*
X107632438Y-91772099D01*
X107693246Y-91388176D01*
X107713589Y-91000000D01*
X107693246Y-90611824D01*
X107632438Y-90227901D01*
X107531833Y-89852438D01*
X107392532Y-89489547D01*
X107287634Y-89283673D01*
X107217561Y-89146147D01*
X107217557Y-89146140D01*
X107216062Y-89143206D01*
X107004357Y-88817207D01*
X106759734Y-88515124D01*
X106484876Y-88240266D01*
X106182793Y-87995643D01*
X105856795Y-87783938D01*
X105853861Y-87782443D01*
X105853854Y-87782439D01*
X105513393Y-87608966D01*
X105510453Y-87607468D01*
X105147562Y-87468167D01*
X104772099Y-87367562D01*
X104568207Y-87335268D01*
X104391424Y-87307268D01*
X104391416Y-87307267D01*
X104388176Y-87306754D01*
X104000000Y-87286411D01*
X103611824Y-87306754D01*
X103608584Y-87307267D01*
X103608576Y-87307268D01*
X103431793Y-87335268D01*
X103227901Y-87367562D01*
X102852438Y-87468167D01*
X102489547Y-87607468D01*
X102486607Y-87608966D01*
X102146147Y-87782439D01*
X102146140Y-87782443D01*
X102143206Y-87783938D01*
X101817207Y-87995643D01*
X101515124Y-88240266D01*
X101240266Y-88515124D01*
X100995643Y-88817207D01*
X100783938Y-89143206D01*
X100782443Y-89146140D01*
X100782439Y-89146147D01*
X100746767Y-89216158D01*
X100698019Y-89267773D01*
X100629104Y-89284839D01*
X100561902Y-89261938D01*
X100517750Y-89206341D01*
X100508500Y-89158955D01*
X100508500Y-83768580D01*
X102143752Y-83768580D01*
X102168477Y-83886421D01*
X102171537Y-83896617D01*
X102252263Y-84101029D01*
X102256994Y-84110561D01*
X102371016Y-84298462D01*
X102377280Y-84307052D01*
X102521327Y-84473052D01*
X102528958Y-84480472D01*
X102698911Y-84619826D01*
X102707678Y-84625850D01*
X102898682Y-84734576D01*
X102908346Y-84739041D01*
X103114941Y-84814031D01*
X103125208Y-84816802D01*
X103328174Y-84853504D01*
X103341414Y-84852085D01*
X103346000Y-84837450D01*
X103346000Y-84833849D01*
X103854000Y-84833849D01*
X103858310Y-84848527D01*
X103870193Y-84850590D01*
X103949325Y-84843876D01*
X103959797Y-84842086D01*
X104172535Y-84786870D01*
X104182575Y-84783335D01*
X104382970Y-84693063D01*
X104392256Y-84687894D01*
X104574575Y-84565150D01*
X104582870Y-84558481D01*
X104741900Y-84406772D01*
X104748941Y-84398814D01*
X104880141Y-84222475D01*
X104885745Y-84213438D01*
X104985357Y-84017516D01*
X104989357Y-84007665D01*
X105005592Y-83955378D01*
X123131118Y-83955378D01*
X123131808Y-83961943D01*
X123136614Y-84007665D01*
X123151080Y-84145306D01*
X123210095Y-84326934D01*
X123305582Y-84492322D01*
X123310000Y-84497229D01*
X123310001Y-84497230D01*
X123410189Y-84608500D01*
X123433369Y-84634244D01*
X123514326Y-84693063D01*
X123571464Y-84734576D01*
X123587870Y-84746496D01*
X123593898Y-84749180D01*
X123593900Y-84749181D01*
X123756303Y-84821487D01*
X123762334Y-84824172D01*
X123855034Y-84843876D01*
X123942678Y-84862506D01*
X123942683Y-84862506D01*
X123949135Y-84863878D01*
X124140109Y-84863878D01*
X124146561Y-84862506D01*
X124146566Y-84862506D01*
X124234210Y-84843876D01*
X124326910Y-84824172D01*
X124332941Y-84821487D01*
X124495344Y-84749181D01*
X124495346Y-84749180D01*
X124501374Y-84746496D01*
X124517781Y-84734576D01*
X124655875Y-84634244D01*
X124657273Y-84636169D01*
X124711505Y-84610146D01*
X124731802Y-84608500D01*
X135735069Y-84608500D01*
X135803190Y-84628502D01*
X135845457Y-84679082D01*
X135847619Y-84677980D01*
X135849865Y-84682389D01*
X135851760Y-84686963D01*
X135854346Y-84691183D01*
X135973241Y-84885202D01*
X135973245Y-84885208D01*
X135975824Y-84889416D01*
X136130031Y-85069969D01*
X136310584Y-85224176D01*
X136314792Y-85226755D01*
X136314798Y-85226759D01*
X136508817Y-85345654D01*
X136513037Y-85348240D01*
X136517607Y-85350133D01*
X136517611Y-85350135D01*
X136727833Y-85437211D01*
X136732406Y-85439105D01*
X136812609Y-85458360D01*
X136958476Y-85493380D01*
X136958482Y-85493381D01*
X136963289Y-85494535D01*
X137200000Y-85513165D01*
X137436711Y-85494535D01*
X137441518Y-85493381D01*
X137441524Y-85493380D01*
X137587391Y-85458360D01*
X137667594Y-85439105D01*
X137672167Y-85437211D01*
X137882389Y-85350135D01*
X137882393Y-85350133D01*
X137886963Y-85348240D01*
X137891183Y-85345654D01*
X138085202Y-85226759D01*
X138085208Y-85226755D01*
X138089416Y-85224176D01*
X138269969Y-85069969D01*
X138424176Y-84889416D01*
X138426755Y-84885208D01*
X138426759Y-84885202D01*
X138545654Y-84691183D01*
X138548240Y-84686963D01*
X138551505Y-84679082D01*
X138637211Y-84472167D01*
X138637212Y-84472165D01*
X138639105Y-84467594D01*
X138658360Y-84387391D01*
X138693380Y-84241524D01*
X138693381Y-84241518D01*
X138694535Y-84236711D01*
X138713165Y-84000000D01*
X138694535Y-83763289D01*
X138693380Y-83758475D01*
X138640260Y-83537218D01*
X138639105Y-83532406D01*
X138589864Y-83413526D01*
X138550135Y-83317611D01*
X138550133Y-83317607D01*
X138548240Y-83313037D01*
X138523478Y-83272629D01*
X138426759Y-83114798D01*
X138426755Y-83114792D01*
X138424176Y-83110584D01*
X138269969Y-82930031D01*
X138089416Y-82775824D01*
X138085208Y-82773245D01*
X138085202Y-82773241D01*
X137891183Y-82654346D01*
X137886963Y-82651760D01*
X137882393Y-82649867D01*
X137882389Y-82649865D01*
X137672167Y-82562789D01*
X137672165Y-82562788D01*
X137667594Y-82560895D01*
X137587391Y-82541640D01*
X137441524Y-82506620D01*
X137441518Y-82506619D01*
X137436711Y-82505465D01*
X137200000Y-82486835D01*
X136963289Y-82505465D01*
X136958482Y-82506619D01*
X136958476Y-82506620D01*
X136812609Y-82541640D01*
X136732406Y-82560895D01*
X136727835Y-82562788D01*
X136727833Y-82562789D01*
X136517611Y-82649865D01*
X136517607Y-82649867D01*
X136513037Y-82651760D01*
X136508817Y-82654346D01*
X136314798Y-82773241D01*
X136314792Y-82773245D01*
X136310584Y-82775824D01*
X136130031Y-82930031D01*
X135975824Y-83110584D01*
X135973245Y-83114792D01*
X135973241Y-83114798D01*
X135876522Y-83272629D01*
X135851760Y-83313037D01*
X135849865Y-83317611D01*
X135847619Y-83322020D01*
X135845610Y-83320996D01*
X135806940Y-83368992D01*
X135735069Y-83391500D01*
X124815510Y-83391500D01*
X124747389Y-83371498D01*
X124721874Y-83349811D01*
X124660290Y-83281415D01*
X124660288Y-83281414D01*
X124655875Y-83276512D01*
X124608411Y-83242027D01*
X124506716Y-83168141D01*
X124506715Y-83168140D01*
X124501374Y-83164260D01*
X124495346Y-83161576D01*
X124495344Y-83161575D01*
X124332941Y-83089269D01*
X124332940Y-83089269D01*
X124326910Y-83086584D01*
X124233509Y-83066731D01*
X124146566Y-83048250D01*
X124146561Y-83048250D01*
X124140109Y-83046878D01*
X123949135Y-83046878D01*
X123942683Y-83048250D01*
X123942678Y-83048250D01*
X123855735Y-83066731D01*
X123762334Y-83086584D01*
X123756304Y-83089269D01*
X123756303Y-83089269D01*
X123593900Y-83161575D01*
X123593898Y-83161576D01*
X123587870Y-83164260D01*
X123433369Y-83276512D01*
X123305582Y-83418434D01*
X123210095Y-83583822D01*
X123151080Y-83765450D01*
X123150390Y-83772011D01*
X123150390Y-83772013D01*
X123147684Y-83797760D01*
X123131118Y-83955378D01*
X105005592Y-83955378D01*
X105054534Y-83797760D01*
X105056817Y-83787376D01*
X105058861Y-83771957D01*
X105056665Y-83757793D01*
X105043478Y-83754000D01*
X103872115Y-83754000D01*
X103856876Y-83758475D01*
X103855671Y-83759865D01*
X103854000Y-83767548D01*
X103854000Y-84833849D01*
X103346000Y-84833849D01*
X103346000Y-83772115D01*
X103341525Y-83756876D01*
X103340135Y-83755671D01*
X103332452Y-83754000D01*
X102158808Y-83754000D01*
X102145277Y-83757973D01*
X102143752Y-83768580D01*
X100508500Y-83768580D01*
X100508500Y-80935774D01*
X102113102Y-80935774D01*
X102121751Y-81166158D01*
X102169093Y-81391791D01*
X102171051Y-81396750D01*
X102171052Y-81396752D01*
X102248727Y-81593435D01*
X102253776Y-81606221D01*
X102256543Y-81610780D01*
X102256544Y-81610783D01*
X102290180Y-81666213D01*
X102373377Y-81803317D01*
X102376874Y-81807347D01*
X102519367Y-81971556D01*
X102524477Y-81977445D01*
X102528608Y-81980832D01*
X102698627Y-82120240D01*
X102698633Y-82120244D01*
X102702755Y-82123624D01*
X102707398Y-82126267D01*
X102734735Y-82141829D01*
X102784041Y-82192912D01*
X102797902Y-82262542D01*
X102771918Y-82328613D01*
X102742768Y-82355851D01*
X102625422Y-82434852D01*
X102617130Y-82441519D01*
X102458100Y-82593228D01*
X102451059Y-82601186D01*
X102319859Y-82777525D01*
X102314255Y-82786562D01*
X102214643Y-82982484D01*
X102210643Y-82992335D01*
X102145466Y-83202240D01*
X102143183Y-83212624D01*
X102141139Y-83228043D01*
X102143335Y-83242207D01*
X102156522Y-83246000D01*
X105041192Y-83246000D01*
X105054723Y-83242027D01*
X105056248Y-83231420D01*
X105031523Y-83113579D01*
X105028463Y-83103383D01*
X104947737Y-82898971D01*
X104943006Y-82889439D01*
X104828984Y-82701538D01*
X104822720Y-82692948D01*
X104678673Y-82526948D01*
X104671042Y-82519528D01*
X104501089Y-82380174D01*
X104492326Y-82374152D01*
X104465289Y-82358762D01*
X104415982Y-82307680D01*
X104402120Y-82238049D01*
X104428103Y-82171978D01*
X104457253Y-82144739D01*
X104533539Y-82093380D01*
X104579319Y-82062559D01*
X104602695Y-82040260D01*
X104699156Y-81948240D01*
X104746135Y-81903424D01*
X104883754Y-81718458D01*
X104988240Y-81512949D01*
X104995548Y-81489416D01*
X105055024Y-81297871D01*
X105056607Y-81292773D01*
X105057983Y-81282389D01*
X105086198Y-81069511D01*
X105086198Y-81069506D01*
X105086898Y-81064226D01*
X105078249Y-80833842D01*
X105030907Y-80608209D01*
X104946224Y-80393779D01*
X104826623Y-80196683D01*
X104775022Y-80137218D01*
X104679023Y-80026588D01*
X104679021Y-80026586D01*
X104675523Y-80022555D01*
X104633970Y-79988484D01*
X104501373Y-79879760D01*
X104501367Y-79879756D01*
X104497245Y-79876376D01*
X104465750Y-79858448D01*
X104416445Y-79807368D01*
X104402583Y-79737738D01*
X104428566Y-79671667D01*
X104457716Y-79644427D01*
X104493642Y-79620240D01*
X104579319Y-79562559D01*
X104746135Y-79403424D01*
X104883754Y-79218458D01*
X104901910Y-79182749D01*
X104940818Y-79106221D01*
X104988240Y-79012949D01*
X105024321Y-78896752D01*
X105055024Y-78797871D01*
X105056607Y-78792773D01*
X105071108Y-78683365D01*
X105086198Y-78569511D01*
X105086198Y-78569506D01*
X105086898Y-78564226D01*
X105078249Y-78333842D01*
X105030907Y-78108209D01*
X104946224Y-77893779D01*
X104826623Y-77696683D01*
X104739755Y-77596576D01*
X104679023Y-77526588D01*
X104679021Y-77526586D01*
X104675523Y-77522555D01*
X104639880Y-77493330D01*
X104599886Y-77434671D01*
X104597954Y-77363701D01*
X104634698Y-77302952D01*
X104653468Y-77288752D01*
X104793120Y-77202332D01*
X104799348Y-77198478D01*
X104924305Y-77073303D01*
X105017115Y-76922738D01*
X105072797Y-76754861D01*
X105083500Y-76650400D01*
X105083500Y-75349600D01*
X105081056Y-75326045D01*
X105073238Y-75250692D01*
X105073237Y-75250688D01*
X105072526Y-75243834D01*
X105034493Y-75129834D01*
X105018868Y-75083002D01*
X105016550Y-75076054D01*
X104923478Y-74925652D01*
X104798303Y-74800695D01*
X104770189Y-74783365D01*
X104653968Y-74711725D01*
X104653966Y-74711724D01*
X104647738Y-74707885D01*
X104487254Y-74654655D01*
X104486389Y-74654368D01*
X104486387Y-74654368D01*
X104479861Y-74652203D01*
X104473025Y-74651503D01*
X104473022Y-74651502D01*
X104429969Y-74647091D01*
X104375400Y-74641500D01*
X102824600Y-74641500D01*
X102821354Y-74641837D01*
X102821350Y-74641837D01*
X102725692Y-74651762D01*
X102725688Y-74651763D01*
X102718834Y-74652474D01*
X102712298Y-74654655D01*
X102712296Y-74654655D01*
X102580194Y-74698728D01*
X102551054Y-74708450D01*
X102400652Y-74801522D01*
X102275695Y-74926697D01*
X102271855Y-74932927D01*
X102271854Y-74932928D01*
X102244516Y-74977279D01*
X102182885Y-75077262D01*
X102161462Y-75141852D01*
X102137942Y-75212763D01*
X102127203Y-75245139D01*
X102126503Y-75251975D01*
X102126502Y-75251978D01*
X102122091Y-75295031D01*
X102116500Y-75349600D01*
X102116500Y-76650400D01*
X102116837Y-76653646D01*
X102116837Y-76653650D01*
X102120798Y-76691819D01*
X102127474Y-76756166D01*
X102183450Y-76923946D01*
X102276522Y-77074348D01*
X102401697Y-77199305D01*
X102547340Y-77289081D01*
X102594832Y-77341852D01*
X102606256Y-77411924D01*
X102577982Y-77477048D01*
X102568195Y-77487510D01*
X102453865Y-77596576D01*
X102316246Y-77781542D01*
X102211760Y-77987051D01*
X102210178Y-77992145D01*
X102210177Y-77992148D01*
X102148115Y-78192020D01*
X102143393Y-78207227D01*
X102142692Y-78212516D01*
X102127304Y-78328623D01*
X102113102Y-78435774D01*
X102121751Y-78666158D01*
X102169093Y-78891791D01*
X102253776Y-79106221D01*
X102373377Y-79303317D01*
X102376874Y-79307347D01*
X102463438Y-79407103D01*
X102524477Y-79477445D01*
X102566030Y-79511516D01*
X102698627Y-79620240D01*
X102698633Y-79620244D01*
X102702755Y-79623624D01*
X102734250Y-79641552D01*
X102783555Y-79692632D01*
X102797417Y-79762262D01*
X102771434Y-79828333D01*
X102742284Y-79855573D01*
X102620681Y-79937441D01*
X102453865Y-80096576D01*
X102316246Y-80281542D01*
X102211760Y-80487051D01*
X102210178Y-80492145D01*
X102210177Y-80492148D01*
X102148115Y-80692020D01*
X102143393Y-80707227D01*
X102142692Y-80712516D01*
X102125594Y-80841524D01*
X102113102Y-80935774D01*
X100508500Y-80935774D01*
X100508500Y-70841045D01*
X100528502Y-70772924D01*
X100582158Y-70726431D01*
X100652432Y-70716327D01*
X100717012Y-70745821D01*
X100746767Y-70783842D01*
X100775010Y-70839271D01*
X100783938Y-70856794D01*
X100785734Y-70859560D01*
X100785736Y-70859563D01*
X100935100Y-71089564D01*
X100995643Y-71182793D01*
X101240266Y-71484876D01*
X101515124Y-71759734D01*
X101517682Y-71761806D01*
X101517686Y-71761809D01*
X101666165Y-71882045D01*
X101817207Y-72004357D01*
X101819970Y-72006152D01*
X101819971Y-72006152D01*
X102033194Y-72144620D01*
X102143205Y-72216062D01*
X102146139Y-72217557D01*
X102146146Y-72217561D01*
X102486607Y-72391034D01*
X102489547Y-72392532D01*
X102852438Y-72531833D01*
X103227901Y-72632438D01*
X103431793Y-72664732D01*
X103608576Y-72692732D01*
X103608584Y-72692733D01*
X103611824Y-72693246D01*
X104000000Y-72713589D01*
X104388176Y-72693246D01*
X104391416Y-72692733D01*
X104391424Y-72692732D01*
X104568207Y-72664732D01*
X104772099Y-72632438D01*
X105147562Y-72531833D01*
X105510453Y-72392532D01*
X105513393Y-72391034D01*
X105853854Y-72217561D01*
X105853861Y-72217557D01*
X105856795Y-72216062D01*
X105966807Y-72144620D01*
X106180029Y-72006152D01*
X106180030Y-72006152D01*
X106182793Y-72004357D01*
X106333835Y-71882045D01*
X106482314Y-71761809D01*
X106482318Y-71761806D01*
X106484876Y-71759734D01*
X106759734Y-71484876D01*
X107004357Y-71182793D01*
X107064900Y-71089564D01*
X107214264Y-70859563D01*
X107214266Y-70859560D01*
X107216062Y-70856794D01*
X107224991Y-70839271D01*
X107391034Y-70513393D01*
X107392532Y-70510453D01*
X107531833Y-70147562D01*
X107632438Y-69772099D01*
X107678148Y-69483500D01*
X107692732Y-69391424D01*
X107692733Y-69391416D01*
X107693246Y-69388176D01*
X107713589Y-69000000D01*
X107693246Y-68611824D01*
X107632438Y-68227901D01*
X107531833Y-67852438D01*
X107392532Y-67489547D01*
X107287634Y-67283673D01*
X107217561Y-67146147D01*
X107217557Y-67146140D01*
X107216062Y-67143206D01*
X107210546Y-67134711D01*
X107006152Y-66819971D01*
X107006152Y-66819970D01*
X107004357Y-66817207D01*
X106768932Y-66526482D01*
X106761809Y-66517686D01*
X106761806Y-66517682D01*
X106759734Y-66515124D01*
X106484876Y-66240266D01*
X106182793Y-65995643D01*
X105856795Y-65783938D01*
X105853861Y-65782443D01*
X105853854Y-65782439D01*
X105783843Y-65746767D01*
X105732228Y-65698019D01*
X105715162Y-65629104D01*
X105738063Y-65561902D01*
X105793660Y-65517750D01*
X105841046Y-65508500D01*
X119379822Y-65508500D01*
X119447943Y-65528502D01*
G37*
%TD.AperFunction*%
%TD*%
M02*
