%TF.GenerationSoftware,KiCad,Pcbnew,(6.0.6)*%
%TF.CreationDate,2022-09-16T10:14:36+09:00*%
%TF.ProjectId,LSM6DS3-breakout,4c534d36-4453-4332-9d62-7265616b6f75,rev?*%
%TF.SameCoordinates,Original*%
%TF.FileFunction,Other,Comment*%
%FSLAX46Y46*%
G04 Gerber Fmt 4.6, Leading zero omitted, Abs format (unit mm)*
G04 Created by KiCad (PCBNEW (6.0.6)) date 2022-09-16 10:14:36*
%MOMM*%
%LPD*%
G01*
G04 APERTURE LIST*
%ADD10C,0.150000*%
G04 APERTURE END LIST*
D10*
X158452380Y-84666666D02*
X158452380Y-84047619D01*
X158833333Y-84380952D01*
X158833333Y-84238095D01*
X158880952Y-84142857D01*
X158928571Y-84095238D01*
X159023809Y-84047619D01*
X159261904Y-84047619D01*
X159357142Y-84095238D01*
X159404761Y-84142857D01*
X159452380Y-84238095D01*
X159452380Y-84523809D01*
X159404761Y-84619047D01*
X159357142Y-84666666D01*
X158452380Y-83428571D02*
X158452380Y-83333333D01*
X158500000Y-83238095D01*
X158547619Y-83190476D01*
X158642857Y-83142857D01*
X158833333Y-83095238D01*
X159071428Y-83095238D01*
X159261904Y-83142857D01*
X159357142Y-83190476D01*
X159404761Y-83238095D01*
X159452380Y-83333333D01*
X159452380Y-83428571D01*
X159404761Y-83523809D01*
X159357142Y-83571428D01*
X159261904Y-83619047D01*
X159071428Y-83666666D01*
X158833333Y-83666666D01*
X158642857Y-83619047D01*
X158547619Y-83571428D01*
X158500000Y-83523809D01*
X158452380Y-83428571D01*
X159357142Y-82666666D02*
X159404761Y-82619047D01*
X159452380Y-82666666D01*
X159404761Y-82714285D01*
X159357142Y-82666666D01*
X159452380Y-82666666D01*
X158452380Y-82000000D02*
X158452380Y-81904761D01*
X158500000Y-81809523D01*
X158547619Y-81761904D01*
X158642857Y-81714285D01*
X158833333Y-81666666D01*
X159071428Y-81666666D01*
X159261904Y-81714285D01*
X159357142Y-81761904D01*
X159404761Y-81809523D01*
X159452380Y-81904761D01*
X159452380Y-82000000D01*
X159404761Y-82095238D01*
X159357142Y-82142857D01*
X159261904Y-82190476D01*
X159071428Y-82238095D01*
X158833333Y-82238095D01*
X158642857Y-82190476D01*
X158547619Y-82142857D01*
X158500000Y-82095238D01*
X158452380Y-82000000D01*
X158452380Y-81047619D02*
X158452380Y-80952380D01*
X158500000Y-80857142D01*
X158547619Y-80809523D01*
X158642857Y-80761904D01*
X158833333Y-80714285D01*
X159071428Y-80714285D01*
X159261904Y-80761904D01*
X159357142Y-80809523D01*
X159404761Y-80857142D01*
X159452380Y-80952380D01*
X159452380Y-81047619D01*
X159404761Y-81142857D01*
X159357142Y-81190476D01*
X159261904Y-81238095D01*
X159071428Y-81285714D01*
X158833333Y-81285714D01*
X158642857Y-81238095D01*
X158547619Y-81190476D01*
X158500000Y-81142857D01*
X158452380Y-81047619D01*
X158452380Y-80095238D02*
X158452380Y-80000000D01*
X158500000Y-79904761D01*
X158547619Y-79857142D01*
X158642857Y-79809523D01*
X158833333Y-79761904D01*
X159071428Y-79761904D01*
X159261904Y-79809523D01*
X159357142Y-79857142D01*
X159404761Y-79904761D01*
X159452380Y-80000000D01*
X159452380Y-80095238D01*
X159404761Y-80190476D01*
X159357142Y-80238095D01*
X159261904Y-80285714D01*
X159071428Y-80333333D01*
X158833333Y-80333333D01*
X158642857Y-80285714D01*
X158547619Y-80238095D01*
X158500000Y-80190476D01*
X158452380Y-80095238D01*
X158452380Y-79142857D02*
X158452380Y-79047619D01*
X158500000Y-78952380D01*
X158547619Y-78904761D01*
X158642857Y-78857142D01*
X158833333Y-78809523D01*
X159071428Y-78809523D01*
X159261904Y-78857142D01*
X159357142Y-78904761D01*
X159404761Y-78952380D01*
X159452380Y-79047619D01*
X159452380Y-79142857D01*
X159404761Y-79238095D01*
X159357142Y-79285714D01*
X159261904Y-79333333D01*
X159071428Y-79380952D01*
X158833333Y-79380952D01*
X158642857Y-79333333D01*
X158547619Y-79285714D01*
X158500000Y-79238095D01*
X158452380Y-79142857D01*
X159452380Y-77619047D02*
X158785714Y-77619047D01*
X158880952Y-77619047D02*
X158833333Y-77571428D01*
X158785714Y-77476190D01*
X158785714Y-77333333D01*
X158833333Y-77238095D01*
X158928571Y-77190476D01*
X159452380Y-77190476D01*
X158928571Y-77190476D02*
X158833333Y-77142857D01*
X158785714Y-77047619D01*
X158785714Y-76904761D01*
X158833333Y-76809523D01*
X158928571Y-76761904D01*
X159452380Y-76761904D01*
X159452380Y-76285714D02*
X158785714Y-76285714D01*
X158880952Y-76285714D02*
X158833333Y-76238095D01*
X158785714Y-76142857D01*
X158785714Y-76000000D01*
X158833333Y-75904761D01*
X158928571Y-75857142D01*
X159452380Y-75857142D01*
X158928571Y-75857142D02*
X158833333Y-75809523D01*
X158785714Y-75714285D01*
X158785714Y-75571428D01*
X158833333Y-75476190D01*
X158928571Y-75428571D01*
X159452380Y-75428571D01*
X139500000Y-65000000D02*
X160586420Y-65000000D01*
X139500000Y-95000000D02*
X160586420Y-95000000D01*
X160000000Y-65000000D02*
X160000000Y-95000000D01*
X160000000Y-65000000D02*
X160000000Y-95000000D01*
X160000000Y-65000000D02*
X159413579Y-66126504D01*
X160000000Y-65000000D02*
X160586421Y-66126504D01*
X160000000Y-95000000D02*
X160586421Y-93873496D01*
X160000000Y-95000000D02*
X159413579Y-93873496D01*
X120904761Y-98302380D02*
X120428571Y-98302380D01*
X120380952Y-98778571D01*
X120428571Y-98730952D01*
X120523809Y-98683333D01*
X120761904Y-98683333D01*
X120857142Y-98730952D01*
X120904761Y-98778571D01*
X120952380Y-98873809D01*
X120952380Y-99111904D01*
X120904761Y-99207142D01*
X120857142Y-99254761D01*
X120761904Y-99302380D01*
X120523809Y-99302380D01*
X120428571Y-99254761D01*
X120380952Y-99207142D01*
X121571428Y-98302380D02*
X121666666Y-98302380D01*
X121761904Y-98350000D01*
X121809523Y-98397619D01*
X121857142Y-98492857D01*
X121904761Y-98683333D01*
X121904761Y-98921428D01*
X121857142Y-99111904D01*
X121809523Y-99207142D01*
X121761904Y-99254761D01*
X121666666Y-99302380D01*
X121571428Y-99302380D01*
X121476190Y-99254761D01*
X121428571Y-99207142D01*
X121380952Y-99111904D01*
X121333333Y-98921428D01*
X121333333Y-98683333D01*
X121380952Y-98492857D01*
X121428571Y-98397619D01*
X121476190Y-98350000D01*
X121571428Y-98302380D01*
X122333333Y-99207142D02*
X122380952Y-99254761D01*
X122333333Y-99302380D01*
X122285714Y-99254761D01*
X122333333Y-99207142D01*
X122333333Y-99302380D01*
X123000000Y-98302380D02*
X123095238Y-98302380D01*
X123190476Y-98350000D01*
X123238095Y-98397619D01*
X123285714Y-98492857D01*
X123333333Y-98683333D01*
X123333333Y-98921428D01*
X123285714Y-99111904D01*
X123238095Y-99207142D01*
X123190476Y-99254761D01*
X123095238Y-99302380D01*
X123000000Y-99302380D01*
X122904761Y-99254761D01*
X122857142Y-99207142D01*
X122809523Y-99111904D01*
X122761904Y-98921428D01*
X122761904Y-98683333D01*
X122809523Y-98492857D01*
X122857142Y-98397619D01*
X122904761Y-98350000D01*
X123000000Y-98302380D01*
X123952380Y-98302380D02*
X124047619Y-98302380D01*
X124142857Y-98350000D01*
X124190476Y-98397619D01*
X124238095Y-98492857D01*
X124285714Y-98683333D01*
X124285714Y-98921428D01*
X124238095Y-99111904D01*
X124190476Y-99207142D01*
X124142857Y-99254761D01*
X124047619Y-99302380D01*
X123952380Y-99302380D01*
X123857142Y-99254761D01*
X123809523Y-99207142D01*
X123761904Y-99111904D01*
X123714285Y-98921428D01*
X123714285Y-98683333D01*
X123761904Y-98492857D01*
X123809523Y-98397619D01*
X123857142Y-98350000D01*
X123952380Y-98302380D01*
X124904761Y-98302380D02*
X125000000Y-98302380D01*
X125095238Y-98350000D01*
X125142857Y-98397619D01*
X125190476Y-98492857D01*
X125238095Y-98683333D01*
X125238095Y-98921428D01*
X125190476Y-99111904D01*
X125142857Y-99207142D01*
X125095238Y-99254761D01*
X125000000Y-99302380D01*
X124904761Y-99302380D01*
X124809523Y-99254761D01*
X124761904Y-99207142D01*
X124714285Y-99111904D01*
X124666666Y-98921428D01*
X124666666Y-98683333D01*
X124714285Y-98492857D01*
X124761904Y-98397619D01*
X124809523Y-98350000D01*
X124904761Y-98302380D01*
X125857142Y-98302380D02*
X125952380Y-98302380D01*
X126047619Y-98350000D01*
X126095238Y-98397619D01*
X126142857Y-98492857D01*
X126190476Y-98683333D01*
X126190476Y-98921428D01*
X126142857Y-99111904D01*
X126095238Y-99207142D01*
X126047619Y-99254761D01*
X125952380Y-99302380D01*
X125857142Y-99302380D01*
X125761904Y-99254761D01*
X125714285Y-99207142D01*
X125666666Y-99111904D01*
X125619047Y-98921428D01*
X125619047Y-98683333D01*
X125666666Y-98492857D01*
X125714285Y-98397619D01*
X125761904Y-98350000D01*
X125857142Y-98302380D01*
X127380952Y-99302380D02*
X127380952Y-98635714D01*
X127380952Y-98730952D02*
X127428571Y-98683333D01*
X127523809Y-98635714D01*
X127666666Y-98635714D01*
X127761904Y-98683333D01*
X127809523Y-98778571D01*
X127809523Y-99302380D01*
X127809523Y-98778571D02*
X127857142Y-98683333D01*
X127952380Y-98635714D01*
X128095238Y-98635714D01*
X128190476Y-98683333D01*
X128238095Y-98778571D01*
X128238095Y-99302380D01*
X128714285Y-99302380D02*
X128714285Y-98635714D01*
X128714285Y-98730952D02*
X128761904Y-98683333D01*
X128857142Y-98635714D01*
X129000000Y-98635714D01*
X129095238Y-98683333D01*
X129142857Y-98778571D01*
X129142857Y-99302380D01*
X129142857Y-98778571D02*
X129190476Y-98683333D01*
X129285714Y-98635714D01*
X129428571Y-98635714D01*
X129523809Y-98683333D01*
X129571428Y-98778571D01*
X129571428Y-99302380D01*
X100000000Y-95500000D02*
X100000000Y-100586420D01*
X150000000Y-95500000D02*
X150000000Y-100586420D01*
X100000000Y-100000000D02*
X150000000Y-100000000D01*
X100000000Y-100000000D02*
X150000000Y-100000000D01*
X100000000Y-100000000D02*
X101126504Y-100586421D01*
X100000000Y-100000000D02*
X101126504Y-99413579D01*
X150000000Y-100000000D02*
X148873496Y-99413579D01*
X150000000Y-100000000D02*
X148873496Y-100586421D01*
X154333333Y-92785714D02*
X154333333Y-93452380D01*
X154095238Y-92404761D02*
X153857142Y-93119047D01*
X154476190Y-93119047D01*
X154857142Y-93357142D02*
X154904761Y-93404761D01*
X154857142Y-93452380D01*
X154809523Y-93404761D01*
X154857142Y-93357142D01*
X154857142Y-93452380D01*
X155523809Y-92452380D02*
X155619047Y-92452380D01*
X155714285Y-92500000D01*
X155761904Y-92547619D01*
X155809523Y-92642857D01*
X155857142Y-92833333D01*
X155857142Y-93071428D01*
X155809523Y-93261904D01*
X155761904Y-93357142D01*
X155714285Y-93404761D01*
X155619047Y-93452380D01*
X155523809Y-93452380D01*
X155428571Y-93404761D01*
X155380952Y-93357142D01*
X155333333Y-93261904D01*
X155285714Y-93071428D01*
X155285714Y-92833333D01*
X155333333Y-92642857D01*
X155380952Y-92547619D01*
X155428571Y-92500000D01*
X155523809Y-92452380D01*
X156476190Y-92452380D02*
X156571428Y-92452380D01*
X156666666Y-92500000D01*
X156714285Y-92547619D01*
X156761904Y-92642857D01*
X156809523Y-92833333D01*
X156809523Y-93071428D01*
X156761904Y-93261904D01*
X156714285Y-93357142D01*
X156666666Y-93404761D01*
X156571428Y-93452380D01*
X156476190Y-93452380D01*
X156380952Y-93404761D01*
X156333333Y-93357142D01*
X156285714Y-93261904D01*
X156238095Y-93071428D01*
X156238095Y-92833333D01*
X156285714Y-92642857D01*
X156333333Y-92547619D01*
X156380952Y-92500000D01*
X156476190Y-92452380D01*
X157428571Y-92452380D02*
X157523809Y-92452380D01*
X157619047Y-92500000D01*
X157666666Y-92547619D01*
X157714285Y-92642857D01*
X157761904Y-92833333D01*
X157761904Y-93071428D01*
X157714285Y-93261904D01*
X157666666Y-93357142D01*
X157619047Y-93404761D01*
X157523809Y-93452380D01*
X157428571Y-93452380D01*
X157333333Y-93404761D01*
X157285714Y-93357142D01*
X157238095Y-93261904D01*
X157190476Y-93071428D01*
X157190476Y-92833333D01*
X157238095Y-92642857D01*
X157285714Y-92547619D01*
X157333333Y-92500000D01*
X157428571Y-92452380D01*
X158380952Y-92452380D02*
X158476190Y-92452380D01*
X158571428Y-92500000D01*
X158619047Y-92547619D01*
X158666666Y-92642857D01*
X158714285Y-92833333D01*
X158714285Y-93071428D01*
X158666666Y-93261904D01*
X158619047Y-93357142D01*
X158571428Y-93404761D01*
X158476190Y-93452380D01*
X158380952Y-93452380D01*
X158285714Y-93404761D01*
X158238095Y-93357142D01*
X158190476Y-93261904D01*
X158142857Y-93071428D01*
X158142857Y-92833333D01*
X158190476Y-92642857D01*
X158238095Y-92547619D01*
X158285714Y-92500000D01*
X158380952Y-92452380D01*
X159904761Y-93452380D02*
X159904761Y-92785714D01*
X159904761Y-92880952D02*
X159952380Y-92833333D01*
X160047619Y-92785714D01*
X160190476Y-92785714D01*
X160285714Y-92833333D01*
X160333333Y-92928571D01*
X160333333Y-93452380D01*
X160333333Y-92928571D02*
X160380952Y-92833333D01*
X160476190Y-92785714D01*
X160619047Y-92785714D01*
X160714285Y-92833333D01*
X160761904Y-92928571D01*
X160761904Y-93452380D01*
X161238095Y-93452380D02*
X161238095Y-92785714D01*
X161238095Y-92880952D02*
X161285714Y-92833333D01*
X161380952Y-92785714D01*
X161523809Y-92785714D01*
X161619047Y-92833333D01*
X161666666Y-92928571D01*
X161666666Y-93452380D01*
X161666666Y-92928571D02*
X161714285Y-92833333D01*
X161809523Y-92785714D01*
X161952380Y-92785714D01*
X162047619Y-92833333D01*
X162095238Y-92928571D01*
X162095238Y-93452380D01*
X146500000Y-91000000D02*
X156586420Y-91000000D01*
X146500000Y-95000000D02*
X156586420Y-95000000D01*
X156000000Y-91000000D02*
X156000000Y-92082500D01*
X156000000Y-93917500D02*
X156000000Y-95000000D01*
X156000000Y-91000000D02*
X155413579Y-92126504D01*
X156000000Y-91000000D02*
X156586421Y-92126504D01*
X156000000Y-95000000D02*
X156586421Y-93873496D01*
X156000000Y-95000000D02*
X155413579Y-93873496D01*
X144333333Y-98785714D02*
X144333333Y-99452380D01*
X144095238Y-98404761D02*
X143857142Y-99119047D01*
X144476190Y-99119047D01*
X144857142Y-99357142D02*
X144904761Y-99404761D01*
X144857142Y-99452380D01*
X144809523Y-99404761D01*
X144857142Y-99357142D01*
X144857142Y-99452380D01*
X145523809Y-98452380D02*
X145619047Y-98452380D01*
X145714285Y-98500000D01*
X145761904Y-98547619D01*
X145809523Y-98642857D01*
X145857142Y-98833333D01*
X145857142Y-99071428D01*
X145809523Y-99261904D01*
X145761904Y-99357142D01*
X145714285Y-99404761D01*
X145619047Y-99452380D01*
X145523809Y-99452380D01*
X145428571Y-99404761D01*
X145380952Y-99357142D01*
X145333333Y-99261904D01*
X145285714Y-99071428D01*
X145285714Y-98833333D01*
X145333333Y-98642857D01*
X145380952Y-98547619D01*
X145428571Y-98500000D01*
X145523809Y-98452380D01*
X146476190Y-98452380D02*
X146571428Y-98452380D01*
X146666666Y-98500000D01*
X146714285Y-98547619D01*
X146761904Y-98642857D01*
X146809523Y-98833333D01*
X146809523Y-99071428D01*
X146761904Y-99261904D01*
X146714285Y-99357142D01*
X146666666Y-99404761D01*
X146571428Y-99452380D01*
X146476190Y-99452380D01*
X146380952Y-99404761D01*
X146333333Y-99357142D01*
X146285714Y-99261904D01*
X146238095Y-99071428D01*
X146238095Y-98833333D01*
X146285714Y-98642857D01*
X146333333Y-98547619D01*
X146380952Y-98500000D01*
X146476190Y-98452380D01*
X147428571Y-98452380D02*
X147523809Y-98452380D01*
X147619047Y-98500000D01*
X147666666Y-98547619D01*
X147714285Y-98642857D01*
X147761904Y-98833333D01*
X147761904Y-99071428D01*
X147714285Y-99261904D01*
X147666666Y-99357142D01*
X147619047Y-99404761D01*
X147523809Y-99452380D01*
X147428571Y-99452380D01*
X147333333Y-99404761D01*
X147285714Y-99357142D01*
X147238095Y-99261904D01*
X147190476Y-99071428D01*
X147190476Y-98833333D01*
X147238095Y-98642857D01*
X147285714Y-98547619D01*
X147333333Y-98500000D01*
X147428571Y-98452380D01*
X148380952Y-98452380D02*
X148476190Y-98452380D01*
X148571428Y-98500000D01*
X148619047Y-98547619D01*
X148666666Y-98642857D01*
X148714285Y-98833333D01*
X148714285Y-99071428D01*
X148666666Y-99261904D01*
X148619047Y-99357142D01*
X148571428Y-99404761D01*
X148476190Y-99452380D01*
X148380952Y-99452380D01*
X148285714Y-99404761D01*
X148238095Y-99357142D01*
X148190476Y-99261904D01*
X148142857Y-99071428D01*
X148142857Y-98833333D01*
X148190476Y-98642857D01*
X148238095Y-98547619D01*
X148285714Y-98500000D01*
X148380952Y-98452380D01*
X149904761Y-99452380D02*
X149904761Y-98785714D01*
X149904761Y-98880952D02*
X149952380Y-98833333D01*
X150047619Y-98785714D01*
X150190476Y-98785714D01*
X150285714Y-98833333D01*
X150333333Y-98928571D01*
X150333333Y-99452380D01*
X150333333Y-98928571D02*
X150380952Y-98833333D01*
X150476190Y-98785714D01*
X150619047Y-98785714D01*
X150714285Y-98833333D01*
X150761904Y-98928571D01*
X150761904Y-99452380D01*
X151238095Y-99452380D02*
X151238095Y-98785714D01*
X151238095Y-98880952D02*
X151285714Y-98833333D01*
X151380952Y-98785714D01*
X151523809Y-98785714D01*
X151619047Y-98833333D01*
X151666666Y-98928571D01*
X151666666Y-99452380D01*
X151666666Y-98928571D02*
X151714285Y-98833333D01*
X151809523Y-98785714D01*
X151952380Y-98785714D01*
X152047619Y-98833333D01*
X152095238Y-98928571D01*
X152095238Y-99452380D01*
X150000000Y-91500000D02*
X150000000Y-97586420D01*
X146000000Y-91500000D02*
X146000000Y-97586420D01*
X150000000Y-97000000D02*
X146000000Y-97000000D01*
X150000000Y-97000000D02*
X146000000Y-97000000D01*
X150000000Y-97000000D02*
X148873496Y-96413579D01*
X150000000Y-97000000D02*
X148873496Y-97586421D01*
X146000000Y-97000000D02*
X147126504Y-97586421D01*
X146000000Y-97000000D02*
X147126504Y-96413579D01*
%TO.C,H3*%
X107200000Y-91000000D02*
G75*
G03*
X107200000Y-91000000I-3200000J0D01*
G01*
%TO.C,H4*%
X107200000Y-69000000D02*
G75*
G03*
X107200000Y-69000000I-3200000J0D01*
G01*
%TO.C,H2*%
X149200000Y-91000000D02*
G75*
G03*
X149200000Y-91000000I-3200000J0D01*
G01*
%TO.C,H1*%
X149200000Y-69000000D02*
G75*
G03*
X149200000Y-69000000I-3200000J0D01*
G01*
%TD*%
M02*
