%TF.GenerationSoftware,KiCad,Pcbnew,(6.0.6)*%
%TF.CreationDate,2022-09-23T20:04:06+09:00*%
%TF.ProjectId,LTE-base-H1,4c54452d-6261-4736-952d-48312e6b6963,rev?*%
%TF.SameCoordinates,Original*%
%TF.FileFunction,Legend,Bot*%
%TF.FilePolarity,Positive*%
%FSLAX46Y46*%
G04 Gerber Fmt 4.6, Leading zero omitted, Abs format (unit mm)*
G04 Created by KiCad (PCBNEW (6.0.6)) date 2022-09-23 20:04:06*
%MOMM*%
%LPD*%
G01*
G04 APERTURE LIST*
%ADD10C,0.200000*%
%ADD11C,0.150000*%
G04 APERTURE END LIST*
D10*
X105542857Y-94193142D02*
X104857142Y-94193142D01*
X105200000Y-94497904D02*
X105200000Y-93888380D01*
X105542857Y-96769142D02*
X104857142Y-96769142D01*
X105200000Y-97073904D02*
X105200000Y-96464380D01*
X105542857Y-99345142D02*
X104857142Y-99345142D01*
X105542857Y-101921142D02*
X104857142Y-101921142D01*
X105071428Y-123859809D02*
X104942857Y-123897904D01*
X104728571Y-123897904D01*
X104642857Y-123859809D01*
X104600000Y-123821714D01*
X104557142Y-123745523D01*
X104557142Y-123669333D01*
X104600000Y-123593142D01*
X104642857Y-123555047D01*
X104728571Y-123516952D01*
X104900000Y-123478857D01*
X104985714Y-123440761D01*
X105028571Y-123402666D01*
X105071428Y-123326476D01*
X105071428Y-123250285D01*
X105028571Y-123174095D01*
X104985714Y-123136000D01*
X104900000Y-123097904D01*
X104685714Y-123097904D01*
X104557142Y-123136000D01*
X103657142Y-123821714D02*
X103700000Y-123859809D01*
X103828571Y-123897904D01*
X103914285Y-123897904D01*
X104042857Y-123859809D01*
X104128571Y-123783619D01*
X104171428Y-123707428D01*
X104214285Y-123555047D01*
X104214285Y-123440761D01*
X104171428Y-123288380D01*
X104128571Y-123212190D01*
X104042857Y-123136000D01*
X103914285Y-123097904D01*
X103828571Y-123097904D01*
X103700000Y-123136000D01*
X103657142Y-123174095D01*
X102842857Y-123897904D02*
X103271428Y-123897904D01*
X103271428Y-123097904D01*
X105092857Y-126435809D02*
X104964285Y-126473904D01*
X104750000Y-126473904D01*
X104664285Y-126435809D01*
X104621428Y-126397714D01*
X104578571Y-126321523D01*
X104578571Y-126245333D01*
X104621428Y-126169142D01*
X104664285Y-126131047D01*
X104750000Y-126092952D01*
X104921428Y-126054857D01*
X105007142Y-126016761D01*
X105050000Y-125978666D01*
X105092857Y-125902476D01*
X105092857Y-125826285D01*
X105050000Y-125750095D01*
X105007142Y-125712000D01*
X104921428Y-125673904D01*
X104707142Y-125673904D01*
X104578571Y-125712000D01*
X104192857Y-126473904D02*
X104192857Y-125673904D01*
X103978571Y-125673904D01*
X103850000Y-125712000D01*
X103764285Y-125788190D01*
X103721428Y-125864380D01*
X103678571Y-126016761D01*
X103678571Y-126131047D01*
X103721428Y-126283428D01*
X103764285Y-126359619D01*
X103850000Y-126435809D01*
X103978571Y-126473904D01*
X104192857Y-126473904D01*
X103335714Y-126245333D02*
X102907142Y-126245333D01*
X103421428Y-126473904D02*
X103121428Y-125673904D01*
X102821428Y-126473904D01*
X105585714Y-128745142D02*
X104900000Y-128745142D01*
X105242857Y-129049904D02*
X105242857Y-128440380D01*
X104557142Y-128249904D02*
X104000000Y-128249904D01*
X104300000Y-128554666D01*
X104171428Y-128554666D01*
X104085714Y-128592761D01*
X104042857Y-128630857D01*
X104000000Y-128707047D01*
X104000000Y-128897523D01*
X104042857Y-128973714D01*
X104085714Y-129011809D01*
X104171428Y-129049904D01*
X104428571Y-129049904D01*
X104514285Y-129011809D01*
X104557142Y-128973714D01*
X103742857Y-128249904D02*
X103442857Y-129049904D01*
X103142857Y-128249904D01*
X102928571Y-128249904D02*
X102371428Y-128249904D01*
X102671428Y-128554666D01*
X102542857Y-128554666D01*
X102457142Y-128592761D01*
X102414285Y-128630857D01*
X102371428Y-128707047D01*
X102371428Y-128897523D01*
X102414285Y-128973714D01*
X102457142Y-129011809D01*
X102542857Y-129049904D01*
X102800000Y-129049904D01*
X102885714Y-129011809D01*
X102928571Y-128973714D01*
X104685714Y-130864000D02*
X104771428Y-130825904D01*
X104900000Y-130825904D01*
X105028571Y-130864000D01*
X105114285Y-130940190D01*
X105157142Y-131016380D01*
X105200000Y-131168761D01*
X105200000Y-131283047D01*
X105157142Y-131435428D01*
X105114285Y-131511619D01*
X105028571Y-131587809D01*
X104900000Y-131625904D01*
X104814285Y-131625904D01*
X104685714Y-131587809D01*
X104642857Y-131549714D01*
X104642857Y-131283047D01*
X104814285Y-131283047D01*
X104257142Y-131625904D02*
X104257142Y-130825904D01*
X103742857Y-131625904D01*
X103742857Y-130825904D01*
X103314285Y-131625904D02*
X103314285Y-130825904D01*
X103100000Y-130825904D01*
X102971428Y-130864000D01*
X102885714Y-130940190D01*
X102842857Y-131016380D01*
X102800000Y-131168761D01*
X102800000Y-131283047D01*
X102842857Y-131435428D01*
X102885714Y-131511619D01*
X102971428Y-131587809D01*
X103100000Y-131625904D01*
X103314285Y-131625904D01*
D11*
X176419047Y-107052380D02*
X176419047Y-107766666D01*
X176466666Y-107909523D01*
X176561904Y-108004761D01*
X176704761Y-108052380D01*
X176800000Y-108052380D01*
X175466666Y-108052380D02*
X175942857Y-108052380D01*
X175942857Y-107052380D01*
X174561904Y-107957142D02*
X174609523Y-108004761D01*
X174752380Y-108052380D01*
X174847619Y-108052380D01*
X174990476Y-108004761D01*
X175085714Y-107909523D01*
X175133333Y-107814285D01*
X175180952Y-107623809D01*
X175180952Y-107480952D01*
X175133333Y-107290476D01*
X175085714Y-107195238D01*
X174990476Y-107100000D01*
X174847619Y-107052380D01*
X174752380Y-107052380D01*
X174609523Y-107100000D01*
X174561904Y-107147619D01*
X173847619Y-107052380D02*
X173847619Y-107766666D01*
X173895238Y-107909523D01*
X173990476Y-108004761D01*
X174133333Y-108052380D01*
X174228571Y-108052380D01*
X172895238Y-108052380D02*
X173371428Y-108052380D01*
X173371428Y-107052380D01*
X171990476Y-107957142D02*
X172038095Y-108004761D01*
X172180952Y-108052380D01*
X172276190Y-108052380D01*
X172419047Y-108004761D01*
X172514285Y-107909523D01*
X172561904Y-107814285D01*
X172609523Y-107623809D01*
X172609523Y-107480952D01*
X172561904Y-107290476D01*
X172514285Y-107195238D01*
X172419047Y-107100000D01*
X172276190Y-107052380D01*
X172180952Y-107052380D01*
X172038095Y-107100000D01*
X171990476Y-107147619D01*
X171276190Y-107052380D02*
X171276190Y-107766666D01*
X171323809Y-107909523D01*
X171419047Y-108004761D01*
X171561904Y-108052380D01*
X171657142Y-108052380D01*
X170323809Y-108052380D02*
X170800000Y-108052380D01*
X170800000Y-107052380D01*
X169419047Y-107957142D02*
X169466666Y-108004761D01*
X169609523Y-108052380D01*
X169704761Y-108052380D01*
X169847619Y-108004761D01*
X169942857Y-107909523D01*
X169990476Y-107814285D01*
X170038095Y-107623809D01*
X170038095Y-107480952D01*
X169990476Y-107290476D01*
X169942857Y-107195238D01*
X169847619Y-107100000D01*
X169704761Y-107052380D01*
X169609523Y-107052380D01*
X169466666Y-107100000D01*
X169419047Y-107147619D01*
X168704761Y-107052380D02*
X168704761Y-107766666D01*
X168752380Y-107909523D01*
X168847619Y-108004761D01*
X168990476Y-108052380D01*
X169085714Y-108052380D01*
X167752380Y-108052380D02*
X168228571Y-108052380D01*
X168228571Y-107052380D01*
X166847619Y-107957142D02*
X166895238Y-108004761D01*
X167038095Y-108052380D01*
X167133333Y-108052380D01*
X167276190Y-108004761D01*
X167371428Y-107909523D01*
X167419047Y-107814285D01*
X167466666Y-107623809D01*
X167466666Y-107480952D01*
X167419047Y-107290476D01*
X167371428Y-107195238D01*
X167276190Y-107100000D01*
X167133333Y-107052380D01*
X167038095Y-107052380D01*
X166895238Y-107100000D01*
X166847619Y-107147619D01*
D10*
X104967857Y-112309714D02*
X105010714Y-112347809D01*
X105139285Y-112385904D01*
X105225000Y-112385904D01*
X105353571Y-112347809D01*
X105439285Y-112271619D01*
X105482142Y-112195428D01*
X105525000Y-112043047D01*
X105525000Y-111928761D01*
X105482142Y-111776380D01*
X105439285Y-111700190D01*
X105353571Y-111624000D01*
X105225000Y-111585904D01*
X105139285Y-111585904D01*
X105010714Y-111624000D01*
X104967857Y-111662095D01*
X104625000Y-112157333D02*
X104196428Y-112157333D01*
X104710714Y-112385904D02*
X104410714Y-111585904D01*
X104110714Y-112385904D01*
X103810714Y-112385904D02*
X103810714Y-111585904D01*
X103296428Y-112385904D01*
X103296428Y-111585904D01*
X102439285Y-112385904D02*
X102867857Y-112385904D01*
X102867857Y-111585904D01*
X104710714Y-114200000D02*
X104796428Y-114161904D01*
X104925000Y-114161904D01*
X105053571Y-114200000D01*
X105139285Y-114276190D01*
X105182142Y-114352380D01*
X105225000Y-114504761D01*
X105225000Y-114619047D01*
X105182142Y-114771428D01*
X105139285Y-114847619D01*
X105053571Y-114923809D01*
X104925000Y-114961904D01*
X104839285Y-114961904D01*
X104710714Y-114923809D01*
X104667857Y-114885714D01*
X104667857Y-114619047D01*
X104839285Y-114619047D01*
X104282142Y-114961904D02*
X104282142Y-114161904D01*
X103767857Y-114961904D01*
X103767857Y-114161904D01*
X103339285Y-114961904D02*
X103339285Y-114161904D01*
X103125000Y-114161904D01*
X102996428Y-114200000D01*
X102910714Y-114276190D01*
X102867857Y-114352380D01*
X102825000Y-114504761D01*
X102825000Y-114619047D01*
X102867857Y-114771428D01*
X102910714Y-114847619D01*
X102996428Y-114923809D01*
X103125000Y-114961904D01*
X103339285Y-114961904D01*
X105075000Y-117461714D02*
X105117857Y-117499809D01*
X105246428Y-117537904D01*
X105332142Y-117537904D01*
X105460714Y-117499809D01*
X105546428Y-117423619D01*
X105589285Y-117347428D01*
X105632142Y-117195047D01*
X105632142Y-117080761D01*
X105589285Y-116928380D01*
X105546428Y-116852190D01*
X105460714Y-116776000D01*
X105332142Y-116737904D01*
X105246428Y-116737904D01*
X105117857Y-116776000D01*
X105075000Y-116814095D01*
X104732142Y-117309333D02*
X104303571Y-117309333D01*
X104817857Y-117537904D02*
X104517857Y-116737904D01*
X104217857Y-117537904D01*
X103917857Y-117537904D02*
X103917857Y-116737904D01*
X103403571Y-117537904D01*
X103403571Y-116737904D01*
X102975000Y-117537904D02*
X102975000Y-116737904D01*
X102975000Y-117118857D02*
X102460714Y-117118857D01*
X102460714Y-117537904D02*
X102460714Y-116737904D01*
X141909904Y-145585714D02*
X141909904Y-146142857D01*
X142214666Y-145842857D01*
X142214666Y-145971428D01*
X142252761Y-146057142D01*
X142290857Y-146100000D01*
X142367047Y-146142857D01*
X142557523Y-146142857D01*
X142633714Y-146100000D01*
X142671809Y-146057142D01*
X142709904Y-145971428D01*
X142709904Y-145714285D01*
X142671809Y-145628571D01*
X142633714Y-145585714D01*
X141909904Y-146400000D02*
X142709904Y-146700000D01*
X141909904Y-147000000D01*
X141909904Y-147214285D02*
X141909904Y-147771428D01*
X142214666Y-147471428D01*
X142214666Y-147600000D01*
X142252761Y-147685714D01*
X142290857Y-147728571D01*
X142367047Y-147771428D01*
X142557523Y-147771428D01*
X142633714Y-147728571D01*
X142671809Y-147685714D01*
X142709904Y-147600000D01*
X142709904Y-147342857D01*
X142671809Y-147257142D01*
X142633714Y-147214285D01*
X145247809Y-144664285D02*
X145285904Y-144792857D01*
X145285904Y-145007142D01*
X145247809Y-145092857D01*
X145209714Y-145135714D01*
X145133523Y-145178571D01*
X145057333Y-145178571D01*
X144981142Y-145135714D01*
X144943047Y-145092857D01*
X144904952Y-145007142D01*
X144866857Y-144835714D01*
X144828761Y-144750000D01*
X144790666Y-144707142D01*
X144714476Y-144664285D01*
X144638285Y-144664285D01*
X144562095Y-144707142D01*
X144524000Y-144750000D01*
X144485904Y-144835714D01*
X144485904Y-145050000D01*
X144524000Y-145178571D01*
X144485904Y-145478571D02*
X145285904Y-145692857D01*
X144714476Y-145864285D01*
X145285904Y-146035714D01*
X144485904Y-146250000D01*
X145209714Y-147107142D02*
X145247809Y-147064285D01*
X145285904Y-146935714D01*
X145285904Y-146850000D01*
X145247809Y-146721428D01*
X145171619Y-146635714D01*
X145095428Y-146592857D01*
X144943047Y-146550000D01*
X144828761Y-146550000D01*
X144676380Y-146592857D01*
X144600190Y-146635714D01*
X144524000Y-146721428D01*
X144485904Y-146850000D01*
X144485904Y-146935714D01*
X144524000Y-147064285D01*
X144562095Y-147107142D01*
X145285904Y-147921428D02*
X145285904Y-147492857D01*
X144485904Y-147492857D01*
X145285904Y-148221428D02*
X144485904Y-148221428D01*
X145285904Y-148735714D02*
X144828761Y-148350000D01*
X144485904Y-148735714D02*
X144943047Y-148221428D01*
X147100000Y-146014285D02*
X147061904Y-145928571D01*
X147061904Y-145800000D01*
X147100000Y-145671428D01*
X147176190Y-145585714D01*
X147252380Y-145542857D01*
X147404761Y-145500000D01*
X147519047Y-145500000D01*
X147671428Y-145542857D01*
X147747619Y-145585714D01*
X147823809Y-145671428D01*
X147861904Y-145800000D01*
X147861904Y-145885714D01*
X147823809Y-146014285D01*
X147785714Y-146057142D01*
X147519047Y-146057142D01*
X147519047Y-145885714D01*
X147861904Y-146442857D02*
X147061904Y-146442857D01*
X147861904Y-146957142D01*
X147061904Y-146957142D01*
X147861904Y-147385714D02*
X147061904Y-147385714D01*
X147061904Y-147600000D01*
X147100000Y-147728571D01*
X147176190Y-147814285D01*
X147252380Y-147857142D01*
X147404761Y-147900000D01*
X147519047Y-147900000D01*
X147671428Y-147857142D01*
X147747619Y-147814285D01*
X147823809Y-147728571D01*
X147861904Y-147600000D01*
X147861904Y-147385714D01*
X150399809Y-144792857D02*
X150437904Y-144921428D01*
X150437904Y-145135714D01*
X150399809Y-145221428D01*
X150361714Y-145264285D01*
X150285523Y-145307142D01*
X150209333Y-145307142D01*
X150133142Y-145264285D01*
X150095047Y-145221428D01*
X150056952Y-145135714D01*
X150018857Y-144964285D01*
X149980761Y-144878571D01*
X149942666Y-144835714D01*
X149866476Y-144792857D01*
X149790285Y-144792857D01*
X149714095Y-144835714D01*
X149676000Y-144878571D01*
X149637904Y-144964285D01*
X149637904Y-145178571D01*
X149676000Y-145307142D01*
X149637904Y-145607142D02*
X150437904Y-145821428D01*
X149866476Y-145992857D01*
X150437904Y-146164285D01*
X149637904Y-146378571D01*
X150437904Y-146721428D02*
X149637904Y-146721428D01*
X149637904Y-146935714D01*
X149676000Y-147064285D01*
X149752190Y-147150000D01*
X149828380Y-147192857D01*
X149980761Y-147235714D01*
X150095047Y-147235714D01*
X150247428Y-147192857D01*
X150323619Y-147150000D01*
X150399809Y-147064285D01*
X150437904Y-146935714D01*
X150437904Y-146721428D01*
X150437904Y-147621428D02*
X149637904Y-147621428D01*
X149637904Y-148221428D02*
X149637904Y-148392857D01*
X149676000Y-148478571D01*
X149752190Y-148564285D01*
X149904571Y-148607142D01*
X150171238Y-148607142D01*
X150323619Y-148564285D01*
X150399809Y-148478571D01*
X150437904Y-148392857D01*
X150437904Y-148221428D01*
X150399809Y-148135714D01*
X150323619Y-148050000D01*
X150171238Y-148007142D01*
X149904571Y-148007142D01*
X149752190Y-148050000D01*
X149676000Y-148135714D01*
X149637904Y-148221428D01*
X153013904Y-145221428D02*
X152213904Y-145221428D01*
X153013904Y-145735714D01*
X152213904Y-145735714D01*
X153013904Y-146678571D02*
X152632952Y-146378571D01*
X153013904Y-146164285D02*
X152213904Y-146164285D01*
X152213904Y-146507142D01*
X152252000Y-146592857D01*
X152290095Y-146635714D01*
X152366285Y-146678571D01*
X152480571Y-146678571D01*
X152556761Y-146635714D01*
X152594857Y-146592857D01*
X152632952Y-146507142D01*
X152632952Y-146164285D01*
X152975809Y-147021428D02*
X153013904Y-147150000D01*
X153013904Y-147364285D01*
X152975809Y-147450000D01*
X152937714Y-147492857D01*
X152861523Y-147535714D01*
X152785333Y-147535714D01*
X152709142Y-147492857D01*
X152671047Y-147450000D01*
X152632952Y-147364285D01*
X152594857Y-147192857D01*
X152556761Y-147107142D01*
X152518666Y-147064285D01*
X152442476Y-147021428D01*
X152366285Y-147021428D01*
X152290095Y-147064285D01*
X152252000Y-147107142D01*
X152213904Y-147192857D01*
X152213904Y-147407142D01*
X152252000Y-147535714D01*
X152213904Y-147792857D02*
X152213904Y-148307142D01*
X153013904Y-148050000D02*
X152213904Y-148050000D01*
X105671428Y-137785904D02*
X105157142Y-137785904D01*
X105414285Y-138585904D02*
X105414285Y-137785904D01*
X104942857Y-137785904D02*
X104342857Y-138585904D01*
X104342857Y-137785904D02*
X104942857Y-138585904D01*
X103742857Y-138890666D02*
X103785714Y-138852571D01*
X103871428Y-138738285D01*
X103914285Y-138662095D01*
X103957142Y-138547809D01*
X104000000Y-138357333D01*
X104000000Y-138204952D01*
X103957142Y-138014476D01*
X103914285Y-137900190D01*
X103871428Y-137824000D01*
X103785714Y-137709714D01*
X103742857Y-137671619D01*
X103228571Y-137785904D02*
X103057142Y-137785904D01*
X102971428Y-137824000D01*
X102885714Y-137900190D01*
X102842857Y-138052571D01*
X102842857Y-138319238D01*
X102885714Y-138471619D01*
X102971428Y-138547809D01*
X103057142Y-138585904D01*
X103228571Y-138585904D01*
X103314285Y-138547809D01*
X103400000Y-138471619D01*
X103442857Y-138319238D01*
X103442857Y-138052571D01*
X103400000Y-137900190D01*
X103314285Y-137824000D01*
X103228571Y-137785904D01*
X102457142Y-137785904D02*
X102457142Y-138433523D01*
X102414285Y-138509714D01*
X102371428Y-138547809D01*
X102285714Y-138585904D01*
X102114285Y-138585904D01*
X102028571Y-138547809D01*
X101985714Y-138509714D01*
X101942857Y-138433523D01*
X101942857Y-137785904D01*
X101642857Y-137785904D02*
X101128571Y-137785904D01*
X101385714Y-138585904D02*
X101385714Y-137785904D01*
X100914285Y-138890666D02*
X100871428Y-138852571D01*
X100785714Y-138738285D01*
X100742857Y-138662095D01*
X100700000Y-138547809D01*
X100657142Y-138357333D01*
X100657142Y-138204952D01*
X100700000Y-138014476D01*
X100742857Y-137900190D01*
X100785714Y-137824000D01*
X100871428Y-137709714D01*
X100914285Y-137671619D01*
X104535714Y-141161904D02*
X104835714Y-140780952D01*
X105050000Y-141161904D02*
X105050000Y-140361904D01*
X104707142Y-140361904D01*
X104621428Y-140400000D01*
X104578571Y-140438095D01*
X104535714Y-140514285D01*
X104535714Y-140628571D01*
X104578571Y-140704761D01*
X104621428Y-140742857D01*
X104707142Y-140780952D01*
X105050000Y-140780952D01*
X104235714Y-140361904D02*
X103635714Y-141161904D01*
X103635714Y-140361904D02*
X104235714Y-141161904D01*
X103035714Y-141466666D02*
X103078571Y-141428571D01*
X103164285Y-141314285D01*
X103207142Y-141238095D01*
X103250000Y-141123809D01*
X103292857Y-140933333D01*
X103292857Y-140780952D01*
X103250000Y-140590476D01*
X103207142Y-140476190D01*
X103164285Y-140400000D01*
X103078571Y-140285714D01*
X103035714Y-140247619D01*
X102692857Y-141161904D02*
X102692857Y-140361904D01*
X102264285Y-141161904D02*
X102264285Y-140361904D01*
X101750000Y-141161904D01*
X101750000Y-140361904D01*
X101407142Y-141466666D02*
X101364285Y-141428571D01*
X101278571Y-141314285D01*
X101235714Y-141238095D01*
X101192857Y-141123809D01*
X101150000Y-140933333D01*
X101150000Y-140780952D01*
X101192857Y-140590476D01*
X101235714Y-140476190D01*
X101278571Y-140400000D01*
X101364285Y-140285714D01*
X101407142Y-140247619D01*
X103785714Y-142976000D02*
X103871428Y-142937904D01*
X104000000Y-142937904D01*
X104128571Y-142976000D01*
X104214285Y-143052190D01*
X104257142Y-143128380D01*
X104300000Y-143280761D01*
X104300000Y-143395047D01*
X104257142Y-143547428D01*
X104214285Y-143623619D01*
X104128571Y-143699809D01*
X104000000Y-143737904D01*
X103914285Y-143737904D01*
X103785714Y-143699809D01*
X103742857Y-143661714D01*
X103742857Y-143395047D01*
X103914285Y-143395047D01*
X103357142Y-143737904D02*
X103357142Y-142937904D01*
X102842857Y-143737904D01*
X102842857Y-142937904D01*
X102414285Y-143737904D02*
X102414285Y-142937904D01*
X102200000Y-142937904D01*
X102071428Y-142976000D01*
X101985714Y-143052190D01*
X101942857Y-143128380D01*
X101900000Y-143280761D01*
X101900000Y-143395047D01*
X101942857Y-143547428D01*
X101985714Y-143623619D01*
X102071428Y-143699809D01*
X102200000Y-143737904D01*
X102414285Y-143737904D01*
X128885904Y-146914285D02*
X128885904Y-147428571D01*
X129685904Y-147171428D02*
X128885904Y-147171428D01*
X128885904Y-147642857D02*
X129685904Y-148242857D01*
X128885904Y-148242857D02*
X129685904Y-147642857D01*
X132261904Y-147450000D02*
X131880952Y-147150000D01*
X132261904Y-146935714D02*
X131461904Y-146935714D01*
X131461904Y-147278571D01*
X131500000Y-147364285D01*
X131538095Y-147407142D01*
X131614285Y-147450000D01*
X131728571Y-147450000D01*
X131804761Y-147407142D01*
X131842857Y-147364285D01*
X131880952Y-147278571D01*
X131880952Y-146935714D01*
X131461904Y-147750000D02*
X132261904Y-148350000D01*
X131461904Y-148350000D02*
X132261904Y-147750000D01*
X134076000Y-146914285D02*
X134037904Y-146828571D01*
X134037904Y-146700000D01*
X134076000Y-146571428D01*
X134152190Y-146485714D01*
X134228380Y-146442857D01*
X134380761Y-146400000D01*
X134495047Y-146400000D01*
X134647428Y-146442857D01*
X134723619Y-146485714D01*
X134799809Y-146571428D01*
X134837904Y-146700000D01*
X134837904Y-146785714D01*
X134799809Y-146914285D01*
X134761714Y-146957142D01*
X134495047Y-146957142D01*
X134495047Y-146785714D01*
X134837904Y-147342857D02*
X134037904Y-147342857D01*
X134837904Y-147857142D01*
X134037904Y-147857142D01*
X134837904Y-148285714D02*
X134037904Y-148285714D01*
X134037904Y-148500000D01*
X134076000Y-148628571D01*
X134152190Y-148714285D01*
X134228380Y-148757142D01*
X134380761Y-148800000D01*
X134495047Y-148800000D01*
X134647428Y-148757142D01*
X134723619Y-148714285D01*
X134799809Y-148628571D01*
X134837904Y-148500000D01*
X134837904Y-148285714D01*
M02*
