%TF.GenerationSoftware,KiCad,Pcbnew,(6.0.6)*%
%TF.CreationDate,2022-09-23T20:04:06+09:00*%
%TF.ProjectId,LTE-base-H1,4c54452d-6261-4736-952d-48312e6b6963,rev?*%
%TF.SameCoordinates,Original*%
%TF.FileFunction,Legend,Top*%
%TF.FilePolarity,Positive*%
%FSLAX46Y46*%
G04 Gerber Fmt 4.6, Leading zero omitted, Abs format (unit mm)*
G04 Created by KiCad (PCBNEW (6.0.6)) date 2022-09-23 20:04:06*
%MOMM*%
%LPD*%
G01*
G04 APERTURE LIST*
%ADD10C,0.150000*%
%ADD11C,0.120000*%
%ADD12C,0.100000*%
%ADD13C,0.127000*%
%ADD14C,0.400000*%
G04 APERTURE END LIST*
D10*
X199500000Y-135999999D02*
X141500000Y-136000000D01*
X141500000Y-103000000D01*
X199500000Y-103000000D01*
X199500000Y-135999999D01*
X102341666Y-105916666D02*
X101941666Y-105916666D01*
X102141666Y-105916666D02*
X102141666Y-105216666D01*
X102075000Y-105316666D01*
X102008333Y-105383333D01*
X101941666Y-105416666D01*
X102608333Y-105283333D02*
X102641666Y-105250000D01*
X102708333Y-105216666D01*
X102875000Y-105216666D01*
X102941666Y-105250000D01*
X102975000Y-105283333D01*
X103008333Y-105350000D01*
X103008333Y-105416666D01*
X102975000Y-105516666D01*
X102575000Y-105916666D01*
X103008333Y-105916666D01*
X103441666Y-105216666D02*
X103508333Y-105216666D01*
X103575000Y-105250000D01*
X103608333Y-105283333D01*
X103641666Y-105350000D01*
X103675000Y-105483333D01*
X103675000Y-105650000D01*
X103641666Y-105783333D01*
X103608333Y-105850000D01*
X103575000Y-105883333D01*
X103508333Y-105916666D01*
X103441666Y-105916666D01*
X103375000Y-105883333D01*
X103341666Y-105850000D01*
X103308333Y-105783333D01*
X103275000Y-105650000D01*
X103275000Y-105483333D01*
X103308333Y-105350000D01*
X103341666Y-105283333D01*
X103375000Y-105250000D01*
X103441666Y-105216666D01*
X104608333Y-105916666D02*
X104541666Y-105883333D01*
X104508333Y-105850000D01*
X104475000Y-105783333D01*
X104475000Y-105583333D01*
X104508333Y-105516666D01*
X104541666Y-105483333D01*
X104608333Y-105450000D01*
X104708333Y-105450000D01*
X104775000Y-105483333D01*
X104808333Y-105516666D01*
X104841666Y-105583333D01*
X104841666Y-105783333D01*
X104808333Y-105850000D01*
X104775000Y-105883333D01*
X104708333Y-105916666D01*
X104608333Y-105916666D01*
X105141666Y-105916666D02*
X105141666Y-105216666D01*
X105441666Y-105916666D02*
X105441666Y-105550000D01*
X105408333Y-105483333D01*
X105341666Y-105450000D01*
X105241666Y-105450000D01*
X105175000Y-105483333D01*
X105141666Y-105516666D01*
X105775000Y-105916666D02*
X105775000Y-105450000D01*
X105775000Y-105516666D02*
X105808333Y-105483333D01*
X105875000Y-105450000D01*
X105975000Y-105450000D01*
X106041666Y-105483333D01*
X106075000Y-105550000D01*
X106075000Y-105916666D01*
X106075000Y-105550000D02*
X106108333Y-105483333D01*
X106175000Y-105450000D01*
X106275000Y-105450000D01*
X106341666Y-105483333D01*
X106375000Y-105550000D01*
X106375000Y-105916666D01*
X107141666Y-105450000D02*
X107408333Y-105450000D01*
X107241666Y-105216666D02*
X107241666Y-105816666D01*
X107275000Y-105883333D01*
X107341666Y-105916666D01*
X107408333Y-105916666D01*
X107908333Y-105883333D02*
X107841666Y-105916666D01*
X107708333Y-105916666D01*
X107641666Y-105883333D01*
X107608333Y-105816666D01*
X107608333Y-105550000D01*
X107641666Y-105483333D01*
X107708333Y-105450000D01*
X107841666Y-105450000D01*
X107908333Y-105483333D01*
X107941666Y-105550000D01*
X107941666Y-105616666D01*
X107608333Y-105683333D01*
X108241666Y-105916666D02*
X108241666Y-105450000D01*
X108241666Y-105583333D02*
X108275000Y-105516666D01*
X108308333Y-105483333D01*
X108375000Y-105450000D01*
X108441666Y-105450000D01*
X108675000Y-105916666D02*
X108675000Y-105450000D01*
X108675000Y-105516666D02*
X108708333Y-105483333D01*
X108775000Y-105450000D01*
X108875000Y-105450000D01*
X108941666Y-105483333D01*
X108975000Y-105550000D01*
X108975000Y-105916666D01*
X108975000Y-105550000D02*
X109008333Y-105483333D01*
X109075000Y-105450000D01*
X109175000Y-105450000D01*
X109241666Y-105483333D01*
X109275000Y-105550000D01*
X109275000Y-105916666D01*
X109608333Y-105916666D02*
X109608333Y-105450000D01*
X109608333Y-105216666D02*
X109575000Y-105250000D01*
X109608333Y-105283333D01*
X109641666Y-105250000D01*
X109608333Y-105216666D01*
X109608333Y-105283333D01*
X109941666Y-105450000D02*
X109941666Y-105916666D01*
X109941666Y-105516666D02*
X109975000Y-105483333D01*
X110041666Y-105450000D01*
X110141666Y-105450000D01*
X110208333Y-105483333D01*
X110241666Y-105550000D01*
X110241666Y-105916666D01*
X110875000Y-105916666D02*
X110875000Y-105550000D01*
X110841666Y-105483333D01*
X110775000Y-105450000D01*
X110641666Y-105450000D01*
X110575000Y-105483333D01*
X110875000Y-105883333D02*
X110808333Y-105916666D01*
X110641666Y-105916666D01*
X110575000Y-105883333D01*
X110541666Y-105816666D01*
X110541666Y-105750000D01*
X110575000Y-105683333D01*
X110641666Y-105650000D01*
X110808333Y-105650000D01*
X110875000Y-105616666D01*
X111108333Y-105450000D02*
X111375000Y-105450000D01*
X111208333Y-105216666D02*
X111208333Y-105816666D01*
X111241666Y-105883333D01*
X111308333Y-105916666D01*
X111375000Y-105916666D01*
X111608333Y-105916666D02*
X111608333Y-105450000D01*
X111608333Y-105216666D02*
X111575000Y-105250000D01*
X111608333Y-105283333D01*
X111641666Y-105250000D01*
X111608333Y-105216666D01*
X111608333Y-105283333D01*
X112041666Y-105916666D02*
X111975000Y-105883333D01*
X111941666Y-105850000D01*
X111908333Y-105783333D01*
X111908333Y-105583333D01*
X111941666Y-105516666D01*
X111975000Y-105483333D01*
X112041666Y-105450000D01*
X112141666Y-105450000D01*
X112208333Y-105483333D01*
X112241666Y-105516666D01*
X112275000Y-105583333D01*
X112275000Y-105783333D01*
X112241666Y-105850000D01*
X112208333Y-105883333D01*
X112141666Y-105916666D01*
X112041666Y-105916666D01*
X112575000Y-105450000D02*
X112575000Y-105916666D01*
X112575000Y-105516666D02*
X112608333Y-105483333D01*
X112675000Y-105450000D01*
X112775000Y-105450000D01*
X112841666Y-105483333D01*
X112875000Y-105550000D01*
X112875000Y-105916666D01*
X102209523Y-75052380D02*
X101733333Y-75052380D01*
X101685714Y-75528571D01*
X101733333Y-75480952D01*
X101828571Y-75433333D01*
X102066666Y-75433333D01*
X102161904Y-75480952D01*
X102209523Y-75528571D01*
X102257142Y-75623809D01*
X102257142Y-75861904D01*
X102209523Y-75957142D01*
X102161904Y-76004761D01*
X102066666Y-76052380D01*
X101828571Y-76052380D01*
X101733333Y-76004761D01*
X101685714Y-75957142D01*
X102542857Y-75052380D02*
X102876190Y-76052380D01*
X103209523Y-75052380D01*
X103542857Y-75671428D02*
X104304761Y-75671428D01*
X104733333Y-75147619D02*
X104780952Y-75100000D01*
X104876190Y-75052380D01*
X105114285Y-75052380D01*
X105209523Y-75100000D01*
X105257142Y-75147619D01*
X105304761Y-75242857D01*
X105304761Y-75338095D01*
X105257142Y-75480952D01*
X104685714Y-76052380D01*
X105304761Y-76052380D01*
X105923809Y-75052380D02*
X106019047Y-75052380D01*
X106114285Y-75100000D01*
X106161904Y-75147619D01*
X106209523Y-75242857D01*
X106257142Y-75433333D01*
X106257142Y-75671428D01*
X106209523Y-75861904D01*
X106161904Y-75957142D01*
X106114285Y-76004761D01*
X106019047Y-76052380D01*
X105923809Y-76052380D01*
X105828571Y-76004761D01*
X105780952Y-75957142D01*
X105733333Y-75861904D01*
X105685714Y-75671428D01*
X105685714Y-75433333D01*
X105733333Y-75242857D01*
X105780952Y-75147619D01*
X105828571Y-75100000D01*
X105923809Y-75052380D01*
X106542857Y-75052380D02*
X106876190Y-76052380D01*
X107209523Y-75052380D01*
X163766666Y-105852380D02*
X163290476Y-105852380D01*
X163290476Y-104852380D01*
X163957142Y-104852380D02*
X164528571Y-104852380D01*
X164242857Y-105852380D02*
X164242857Y-104852380D01*
X164861904Y-105328571D02*
X165195238Y-105328571D01*
X165338095Y-105852380D02*
X164861904Y-105852380D01*
X164861904Y-104852380D01*
X165338095Y-104852380D01*
X167100000Y-105757142D02*
X167052380Y-105804761D01*
X166909523Y-105852380D01*
X166814285Y-105852380D01*
X166671428Y-105804761D01*
X166576190Y-105709523D01*
X166528571Y-105614285D01*
X166480952Y-105423809D01*
X166480952Y-105280952D01*
X166528571Y-105090476D01*
X166576190Y-104995238D01*
X166671428Y-104900000D01*
X166814285Y-104852380D01*
X166909523Y-104852380D01*
X167052380Y-104900000D01*
X167100000Y-104947619D01*
X167480952Y-105566666D02*
X167957142Y-105566666D01*
X167385714Y-105852380D02*
X167719047Y-104852380D01*
X168052380Y-105852380D01*
X168242857Y-104852380D02*
X168814285Y-104852380D01*
X168528571Y-105852380D02*
X168528571Y-104852380D01*
X169147619Y-105471428D02*
X169909523Y-105471428D01*
X170385714Y-105852380D02*
X170385714Y-104852380D01*
X170719047Y-105566666D01*
X171052380Y-104852380D01*
X171052380Y-105852380D01*
X172052380Y-105852380D02*
X171480952Y-105852380D01*
X171766666Y-105852380D02*
X171766666Y-104852380D01*
X171671428Y-104995238D01*
X171576190Y-105090476D01*
X171480952Y-105138095D01*
X173242857Y-105852380D02*
X173242857Y-104852380D01*
X173576190Y-105566666D01*
X173909523Y-104852380D01*
X173909523Y-105852380D01*
X174385714Y-105852380D02*
X174385714Y-105185714D01*
X174385714Y-104852380D02*
X174338095Y-104900000D01*
X174385714Y-104947619D01*
X174433333Y-104900000D01*
X174385714Y-104852380D01*
X174385714Y-104947619D01*
X174861904Y-105185714D02*
X174861904Y-105852380D01*
X174861904Y-105280952D02*
X174909523Y-105233333D01*
X175004761Y-105185714D01*
X175147619Y-105185714D01*
X175242857Y-105233333D01*
X175290476Y-105328571D01*
X175290476Y-105852380D01*
X175766666Y-105852380D02*
X175766666Y-105185714D01*
X175766666Y-104852380D02*
X175719047Y-104900000D01*
X175766666Y-104947619D01*
X175814285Y-104900000D01*
X175766666Y-104852380D01*
X175766666Y-104947619D01*
X177004761Y-105852380D02*
X177004761Y-104852380D01*
X177385714Y-104852380D01*
X177480952Y-104900000D01*
X177528571Y-104947619D01*
X177576190Y-105042857D01*
X177576190Y-105185714D01*
X177528571Y-105280952D01*
X177480952Y-105328571D01*
X177385714Y-105376190D01*
X177004761Y-105376190D01*
X178576190Y-105757142D02*
X178528571Y-105804761D01*
X178385714Y-105852380D01*
X178290476Y-105852380D01*
X178147619Y-105804761D01*
X178052380Y-105709523D01*
X178004761Y-105614285D01*
X177957142Y-105423809D01*
X177957142Y-105280952D01*
X178004761Y-105090476D01*
X178052380Y-104995238D01*
X178147619Y-104900000D01*
X178290476Y-104852380D01*
X178385714Y-104852380D01*
X178528571Y-104900000D01*
X178576190Y-104947619D01*
X179004761Y-105852380D02*
X179004761Y-104852380D01*
X179480952Y-105328571D02*
X179814285Y-105328571D01*
X179957142Y-105852380D02*
X179480952Y-105852380D01*
X179480952Y-104852380D01*
X179957142Y-104852380D01*
%TO.C,C15*%
X113750000Y-129250000D02*
X113716666Y-129283333D01*
X113616666Y-129316666D01*
X113550000Y-129316666D01*
X113450000Y-129283333D01*
X113383333Y-129216666D01*
X113350000Y-129150000D01*
X113316666Y-129016666D01*
X113316666Y-128916666D01*
X113350000Y-128783333D01*
X113383333Y-128716666D01*
X113450000Y-128650000D01*
X113550000Y-128616666D01*
X113616666Y-128616666D01*
X113716666Y-128650000D01*
X113750000Y-128683333D01*
X114416666Y-129316666D02*
X114016666Y-129316666D01*
X114216666Y-129316666D02*
X114216666Y-128616666D01*
X114150000Y-128716666D01*
X114083333Y-128783333D01*
X114016666Y-128816666D01*
X115050000Y-128616666D02*
X114716666Y-128616666D01*
X114683333Y-128950000D01*
X114716666Y-128916666D01*
X114783333Y-128883333D01*
X114950000Y-128883333D01*
X115016666Y-128916666D01*
X115050000Y-128950000D01*
X115083333Y-129016666D01*
X115083333Y-129183333D01*
X115050000Y-129250000D01*
X115016666Y-129283333D01*
X114950000Y-129316666D01*
X114783333Y-129316666D01*
X114716666Y-129283333D01*
X114683333Y-129250000D01*
%TO.C,J11*%
X109116666Y-93366666D02*
X109616666Y-93366666D01*
X109716666Y-93400000D01*
X109783333Y-93466666D01*
X109816666Y-93566666D01*
X109816666Y-93633333D01*
X109816666Y-92666666D02*
X109816666Y-93066666D01*
X109816666Y-92866666D02*
X109116666Y-92866666D01*
X109216666Y-92933333D01*
X109283333Y-93000000D01*
X109316666Y-93066666D01*
X109816666Y-92000000D02*
X109816666Y-92400000D01*
X109816666Y-92200000D02*
X109116666Y-92200000D01*
X109216666Y-92266666D01*
X109283333Y-92333333D01*
X109316666Y-92400000D01*
%TO.C,C10*%
X139950000Y-107750000D02*
X139916666Y-107783333D01*
X139816666Y-107816666D01*
X139750000Y-107816666D01*
X139650000Y-107783333D01*
X139583333Y-107716666D01*
X139550000Y-107650000D01*
X139516666Y-107516666D01*
X139516666Y-107416666D01*
X139550000Y-107283333D01*
X139583333Y-107216666D01*
X139650000Y-107150000D01*
X139750000Y-107116666D01*
X139816666Y-107116666D01*
X139916666Y-107150000D01*
X139950000Y-107183333D01*
X140616666Y-107816666D02*
X140216666Y-107816666D01*
X140416666Y-107816666D02*
X140416666Y-107116666D01*
X140350000Y-107216666D01*
X140283333Y-107283333D01*
X140216666Y-107316666D01*
X141050000Y-107116666D02*
X141116666Y-107116666D01*
X141183333Y-107150000D01*
X141216666Y-107183333D01*
X141250000Y-107250000D01*
X141283333Y-107383333D01*
X141283333Y-107550000D01*
X141250000Y-107683333D01*
X141216666Y-107750000D01*
X141183333Y-107783333D01*
X141116666Y-107816666D01*
X141050000Y-107816666D01*
X140983333Y-107783333D01*
X140950000Y-107750000D01*
X140916666Y-107683333D01*
X140883333Y-107550000D01*
X140883333Y-107383333D01*
X140916666Y-107250000D01*
X140950000Y-107183333D01*
X140983333Y-107150000D01*
X141050000Y-107116666D01*
%TO.C,C7*%
X117983333Y-79875000D02*
X117950000Y-79908333D01*
X117850000Y-79941666D01*
X117783333Y-79941666D01*
X117683333Y-79908333D01*
X117616666Y-79841666D01*
X117583333Y-79775000D01*
X117550000Y-79641666D01*
X117550000Y-79541666D01*
X117583333Y-79408333D01*
X117616666Y-79341666D01*
X117683333Y-79275000D01*
X117783333Y-79241666D01*
X117850000Y-79241666D01*
X117950000Y-79275000D01*
X117983333Y-79308333D01*
X118216666Y-79241666D02*
X118683333Y-79241666D01*
X118383333Y-79941666D01*
%TO.C,C5*%
X137783333Y-97550000D02*
X137750000Y-97583333D01*
X137650000Y-97616666D01*
X137583333Y-97616666D01*
X137483333Y-97583333D01*
X137416666Y-97516666D01*
X137383333Y-97450000D01*
X137350000Y-97316666D01*
X137350000Y-97216666D01*
X137383333Y-97083333D01*
X137416666Y-97016666D01*
X137483333Y-96950000D01*
X137583333Y-96916666D01*
X137650000Y-96916666D01*
X137750000Y-96950000D01*
X137783333Y-96983333D01*
X138416666Y-96916666D02*
X138083333Y-96916666D01*
X138050000Y-97250000D01*
X138083333Y-97216666D01*
X138150000Y-97183333D01*
X138316666Y-97183333D01*
X138383333Y-97216666D01*
X138416666Y-97250000D01*
X138450000Y-97316666D01*
X138450000Y-97483333D01*
X138416666Y-97550000D01*
X138383333Y-97583333D01*
X138316666Y-97616666D01*
X138150000Y-97616666D01*
X138083333Y-97583333D01*
X138050000Y-97550000D01*
%TO.C,R5*%
X102883333Y-107716666D02*
X102650000Y-107383333D01*
X102483333Y-107716666D02*
X102483333Y-107016666D01*
X102750000Y-107016666D01*
X102816666Y-107050000D01*
X102850000Y-107083333D01*
X102883333Y-107150000D01*
X102883333Y-107250000D01*
X102850000Y-107316666D01*
X102816666Y-107350000D01*
X102750000Y-107383333D01*
X102483333Y-107383333D01*
X103516666Y-107016666D02*
X103183333Y-107016666D01*
X103150000Y-107350000D01*
X103183333Y-107316666D01*
X103250000Y-107283333D01*
X103416666Y-107283333D01*
X103483333Y-107316666D01*
X103516666Y-107350000D01*
X103550000Y-107416666D01*
X103550000Y-107583333D01*
X103516666Y-107650000D01*
X103483333Y-107683333D01*
X103416666Y-107716666D01*
X103250000Y-107716666D01*
X103183333Y-107683333D01*
X103150000Y-107650000D01*
%TO.C,R6*%
X143983333Y-139816666D02*
X143750000Y-139483333D01*
X143583333Y-139816666D02*
X143583333Y-139116666D01*
X143850000Y-139116666D01*
X143916666Y-139150000D01*
X143950000Y-139183333D01*
X143983333Y-139250000D01*
X143983333Y-139350000D01*
X143950000Y-139416666D01*
X143916666Y-139450000D01*
X143850000Y-139483333D01*
X143583333Y-139483333D01*
X144583333Y-139116666D02*
X144450000Y-139116666D01*
X144383333Y-139150000D01*
X144350000Y-139183333D01*
X144283333Y-139283333D01*
X144250000Y-139416666D01*
X144250000Y-139683333D01*
X144283333Y-139750000D01*
X144316666Y-139783333D01*
X144383333Y-139816666D01*
X144516666Y-139816666D01*
X144583333Y-139783333D01*
X144616666Y-139750000D01*
X144650000Y-139683333D01*
X144650000Y-139516666D01*
X144616666Y-139450000D01*
X144583333Y-139416666D01*
X144516666Y-139383333D01*
X144383333Y-139383333D01*
X144316666Y-139416666D01*
X144283333Y-139450000D01*
X144250000Y-139516666D01*
%TO.C,R8*%
X119558333Y-125416666D02*
X119325000Y-125083333D01*
X119158333Y-125416666D02*
X119158333Y-124716666D01*
X119425000Y-124716666D01*
X119491666Y-124750000D01*
X119525000Y-124783333D01*
X119558333Y-124850000D01*
X119558333Y-124950000D01*
X119525000Y-125016666D01*
X119491666Y-125050000D01*
X119425000Y-125083333D01*
X119158333Y-125083333D01*
X119958333Y-125016666D02*
X119891666Y-124983333D01*
X119858333Y-124950000D01*
X119825000Y-124883333D01*
X119825000Y-124850000D01*
X119858333Y-124783333D01*
X119891666Y-124750000D01*
X119958333Y-124716666D01*
X120091666Y-124716666D01*
X120158333Y-124750000D01*
X120191666Y-124783333D01*
X120225000Y-124850000D01*
X120225000Y-124883333D01*
X120191666Y-124950000D01*
X120158333Y-124983333D01*
X120091666Y-125016666D01*
X119958333Y-125016666D01*
X119891666Y-125050000D01*
X119858333Y-125083333D01*
X119825000Y-125150000D01*
X119825000Y-125283333D01*
X119858333Y-125350000D01*
X119891666Y-125383333D01*
X119958333Y-125416666D01*
X120091666Y-125416666D01*
X120158333Y-125383333D01*
X120191666Y-125350000D01*
X120225000Y-125283333D01*
X120225000Y-125150000D01*
X120191666Y-125083333D01*
X120158333Y-125050000D01*
X120091666Y-125016666D01*
%TO.C,U5*%
X116416666Y-98533333D02*
X116983333Y-98533333D01*
X117050000Y-98500000D01*
X117083333Y-98466666D01*
X117116666Y-98400000D01*
X117116666Y-98266666D01*
X117083333Y-98200000D01*
X117050000Y-98166666D01*
X116983333Y-98133333D01*
X116416666Y-98133333D01*
X116416666Y-97466666D02*
X116416666Y-97800000D01*
X116750000Y-97833333D01*
X116716666Y-97800000D01*
X116683333Y-97733333D01*
X116683333Y-97566666D01*
X116716666Y-97500000D01*
X116750000Y-97466666D01*
X116816666Y-97433333D01*
X116983333Y-97433333D01*
X117050000Y-97466666D01*
X117083333Y-97500000D01*
X117116666Y-97566666D01*
X117116666Y-97733333D01*
X117083333Y-97800000D01*
X117050000Y-97833333D01*
%TO.C,U6*%
X168866666Y-137316666D02*
X168866666Y-137883333D01*
X168900000Y-137950000D01*
X168933333Y-137983333D01*
X169000000Y-138016666D01*
X169133333Y-138016666D01*
X169200000Y-137983333D01*
X169233333Y-137950000D01*
X169266666Y-137883333D01*
X169266666Y-137316666D01*
X169900000Y-137316666D02*
X169766666Y-137316666D01*
X169700000Y-137350000D01*
X169666666Y-137383333D01*
X169600000Y-137483333D01*
X169566666Y-137616666D01*
X169566666Y-137883333D01*
X169600000Y-137950000D01*
X169633333Y-137983333D01*
X169700000Y-138016666D01*
X169833333Y-138016666D01*
X169900000Y-137983333D01*
X169933333Y-137950000D01*
X169966666Y-137883333D01*
X169966666Y-137716666D01*
X169933333Y-137650000D01*
X169900000Y-137616666D01*
X169833333Y-137583333D01*
X169700000Y-137583333D01*
X169633333Y-137616666D01*
X169600000Y-137650000D01*
X169566666Y-137716666D01*
%TO.C,D5*%
X122133333Y-142966666D02*
X122133333Y-142266666D01*
X122300000Y-142266666D01*
X122400000Y-142300000D01*
X122466666Y-142366666D01*
X122500000Y-142433333D01*
X122533333Y-142566666D01*
X122533333Y-142666666D01*
X122500000Y-142800000D01*
X122466666Y-142866666D01*
X122400000Y-142933333D01*
X122300000Y-142966666D01*
X122133333Y-142966666D01*
X123166666Y-142266666D02*
X122833333Y-142266666D01*
X122800000Y-142600000D01*
X122833333Y-142566666D01*
X122900000Y-142533333D01*
X123066666Y-142533333D01*
X123133333Y-142566666D01*
X123166666Y-142600000D01*
X123200000Y-142666666D01*
X123200000Y-142833333D01*
X123166666Y-142900000D01*
X123133333Y-142933333D01*
X123066666Y-142966666D01*
X122900000Y-142966666D01*
X122833333Y-142933333D01*
X122800000Y-142900000D01*
%TO.C,D3*%
X132983333Y-88141666D02*
X132983333Y-87441666D01*
X133150000Y-87441666D01*
X133250000Y-87475000D01*
X133316666Y-87541666D01*
X133350000Y-87608333D01*
X133383333Y-87741666D01*
X133383333Y-87841666D01*
X133350000Y-87975000D01*
X133316666Y-88041666D01*
X133250000Y-88108333D01*
X133150000Y-88141666D01*
X132983333Y-88141666D01*
X133616666Y-87441666D02*
X134050000Y-87441666D01*
X133816666Y-87708333D01*
X133916666Y-87708333D01*
X133983333Y-87741666D01*
X134016666Y-87775000D01*
X134050000Y-87841666D01*
X134050000Y-88008333D01*
X134016666Y-88075000D01*
X133983333Y-88108333D01*
X133916666Y-88141666D01*
X133716666Y-88141666D01*
X133650000Y-88108333D01*
X133616666Y-88075000D01*
%TO.C,R31*%
X119225000Y-120616666D02*
X118991666Y-120283333D01*
X118825000Y-120616666D02*
X118825000Y-119916666D01*
X119091666Y-119916666D01*
X119158333Y-119950000D01*
X119191666Y-119983333D01*
X119225000Y-120050000D01*
X119225000Y-120150000D01*
X119191666Y-120216666D01*
X119158333Y-120250000D01*
X119091666Y-120283333D01*
X118825000Y-120283333D01*
X119458333Y-119916666D02*
X119891666Y-119916666D01*
X119658333Y-120183333D01*
X119758333Y-120183333D01*
X119825000Y-120216666D01*
X119858333Y-120250000D01*
X119891666Y-120316666D01*
X119891666Y-120483333D01*
X119858333Y-120550000D01*
X119825000Y-120583333D01*
X119758333Y-120616666D01*
X119558333Y-120616666D01*
X119491666Y-120583333D01*
X119458333Y-120550000D01*
X120558333Y-120616666D02*
X120158333Y-120616666D01*
X120358333Y-120616666D02*
X120358333Y-119916666D01*
X120291666Y-120016666D01*
X120225000Y-120083333D01*
X120158333Y-120116666D01*
%TO.C,D10*%
X144550000Y-97316666D02*
X144550000Y-96616666D01*
X144716666Y-96616666D01*
X144816666Y-96650000D01*
X144883333Y-96716666D01*
X144916666Y-96783333D01*
X144950000Y-96916666D01*
X144950000Y-97016666D01*
X144916666Y-97150000D01*
X144883333Y-97216666D01*
X144816666Y-97283333D01*
X144716666Y-97316666D01*
X144550000Y-97316666D01*
X145616666Y-97316666D02*
X145216666Y-97316666D01*
X145416666Y-97316666D02*
X145416666Y-96616666D01*
X145350000Y-96716666D01*
X145283333Y-96783333D01*
X145216666Y-96816666D01*
X146050000Y-96616666D02*
X146116666Y-96616666D01*
X146183333Y-96650000D01*
X146216666Y-96683333D01*
X146250000Y-96750000D01*
X146283333Y-96883333D01*
X146283333Y-97050000D01*
X146250000Y-97183333D01*
X146216666Y-97250000D01*
X146183333Y-97283333D01*
X146116666Y-97316666D01*
X146050000Y-97316666D01*
X145983333Y-97283333D01*
X145950000Y-97250000D01*
X145916666Y-97183333D01*
X145883333Y-97050000D01*
X145883333Y-96883333D01*
X145916666Y-96750000D01*
X145950000Y-96683333D01*
X145983333Y-96650000D01*
X146050000Y-96616666D01*
%TO.C,R29*%
X152350000Y-89116666D02*
X152116666Y-88783333D01*
X151950000Y-89116666D02*
X151950000Y-88416666D01*
X152216666Y-88416666D01*
X152283333Y-88450000D01*
X152316666Y-88483333D01*
X152350000Y-88550000D01*
X152350000Y-88650000D01*
X152316666Y-88716666D01*
X152283333Y-88750000D01*
X152216666Y-88783333D01*
X151950000Y-88783333D01*
X152616666Y-88483333D02*
X152650000Y-88450000D01*
X152716666Y-88416666D01*
X152883333Y-88416666D01*
X152950000Y-88450000D01*
X152983333Y-88483333D01*
X153016666Y-88550000D01*
X153016666Y-88616666D01*
X152983333Y-88716666D01*
X152583333Y-89116666D01*
X153016666Y-89116666D01*
X153350000Y-89116666D02*
X153483333Y-89116666D01*
X153550000Y-89083333D01*
X153583333Y-89050000D01*
X153650000Y-88950000D01*
X153683333Y-88816666D01*
X153683333Y-88550000D01*
X153650000Y-88483333D01*
X153616666Y-88450000D01*
X153550000Y-88416666D01*
X153416666Y-88416666D01*
X153350000Y-88450000D01*
X153316666Y-88483333D01*
X153283333Y-88550000D01*
X153283333Y-88716666D01*
X153316666Y-88783333D01*
X153350000Y-88816666D01*
X153416666Y-88850000D01*
X153550000Y-88850000D01*
X153616666Y-88816666D01*
X153650000Y-88783333D01*
X153683333Y-88716666D01*
%TO.C,R3*%
X140083333Y-94916666D02*
X139850000Y-94583333D01*
X139683333Y-94916666D02*
X139683333Y-94216666D01*
X139950000Y-94216666D01*
X140016666Y-94250000D01*
X140050000Y-94283333D01*
X140083333Y-94350000D01*
X140083333Y-94450000D01*
X140050000Y-94516666D01*
X140016666Y-94550000D01*
X139950000Y-94583333D01*
X139683333Y-94583333D01*
X140316666Y-94216666D02*
X140750000Y-94216666D01*
X140516666Y-94483333D01*
X140616666Y-94483333D01*
X140683333Y-94516666D01*
X140716666Y-94550000D01*
X140750000Y-94616666D01*
X140750000Y-94783333D01*
X140716666Y-94850000D01*
X140683333Y-94883333D01*
X140616666Y-94916666D01*
X140416666Y-94916666D01*
X140350000Y-94883333D01*
X140316666Y-94850000D01*
%TO.C,R7*%
X125533333Y-138766666D02*
X125300000Y-138433333D01*
X125133333Y-138766666D02*
X125133333Y-138066666D01*
X125400000Y-138066666D01*
X125466666Y-138100000D01*
X125500000Y-138133333D01*
X125533333Y-138200000D01*
X125533333Y-138300000D01*
X125500000Y-138366666D01*
X125466666Y-138400000D01*
X125400000Y-138433333D01*
X125133333Y-138433333D01*
X125766666Y-138066666D02*
X126233333Y-138066666D01*
X125933333Y-138766666D01*
%TO.C,C6*%
X139983333Y-106250000D02*
X139950000Y-106283333D01*
X139850000Y-106316666D01*
X139783333Y-106316666D01*
X139683333Y-106283333D01*
X139616666Y-106216666D01*
X139583333Y-106150000D01*
X139550000Y-106016666D01*
X139550000Y-105916666D01*
X139583333Y-105783333D01*
X139616666Y-105716666D01*
X139683333Y-105650000D01*
X139783333Y-105616666D01*
X139850000Y-105616666D01*
X139950000Y-105650000D01*
X139983333Y-105683333D01*
X140583333Y-105616666D02*
X140450000Y-105616666D01*
X140383333Y-105650000D01*
X140350000Y-105683333D01*
X140283333Y-105783333D01*
X140250000Y-105916666D01*
X140250000Y-106183333D01*
X140283333Y-106250000D01*
X140316666Y-106283333D01*
X140383333Y-106316666D01*
X140516666Y-106316666D01*
X140583333Y-106283333D01*
X140616666Y-106250000D01*
X140650000Y-106183333D01*
X140650000Y-106016666D01*
X140616666Y-105950000D01*
X140583333Y-105916666D01*
X140516666Y-105883333D01*
X140383333Y-105883333D01*
X140316666Y-105916666D01*
X140283333Y-105950000D01*
X140250000Y-106016666D01*
%TO.C,D1*%
X114083333Y-109916666D02*
X114083333Y-109216666D01*
X114250000Y-109216666D01*
X114350000Y-109250000D01*
X114416666Y-109316666D01*
X114450000Y-109383333D01*
X114483333Y-109516666D01*
X114483333Y-109616666D01*
X114450000Y-109750000D01*
X114416666Y-109816666D01*
X114350000Y-109883333D01*
X114250000Y-109916666D01*
X114083333Y-109916666D01*
X115150000Y-109916666D02*
X114750000Y-109916666D01*
X114950000Y-109916666D02*
X114950000Y-109216666D01*
X114883333Y-109316666D01*
X114816666Y-109383333D01*
X114750000Y-109416666D01*
%TO.C,D2*%
X125183333Y-142966666D02*
X125183333Y-142266666D01*
X125350000Y-142266666D01*
X125450000Y-142300000D01*
X125516666Y-142366666D01*
X125550000Y-142433333D01*
X125583333Y-142566666D01*
X125583333Y-142666666D01*
X125550000Y-142800000D01*
X125516666Y-142866666D01*
X125450000Y-142933333D01*
X125350000Y-142966666D01*
X125183333Y-142966666D01*
X125850000Y-142333333D02*
X125883333Y-142300000D01*
X125950000Y-142266666D01*
X126116666Y-142266666D01*
X126183333Y-142300000D01*
X126216666Y-142333333D01*
X126250000Y-142400000D01*
X126250000Y-142466666D01*
X126216666Y-142566666D01*
X125816666Y-142966666D01*
X126250000Y-142966666D01*
%TO.C,R26*%
X184816666Y-85150000D02*
X184483333Y-85383333D01*
X184816666Y-85550000D02*
X184116666Y-85550000D01*
X184116666Y-85283333D01*
X184150000Y-85216666D01*
X184183333Y-85183333D01*
X184250000Y-85150000D01*
X184350000Y-85150000D01*
X184416666Y-85183333D01*
X184450000Y-85216666D01*
X184483333Y-85283333D01*
X184483333Y-85550000D01*
X184183333Y-84883333D02*
X184150000Y-84850000D01*
X184116666Y-84783333D01*
X184116666Y-84616666D01*
X184150000Y-84550000D01*
X184183333Y-84516666D01*
X184250000Y-84483333D01*
X184316666Y-84483333D01*
X184416666Y-84516666D01*
X184816666Y-84916666D01*
X184816666Y-84483333D01*
X184116666Y-83883333D02*
X184116666Y-84016666D01*
X184150000Y-84083333D01*
X184183333Y-84116666D01*
X184283333Y-84183333D01*
X184416666Y-84216666D01*
X184683333Y-84216666D01*
X184750000Y-84183333D01*
X184783333Y-84150000D01*
X184816666Y-84083333D01*
X184816666Y-83950000D01*
X184783333Y-83883333D01*
X184750000Y-83850000D01*
X184683333Y-83816666D01*
X184516666Y-83816666D01*
X184450000Y-83850000D01*
X184416666Y-83883333D01*
X184383333Y-83950000D01*
X184383333Y-84083333D01*
X184416666Y-84150000D01*
X184450000Y-84183333D01*
X184516666Y-84216666D01*
%TO.C,C21*%
X173450000Y-134250000D02*
X173416666Y-134283333D01*
X173316666Y-134316666D01*
X173250000Y-134316666D01*
X173150000Y-134283333D01*
X173083333Y-134216666D01*
X173050000Y-134150000D01*
X173016666Y-134016666D01*
X173016666Y-133916666D01*
X173050000Y-133783333D01*
X173083333Y-133716666D01*
X173150000Y-133650000D01*
X173250000Y-133616666D01*
X173316666Y-133616666D01*
X173416666Y-133650000D01*
X173450000Y-133683333D01*
X173716666Y-133683333D02*
X173750000Y-133650000D01*
X173816666Y-133616666D01*
X173983333Y-133616666D01*
X174050000Y-133650000D01*
X174083333Y-133683333D01*
X174116666Y-133750000D01*
X174116666Y-133816666D01*
X174083333Y-133916666D01*
X173683333Y-134316666D01*
X174116666Y-134316666D01*
X174783333Y-134316666D02*
X174383333Y-134316666D01*
X174583333Y-134316666D02*
X174583333Y-133616666D01*
X174516666Y-133716666D01*
X174450000Y-133783333D01*
X174383333Y-133816666D01*
%TO.C,Y2*%
X133066666Y-104383333D02*
X133066666Y-104716666D01*
X132833333Y-104016666D02*
X133066666Y-104383333D01*
X133300000Y-104016666D01*
X133500000Y-104083333D02*
X133533333Y-104050000D01*
X133600000Y-104016666D01*
X133766666Y-104016666D01*
X133833333Y-104050000D01*
X133866666Y-104083333D01*
X133900000Y-104150000D01*
X133900000Y-104216666D01*
X133866666Y-104316666D01*
X133466666Y-104716666D01*
X133900000Y-104716666D01*
%TO.C,R13*%
X162150000Y-123516666D02*
X161916666Y-123183333D01*
X161750000Y-123516666D02*
X161750000Y-122816666D01*
X162016666Y-122816666D01*
X162083333Y-122850000D01*
X162116666Y-122883333D01*
X162150000Y-122950000D01*
X162150000Y-123050000D01*
X162116666Y-123116666D01*
X162083333Y-123150000D01*
X162016666Y-123183333D01*
X161750000Y-123183333D01*
X162816666Y-123516666D02*
X162416666Y-123516666D01*
X162616666Y-123516666D02*
X162616666Y-122816666D01*
X162550000Y-122916666D01*
X162483333Y-122983333D01*
X162416666Y-123016666D01*
X163050000Y-122816666D02*
X163483333Y-122816666D01*
X163250000Y-123083333D01*
X163350000Y-123083333D01*
X163416666Y-123116666D01*
X163450000Y-123150000D01*
X163483333Y-123216666D01*
X163483333Y-123383333D01*
X163450000Y-123450000D01*
X163416666Y-123483333D01*
X163350000Y-123516666D01*
X163150000Y-123516666D01*
X163083333Y-123483333D01*
X163050000Y-123450000D01*
%TO.C,R4*%
X140083333Y-93316666D02*
X139850000Y-92983333D01*
X139683333Y-93316666D02*
X139683333Y-92616666D01*
X139950000Y-92616666D01*
X140016666Y-92650000D01*
X140050000Y-92683333D01*
X140083333Y-92750000D01*
X140083333Y-92850000D01*
X140050000Y-92916666D01*
X140016666Y-92950000D01*
X139950000Y-92983333D01*
X139683333Y-92983333D01*
X140683333Y-92850000D02*
X140683333Y-93316666D01*
X140516666Y-92583333D02*
X140350000Y-93083333D01*
X140783333Y-93083333D01*
%TO.C,Q1*%
X153233333Y-91883333D02*
X153166666Y-91850000D01*
X153100000Y-91783333D01*
X153000000Y-91683333D01*
X152933333Y-91650000D01*
X152866666Y-91650000D01*
X152900000Y-91816666D02*
X152833333Y-91783333D01*
X152766666Y-91716666D01*
X152733333Y-91583333D01*
X152733333Y-91350000D01*
X152766666Y-91216666D01*
X152833333Y-91150000D01*
X152900000Y-91116666D01*
X153033333Y-91116666D01*
X153100000Y-91150000D01*
X153166666Y-91216666D01*
X153200000Y-91350000D01*
X153200000Y-91583333D01*
X153166666Y-91716666D01*
X153100000Y-91783333D01*
X153033333Y-91816666D01*
X152900000Y-91816666D01*
X153866666Y-91816666D02*
X153466666Y-91816666D01*
X153666666Y-91816666D02*
X153666666Y-91116666D01*
X153600000Y-91216666D01*
X153533333Y-91283333D01*
X153466666Y-91316666D01*
%TO.C,R11*%
X189116666Y-139050000D02*
X188783333Y-139283333D01*
X189116666Y-139450000D02*
X188416666Y-139450000D01*
X188416666Y-139183333D01*
X188450000Y-139116666D01*
X188483333Y-139083333D01*
X188550000Y-139050000D01*
X188650000Y-139050000D01*
X188716666Y-139083333D01*
X188750000Y-139116666D01*
X188783333Y-139183333D01*
X188783333Y-139450000D01*
X189116666Y-138383333D02*
X189116666Y-138783333D01*
X189116666Y-138583333D02*
X188416666Y-138583333D01*
X188516666Y-138650000D01*
X188583333Y-138716666D01*
X188616666Y-138783333D01*
X189116666Y-137716666D02*
X189116666Y-138116666D01*
X189116666Y-137916666D02*
X188416666Y-137916666D01*
X188516666Y-137983333D01*
X188583333Y-138050000D01*
X188616666Y-138116666D01*
%TO.C,R10*%
X186516666Y-139050000D02*
X186183333Y-139283333D01*
X186516666Y-139450000D02*
X185816666Y-139450000D01*
X185816666Y-139183333D01*
X185850000Y-139116666D01*
X185883333Y-139083333D01*
X185950000Y-139050000D01*
X186050000Y-139050000D01*
X186116666Y-139083333D01*
X186150000Y-139116666D01*
X186183333Y-139183333D01*
X186183333Y-139450000D01*
X186516666Y-138383333D02*
X186516666Y-138783333D01*
X186516666Y-138583333D02*
X185816666Y-138583333D01*
X185916666Y-138650000D01*
X185983333Y-138716666D01*
X186016666Y-138783333D01*
X185816666Y-137950000D02*
X185816666Y-137883333D01*
X185850000Y-137816666D01*
X185883333Y-137783333D01*
X185950000Y-137750000D01*
X186083333Y-137716666D01*
X186250000Y-137716666D01*
X186383333Y-137750000D01*
X186450000Y-137783333D01*
X186483333Y-137816666D01*
X186516666Y-137883333D01*
X186516666Y-137950000D01*
X186483333Y-138016666D01*
X186450000Y-138050000D01*
X186383333Y-138083333D01*
X186250000Y-138116666D01*
X186083333Y-138116666D01*
X185950000Y-138083333D01*
X185883333Y-138050000D01*
X185850000Y-138016666D01*
X185816666Y-137950000D01*
%TO.C,C9*%
X128183333Y-81150000D02*
X128150000Y-81183333D01*
X128050000Y-81216666D01*
X127983333Y-81216666D01*
X127883333Y-81183333D01*
X127816666Y-81116666D01*
X127783333Y-81050000D01*
X127750000Y-80916666D01*
X127750000Y-80816666D01*
X127783333Y-80683333D01*
X127816666Y-80616666D01*
X127883333Y-80550000D01*
X127983333Y-80516666D01*
X128050000Y-80516666D01*
X128150000Y-80550000D01*
X128183333Y-80583333D01*
X128516666Y-81216666D02*
X128650000Y-81216666D01*
X128716666Y-81183333D01*
X128750000Y-81150000D01*
X128816666Y-81050000D01*
X128850000Y-80916666D01*
X128850000Y-80650000D01*
X128816666Y-80583333D01*
X128783333Y-80550000D01*
X128716666Y-80516666D01*
X128583333Y-80516666D01*
X128516666Y-80550000D01*
X128483333Y-80583333D01*
X128450000Y-80650000D01*
X128450000Y-80816666D01*
X128483333Y-80883333D01*
X128516666Y-80916666D01*
X128583333Y-80950000D01*
X128716666Y-80950000D01*
X128783333Y-80916666D01*
X128816666Y-80883333D01*
X128850000Y-80816666D01*
%TO.C,R1*%
X118383333Y-141716666D02*
X118150000Y-141383333D01*
X117983333Y-141716666D02*
X117983333Y-141016666D01*
X118250000Y-141016666D01*
X118316666Y-141050000D01*
X118350000Y-141083333D01*
X118383333Y-141150000D01*
X118383333Y-141250000D01*
X118350000Y-141316666D01*
X118316666Y-141350000D01*
X118250000Y-141383333D01*
X117983333Y-141383333D01*
X119050000Y-141716666D02*
X118650000Y-141716666D01*
X118850000Y-141716666D02*
X118850000Y-141016666D01*
X118783333Y-141116666D01*
X118716666Y-141183333D01*
X118650000Y-141216666D01*
%TO.C,C12*%
X115750000Y-134700000D02*
X115783333Y-134733333D01*
X115816666Y-134833333D01*
X115816666Y-134900000D01*
X115783333Y-135000000D01*
X115716666Y-135066666D01*
X115650000Y-135100000D01*
X115516666Y-135133333D01*
X115416666Y-135133333D01*
X115283333Y-135100000D01*
X115216666Y-135066666D01*
X115150000Y-135000000D01*
X115116666Y-134900000D01*
X115116666Y-134833333D01*
X115150000Y-134733333D01*
X115183333Y-134700000D01*
X115816666Y-134033333D02*
X115816666Y-134433333D01*
X115816666Y-134233333D02*
X115116666Y-134233333D01*
X115216666Y-134300000D01*
X115283333Y-134366666D01*
X115316666Y-134433333D01*
X115183333Y-133766666D02*
X115150000Y-133733333D01*
X115116666Y-133666666D01*
X115116666Y-133500000D01*
X115150000Y-133433333D01*
X115183333Y-133400000D01*
X115250000Y-133366666D01*
X115316666Y-133366666D01*
X115416666Y-133400000D01*
X115816666Y-133800000D01*
X115816666Y-133366666D01*
%TO.C,L2*%
X144183333Y-77341666D02*
X143850000Y-77341666D01*
X143850000Y-76641666D01*
X144383333Y-76708333D02*
X144416666Y-76675000D01*
X144483333Y-76641666D01*
X144650000Y-76641666D01*
X144716666Y-76675000D01*
X144750000Y-76708333D01*
X144783333Y-76775000D01*
X144783333Y-76841666D01*
X144750000Y-76941666D01*
X144350000Y-77341666D01*
X144783333Y-77341666D01*
%TO.C,U9*%
X176466666Y-82416666D02*
X176466666Y-82983333D01*
X176500000Y-83050000D01*
X176533333Y-83083333D01*
X176600000Y-83116666D01*
X176733333Y-83116666D01*
X176800000Y-83083333D01*
X176833333Y-83050000D01*
X176866666Y-82983333D01*
X176866666Y-82416666D01*
X177233333Y-83116666D02*
X177366666Y-83116666D01*
X177433333Y-83083333D01*
X177466666Y-83050000D01*
X177533333Y-82950000D01*
X177566666Y-82816666D01*
X177566666Y-82550000D01*
X177533333Y-82483333D01*
X177500000Y-82450000D01*
X177433333Y-82416666D01*
X177300000Y-82416666D01*
X177233333Y-82450000D01*
X177200000Y-82483333D01*
X177166666Y-82550000D01*
X177166666Y-82716666D01*
X177200000Y-82783333D01*
X177233333Y-82816666D01*
X177300000Y-82850000D01*
X177433333Y-82850000D01*
X177500000Y-82816666D01*
X177533333Y-82783333D01*
X177566666Y-82716666D01*
%TO.C,J7*%
X127466666Y-149016666D02*
X127466666Y-149516666D01*
X127433333Y-149616666D01*
X127366666Y-149683333D01*
X127266666Y-149716666D01*
X127200000Y-149716666D01*
X127733333Y-149016666D02*
X128200000Y-149016666D01*
X127900000Y-149716666D01*
%TO.C,TP2*%
X158016666Y-97316666D02*
X158416666Y-97316666D01*
X158216666Y-98016666D02*
X158216666Y-97316666D01*
X158650000Y-98016666D02*
X158650000Y-97316666D01*
X158916666Y-97316666D01*
X158983333Y-97350000D01*
X159016666Y-97383333D01*
X159050000Y-97450000D01*
X159050000Y-97550000D01*
X159016666Y-97616666D01*
X158983333Y-97650000D01*
X158916666Y-97683333D01*
X158650000Y-97683333D01*
X159316666Y-97383333D02*
X159350000Y-97350000D01*
X159416666Y-97316666D01*
X159583333Y-97316666D01*
X159650000Y-97350000D01*
X159683333Y-97383333D01*
X159716666Y-97450000D01*
X159716666Y-97516666D01*
X159683333Y-97616666D01*
X159283333Y-98016666D01*
X159716666Y-98016666D01*
%TO.C,J1*%
X154891666Y-103416666D02*
X154891666Y-103916666D01*
X154858333Y-104016666D01*
X154791666Y-104083333D01*
X154691666Y-104116666D01*
X154625000Y-104116666D01*
X155591666Y-104116666D02*
X155191666Y-104116666D01*
X155391666Y-104116666D02*
X155391666Y-103416666D01*
X155325000Y-103516666D01*
X155258333Y-103583333D01*
X155191666Y-103616666D01*
%TO.C,R22*%
X173416666Y-84350000D02*
X173083333Y-84583333D01*
X173416666Y-84750000D02*
X172716666Y-84750000D01*
X172716666Y-84483333D01*
X172750000Y-84416666D01*
X172783333Y-84383333D01*
X172850000Y-84350000D01*
X172950000Y-84350000D01*
X173016666Y-84383333D01*
X173050000Y-84416666D01*
X173083333Y-84483333D01*
X173083333Y-84750000D01*
X172783333Y-84083333D02*
X172750000Y-84050000D01*
X172716666Y-83983333D01*
X172716666Y-83816666D01*
X172750000Y-83750000D01*
X172783333Y-83716666D01*
X172850000Y-83683333D01*
X172916666Y-83683333D01*
X173016666Y-83716666D01*
X173416666Y-84116666D01*
X173416666Y-83683333D01*
X172783333Y-83416666D02*
X172750000Y-83383333D01*
X172716666Y-83316666D01*
X172716666Y-83150000D01*
X172750000Y-83083333D01*
X172783333Y-83050000D01*
X172850000Y-83016666D01*
X172916666Y-83016666D01*
X173016666Y-83050000D01*
X173416666Y-83450000D01*
X173416666Y-83016666D01*
%TO.C,C2*%
X117083333Y-118000000D02*
X117050000Y-118033333D01*
X116950000Y-118066666D01*
X116883333Y-118066666D01*
X116783333Y-118033333D01*
X116716666Y-117966666D01*
X116683333Y-117900000D01*
X116650000Y-117766666D01*
X116650000Y-117666666D01*
X116683333Y-117533333D01*
X116716666Y-117466666D01*
X116783333Y-117400000D01*
X116883333Y-117366666D01*
X116950000Y-117366666D01*
X117050000Y-117400000D01*
X117083333Y-117433333D01*
X117350000Y-117433333D02*
X117383333Y-117400000D01*
X117450000Y-117366666D01*
X117616666Y-117366666D01*
X117683333Y-117400000D01*
X117716666Y-117433333D01*
X117750000Y-117500000D01*
X117750000Y-117566666D01*
X117716666Y-117666666D01*
X117316666Y-118066666D01*
X117750000Y-118066666D01*
%TO.C,C22*%
X164950000Y-131750000D02*
X164916666Y-131783333D01*
X164816666Y-131816666D01*
X164750000Y-131816666D01*
X164650000Y-131783333D01*
X164583333Y-131716666D01*
X164550000Y-131650000D01*
X164516666Y-131516666D01*
X164516666Y-131416666D01*
X164550000Y-131283333D01*
X164583333Y-131216666D01*
X164650000Y-131150000D01*
X164750000Y-131116666D01*
X164816666Y-131116666D01*
X164916666Y-131150000D01*
X164950000Y-131183333D01*
X165216666Y-131183333D02*
X165250000Y-131150000D01*
X165316666Y-131116666D01*
X165483333Y-131116666D01*
X165550000Y-131150000D01*
X165583333Y-131183333D01*
X165616666Y-131250000D01*
X165616666Y-131316666D01*
X165583333Y-131416666D01*
X165183333Y-131816666D01*
X165616666Y-131816666D01*
X165883333Y-131183333D02*
X165916666Y-131150000D01*
X165983333Y-131116666D01*
X166150000Y-131116666D01*
X166216666Y-131150000D01*
X166250000Y-131183333D01*
X166283333Y-131250000D01*
X166283333Y-131316666D01*
X166250000Y-131416666D01*
X165850000Y-131816666D01*
X166283333Y-131816666D01*
%TO.C,C17*%
X121800000Y-134700000D02*
X121833333Y-134733333D01*
X121866666Y-134833333D01*
X121866666Y-134900000D01*
X121833333Y-135000000D01*
X121766666Y-135066666D01*
X121700000Y-135100000D01*
X121566666Y-135133333D01*
X121466666Y-135133333D01*
X121333333Y-135100000D01*
X121266666Y-135066666D01*
X121200000Y-135000000D01*
X121166666Y-134900000D01*
X121166666Y-134833333D01*
X121200000Y-134733333D01*
X121233333Y-134700000D01*
X121866666Y-134033333D02*
X121866666Y-134433333D01*
X121866666Y-134233333D02*
X121166666Y-134233333D01*
X121266666Y-134300000D01*
X121333333Y-134366666D01*
X121366666Y-134433333D01*
X121166666Y-133800000D02*
X121166666Y-133333333D01*
X121866666Y-133633333D01*
%TO.C,R15*%
X146316666Y-142850000D02*
X145983333Y-143083333D01*
X146316666Y-143250000D02*
X145616666Y-143250000D01*
X145616666Y-142983333D01*
X145650000Y-142916666D01*
X145683333Y-142883333D01*
X145750000Y-142850000D01*
X145850000Y-142850000D01*
X145916666Y-142883333D01*
X145950000Y-142916666D01*
X145983333Y-142983333D01*
X145983333Y-143250000D01*
X146316666Y-142183333D02*
X146316666Y-142583333D01*
X146316666Y-142383333D02*
X145616666Y-142383333D01*
X145716666Y-142450000D01*
X145783333Y-142516666D01*
X145816666Y-142583333D01*
X145616666Y-141550000D02*
X145616666Y-141883333D01*
X145950000Y-141916666D01*
X145916666Y-141883333D01*
X145883333Y-141816666D01*
X145883333Y-141650000D01*
X145916666Y-141583333D01*
X145950000Y-141550000D01*
X146016666Y-141516666D01*
X146183333Y-141516666D01*
X146250000Y-141550000D01*
X146283333Y-141583333D01*
X146316666Y-141650000D01*
X146316666Y-141816666D01*
X146283333Y-141883333D01*
X146250000Y-141916666D01*
%TO.C,C19*%
X118750000Y-134700000D02*
X118783333Y-134733333D01*
X118816666Y-134833333D01*
X118816666Y-134900000D01*
X118783333Y-135000000D01*
X118716666Y-135066666D01*
X118650000Y-135100000D01*
X118516666Y-135133333D01*
X118416666Y-135133333D01*
X118283333Y-135100000D01*
X118216666Y-135066666D01*
X118150000Y-135000000D01*
X118116666Y-134900000D01*
X118116666Y-134833333D01*
X118150000Y-134733333D01*
X118183333Y-134700000D01*
X118816666Y-134033333D02*
X118816666Y-134433333D01*
X118816666Y-134233333D02*
X118116666Y-134233333D01*
X118216666Y-134300000D01*
X118283333Y-134366666D01*
X118316666Y-134433333D01*
X118816666Y-133700000D02*
X118816666Y-133566666D01*
X118783333Y-133500000D01*
X118750000Y-133466666D01*
X118650000Y-133400000D01*
X118516666Y-133366666D01*
X118250000Y-133366666D01*
X118183333Y-133400000D01*
X118150000Y-133433333D01*
X118116666Y-133500000D01*
X118116666Y-133633333D01*
X118150000Y-133700000D01*
X118183333Y-133733333D01*
X118250000Y-133766666D01*
X118416666Y-133766666D01*
X118483333Y-133733333D01*
X118516666Y-133700000D01*
X118550000Y-133633333D01*
X118550000Y-133500000D01*
X118516666Y-133433333D01*
X118483333Y-133400000D01*
X118416666Y-133366666D01*
%TO.C,C11*%
X145850000Y-137050000D02*
X145816666Y-137083333D01*
X145716666Y-137116666D01*
X145650000Y-137116666D01*
X145550000Y-137083333D01*
X145483333Y-137016666D01*
X145450000Y-136950000D01*
X145416666Y-136816666D01*
X145416666Y-136716666D01*
X145450000Y-136583333D01*
X145483333Y-136516666D01*
X145550000Y-136450000D01*
X145650000Y-136416666D01*
X145716666Y-136416666D01*
X145816666Y-136450000D01*
X145850000Y-136483333D01*
X146516666Y-137116666D02*
X146116666Y-137116666D01*
X146316666Y-137116666D02*
X146316666Y-136416666D01*
X146250000Y-136516666D01*
X146183333Y-136583333D01*
X146116666Y-136616666D01*
X147183333Y-137116666D02*
X146783333Y-137116666D01*
X146983333Y-137116666D02*
X146983333Y-136416666D01*
X146916666Y-136516666D01*
X146850000Y-136583333D01*
X146783333Y-136616666D01*
%TO.C,R9*%
X122433333Y-138766666D02*
X122200000Y-138433333D01*
X122033333Y-138766666D02*
X122033333Y-138066666D01*
X122300000Y-138066666D01*
X122366666Y-138100000D01*
X122400000Y-138133333D01*
X122433333Y-138200000D01*
X122433333Y-138300000D01*
X122400000Y-138366666D01*
X122366666Y-138400000D01*
X122300000Y-138433333D01*
X122033333Y-138433333D01*
X122766666Y-138766666D02*
X122900000Y-138766666D01*
X122966666Y-138733333D01*
X123000000Y-138700000D01*
X123066666Y-138600000D01*
X123100000Y-138466666D01*
X123100000Y-138200000D01*
X123066666Y-138133333D01*
X123033333Y-138100000D01*
X122966666Y-138066666D01*
X122833333Y-138066666D01*
X122766666Y-138100000D01*
X122733333Y-138133333D01*
X122700000Y-138200000D01*
X122700000Y-138366666D01*
X122733333Y-138433333D01*
X122766666Y-138466666D01*
X122833333Y-138500000D01*
X122966666Y-138500000D01*
X123033333Y-138466666D01*
X123066666Y-138433333D01*
X123100000Y-138366666D01*
%TO.C,D7*%
X179983333Y-143816666D02*
X179983333Y-143116666D01*
X180150000Y-143116666D01*
X180250000Y-143150000D01*
X180316666Y-143216666D01*
X180350000Y-143283333D01*
X180383333Y-143416666D01*
X180383333Y-143516666D01*
X180350000Y-143650000D01*
X180316666Y-143716666D01*
X180250000Y-143783333D01*
X180150000Y-143816666D01*
X179983333Y-143816666D01*
X180616666Y-143116666D02*
X181083333Y-143116666D01*
X180783333Y-143816666D01*
%TO.C,C14*%
X114250000Y-134700000D02*
X114283333Y-134733333D01*
X114316666Y-134833333D01*
X114316666Y-134900000D01*
X114283333Y-135000000D01*
X114216666Y-135066666D01*
X114150000Y-135100000D01*
X114016666Y-135133333D01*
X113916666Y-135133333D01*
X113783333Y-135100000D01*
X113716666Y-135066666D01*
X113650000Y-135000000D01*
X113616666Y-134900000D01*
X113616666Y-134833333D01*
X113650000Y-134733333D01*
X113683333Y-134700000D01*
X114316666Y-134033333D02*
X114316666Y-134433333D01*
X114316666Y-134233333D02*
X113616666Y-134233333D01*
X113716666Y-134300000D01*
X113783333Y-134366666D01*
X113816666Y-134433333D01*
X113850000Y-133433333D02*
X114316666Y-133433333D01*
X113583333Y-133600000D02*
X114083333Y-133766666D01*
X114083333Y-133333333D01*
%TO.C,U3*%
X139466666Y-115316666D02*
X139466666Y-115883333D01*
X139500000Y-115950000D01*
X139533333Y-115983333D01*
X139600000Y-116016666D01*
X139733333Y-116016666D01*
X139800000Y-115983333D01*
X139833333Y-115950000D01*
X139866666Y-115883333D01*
X139866666Y-115316666D01*
X140133333Y-115316666D02*
X140566666Y-115316666D01*
X140333333Y-115583333D01*
X140433333Y-115583333D01*
X140500000Y-115616666D01*
X140533333Y-115650000D01*
X140566666Y-115716666D01*
X140566666Y-115883333D01*
X140533333Y-115950000D01*
X140500000Y-115983333D01*
X140433333Y-116016666D01*
X140233333Y-116016666D01*
X140166666Y-115983333D01*
X140133333Y-115950000D01*
%TO.C,Y1*%
X124366666Y-114983333D02*
X124366666Y-115316666D01*
X124133333Y-114616666D02*
X124366666Y-114983333D01*
X124600000Y-114616666D01*
X125200000Y-115316666D02*
X124800000Y-115316666D01*
X125000000Y-115316666D02*
X125000000Y-114616666D01*
X124933333Y-114716666D01*
X124866666Y-114783333D01*
X124800000Y-114816666D01*
%TO.C,TP1*%
X162216666Y-97316666D02*
X162616666Y-97316666D01*
X162416666Y-98016666D02*
X162416666Y-97316666D01*
X162850000Y-98016666D02*
X162850000Y-97316666D01*
X163116666Y-97316666D01*
X163183333Y-97350000D01*
X163216666Y-97383333D01*
X163250000Y-97450000D01*
X163250000Y-97550000D01*
X163216666Y-97616666D01*
X163183333Y-97650000D01*
X163116666Y-97683333D01*
X162850000Y-97683333D01*
X163916666Y-98016666D02*
X163516666Y-98016666D01*
X163716666Y-98016666D02*
X163716666Y-97316666D01*
X163650000Y-97416666D01*
X163583333Y-97483333D01*
X163516666Y-97516666D01*
%TO.C,R25*%
X165150000Y-86416666D02*
X164916666Y-86083333D01*
X164750000Y-86416666D02*
X164750000Y-85716666D01*
X165016666Y-85716666D01*
X165083333Y-85750000D01*
X165116666Y-85783333D01*
X165150000Y-85850000D01*
X165150000Y-85950000D01*
X165116666Y-86016666D01*
X165083333Y-86050000D01*
X165016666Y-86083333D01*
X164750000Y-86083333D01*
X165416666Y-85783333D02*
X165450000Y-85750000D01*
X165516666Y-85716666D01*
X165683333Y-85716666D01*
X165750000Y-85750000D01*
X165783333Y-85783333D01*
X165816666Y-85850000D01*
X165816666Y-85916666D01*
X165783333Y-86016666D01*
X165383333Y-86416666D01*
X165816666Y-86416666D01*
X166450000Y-85716666D02*
X166116666Y-85716666D01*
X166083333Y-86050000D01*
X166116666Y-86016666D01*
X166183333Y-85983333D01*
X166350000Y-85983333D01*
X166416666Y-86016666D01*
X166450000Y-86050000D01*
X166483333Y-86116666D01*
X166483333Y-86283333D01*
X166450000Y-86350000D01*
X166416666Y-86383333D01*
X166350000Y-86416666D01*
X166183333Y-86416666D01*
X166116666Y-86383333D01*
X166083333Y-86350000D01*
%TO.C,C26*%
X181450000Y-78850000D02*
X181416666Y-78883333D01*
X181316666Y-78916666D01*
X181250000Y-78916666D01*
X181150000Y-78883333D01*
X181083333Y-78816666D01*
X181050000Y-78750000D01*
X181016666Y-78616666D01*
X181016666Y-78516666D01*
X181050000Y-78383333D01*
X181083333Y-78316666D01*
X181150000Y-78250000D01*
X181250000Y-78216666D01*
X181316666Y-78216666D01*
X181416666Y-78250000D01*
X181450000Y-78283333D01*
X181716666Y-78283333D02*
X181750000Y-78250000D01*
X181816666Y-78216666D01*
X181983333Y-78216666D01*
X182050000Y-78250000D01*
X182083333Y-78283333D01*
X182116666Y-78350000D01*
X182116666Y-78416666D01*
X182083333Y-78516666D01*
X181683333Y-78916666D01*
X182116666Y-78916666D01*
X182716666Y-78216666D02*
X182583333Y-78216666D01*
X182516666Y-78250000D01*
X182483333Y-78283333D01*
X182416666Y-78383333D01*
X182383333Y-78516666D01*
X182383333Y-78783333D01*
X182416666Y-78850000D01*
X182450000Y-78883333D01*
X182516666Y-78916666D01*
X182650000Y-78916666D01*
X182716666Y-78883333D01*
X182750000Y-78850000D01*
X182783333Y-78783333D01*
X182783333Y-78616666D01*
X182750000Y-78550000D01*
X182716666Y-78516666D01*
X182650000Y-78483333D01*
X182516666Y-78483333D01*
X182450000Y-78516666D01*
X182416666Y-78550000D01*
X182383333Y-78616666D01*
%TO.C,C25*%
X180450000Y-85175000D02*
X180483333Y-85208333D01*
X180516666Y-85308333D01*
X180516666Y-85375000D01*
X180483333Y-85475000D01*
X180416666Y-85541666D01*
X180350000Y-85575000D01*
X180216666Y-85608333D01*
X180116666Y-85608333D01*
X179983333Y-85575000D01*
X179916666Y-85541666D01*
X179850000Y-85475000D01*
X179816666Y-85375000D01*
X179816666Y-85308333D01*
X179850000Y-85208333D01*
X179883333Y-85175000D01*
X179883333Y-84908333D02*
X179850000Y-84875000D01*
X179816666Y-84808333D01*
X179816666Y-84641666D01*
X179850000Y-84575000D01*
X179883333Y-84541666D01*
X179950000Y-84508333D01*
X180016666Y-84508333D01*
X180116666Y-84541666D01*
X180516666Y-84941666D01*
X180516666Y-84508333D01*
X179816666Y-83875000D02*
X179816666Y-84208333D01*
X180150000Y-84241666D01*
X180116666Y-84208333D01*
X180083333Y-84141666D01*
X180083333Y-83975000D01*
X180116666Y-83908333D01*
X180150000Y-83875000D01*
X180216666Y-83841666D01*
X180383333Y-83841666D01*
X180450000Y-83875000D01*
X180483333Y-83908333D01*
X180516666Y-83975000D01*
X180516666Y-84141666D01*
X180483333Y-84208333D01*
X180450000Y-84241666D01*
%TO.C,C20*%
X164950000Y-134350000D02*
X164916666Y-134383333D01*
X164816666Y-134416666D01*
X164750000Y-134416666D01*
X164650000Y-134383333D01*
X164583333Y-134316666D01*
X164550000Y-134250000D01*
X164516666Y-134116666D01*
X164516666Y-134016666D01*
X164550000Y-133883333D01*
X164583333Y-133816666D01*
X164650000Y-133750000D01*
X164750000Y-133716666D01*
X164816666Y-133716666D01*
X164916666Y-133750000D01*
X164950000Y-133783333D01*
X165216666Y-133783333D02*
X165250000Y-133750000D01*
X165316666Y-133716666D01*
X165483333Y-133716666D01*
X165550000Y-133750000D01*
X165583333Y-133783333D01*
X165616666Y-133850000D01*
X165616666Y-133916666D01*
X165583333Y-134016666D01*
X165183333Y-134416666D01*
X165616666Y-134416666D01*
X166050000Y-133716666D02*
X166116666Y-133716666D01*
X166183333Y-133750000D01*
X166216666Y-133783333D01*
X166250000Y-133850000D01*
X166283333Y-133983333D01*
X166283333Y-134150000D01*
X166250000Y-134283333D01*
X166216666Y-134350000D01*
X166183333Y-134383333D01*
X166116666Y-134416666D01*
X166050000Y-134416666D01*
X165983333Y-134383333D01*
X165950000Y-134350000D01*
X165916666Y-134283333D01*
X165883333Y-134150000D01*
X165883333Y-133983333D01*
X165916666Y-133850000D01*
X165950000Y-133783333D01*
X165983333Y-133750000D01*
X166050000Y-133716666D01*
%TO.C,R2*%
X137883333Y-144116666D02*
X137650000Y-143783333D01*
X137483333Y-144116666D02*
X137483333Y-143416666D01*
X137750000Y-143416666D01*
X137816666Y-143450000D01*
X137850000Y-143483333D01*
X137883333Y-143550000D01*
X137883333Y-143650000D01*
X137850000Y-143716666D01*
X137816666Y-143750000D01*
X137750000Y-143783333D01*
X137483333Y-143783333D01*
X138150000Y-143483333D02*
X138183333Y-143450000D01*
X138250000Y-143416666D01*
X138416666Y-143416666D01*
X138483333Y-143450000D01*
X138516666Y-143483333D01*
X138550000Y-143550000D01*
X138550000Y-143616666D01*
X138516666Y-143716666D01*
X138116666Y-144116666D01*
X138550000Y-144116666D01*
%TO.C,D6*%
X113983333Y-106516666D02*
X113983333Y-105816666D01*
X114150000Y-105816666D01*
X114250000Y-105850000D01*
X114316666Y-105916666D01*
X114350000Y-105983333D01*
X114383333Y-106116666D01*
X114383333Y-106216666D01*
X114350000Y-106350000D01*
X114316666Y-106416666D01*
X114250000Y-106483333D01*
X114150000Y-106516666D01*
X113983333Y-106516666D01*
X114983333Y-105816666D02*
X114850000Y-105816666D01*
X114783333Y-105850000D01*
X114750000Y-105883333D01*
X114683333Y-105983333D01*
X114650000Y-106116666D01*
X114650000Y-106383333D01*
X114683333Y-106450000D01*
X114716666Y-106483333D01*
X114783333Y-106516666D01*
X114916666Y-106516666D01*
X114983333Y-106483333D01*
X115016666Y-106450000D01*
X115050000Y-106383333D01*
X115050000Y-106216666D01*
X115016666Y-106150000D01*
X114983333Y-106116666D01*
X114916666Y-106083333D01*
X114783333Y-106083333D01*
X114716666Y-106116666D01*
X114683333Y-106150000D01*
X114650000Y-106216666D01*
%TO.C,D9*%
X165083333Y-90816666D02*
X165083333Y-90116666D01*
X165250000Y-90116666D01*
X165350000Y-90150000D01*
X165416666Y-90216666D01*
X165450000Y-90283333D01*
X165483333Y-90416666D01*
X165483333Y-90516666D01*
X165450000Y-90650000D01*
X165416666Y-90716666D01*
X165350000Y-90783333D01*
X165250000Y-90816666D01*
X165083333Y-90816666D01*
X165816666Y-90816666D02*
X165950000Y-90816666D01*
X166016666Y-90783333D01*
X166050000Y-90750000D01*
X166116666Y-90650000D01*
X166150000Y-90516666D01*
X166150000Y-90250000D01*
X166116666Y-90183333D01*
X166083333Y-90150000D01*
X166016666Y-90116666D01*
X165883333Y-90116666D01*
X165816666Y-90150000D01*
X165783333Y-90183333D01*
X165750000Y-90250000D01*
X165750000Y-90416666D01*
X165783333Y-90483333D01*
X165816666Y-90516666D01*
X165883333Y-90550000D01*
X166016666Y-90550000D01*
X166083333Y-90516666D01*
X166116666Y-90483333D01*
X166150000Y-90416666D01*
%TO.C,J9*%
X107741666Y-122083333D02*
X108241666Y-122083333D01*
X108341666Y-122116666D01*
X108408333Y-122183333D01*
X108441666Y-122283333D01*
X108441666Y-122350000D01*
X108441666Y-121716666D02*
X108441666Y-121583333D01*
X108408333Y-121516666D01*
X108375000Y-121483333D01*
X108275000Y-121416666D01*
X108141666Y-121383333D01*
X107875000Y-121383333D01*
X107808333Y-121416666D01*
X107775000Y-121450000D01*
X107741666Y-121516666D01*
X107741666Y-121650000D01*
X107775000Y-121716666D01*
X107808333Y-121750000D01*
X107875000Y-121783333D01*
X108041666Y-121783333D01*
X108108333Y-121750000D01*
X108141666Y-121716666D01*
X108175000Y-121650000D01*
X108175000Y-121516666D01*
X108141666Y-121450000D01*
X108108333Y-121416666D01*
X108041666Y-121383333D01*
%TO.C,R17*%
X150150000Y-136916666D02*
X149916666Y-136583333D01*
X149750000Y-136916666D02*
X149750000Y-136216666D01*
X150016666Y-136216666D01*
X150083333Y-136250000D01*
X150116666Y-136283333D01*
X150150000Y-136350000D01*
X150150000Y-136450000D01*
X150116666Y-136516666D01*
X150083333Y-136550000D01*
X150016666Y-136583333D01*
X149750000Y-136583333D01*
X150816666Y-136916666D02*
X150416666Y-136916666D01*
X150616666Y-136916666D02*
X150616666Y-136216666D01*
X150550000Y-136316666D01*
X150483333Y-136383333D01*
X150416666Y-136416666D01*
X151050000Y-136216666D02*
X151516666Y-136216666D01*
X151216666Y-136916666D01*
%TO.C,U1*%
X133166666Y-77241666D02*
X133166666Y-77808333D01*
X133200000Y-77875000D01*
X133233333Y-77908333D01*
X133300000Y-77941666D01*
X133433333Y-77941666D01*
X133500000Y-77908333D01*
X133533333Y-77875000D01*
X133566666Y-77808333D01*
X133566666Y-77241666D01*
X134266666Y-77941666D02*
X133866666Y-77941666D01*
X134066666Y-77941666D02*
X134066666Y-77241666D01*
X134000000Y-77341666D01*
X133933333Y-77408333D01*
X133866666Y-77441666D01*
%TO.C,BT1*%
X112814285Y-57028571D02*
X112957142Y-57076190D01*
X113004761Y-57123809D01*
X113052380Y-57219047D01*
X113052380Y-57361904D01*
X113004761Y-57457142D01*
X112957142Y-57504761D01*
X112861904Y-57552380D01*
X112480952Y-57552380D01*
X112480952Y-56552380D01*
X112814285Y-56552380D01*
X112909523Y-56600000D01*
X112957142Y-56647619D01*
X113004761Y-56742857D01*
X113004761Y-56838095D01*
X112957142Y-56933333D01*
X112909523Y-56980952D01*
X112814285Y-57028571D01*
X112480952Y-57028571D01*
X113338095Y-56552380D02*
X113909523Y-56552380D01*
X113623809Y-57552380D02*
X113623809Y-56552380D01*
X114766666Y-57552380D02*
X114195238Y-57552380D01*
X114480952Y-57552380D02*
X114480952Y-56552380D01*
X114385714Y-56695238D01*
X114290476Y-56790476D01*
X114195238Y-56838095D01*
%TO.C,C18*%
X120200000Y-134700000D02*
X120233333Y-134733333D01*
X120266666Y-134833333D01*
X120266666Y-134900000D01*
X120233333Y-135000000D01*
X120166666Y-135066666D01*
X120100000Y-135100000D01*
X119966666Y-135133333D01*
X119866666Y-135133333D01*
X119733333Y-135100000D01*
X119666666Y-135066666D01*
X119600000Y-135000000D01*
X119566666Y-134900000D01*
X119566666Y-134833333D01*
X119600000Y-134733333D01*
X119633333Y-134700000D01*
X120266666Y-134033333D02*
X120266666Y-134433333D01*
X120266666Y-134233333D02*
X119566666Y-134233333D01*
X119666666Y-134300000D01*
X119733333Y-134366666D01*
X119766666Y-134433333D01*
X119866666Y-133633333D02*
X119833333Y-133700000D01*
X119800000Y-133733333D01*
X119733333Y-133766666D01*
X119700000Y-133766666D01*
X119633333Y-133733333D01*
X119600000Y-133700000D01*
X119566666Y-133633333D01*
X119566666Y-133500000D01*
X119600000Y-133433333D01*
X119633333Y-133400000D01*
X119700000Y-133366666D01*
X119733333Y-133366666D01*
X119800000Y-133400000D01*
X119833333Y-133433333D01*
X119866666Y-133500000D01*
X119866666Y-133633333D01*
X119900000Y-133700000D01*
X119933333Y-133733333D01*
X120000000Y-133766666D01*
X120133333Y-133766666D01*
X120200000Y-133733333D01*
X120233333Y-133700000D01*
X120266666Y-133633333D01*
X120266666Y-133500000D01*
X120233333Y-133433333D01*
X120200000Y-133400000D01*
X120133333Y-133366666D01*
X120000000Y-133366666D01*
X119933333Y-133400000D01*
X119900000Y-133433333D01*
X119866666Y-133500000D01*
%TO.C,R14*%
X162150000Y-118716666D02*
X161916666Y-118383333D01*
X161750000Y-118716666D02*
X161750000Y-118016666D01*
X162016666Y-118016666D01*
X162083333Y-118050000D01*
X162116666Y-118083333D01*
X162150000Y-118150000D01*
X162150000Y-118250000D01*
X162116666Y-118316666D01*
X162083333Y-118350000D01*
X162016666Y-118383333D01*
X161750000Y-118383333D01*
X162816666Y-118716666D02*
X162416666Y-118716666D01*
X162616666Y-118716666D02*
X162616666Y-118016666D01*
X162550000Y-118116666D01*
X162483333Y-118183333D01*
X162416666Y-118216666D01*
X163416666Y-118250000D02*
X163416666Y-118716666D01*
X163250000Y-117983333D02*
X163083333Y-118483333D01*
X163516666Y-118483333D01*
%TO.C,U2*%
X132866666Y-122116666D02*
X132866666Y-122683333D01*
X132900000Y-122750000D01*
X132933333Y-122783333D01*
X133000000Y-122816666D01*
X133133333Y-122816666D01*
X133200000Y-122783333D01*
X133233333Y-122750000D01*
X133266666Y-122683333D01*
X133266666Y-122116666D01*
X133566666Y-122183333D02*
X133600000Y-122150000D01*
X133666666Y-122116666D01*
X133833333Y-122116666D01*
X133900000Y-122150000D01*
X133933333Y-122183333D01*
X133966666Y-122250000D01*
X133966666Y-122316666D01*
X133933333Y-122416666D01*
X133533333Y-122816666D01*
X133966666Y-122816666D01*
X127016666Y-124866666D02*
X127016666Y-124433333D01*
X127283333Y-124666666D01*
X127283333Y-124566666D01*
X127316666Y-124500000D01*
X127350000Y-124466666D01*
X127416666Y-124433333D01*
X127583333Y-124433333D01*
X127650000Y-124466666D01*
X127683333Y-124500000D01*
X127716666Y-124566666D01*
X127716666Y-124766666D01*
X127683333Y-124833333D01*
X127650000Y-124866666D01*
X127083333Y-124166666D02*
X127050000Y-124133333D01*
X127016666Y-124066666D01*
X127016666Y-123900000D01*
X127050000Y-123833333D01*
X127083333Y-123800000D01*
X127150000Y-123766666D01*
X127216666Y-123766666D01*
X127316666Y-123800000D01*
X127716666Y-124200000D01*
X127716666Y-123766666D01*
X127150000Y-136100000D02*
X127616666Y-136100000D01*
X126883333Y-136266666D02*
X127383333Y-136433333D01*
X127383333Y-136000000D01*
X127216666Y-135633333D02*
X127183333Y-135700000D01*
X127150000Y-135733333D01*
X127083333Y-135766666D01*
X127050000Y-135766666D01*
X126983333Y-135733333D01*
X126950000Y-135700000D01*
X126916666Y-135633333D01*
X126916666Y-135500000D01*
X126950000Y-135433333D01*
X126983333Y-135400000D01*
X127050000Y-135366666D01*
X127083333Y-135366666D01*
X127150000Y-135400000D01*
X127183333Y-135433333D01*
X127216666Y-135500000D01*
X127216666Y-135633333D01*
X127250000Y-135700000D01*
X127283333Y-135733333D01*
X127350000Y-135766666D01*
X127483333Y-135766666D01*
X127550000Y-135733333D01*
X127583333Y-135700000D01*
X127616666Y-135633333D01*
X127616666Y-135500000D01*
X127583333Y-135433333D01*
X127550000Y-135400000D01*
X127483333Y-135366666D01*
X127350000Y-135366666D01*
X127283333Y-135400000D01*
X127250000Y-135433333D01*
X127216666Y-135500000D01*
X139616666Y-124433333D02*
X139616666Y-124833333D01*
X139616666Y-124633333D02*
X138916666Y-124633333D01*
X139016666Y-124700000D01*
X139083333Y-124766666D01*
X139116666Y-124833333D01*
X138916666Y-123833333D02*
X138916666Y-123966666D01*
X138950000Y-124033333D01*
X138983333Y-124066666D01*
X139083333Y-124133333D01*
X139216666Y-124166666D01*
X139483333Y-124166666D01*
X139550000Y-124133333D01*
X139583333Y-124100000D01*
X139616666Y-124033333D01*
X139616666Y-123900000D01*
X139583333Y-123833333D01*
X139550000Y-123800000D01*
X139483333Y-123766666D01*
X139316666Y-123766666D01*
X139250000Y-123800000D01*
X139216666Y-123833333D01*
X139183333Y-123900000D01*
X139183333Y-124033333D01*
X139216666Y-124100000D01*
X139250000Y-124133333D01*
X139316666Y-124166666D01*
X139616666Y-134900000D02*
X139616666Y-135300000D01*
X139616666Y-135100000D02*
X138916666Y-135100000D01*
X139016666Y-135166666D01*
X139083333Y-135233333D01*
X139116666Y-135300000D01*
%TO.C,C1*%
X152783333Y-139750000D02*
X152750000Y-139783333D01*
X152650000Y-139816666D01*
X152583333Y-139816666D01*
X152483333Y-139783333D01*
X152416666Y-139716666D01*
X152383333Y-139650000D01*
X152350000Y-139516666D01*
X152350000Y-139416666D01*
X152383333Y-139283333D01*
X152416666Y-139216666D01*
X152483333Y-139150000D01*
X152583333Y-139116666D01*
X152650000Y-139116666D01*
X152750000Y-139150000D01*
X152783333Y-139183333D01*
X153450000Y-139816666D02*
X153050000Y-139816666D01*
X153250000Y-139816666D02*
X153250000Y-139116666D01*
X153183333Y-139216666D01*
X153116666Y-139283333D01*
X153050000Y-139316666D01*
%TO.C,R19*%
X132650000Y-140316666D02*
X132416666Y-139983333D01*
X132250000Y-140316666D02*
X132250000Y-139616666D01*
X132516666Y-139616666D01*
X132583333Y-139650000D01*
X132616666Y-139683333D01*
X132650000Y-139750000D01*
X132650000Y-139850000D01*
X132616666Y-139916666D01*
X132583333Y-139950000D01*
X132516666Y-139983333D01*
X132250000Y-139983333D01*
X133316666Y-140316666D02*
X132916666Y-140316666D01*
X133116666Y-140316666D02*
X133116666Y-139616666D01*
X133050000Y-139716666D01*
X132983333Y-139783333D01*
X132916666Y-139816666D01*
X133650000Y-140316666D02*
X133783333Y-140316666D01*
X133850000Y-140283333D01*
X133883333Y-140250000D01*
X133950000Y-140150000D01*
X133983333Y-140016666D01*
X133983333Y-139750000D01*
X133950000Y-139683333D01*
X133916666Y-139650000D01*
X133850000Y-139616666D01*
X133716666Y-139616666D01*
X133650000Y-139650000D01*
X133616666Y-139683333D01*
X133583333Y-139750000D01*
X133583333Y-139916666D01*
X133616666Y-139983333D01*
X133650000Y-140016666D01*
X133716666Y-140050000D01*
X133850000Y-140050000D01*
X133916666Y-140016666D01*
X133950000Y-139983333D01*
X133983333Y-139916666D01*
%TO.C,JP1*%
X110716666Y-106916666D02*
X110716666Y-107416666D01*
X110683333Y-107516666D01*
X110616666Y-107583333D01*
X110516666Y-107616666D01*
X110450000Y-107616666D01*
X111050000Y-107616666D02*
X111050000Y-106916666D01*
X111316666Y-106916666D01*
X111383333Y-106950000D01*
X111416666Y-106983333D01*
X111450000Y-107050000D01*
X111450000Y-107150000D01*
X111416666Y-107216666D01*
X111383333Y-107250000D01*
X111316666Y-107283333D01*
X111050000Y-107283333D01*
X112116666Y-107616666D02*
X111716666Y-107616666D01*
X111916666Y-107616666D02*
X111916666Y-106916666D01*
X111850000Y-107016666D01*
X111783333Y-107083333D01*
X111716666Y-107116666D01*
%TO.C,C4*%
X146683333Y-99150000D02*
X146650000Y-99183333D01*
X146550000Y-99216666D01*
X146483333Y-99216666D01*
X146383333Y-99183333D01*
X146316666Y-99116666D01*
X146283333Y-99050000D01*
X146250000Y-98916666D01*
X146250000Y-98816666D01*
X146283333Y-98683333D01*
X146316666Y-98616666D01*
X146383333Y-98550000D01*
X146483333Y-98516666D01*
X146550000Y-98516666D01*
X146650000Y-98550000D01*
X146683333Y-98583333D01*
X147283333Y-98750000D02*
X147283333Y-99216666D01*
X147116666Y-98483333D02*
X146950000Y-98983333D01*
X147383333Y-98983333D01*
%TO.C,U4*%
X121966666Y-104316666D02*
X121966666Y-104883333D01*
X122000000Y-104950000D01*
X122033333Y-104983333D01*
X122100000Y-105016666D01*
X122233333Y-105016666D01*
X122300000Y-104983333D01*
X122333333Y-104950000D01*
X122366666Y-104883333D01*
X122366666Y-104316666D01*
X123000000Y-104550000D02*
X123000000Y-105016666D01*
X122833333Y-104283333D02*
X122666666Y-104783333D01*
X123100000Y-104783333D01*
%TO.C,J5*%
X185162155Y-144212155D02*
X185162155Y-144712155D01*
X185128822Y-144812155D01*
X185062155Y-144878822D01*
X184962155Y-144912155D01*
X184895489Y-144912155D01*
X185828822Y-144212155D02*
X185495489Y-144212155D01*
X185462155Y-144545489D01*
X185495489Y-144512155D01*
X185562155Y-144478822D01*
X185728822Y-144478822D01*
X185795489Y-144512155D01*
X185828822Y-144545489D01*
X185862155Y-144612155D01*
X185862155Y-144778822D01*
X185828822Y-144845489D01*
X185795489Y-144878822D01*
X185728822Y-144912155D01*
X185562155Y-144912155D01*
X185495489Y-144878822D01*
X185462155Y-144845489D01*
%TO.C,C24*%
X152050000Y-78075000D02*
X152016666Y-78108333D01*
X151916666Y-78141666D01*
X151850000Y-78141666D01*
X151750000Y-78108333D01*
X151683333Y-78041666D01*
X151650000Y-77975000D01*
X151616666Y-77841666D01*
X151616666Y-77741666D01*
X151650000Y-77608333D01*
X151683333Y-77541666D01*
X151750000Y-77475000D01*
X151850000Y-77441666D01*
X151916666Y-77441666D01*
X152016666Y-77475000D01*
X152050000Y-77508333D01*
X152316666Y-77508333D02*
X152350000Y-77475000D01*
X152416666Y-77441666D01*
X152583333Y-77441666D01*
X152650000Y-77475000D01*
X152683333Y-77508333D01*
X152716666Y-77575000D01*
X152716666Y-77641666D01*
X152683333Y-77741666D01*
X152283333Y-78141666D01*
X152716666Y-78141666D01*
X153316666Y-77675000D02*
X153316666Y-78141666D01*
X153150000Y-77408333D02*
X152983333Y-77908333D01*
X153416666Y-77908333D01*
%TO.C,C3*%
X124483333Y-118000000D02*
X124450000Y-118033333D01*
X124350000Y-118066666D01*
X124283333Y-118066666D01*
X124183333Y-118033333D01*
X124116666Y-117966666D01*
X124083333Y-117900000D01*
X124050000Y-117766666D01*
X124050000Y-117666666D01*
X124083333Y-117533333D01*
X124116666Y-117466666D01*
X124183333Y-117400000D01*
X124283333Y-117366666D01*
X124350000Y-117366666D01*
X124450000Y-117400000D01*
X124483333Y-117433333D01*
X124716666Y-117366666D02*
X125150000Y-117366666D01*
X124916666Y-117633333D01*
X125016666Y-117633333D01*
X125083333Y-117666666D01*
X125116666Y-117700000D01*
X125150000Y-117766666D01*
X125150000Y-117933333D01*
X125116666Y-118000000D01*
X125083333Y-118033333D01*
X125016666Y-118066666D01*
X124816666Y-118066666D01*
X124750000Y-118033333D01*
X124716666Y-118000000D01*
%TO.C,C27*%
X146650000Y-101650000D02*
X146616666Y-101683333D01*
X146516666Y-101716666D01*
X146450000Y-101716666D01*
X146350000Y-101683333D01*
X146283333Y-101616666D01*
X146250000Y-101550000D01*
X146216666Y-101416666D01*
X146216666Y-101316666D01*
X146250000Y-101183333D01*
X146283333Y-101116666D01*
X146350000Y-101050000D01*
X146450000Y-101016666D01*
X146516666Y-101016666D01*
X146616666Y-101050000D01*
X146650000Y-101083333D01*
X146916666Y-101083333D02*
X146950000Y-101050000D01*
X147016666Y-101016666D01*
X147183333Y-101016666D01*
X147250000Y-101050000D01*
X147283333Y-101083333D01*
X147316666Y-101150000D01*
X147316666Y-101216666D01*
X147283333Y-101316666D01*
X146883333Y-101716666D01*
X147316666Y-101716666D01*
X147550000Y-101016666D02*
X148016666Y-101016666D01*
X147716666Y-101716666D01*
%TO.C,C16*%
X117300000Y-134700000D02*
X117333333Y-134733333D01*
X117366666Y-134833333D01*
X117366666Y-134900000D01*
X117333333Y-135000000D01*
X117266666Y-135066666D01*
X117200000Y-135100000D01*
X117066666Y-135133333D01*
X116966666Y-135133333D01*
X116833333Y-135100000D01*
X116766666Y-135066666D01*
X116700000Y-135000000D01*
X116666666Y-134900000D01*
X116666666Y-134833333D01*
X116700000Y-134733333D01*
X116733333Y-134700000D01*
X117366666Y-134033333D02*
X117366666Y-134433333D01*
X117366666Y-134233333D02*
X116666666Y-134233333D01*
X116766666Y-134300000D01*
X116833333Y-134366666D01*
X116866666Y-134433333D01*
X116666666Y-133433333D02*
X116666666Y-133566666D01*
X116700000Y-133633333D01*
X116733333Y-133666666D01*
X116833333Y-133733333D01*
X116966666Y-133766666D01*
X117233333Y-133766666D01*
X117300000Y-133733333D01*
X117333333Y-133700000D01*
X117366666Y-133633333D01*
X117366666Y-133500000D01*
X117333333Y-133433333D01*
X117300000Y-133400000D01*
X117233333Y-133366666D01*
X117066666Y-133366666D01*
X117000000Y-133400000D01*
X116966666Y-133433333D01*
X116933333Y-133500000D01*
X116933333Y-133633333D01*
X116966666Y-133700000D01*
X117000000Y-133733333D01*
X117066666Y-133766666D01*
%TO.C,R18*%
X132650000Y-138916666D02*
X132416666Y-138583333D01*
X132250000Y-138916666D02*
X132250000Y-138216666D01*
X132516666Y-138216666D01*
X132583333Y-138250000D01*
X132616666Y-138283333D01*
X132650000Y-138350000D01*
X132650000Y-138450000D01*
X132616666Y-138516666D01*
X132583333Y-138550000D01*
X132516666Y-138583333D01*
X132250000Y-138583333D01*
X133316666Y-138916666D02*
X132916666Y-138916666D01*
X133116666Y-138916666D02*
X133116666Y-138216666D01*
X133050000Y-138316666D01*
X132983333Y-138383333D01*
X132916666Y-138416666D01*
X133716666Y-138516666D02*
X133650000Y-138483333D01*
X133616666Y-138450000D01*
X133583333Y-138383333D01*
X133583333Y-138350000D01*
X133616666Y-138283333D01*
X133650000Y-138250000D01*
X133716666Y-138216666D01*
X133850000Y-138216666D01*
X133916666Y-138250000D01*
X133950000Y-138283333D01*
X133983333Y-138350000D01*
X133983333Y-138383333D01*
X133950000Y-138450000D01*
X133916666Y-138483333D01*
X133850000Y-138516666D01*
X133716666Y-138516666D01*
X133650000Y-138550000D01*
X133616666Y-138583333D01*
X133583333Y-138650000D01*
X133583333Y-138783333D01*
X133616666Y-138850000D01*
X133650000Y-138883333D01*
X133716666Y-138916666D01*
X133850000Y-138916666D01*
X133916666Y-138883333D01*
X133950000Y-138850000D01*
X133983333Y-138783333D01*
X133983333Y-138650000D01*
X133950000Y-138583333D01*
X133916666Y-138550000D01*
X133850000Y-138516666D01*
%TO.C,C13*%
X113750000Y-127750000D02*
X113716666Y-127783333D01*
X113616666Y-127816666D01*
X113550000Y-127816666D01*
X113450000Y-127783333D01*
X113383333Y-127716666D01*
X113350000Y-127650000D01*
X113316666Y-127516666D01*
X113316666Y-127416666D01*
X113350000Y-127283333D01*
X113383333Y-127216666D01*
X113450000Y-127150000D01*
X113550000Y-127116666D01*
X113616666Y-127116666D01*
X113716666Y-127150000D01*
X113750000Y-127183333D01*
X114416666Y-127816666D02*
X114016666Y-127816666D01*
X114216666Y-127816666D02*
X114216666Y-127116666D01*
X114150000Y-127216666D01*
X114083333Y-127283333D01*
X114016666Y-127316666D01*
X114650000Y-127116666D02*
X115083333Y-127116666D01*
X114850000Y-127383333D01*
X114950000Y-127383333D01*
X115016666Y-127416666D01*
X115050000Y-127450000D01*
X115083333Y-127516666D01*
X115083333Y-127683333D01*
X115050000Y-127750000D01*
X115016666Y-127783333D01*
X114950000Y-127816666D01*
X114750000Y-127816666D01*
X114683333Y-127783333D01*
X114650000Y-127750000D01*
%TO.C,JP3*%
X114541666Y-121533333D02*
X115041666Y-121533333D01*
X115141666Y-121566666D01*
X115208333Y-121633333D01*
X115241666Y-121733333D01*
X115241666Y-121800000D01*
X115241666Y-121200000D02*
X114541666Y-121200000D01*
X114541666Y-120933333D01*
X114575000Y-120866666D01*
X114608333Y-120833333D01*
X114675000Y-120800000D01*
X114775000Y-120800000D01*
X114841666Y-120833333D01*
X114875000Y-120866666D01*
X114908333Y-120933333D01*
X114908333Y-121200000D01*
X114541666Y-120566666D02*
X114541666Y-120133333D01*
X114808333Y-120366666D01*
X114808333Y-120266666D01*
X114841666Y-120200000D01*
X114875000Y-120166666D01*
X114941666Y-120133333D01*
X115108333Y-120133333D01*
X115175000Y-120166666D01*
X115208333Y-120200000D01*
X115241666Y-120266666D01*
X115241666Y-120466666D01*
X115208333Y-120533333D01*
X115175000Y-120566666D01*
%TO.C,J12*%
X109241666Y-111166666D02*
X109741666Y-111166666D01*
X109841666Y-111200000D01*
X109908333Y-111266666D01*
X109941666Y-111366666D01*
X109941666Y-111433333D01*
X109941666Y-110466666D02*
X109941666Y-110866666D01*
X109941666Y-110666666D02*
X109241666Y-110666666D01*
X109341666Y-110733333D01*
X109408333Y-110800000D01*
X109441666Y-110866666D01*
X109308333Y-110200000D02*
X109275000Y-110166666D01*
X109241666Y-110100000D01*
X109241666Y-109933333D01*
X109275000Y-109866666D01*
X109308333Y-109833333D01*
X109375000Y-109800000D01*
X109441666Y-109800000D01*
X109541666Y-109833333D01*
X109941666Y-110233333D01*
X109941666Y-109800000D01*
%TO.C,R30*%
X122550000Y-112016666D02*
X122316666Y-111683333D01*
X122150000Y-112016666D02*
X122150000Y-111316666D01*
X122416666Y-111316666D01*
X122483333Y-111350000D01*
X122516666Y-111383333D01*
X122550000Y-111450000D01*
X122550000Y-111550000D01*
X122516666Y-111616666D01*
X122483333Y-111650000D01*
X122416666Y-111683333D01*
X122150000Y-111683333D01*
X122783333Y-111316666D02*
X123216666Y-111316666D01*
X122983333Y-111583333D01*
X123083333Y-111583333D01*
X123150000Y-111616666D01*
X123183333Y-111650000D01*
X123216666Y-111716666D01*
X123216666Y-111883333D01*
X123183333Y-111950000D01*
X123150000Y-111983333D01*
X123083333Y-112016666D01*
X122883333Y-112016666D01*
X122816666Y-111983333D01*
X122783333Y-111950000D01*
X123650000Y-111316666D02*
X123716666Y-111316666D01*
X123783333Y-111350000D01*
X123816666Y-111383333D01*
X123850000Y-111450000D01*
X123883333Y-111583333D01*
X123883333Y-111750000D01*
X123850000Y-111883333D01*
X123816666Y-111950000D01*
X123783333Y-111983333D01*
X123716666Y-112016666D01*
X123650000Y-112016666D01*
X123583333Y-111983333D01*
X123550000Y-111950000D01*
X123516666Y-111883333D01*
X123483333Y-111750000D01*
X123483333Y-111583333D01*
X123516666Y-111450000D01*
X123550000Y-111383333D01*
X123583333Y-111350000D01*
X123650000Y-111316666D01*
%TO.C,R27*%
X149050000Y-100616666D02*
X148816666Y-100283333D01*
X148650000Y-100616666D02*
X148650000Y-99916666D01*
X148916666Y-99916666D01*
X148983333Y-99950000D01*
X149016666Y-99983333D01*
X149050000Y-100050000D01*
X149050000Y-100150000D01*
X149016666Y-100216666D01*
X148983333Y-100250000D01*
X148916666Y-100283333D01*
X148650000Y-100283333D01*
X149316666Y-99983333D02*
X149350000Y-99950000D01*
X149416666Y-99916666D01*
X149583333Y-99916666D01*
X149650000Y-99950000D01*
X149683333Y-99983333D01*
X149716666Y-100050000D01*
X149716666Y-100116666D01*
X149683333Y-100216666D01*
X149283333Y-100616666D01*
X149716666Y-100616666D01*
X149950000Y-99916666D02*
X150416666Y-99916666D01*
X150116666Y-100616666D01*
%TO.C,SW3*%
X112266666Y-151083333D02*
X112366666Y-151116666D01*
X112533333Y-151116666D01*
X112600000Y-151083333D01*
X112633333Y-151050000D01*
X112666666Y-150983333D01*
X112666666Y-150916666D01*
X112633333Y-150850000D01*
X112600000Y-150816666D01*
X112533333Y-150783333D01*
X112400000Y-150750000D01*
X112333333Y-150716666D01*
X112300000Y-150683333D01*
X112266666Y-150616666D01*
X112266666Y-150550000D01*
X112300000Y-150483333D01*
X112333333Y-150450000D01*
X112400000Y-150416666D01*
X112566666Y-150416666D01*
X112666666Y-150450000D01*
X112900000Y-150416666D02*
X113066666Y-151116666D01*
X113200000Y-150616666D01*
X113333333Y-151116666D01*
X113500000Y-150416666D01*
X113700000Y-150416666D02*
X114133333Y-150416666D01*
X113900000Y-150683333D01*
X114000000Y-150683333D01*
X114066666Y-150716666D01*
X114100000Y-150750000D01*
X114133333Y-150816666D01*
X114133333Y-150983333D01*
X114100000Y-151050000D01*
X114066666Y-151083333D01*
X114000000Y-151116666D01*
X113800000Y-151116666D01*
X113733333Y-151083333D01*
X113700000Y-151050000D01*
%TO.C,U10*%
X169833333Y-84916666D02*
X169833333Y-85483333D01*
X169866666Y-85550000D01*
X169900000Y-85583333D01*
X169966666Y-85616666D01*
X170100000Y-85616666D01*
X170166666Y-85583333D01*
X170200000Y-85550000D01*
X170233333Y-85483333D01*
X170233333Y-84916666D01*
X170933333Y-85616666D02*
X170533333Y-85616666D01*
X170733333Y-85616666D02*
X170733333Y-84916666D01*
X170666666Y-85016666D01*
X170600000Y-85083333D01*
X170533333Y-85116666D01*
X171366666Y-84916666D02*
X171433333Y-84916666D01*
X171500000Y-84950000D01*
X171533333Y-84983333D01*
X171566666Y-85050000D01*
X171600000Y-85183333D01*
X171600000Y-85350000D01*
X171566666Y-85483333D01*
X171533333Y-85550000D01*
X171500000Y-85583333D01*
X171433333Y-85616666D01*
X171366666Y-85616666D01*
X171300000Y-85583333D01*
X171266666Y-85550000D01*
X171233333Y-85483333D01*
X171200000Y-85350000D01*
X171200000Y-85183333D01*
X171233333Y-85050000D01*
X171266666Y-84983333D01*
X171300000Y-84950000D01*
X171366666Y-84916666D01*
%TO.C,C23*%
X159650000Y-80675000D02*
X159616666Y-80708333D01*
X159516666Y-80741666D01*
X159450000Y-80741666D01*
X159350000Y-80708333D01*
X159283333Y-80641666D01*
X159250000Y-80575000D01*
X159216666Y-80441666D01*
X159216666Y-80341666D01*
X159250000Y-80208333D01*
X159283333Y-80141666D01*
X159350000Y-80075000D01*
X159450000Y-80041666D01*
X159516666Y-80041666D01*
X159616666Y-80075000D01*
X159650000Y-80108333D01*
X159916666Y-80108333D02*
X159950000Y-80075000D01*
X160016666Y-80041666D01*
X160183333Y-80041666D01*
X160250000Y-80075000D01*
X160283333Y-80108333D01*
X160316666Y-80175000D01*
X160316666Y-80241666D01*
X160283333Y-80341666D01*
X159883333Y-80741666D01*
X160316666Y-80741666D01*
X160550000Y-80041666D02*
X160983333Y-80041666D01*
X160750000Y-80308333D01*
X160850000Y-80308333D01*
X160916666Y-80341666D01*
X160950000Y-80375000D01*
X160983333Y-80441666D01*
X160983333Y-80608333D01*
X160950000Y-80675000D01*
X160916666Y-80708333D01*
X160850000Y-80741666D01*
X160650000Y-80741666D01*
X160583333Y-80708333D01*
X160550000Y-80675000D01*
%TO.C,D8*%
X153233333Y-136891666D02*
X153233333Y-136191666D01*
X153400000Y-136191666D01*
X153500000Y-136225000D01*
X153566666Y-136291666D01*
X153600000Y-136358333D01*
X153633333Y-136491666D01*
X153633333Y-136591666D01*
X153600000Y-136725000D01*
X153566666Y-136791666D01*
X153500000Y-136858333D01*
X153400000Y-136891666D01*
X153233333Y-136891666D01*
X154033333Y-136491666D02*
X153966666Y-136458333D01*
X153933333Y-136425000D01*
X153900000Y-136358333D01*
X153900000Y-136325000D01*
X153933333Y-136258333D01*
X153966666Y-136225000D01*
X154033333Y-136191666D01*
X154166666Y-136191666D01*
X154233333Y-136225000D01*
X154266666Y-136258333D01*
X154300000Y-136325000D01*
X154300000Y-136358333D01*
X154266666Y-136425000D01*
X154233333Y-136458333D01*
X154166666Y-136491666D01*
X154033333Y-136491666D01*
X153966666Y-136525000D01*
X153933333Y-136558333D01*
X153900000Y-136625000D01*
X153900000Y-136758333D01*
X153933333Y-136825000D01*
X153966666Y-136858333D01*
X154033333Y-136891666D01*
X154166666Y-136891666D01*
X154233333Y-136858333D01*
X154266666Y-136825000D01*
X154300000Y-136758333D01*
X154300000Y-136625000D01*
X154266666Y-136558333D01*
X154233333Y-136525000D01*
X154166666Y-136491666D01*
%TO.C,U8*%
X169566666Y-77741666D02*
X169566666Y-78308333D01*
X169600000Y-78375000D01*
X169633333Y-78408333D01*
X169700000Y-78441666D01*
X169833333Y-78441666D01*
X169900000Y-78408333D01*
X169933333Y-78375000D01*
X169966666Y-78308333D01*
X169966666Y-77741666D01*
X170400000Y-78041666D02*
X170333333Y-78008333D01*
X170300000Y-77975000D01*
X170266666Y-77908333D01*
X170266666Y-77875000D01*
X170300000Y-77808333D01*
X170333333Y-77775000D01*
X170400000Y-77741666D01*
X170533333Y-77741666D01*
X170600000Y-77775000D01*
X170633333Y-77808333D01*
X170666666Y-77875000D01*
X170666666Y-77908333D01*
X170633333Y-77975000D01*
X170600000Y-78008333D01*
X170533333Y-78041666D01*
X170400000Y-78041666D01*
X170333333Y-78075000D01*
X170300000Y-78108333D01*
X170266666Y-78175000D01*
X170266666Y-78308333D01*
X170300000Y-78375000D01*
X170333333Y-78408333D01*
X170400000Y-78441666D01*
X170533333Y-78441666D01*
X170600000Y-78408333D01*
X170633333Y-78375000D01*
X170666666Y-78308333D01*
X170666666Y-78175000D01*
X170633333Y-78108333D01*
X170600000Y-78075000D01*
X170533333Y-78041666D01*
%TO.C,R12*%
X160450000Y-128816666D02*
X160216666Y-128483333D01*
X160050000Y-128816666D02*
X160050000Y-128116666D01*
X160316666Y-128116666D01*
X160383333Y-128150000D01*
X160416666Y-128183333D01*
X160450000Y-128250000D01*
X160450000Y-128350000D01*
X160416666Y-128416666D01*
X160383333Y-128450000D01*
X160316666Y-128483333D01*
X160050000Y-128483333D01*
X161116666Y-128816666D02*
X160716666Y-128816666D01*
X160916666Y-128816666D02*
X160916666Y-128116666D01*
X160850000Y-128216666D01*
X160783333Y-128283333D01*
X160716666Y-128316666D01*
X161383333Y-128183333D02*
X161416666Y-128150000D01*
X161483333Y-128116666D01*
X161650000Y-128116666D01*
X161716666Y-128150000D01*
X161750000Y-128183333D01*
X161783333Y-128250000D01*
X161783333Y-128316666D01*
X161750000Y-128416666D01*
X161350000Y-128816666D01*
X161783333Y-128816666D01*
%TO.C,R20*%
X139850000Y-137716666D02*
X139616666Y-137383333D01*
X139450000Y-137716666D02*
X139450000Y-137016666D01*
X139716666Y-137016666D01*
X139783333Y-137050000D01*
X139816666Y-137083333D01*
X139850000Y-137150000D01*
X139850000Y-137250000D01*
X139816666Y-137316666D01*
X139783333Y-137350000D01*
X139716666Y-137383333D01*
X139450000Y-137383333D01*
X140116666Y-137083333D02*
X140150000Y-137050000D01*
X140216666Y-137016666D01*
X140383333Y-137016666D01*
X140450000Y-137050000D01*
X140483333Y-137083333D01*
X140516666Y-137150000D01*
X140516666Y-137216666D01*
X140483333Y-137316666D01*
X140083333Y-137716666D01*
X140516666Y-137716666D01*
X140950000Y-137016666D02*
X141016666Y-137016666D01*
X141083333Y-137050000D01*
X141116666Y-137083333D01*
X141150000Y-137150000D01*
X141183333Y-137283333D01*
X141183333Y-137450000D01*
X141150000Y-137583333D01*
X141116666Y-137650000D01*
X141083333Y-137683333D01*
X141016666Y-137716666D01*
X140950000Y-137716666D01*
X140883333Y-137683333D01*
X140850000Y-137650000D01*
X140816666Y-137583333D01*
X140783333Y-137450000D01*
X140783333Y-137283333D01*
X140816666Y-137150000D01*
X140850000Y-137083333D01*
X140883333Y-137050000D01*
X140950000Y-137016666D01*
%TO.C,R24*%
X118350000Y-140016666D02*
X118116666Y-139683333D01*
X117950000Y-140016666D02*
X117950000Y-139316666D01*
X118216666Y-139316666D01*
X118283333Y-139350000D01*
X118316666Y-139383333D01*
X118350000Y-139450000D01*
X118350000Y-139550000D01*
X118316666Y-139616666D01*
X118283333Y-139650000D01*
X118216666Y-139683333D01*
X117950000Y-139683333D01*
X118616666Y-139383333D02*
X118650000Y-139350000D01*
X118716666Y-139316666D01*
X118883333Y-139316666D01*
X118950000Y-139350000D01*
X118983333Y-139383333D01*
X119016666Y-139450000D01*
X119016666Y-139516666D01*
X118983333Y-139616666D01*
X118583333Y-140016666D01*
X119016666Y-140016666D01*
X119616666Y-139550000D02*
X119616666Y-140016666D01*
X119450000Y-139283333D02*
X119283333Y-139783333D01*
X119716666Y-139783333D01*
%TO.C,J6*%
X109216666Y-136633333D02*
X109716666Y-136633333D01*
X109816666Y-136666666D01*
X109883333Y-136733333D01*
X109916666Y-136833333D01*
X109916666Y-136900000D01*
X109216666Y-136000000D02*
X109216666Y-136133333D01*
X109250000Y-136200000D01*
X109283333Y-136233333D01*
X109383333Y-136300000D01*
X109516666Y-136333333D01*
X109783333Y-136333333D01*
X109850000Y-136300000D01*
X109883333Y-136266666D01*
X109916666Y-136200000D01*
X109916666Y-136066666D01*
X109883333Y-136000000D01*
X109850000Y-135966666D01*
X109783333Y-135933333D01*
X109616666Y-135933333D01*
X109550000Y-135966666D01*
X109516666Y-136000000D01*
X109483333Y-136066666D01*
X109483333Y-136200000D01*
X109516666Y-136266666D01*
X109550000Y-136300000D01*
X109616666Y-136333333D01*
%TO.C,JP2*%
X114541666Y-125033333D02*
X115041666Y-125033333D01*
X115141666Y-125066666D01*
X115208333Y-125133333D01*
X115241666Y-125233333D01*
X115241666Y-125300000D01*
X115241666Y-124700000D02*
X114541666Y-124700000D01*
X114541666Y-124433333D01*
X114575000Y-124366666D01*
X114608333Y-124333333D01*
X114675000Y-124300000D01*
X114775000Y-124300000D01*
X114841666Y-124333333D01*
X114875000Y-124366666D01*
X114908333Y-124433333D01*
X114908333Y-124700000D01*
X114608333Y-124033333D02*
X114575000Y-124000000D01*
X114541666Y-123933333D01*
X114541666Y-123766666D01*
X114575000Y-123700000D01*
X114608333Y-123666666D01*
X114675000Y-123633333D01*
X114741666Y-123633333D01*
X114841666Y-123666666D01*
X115241666Y-124066666D01*
X115241666Y-123633333D01*
%TO.C,C8*%
X125683333Y-81150000D02*
X125650000Y-81183333D01*
X125550000Y-81216666D01*
X125483333Y-81216666D01*
X125383333Y-81183333D01*
X125316666Y-81116666D01*
X125283333Y-81050000D01*
X125250000Y-80916666D01*
X125250000Y-80816666D01*
X125283333Y-80683333D01*
X125316666Y-80616666D01*
X125383333Y-80550000D01*
X125483333Y-80516666D01*
X125550000Y-80516666D01*
X125650000Y-80550000D01*
X125683333Y-80583333D01*
X126083333Y-80816666D02*
X126016666Y-80783333D01*
X125983333Y-80750000D01*
X125950000Y-80683333D01*
X125950000Y-80650000D01*
X125983333Y-80583333D01*
X126016666Y-80550000D01*
X126083333Y-80516666D01*
X126216666Y-80516666D01*
X126283333Y-80550000D01*
X126316666Y-80583333D01*
X126350000Y-80650000D01*
X126350000Y-80683333D01*
X126316666Y-80750000D01*
X126283333Y-80783333D01*
X126216666Y-80816666D01*
X126083333Y-80816666D01*
X126016666Y-80850000D01*
X125983333Y-80883333D01*
X125950000Y-80950000D01*
X125950000Y-81083333D01*
X125983333Y-81150000D01*
X126016666Y-81183333D01*
X126083333Y-81216666D01*
X126216666Y-81216666D01*
X126283333Y-81183333D01*
X126316666Y-81150000D01*
X126350000Y-81083333D01*
X126350000Y-80950000D01*
X126316666Y-80883333D01*
X126283333Y-80850000D01*
X126216666Y-80816666D01*
%TO.C,J8*%
X140466666Y-148916666D02*
X140466666Y-149416666D01*
X140433333Y-149516666D01*
X140366666Y-149583333D01*
X140266666Y-149616666D01*
X140200000Y-149616666D01*
X140900000Y-149216666D02*
X140833333Y-149183333D01*
X140800000Y-149150000D01*
X140766666Y-149083333D01*
X140766666Y-149050000D01*
X140800000Y-148983333D01*
X140833333Y-148950000D01*
X140900000Y-148916666D01*
X141033333Y-148916666D01*
X141100000Y-148950000D01*
X141133333Y-148983333D01*
X141166666Y-149050000D01*
X141166666Y-149083333D01*
X141133333Y-149150000D01*
X141100000Y-149183333D01*
X141033333Y-149216666D01*
X140900000Y-149216666D01*
X140833333Y-149250000D01*
X140800000Y-149283333D01*
X140766666Y-149350000D01*
X140766666Y-149483333D01*
X140800000Y-149550000D01*
X140833333Y-149583333D01*
X140900000Y-149616666D01*
X141033333Y-149616666D01*
X141100000Y-149583333D01*
X141133333Y-149550000D01*
X141166666Y-149483333D01*
X141166666Y-149350000D01*
X141133333Y-149283333D01*
X141100000Y-149250000D01*
X141033333Y-149216666D01*
%TO.C,R28*%
X152200000Y-100616666D02*
X151966666Y-100283333D01*
X151800000Y-100616666D02*
X151800000Y-99916666D01*
X152066666Y-99916666D01*
X152133333Y-99950000D01*
X152166666Y-99983333D01*
X152200000Y-100050000D01*
X152200000Y-100150000D01*
X152166666Y-100216666D01*
X152133333Y-100250000D01*
X152066666Y-100283333D01*
X151800000Y-100283333D01*
X152466666Y-99983333D02*
X152500000Y-99950000D01*
X152566666Y-99916666D01*
X152733333Y-99916666D01*
X152800000Y-99950000D01*
X152833333Y-99983333D01*
X152866666Y-100050000D01*
X152866666Y-100116666D01*
X152833333Y-100216666D01*
X152433333Y-100616666D01*
X152866666Y-100616666D01*
X153266666Y-100216666D02*
X153200000Y-100183333D01*
X153166666Y-100150000D01*
X153133333Y-100083333D01*
X153133333Y-100050000D01*
X153166666Y-99983333D01*
X153200000Y-99950000D01*
X153266666Y-99916666D01*
X153400000Y-99916666D01*
X153466666Y-99950000D01*
X153500000Y-99983333D01*
X153533333Y-100050000D01*
X153533333Y-100083333D01*
X153500000Y-100150000D01*
X153466666Y-100183333D01*
X153400000Y-100216666D01*
X153266666Y-100216666D01*
X153200000Y-100250000D01*
X153166666Y-100283333D01*
X153133333Y-100350000D01*
X153133333Y-100483333D01*
X153166666Y-100550000D01*
X153200000Y-100583333D01*
X153266666Y-100616666D01*
X153400000Y-100616666D01*
X153466666Y-100583333D01*
X153500000Y-100550000D01*
X153533333Y-100483333D01*
X153533333Y-100350000D01*
X153500000Y-100283333D01*
X153466666Y-100250000D01*
X153400000Y-100216666D01*
%TO.C,J2*%
X110566666Y-80616666D02*
X110566666Y-81116666D01*
X110533333Y-81216666D01*
X110466666Y-81283333D01*
X110366666Y-81316666D01*
X110300000Y-81316666D01*
X110866666Y-80683333D02*
X110900000Y-80650000D01*
X110966666Y-80616666D01*
X111133333Y-80616666D01*
X111200000Y-80650000D01*
X111233333Y-80683333D01*
X111266666Y-80750000D01*
X111266666Y-80816666D01*
X111233333Y-80916666D01*
X110833333Y-81316666D01*
X111266666Y-81316666D01*
%TO.C,R23*%
X169350000Y-91716666D02*
X169116666Y-91383333D01*
X168950000Y-91716666D02*
X168950000Y-91016666D01*
X169216666Y-91016666D01*
X169283333Y-91050000D01*
X169316666Y-91083333D01*
X169350000Y-91150000D01*
X169350000Y-91250000D01*
X169316666Y-91316666D01*
X169283333Y-91350000D01*
X169216666Y-91383333D01*
X168950000Y-91383333D01*
X169616666Y-91083333D02*
X169650000Y-91050000D01*
X169716666Y-91016666D01*
X169883333Y-91016666D01*
X169950000Y-91050000D01*
X169983333Y-91083333D01*
X170016666Y-91150000D01*
X170016666Y-91216666D01*
X169983333Y-91316666D01*
X169583333Y-91716666D01*
X170016666Y-91716666D01*
X170250000Y-91016666D02*
X170683333Y-91016666D01*
X170450000Y-91283333D01*
X170550000Y-91283333D01*
X170616666Y-91316666D01*
X170650000Y-91350000D01*
X170683333Y-91416666D01*
X170683333Y-91583333D01*
X170650000Y-91650000D01*
X170616666Y-91683333D01*
X170550000Y-91716666D01*
X170350000Y-91716666D01*
X170283333Y-91683333D01*
X170250000Y-91650000D01*
%TO.C,R16*%
X150716666Y-142825000D02*
X150383333Y-143058333D01*
X150716666Y-143225000D02*
X150016666Y-143225000D01*
X150016666Y-142958333D01*
X150050000Y-142891666D01*
X150083333Y-142858333D01*
X150150000Y-142825000D01*
X150250000Y-142825000D01*
X150316666Y-142858333D01*
X150350000Y-142891666D01*
X150383333Y-142958333D01*
X150383333Y-143225000D01*
X150716666Y-142158333D02*
X150716666Y-142558333D01*
X150716666Y-142358333D02*
X150016666Y-142358333D01*
X150116666Y-142425000D01*
X150183333Y-142491666D01*
X150216666Y-142558333D01*
X150016666Y-141558333D02*
X150016666Y-141691666D01*
X150050000Y-141758333D01*
X150083333Y-141791666D01*
X150183333Y-141858333D01*
X150316666Y-141891666D01*
X150583333Y-141891666D01*
X150650000Y-141858333D01*
X150683333Y-141825000D01*
X150716666Y-141758333D01*
X150716666Y-141625000D01*
X150683333Y-141558333D01*
X150650000Y-141525000D01*
X150583333Y-141491666D01*
X150416666Y-141491666D01*
X150350000Y-141525000D01*
X150316666Y-141558333D01*
X150283333Y-141625000D01*
X150283333Y-141758333D01*
X150316666Y-141825000D01*
X150350000Y-141858333D01*
X150416666Y-141891666D01*
%TO.C,R21*%
X139850000Y-141616666D02*
X139616666Y-141283333D01*
X139450000Y-141616666D02*
X139450000Y-140916666D01*
X139716666Y-140916666D01*
X139783333Y-140950000D01*
X139816666Y-140983333D01*
X139850000Y-141050000D01*
X139850000Y-141150000D01*
X139816666Y-141216666D01*
X139783333Y-141250000D01*
X139716666Y-141283333D01*
X139450000Y-141283333D01*
X140116666Y-140983333D02*
X140150000Y-140950000D01*
X140216666Y-140916666D01*
X140383333Y-140916666D01*
X140450000Y-140950000D01*
X140483333Y-140983333D01*
X140516666Y-141050000D01*
X140516666Y-141116666D01*
X140483333Y-141216666D01*
X140083333Y-141616666D01*
X140516666Y-141616666D01*
X141183333Y-141616666D02*
X140783333Y-141616666D01*
X140983333Y-141616666D02*
X140983333Y-140916666D01*
X140916666Y-141016666D01*
X140850000Y-141083333D01*
X140783333Y-141116666D01*
D11*
%TO.C,C15*%
X116940580Y-128490000D02*
X116659420Y-128490000D01*
X116940580Y-129510000D02*
X116659420Y-129510000D01*
%TO.C,kibuzzard-61FFCA89*%
G36*
X111253526Y-94123127D02*
G01*
X112946474Y-94123127D01*
X112946474Y-101576873D01*
X111253526Y-101576873D01*
X111253526Y-101064243D01*
X111875257Y-101064243D01*
X112291501Y-101064243D01*
X112291501Y-100880427D01*
X111875257Y-100880427D01*
X111875257Y-101064243D01*
X111253526Y-101064243D01*
X111253526Y-99075532D01*
X111877757Y-99075532D01*
X112300063Y-99075532D01*
X112300063Y-98889039D01*
X111877757Y-98889039D01*
X111877757Y-99075532D01*
X111253526Y-99075532D01*
X111253526Y-96903700D01*
X111766156Y-96903700D01*
X111766156Y-97061668D01*
X112011710Y-97061668D01*
X112011710Y-97333811D01*
X112177498Y-97333811D01*
X112177498Y-97061668D01*
X112423052Y-97061668D01*
X112423052Y-96903700D01*
X112177498Y-96903700D01*
X112177498Y-96631557D01*
X112011710Y-96631557D01*
X112011710Y-96903700D01*
X111766156Y-96903700D01*
X111253526Y-96903700D01*
X111253526Y-94911982D01*
X111767094Y-94911982D01*
X111767094Y-95072319D01*
X112016332Y-95072319D01*
X112016332Y-95348544D01*
X112184607Y-95348544D01*
X112184607Y-95072319D01*
X112433844Y-95072319D01*
X112433844Y-94911982D01*
X112184607Y-94911982D01*
X112184607Y-94635757D01*
X112016332Y-94635757D01*
X112016332Y-94911982D01*
X111767094Y-94911982D01*
X111253526Y-94911982D01*
X111253526Y-94123127D01*
G37*
%TO.C,J11*%
X104400000Y-92650000D02*
X104400000Y-103350000D01*
X104400000Y-103350000D02*
X108700000Y-103350000D01*
X103690000Y-91640000D02*
X103690000Y-104360000D01*
X110310000Y-95300000D02*
X110310000Y-91640000D01*
X109910000Y-98800000D02*
X109910000Y-97200000D01*
X110610000Y-91340000D02*
X109360000Y-91340000D01*
X109310000Y-95300000D02*
X110310000Y-95300000D01*
X110310000Y-104360000D02*
X110310000Y-100700000D01*
X109310000Y-100700000D02*
X109310000Y-98800000D01*
X109310000Y-97200000D02*
X109310000Y-95300000D01*
X103690000Y-104360000D02*
X110310000Y-104360000D01*
X108700000Y-103350000D02*
X108700000Y-92650000D01*
X109910000Y-97200000D02*
X109310000Y-97200000D01*
X107000000Y-91640000D02*
X107000000Y-92650000D01*
X109310000Y-98800000D02*
X109910000Y-98800000D01*
X110310000Y-100700000D02*
X109310000Y-100700000D01*
X110610000Y-92590000D02*
X110610000Y-91340000D01*
X110310000Y-91640000D02*
X103690000Y-91640000D01*
X107000000Y-104360000D02*
X107000000Y-103350000D01*
X108700000Y-92650000D02*
X104400000Y-92650000D01*
%TO.C,C10*%
X137759420Y-106990000D02*
X138040580Y-106990000D01*
X137759420Y-108010000D02*
X138040580Y-108010000D01*
%TO.C,C7*%
X117090000Y-80415000D02*
X119440000Y-80415000D01*
X118258750Y-87868750D02*
X119046250Y-87868750D01*
X117090000Y-86170563D02*
X117090000Y-80415000D01*
X118652500Y-88262500D02*
X118652500Y-87475000D01*
X118154437Y-87235000D02*
X119440000Y-87235000D01*
X118154437Y-87235000D02*
X117090000Y-86170563D01*
X123910000Y-80415000D02*
X121560000Y-80415000D01*
X122845563Y-87235000D02*
X121560000Y-87235000D01*
X122845563Y-87235000D02*
X123910000Y-86170563D01*
X123910000Y-86170563D02*
X123910000Y-80415000D01*
%TO.C,C5*%
X140186000Y-99852500D02*
X140186000Y-97947500D01*
X134979000Y-99027000D02*
X134979000Y-99789000D01*
X135614000Y-97947500D02*
X135614000Y-99852500D01*
X135614000Y-99852500D02*
X140186000Y-99852500D01*
X134598000Y-99408000D02*
X135360000Y-99408000D01*
X140186000Y-97947500D02*
X135614000Y-97947500D01*
G36*
X137328500Y-100106500D02*
G01*
X136693500Y-100106500D01*
X136693500Y-99852500D01*
X137328500Y-99852500D01*
X137328500Y-100106500D01*
G37*
D12*
X137328500Y-100106500D02*
X136693500Y-100106500D01*
X136693500Y-99852500D01*
X137328500Y-99852500D01*
X137328500Y-100106500D01*
G36*
X137328500Y-97947500D02*
G01*
X136693500Y-97947500D01*
X136693500Y-97693500D01*
X137328500Y-97693500D01*
X137328500Y-97947500D01*
G37*
X137328500Y-97947500D02*
X136693500Y-97947500D01*
X136693500Y-97693500D01*
X137328500Y-97693500D01*
X137328500Y-97947500D01*
D11*
%TO.C,R5*%
X104962742Y-107922500D02*
X105437258Y-107922500D01*
X104962742Y-106877500D02*
X105437258Y-106877500D01*
%TO.C,R6*%
X146537258Y-139027500D02*
X146062742Y-139027500D01*
X146537258Y-140072500D02*
X146062742Y-140072500D01*
%TO.C,R8*%
X119912258Y-123277500D02*
X119437742Y-123277500D01*
X119912258Y-124322500D02*
X119437742Y-124322500D01*
%TO.C,U5*%
X127450000Y-103200000D02*
X128950000Y-103200000D01*
X128950000Y-93750000D02*
X130050000Y-93750000D01*
X128950000Y-103200000D02*
X128950000Y-102250000D01*
X127450000Y-92800000D02*
X128950000Y-92800000D01*
X128950000Y-92800000D02*
X128950000Y-93750000D01*
X128950000Y-102250000D02*
X134075000Y-102250000D01*
%TO.C,U6*%
X174000000Y-154150000D02*
X174000000Y-137150000D01*
X174000000Y-137150000D02*
X170800000Y-137150000D01*
X158650000Y-154150000D02*
X174000000Y-154150000D01*
X170800000Y-138550000D02*
X170800000Y-137150000D01*
X158650000Y-138550000D02*
X170800000Y-138550000D01*
X158650000Y-138550000D02*
X158650000Y-154150000D01*
%TO.C,D5*%
X121750000Y-142085000D02*
X124035000Y-142085000D01*
X124035000Y-142085000D02*
X124035000Y-140615000D01*
X124035000Y-140615000D02*
X121750000Y-140615000D01*
%TO.C,D3*%
X136900000Y-83775000D02*
X131500000Y-83775000D01*
X136900000Y-87075000D02*
X131500000Y-87075000D01*
X136900000Y-87075000D02*
X136900000Y-83775000D01*
%TO.C,R31*%
X119912258Y-122122500D02*
X119437742Y-122122500D01*
X119912258Y-121077500D02*
X119437742Y-121077500D01*
%TO.C,D10*%
X148800000Y-96450000D02*
X148800000Y-93150000D01*
X148800000Y-93150000D02*
X143400000Y-93150000D01*
X148800000Y-96450000D02*
X143400000Y-96450000D01*
%TO.C,R29*%
X153037258Y-90722500D02*
X152562742Y-90722500D01*
X153037258Y-89677500D02*
X152562742Y-89677500D01*
%TO.C,R3*%
X138237258Y-94077500D02*
X137762742Y-94077500D01*
X138237258Y-95122500D02*
X137762742Y-95122500D01*
%TO.C,R7*%
X125987258Y-140272500D02*
X125512742Y-140272500D01*
X125987258Y-139227500D02*
X125512742Y-139227500D01*
%TO.C,C6*%
X137759420Y-105490000D02*
X138040580Y-105490000D01*
X137759420Y-106510000D02*
X138040580Y-106510000D01*
%TO.C,D1*%
X118400000Y-110450000D02*
X118400000Y-108750000D01*
X118400000Y-108750000D02*
X115850000Y-108750000D01*
X118400000Y-110450000D02*
X115850000Y-110450000D01*
%TO.C,kibuzzard-61FFCA5B*%
G36*
X105966466Y-77277341D02*
G01*
X106021631Y-77304725D01*
X106057350Y-77351556D01*
X106069256Y-77419025D01*
X106024806Y-77529356D01*
X105966466Y-77558527D01*
X105880344Y-77568250D01*
X105837481Y-77568250D01*
X105837481Y-77272975D01*
X105869231Y-77269006D01*
X105896219Y-77268212D01*
X105966466Y-77277341D01*
G37*
G36*
X102829367Y-77277142D02*
G01*
X102883937Y-77303931D01*
X102919061Y-77352152D01*
X102930769Y-77425375D01*
X102918862Y-77502567D01*
X102883144Y-77553169D01*
X102824009Y-77581148D01*
X102741856Y-77590475D01*
X102662481Y-77590475D01*
X102662481Y-77272975D01*
X102710900Y-77269006D01*
X102759319Y-77268212D01*
X102829367Y-77277142D01*
G37*
G36*
X103653081Y-77284087D02*
G01*
X103699912Y-77357112D01*
X103722137Y-77465856D01*
X103726305Y-77530745D01*
X103727694Y-77600000D01*
X103726305Y-77669056D01*
X103722137Y-77733350D01*
X103699912Y-77842094D01*
X103652287Y-77915913D01*
X103572119Y-77942900D01*
X103491156Y-77915913D01*
X103444325Y-77842888D01*
X103422100Y-77734144D01*
X103417933Y-77669255D01*
X103416544Y-77600000D01*
X103417933Y-77530944D01*
X103422100Y-77466650D01*
X103444325Y-77357906D01*
X103491156Y-77284087D01*
X103572119Y-77257100D01*
X103653081Y-77284087D01*
G37*
G36*
X101270993Y-77600000D02*
G01*
X101954589Y-76574607D01*
X106845411Y-76574607D01*
X107529007Y-77600000D01*
X106845411Y-78625393D01*
X101954589Y-78625393D01*
X101599077Y-78092125D01*
X102467219Y-78092125D01*
X102662481Y-78092125D01*
X102662481Y-77760338D01*
X102732331Y-77760338D01*
X102849718Y-77751606D01*
X102947878Y-77725413D01*
X103026812Y-77681756D01*
X103084580Y-77618521D01*
X103092138Y-77600000D01*
X103218106Y-77600000D01*
X103223811Y-77719211D01*
X103240927Y-77822845D01*
X103269452Y-77910902D01*
X103309387Y-77983381D01*
X103379326Y-78055260D01*
X103467432Y-78098387D01*
X103573706Y-78112763D01*
X103677423Y-78098387D01*
X103764206Y-78055260D01*
X103834056Y-77983381D01*
X103874339Y-77910902D01*
X103903112Y-77822845D01*
X103920377Y-77719211D01*
X103926131Y-77600000D01*
X103920476Y-77480789D01*
X103903509Y-77377155D01*
X103875232Y-77289098D01*
X103835644Y-77216619D01*
X103766147Y-77144740D01*
X103694292Y-77109462D01*
X104005506Y-77109462D01*
X104009078Y-77230708D01*
X104013444Y-77356319D01*
X104018802Y-77483716D01*
X104025350Y-77610319D01*
X104033089Y-77735731D01*
X104042019Y-77859556D01*
X104052337Y-77979214D01*
X104064244Y-78092125D01*
X104226169Y-78092125D01*
X104259506Y-77987747D01*
X104296019Y-77874638D01*
X104333325Y-77761528D01*
X104369044Y-77657150D01*
X104403969Y-77764505D01*
X104438894Y-77877019D01*
X104473819Y-77988342D01*
X104508744Y-78092125D01*
X104670669Y-78092125D01*
X104862756Y-78092125D01*
X105492994Y-78092125D01*
X105642219Y-78092125D01*
X105837481Y-78092125D01*
X105837481Y-77730175D01*
X105939081Y-77730175D01*
X105992858Y-77820067D01*
X106043063Y-77908769D01*
X106088505Y-77998661D01*
X106127994Y-78092125D01*
X106332781Y-78092125D01*
X106287538Y-77988144D01*
X106232769Y-77878606D01*
X106174031Y-77773831D01*
X106116881Y-77682550D01*
X106186334Y-77637703D01*
X106232769Y-77576187D01*
X106258963Y-77502369D01*
X106267694Y-77420612D01*
X106261145Y-77343420D01*
X106241500Y-77276944D01*
X106166094Y-77176137D01*
X106112119Y-77141609D01*
X106048619Y-77117400D01*
X105976388Y-77103112D01*
X105896219Y-77098350D01*
X105840656Y-77099938D01*
X105773981Y-77103906D01*
X105704925Y-77111844D01*
X105642219Y-77123750D01*
X105642219Y-78092125D01*
X105492994Y-78092125D01*
X105492994Y-77930200D01*
X105058019Y-77930200D01*
X105058019Y-77653975D01*
X105405681Y-77653975D01*
X105405681Y-77492050D01*
X105058019Y-77492050D01*
X105058019Y-77271387D01*
X105458069Y-77271387D01*
X105458069Y-77109462D01*
X104862756Y-77109462D01*
X104862756Y-78092125D01*
X104670669Y-78092125D01*
X104681186Y-77979413D01*
X104690513Y-77860350D01*
X104698648Y-77737120D01*
X104705594Y-77611906D01*
X104711547Y-77485303D01*
X104716706Y-77357906D01*
X104721469Y-77231898D01*
X104726231Y-77109462D01*
X104545256Y-77109462D01*
X104545653Y-77204911D01*
X104546844Y-77303931D01*
X104548431Y-77404142D01*
X104550019Y-77503162D01*
X104551606Y-77600595D01*
X104553194Y-77696044D01*
X104554384Y-77787523D01*
X104554781Y-77873050D01*
X104519063Y-77746050D01*
X104485725Y-77630163D01*
X104457944Y-77531737D01*
X104438894Y-77457125D01*
X104296019Y-77457125D01*
X104273794Y-77534912D01*
X104242837Y-77642863D01*
X104207912Y-77761925D01*
X104175369Y-77873050D01*
X104175766Y-77787523D01*
X104176956Y-77696044D01*
X104178544Y-77600397D01*
X104180131Y-77502369D01*
X104181719Y-77402952D01*
X104183306Y-77303137D01*
X104184894Y-77204712D01*
X104186481Y-77109462D01*
X104005506Y-77109462D01*
X103694292Y-77109462D01*
X103678305Y-77101613D01*
X103572119Y-77087237D01*
X103469108Y-77101613D01*
X103382324Y-77144740D01*
X103311769Y-77216619D01*
X103270791Y-77289098D01*
X103241522Y-77377155D01*
X103223960Y-77480789D01*
X103218106Y-77600000D01*
X103092138Y-77600000D01*
X103119240Y-77533590D01*
X103130794Y-77426962D01*
X103119328Y-77321394D01*
X103084933Y-77237521D01*
X103027606Y-77175344D01*
X102949466Y-77132569D01*
X102852628Y-77106905D01*
X102737094Y-77098350D01*
X102675181Y-77099938D01*
X102603744Y-77103906D01*
X102531512Y-77111050D01*
X102467219Y-77122162D01*
X102467219Y-78092125D01*
X101599077Y-78092125D01*
X101270993Y-77600000D01*
G37*
%TO.C,D2*%
X124950000Y-142085000D02*
X127235000Y-142085000D01*
X127235000Y-142085000D02*
X127235000Y-140615000D01*
X127235000Y-140615000D02*
X124950000Y-140615000D01*
%TO.C,R26*%
X182677500Y-84937258D02*
X182677500Y-84462742D01*
X183722500Y-84937258D02*
X183722500Y-84462742D01*
%TO.C,C21*%
X170953733Y-133490000D02*
X171246267Y-133490000D01*
X170953733Y-134510000D02*
X171246267Y-134510000D01*
%TO.C,Y2*%
X136000000Y-105000000D02*
X130250000Y-105000000D01*
X130250000Y-105000000D02*
X130250000Y-108600000D01*
X130250000Y-108600000D02*
X136000000Y-108600000D01*
%TO.C,R13*%
X162854724Y-122222500D02*
X162345276Y-122222500D01*
X162854724Y-121177500D02*
X162345276Y-121177500D01*
%TO.C,R4*%
X137762742Y-92477500D02*
X138237258Y-92477500D01*
X137762742Y-93522500D02*
X138237258Y-93522500D01*
%TO.C,Q1*%
X153300000Y-92140000D02*
X153950000Y-92140000D01*
X153300000Y-95260000D02*
X153950000Y-95260000D01*
X153300000Y-95260000D02*
X152650000Y-95260000D01*
X153300000Y-92140000D02*
X151625000Y-92140000D01*
%TO.C,R11*%
X189535000Y-141172936D02*
X189535000Y-141627064D01*
X188065000Y-141172936D02*
X188065000Y-141627064D01*
%TO.C,R10*%
X186935000Y-141172936D02*
X186935000Y-141627064D01*
X185465000Y-141172936D02*
X185465000Y-141627064D01*
%TO.C,C9*%
X129210000Y-84411252D02*
X129210000Y-82988748D01*
X127390000Y-84411252D02*
X127390000Y-82988748D01*
%TO.C,R1*%
X116537258Y-140877500D02*
X116062742Y-140877500D01*
X116537258Y-141922500D02*
X116062742Y-141922500D01*
%TO.C,C12*%
X116010000Y-131609420D02*
X116010000Y-131890580D01*
X114990000Y-131609420D02*
X114990000Y-131890580D01*
%TO.C,L2*%
X150600000Y-90525000D02*
X147600000Y-90525000D01*
X141000000Y-90525000D02*
X138000000Y-90525000D01*
X138000000Y-77925000D02*
X141000000Y-77925000D01*
X147600000Y-77925000D02*
X150600000Y-77925000D01*
X138000000Y-90525000D02*
X138000000Y-77925000D01*
X150600000Y-77925000D02*
X150600000Y-90525000D01*
%TO.C,kibuzzard-61FFCAE2*%
G36*
X113025393Y-112854689D02*
G01*
X113025393Y-116145311D01*
X110974607Y-116145311D01*
X110974607Y-115186594D01*
X111487237Y-115186594D01*
X111495770Y-115279661D01*
X111521369Y-115365188D01*
X111563437Y-115441388D01*
X111621381Y-115506475D01*
X111694605Y-115559458D01*
X111782512Y-115599344D01*
X111884509Y-115624347D01*
X112000000Y-115632681D01*
X112115987Y-115625835D01*
X112217884Y-115605297D01*
X112305693Y-115571066D01*
X112379413Y-115523144D01*
X112453496Y-115439183D01*
X112497946Y-115333349D01*
X112512763Y-115205644D01*
X112507405Y-115118927D01*
X112491331Y-115042925D01*
X112444500Y-114931006D01*
X112290513Y-114980219D01*
X112325438Y-115060388D01*
X112342900Y-115186594D01*
X112320477Y-115299902D01*
X112253206Y-115376300D01*
X112184679Y-115408491D01*
X112098690Y-115427806D01*
X111995237Y-115434244D01*
X111906337Y-115428886D01*
X111833312Y-115412813D01*
X111729331Y-115357250D01*
X111673769Y-115279463D01*
X111657100Y-115189769D01*
X111673769Y-115071500D01*
X111714250Y-114983394D01*
X111558675Y-114932594D01*
X111539625Y-114965138D01*
X111515812Y-115018319D01*
X111495969Y-115092138D01*
X111487237Y-115186594D01*
X110974607Y-115186594D01*
X110974607Y-114588106D01*
X111509462Y-114588106D01*
X111618157Y-114621741D01*
X111729927Y-114655972D01*
X111844772Y-114690798D01*
X111962694Y-114726219D01*
X112060325Y-114754730D01*
X112162084Y-114783115D01*
X112267970Y-114811372D01*
X112377984Y-114839503D01*
X112492125Y-114867506D01*
X112492125Y-114664306D01*
X112265113Y-114619856D01*
X112265113Y-114357919D01*
X112492125Y-114311881D01*
X112492125Y-114102331D01*
X112380714Y-114128525D01*
X112272542Y-114155036D01*
X112167608Y-114181865D01*
X112065913Y-114209011D01*
X111967456Y-114236475D01*
X111848046Y-114271053D01*
X111731911Y-114305730D01*
X111619050Y-114340506D01*
X111509462Y-114375381D01*
X111509462Y-114588106D01*
X110974607Y-114588106D01*
X110974607Y-114015019D01*
X111509462Y-114015019D01*
X112492125Y-114015019D01*
X112492125Y-113838806D01*
X111839662Y-113838806D01*
X111948583Y-113779804D01*
X112057326Y-113723448D01*
X112165894Y-113669737D01*
X112274461Y-113618673D01*
X112383205Y-113570254D01*
X112492125Y-113524481D01*
X112492125Y-113367319D01*
X111509462Y-113367319D01*
X111509462Y-113543531D01*
X112114300Y-113543531D01*
X112052388Y-113571511D01*
X111980950Y-113604650D01*
X111903559Y-113641956D01*
X111823787Y-113682437D01*
X111742627Y-113725102D01*
X111661069Y-113768956D01*
X111582289Y-113813406D01*
X111509462Y-113857856D01*
X111509462Y-114015019D01*
X110974607Y-114015019D01*
X110974607Y-112854689D01*
X113025393Y-112854689D01*
G37*
G36*
X112103188Y-114583344D02*
G01*
X112001588Y-114563500D01*
X111903956Y-114541275D01*
X111805531Y-114515875D01*
X111699962Y-114486506D01*
X111805531Y-114457137D01*
X111903956Y-114431737D01*
X112001588Y-114410306D01*
X112103188Y-114391256D01*
X112103188Y-114583344D01*
G37*
%TO.C,U9*%
X177000000Y-83440000D02*
X175200000Y-83440000D01*
X177000000Y-86560000D02*
X177800000Y-86560000D01*
X177000000Y-86560000D02*
X176200000Y-86560000D01*
X177000000Y-83440000D02*
X177800000Y-83440000D01*
%TO.C,J7*%
X135250000Y-148575000D02*
X137050000Y-148575000D01*
X137050000Y-150075000D02*
X136300000Y-150075000D01*
X127700000Y-153025000D02*
X132000000Y-153025000D01*
X133750000Y-147825000D02*
X130250000Y-147825000D01*
X126650000Y-147525000D02*
X126650000Y-148775000D01*
X126940000Y-147815000D02*
X126940000Y-153785000D01*
X137060000Y-153785000D02*
X137060000Y-147815000D01*
X136300000Y-153025000D02*
X132000000Y-153025000D01*
X137050000Y-147825000D02*
X135250000Y-147825000D01*
X128750000Y-147825000D02*
X126950000Y-147825000D01*
X133750000Y-148575000D02*
X133750000Y-147825000D01*
X128750000Y-148575000D02*
X128750000Y-147825000D01*
X126950000Y-147825000D02*
X126950000Y-148575000D01*
X136300000Y-150075000D02*
X136300000Y-153025000D01*
X135250000Y-147825000D02*
X135250000Y-148575000D01*
X137050000Y-148575000D02*
X137050000Y-147825000D01*
X126950000Y-148575000D02*
X128750000Y-148575000D01*
X127900000Y-147525000D02*
X126650000Y-147525000D01*
X127700000Y-150075000D02*
X127700000Y-153025000D01*
X137060000Y-147815000D02*
X126940000Y-147815000D01*
X130250000Y-147825000D02*
X130250000Y-148575000D01*
X126950000Y-150075000D02*
X127700000Y-150075000D01*
X130250000Y-148575000D02*
X133750000Y-148575000D01*
X126940000Y-153785000D02*
X137060000Y-153785000D01*
%TO.C,kibuzzard-6200D0E6*%
G36*
X111180164Y-146452155D02*
G01*
X111180164Y-145939525D01*
X111703906Y-145939525D01*
X112686569Y-145939525D01*
X112686569Y-145309288D01*
X112524644Y-145309288D01*
X112524644Y-145744263D01*
X112248419Y-145744263D01*
X112248419Y-145396600D01*
X112086494Y-145396600D01*
X112086494Y-145744263D01*
X111865831Y-145744263D01*
X111865831Y-145344213D01*
X111703906Y-145344213D01*
X111703906Y-145939525D01*
X111180164Y-145939525D01*
X111180164Y-145212450D01*
X111703906Y-145212450D01*
X112167456Y-144955275D01*
X112237108Y-144994169D01*
X112309538Y-145034650D01*
X112382364Y-145074933D01*
X112453206Y-145113231D01*
X112520675Y-145148950D01*
X112583381Y-145181494D01*
X112686569Y-145228325D01*
X112686569Y-145017188D01*
X112600645Y-144980675D01*
X112504800Y-144937813D01*
X112405780Y-144891775D01*
X112310331Y-144845738D01*
X112408756Y-144799105D01*
X112507181Y-144754456D01*
X112601241Y-144714173D01*
X112686569Y-144680638D01*
X112686569Y-144469500D01*
X112582588Y-144512363D01*
X112519088Y-144541533D01*
X112450825Y-144575069D01*
X112379189Y-144612177D01*
X112305569Y-144652063D01*
X112232544Y-144693734D01*
X112162694Y-144736200D01*
X111703906Y-144485375D01*
X111703906Y-144682225D01*
X112018231Y-144845738D01*
X111703906Y-145001313D01*
X111703906Y-145212450D01*
X111180164Y-145212450D01*
X111180164Y-144412350D01*
X111703906Y-144412350D01*
X111865831Y-144412350D01*
X111865831Y-144153588D01*
X112686569Y-144153588D01*
X112686569Y-143956738D01*
X111865831Y-143956738D01*
X111865831Y-143697975D01*
X111703906Y-143697975D01*
X111703906Y-144412350D01*
X111180164Y-144412350D01*
X111180164Y-143558275D01*
X111703906Y-143558275D01*
X112686569Y-143558275D01*
X112686569Y-142928038D01*
X112524644Y-142928038D01*
X112524644Y-143363013D01*
X112248419Y-143363013D01*
X112248419Y-143015350D01*
X112086494Y-143015350D01*
X112086494Y-143363013D01*
X111865831Y-143363013D01*
X111865831Y-142962963D01*
X111703906Y-142962963D01*
X111703906Y-143558275D01*
X111180164Y-143558275D01*
X111180164Y-142524813D01*
X111692794Y-142524813D01*
X111694381Y-142580375D01*
X111698350Y-142647050D01*
X111706287Y-142716106D01*
X111718194Y-142778813D01*
X112686569Y-142778813D01*
X112686569Y-142583550D01*
X112324619Y-142583550D01*
X112324619Y-142481950D01*
X112414511Y-142428173D01*
X112503213Y-142377969D01*
X112593105Y-142332527D01*
X112686569Y-142293038D01*
X112686569Y-142088250D01*
X112582588Y-142133494D01*
X112473050Y-142188263D01*
X112368275Y-142247000D01*
X112276994Y-142304150D01*
X112232147Y-142234697D01*
X112170631Y-142188263D01*
X112096812Y-142162069D01*
X112015056Y-142153338D01*
X111937864Y-142159886D01*
X111871387Y-142179531D01*
X111770581Y-142254938D01*
X111736053Y-142308913D01*
X111711844Y-142372413D01*
X111697556Y-142444644D01*
X111692794Y-142524813D01*
X111180164Y-142524813D01*
X111180164Y-141997763D01*
X111703906Y-141997763D01*
X112686569Y-141997763D01*
X112686569Y-141821550D01*
X112034106Y-141821550D01*
X112143026Y-141762548D01*
X112251770Y-141706192D01*
X112360338Y-141652481D01*
X112468905Y-141601417D01*
X112577649Y-141552998D01*
X112686569Y-141507225D01*
X112686569Y-141350062D01*
X111703906Y-141350062D01*
X111703906Y-141526275D01*
X112308744Y-141526275D01*
X112246831Y-141554255D01*
X112175394Y-141587394D01*
X112098003Y-141624700D01*
X112018231Y-141665181D01*
X111937070Y-141707845D01*
X111855512Y-141751700D01*
X111776733Y-141796150D01*
X111703906Y-141840600D01*
X111703906Y-141997763D01*
X111180164Y-141997763D01*
X111180164Y-140983350D01*
X111703906Y-140983350D01*
X111812600Y-141016985D01*
X111924370Y-141051216D01*
X112039216Y-141086041D01*
X112157137Y-141121463D01*
X112254769Y-141149974D01*
X112356528Y-141178359D01*
X112462414Y-141206616D01*
X112572428Y-141234747D01*
X112686569Y-141262750D01*
X112686569Y-141059550D01*
X112459556Y-141015100D01*
X112459556Y-140753162D01*
X112686569Y-140707125D01*
X112686569Y-140497575D01*
X112575158Y-140523769D01*
X112466986Y-140550280D01*
X112362052Y-140577109D01*
X112260357Y-140604255D01*
X112161900Y-140631719D01*
X112042490Y-140666296D01*
X111926355Y-140700973D01*
X111813493Y-140735750D01*
X111703906Y-140770625D01*
X111703906Y-140983350D01*
X111180164Y-140983350D01*
X111180164Y-140370575D01*
X111703906Y-140370575D01*
X112686569Y-140370575D01*
X112686569Y-139753037D01*
X112524644Y-139753037D01*
X112524644Y-140173725D01*
X111703906Y-140173725D01*
X111703906Y-140370575D01*
X111180164Y-140370575D01*
X111180164Y-138833875D01*
X111703906Y-138833875D01*
X112330969Y-138833875D01*
X112412725Y-138829906D01*
X112486544Y-138818000D01*
X112551234Y-138796569D01*
X112605606Y-138764025D01*
X112681013Y-138661631D01*
X112700658Y-138589598D01*
X112707206Y-138502087D01*
X112700658Y-138413187D01*
X112681013Y-138340162D01*
X112649064Y-138281425D01*
X112605606Y-138235387D01*
X112551234Y-138201653D01*
X112486544Y-138179825D01*
X112412725Y-138167919D01*
X112330969Y-138163950D01*
X111703906Y-138163950D01*
X111703906Y-138359212D01*
X112316681Y-138359212D01*
X112420663Y-138365562D01*
X112488925Y-138387787D01*
X112526231Y-138430650D01*
X112537344Y-138498912D01*
X112526231Y-138567175D01*
X112489719Y-138609244D01*
X112422250Y-138630675D01*
X112318269Y-138637025D01*
X111703906Y-138637025D01*
X111703906Y-138833875D01*
X111180164Y-138833875D01*
X111180164Y-137808350D01*
X111703906Y-137808350D01*
X111812600Y-137841985D01*
X111924370Y-137876216D01*
X112039216Y-137911041D01*
X112157137Y-137946462D01*
X112254769Y-137974974D01*
X112356528Y-138003358D01*
X112462414Y-138031616D01*
X112572428Y-138059746D01*
X112686569Y-138087750D01*
X112686569Y-137884550D01*
X112459556Y-137840100D01*
X112459556Y-137578162D01*
X112686569Y-137532125D01*
X112686569Y-137322575D01*
X112575158Y-137348769D01*
X112466986Y-137375280D01*
X112362052Y-137402109D01*
X112260357Y-137429255D01*
X112161900Y-137456719D01*
X112042490Y-137491296D01*
X111926355Y-137525973D01*
X111813493Y-137560750D01*
X111703906Y-137595625D01*
X111703906Y-137808350D01*
X111180164Y-137808350D01*
X111180164Y-136968562D01*
X111692794Y-136968562D01*
X111694381Y-137024125D01*
X111698350Y-137090800D01*
X111706287Y-137159856D01*
X111718194Y-137222562D01*
X112686569Y-137222562D01*
X112686569Y-137027300D01*
X112324619Y-137027300D01*
X112324619Y-136925700D01*
X112414511Y-136871923D01*
X112503213Y-136821719D01*
X112593105Y-136776277D01*
X112686569Y-136736787D01*
X112686569Y-136532000D01*
X112582588Y-136577244D01*
X112473050Y-136632012D01*
X112368275Y-136690750D01*
X112276994Y-136747900D01*
X112232147Y-136678447D01*
X112170631Y-136632012D01*
X112096812Y-136605819D01*
X112015056Y-136597087D01*
X111937864Y-136603636D01*
X111871387Y-136623281D01*
X111770581Y-136698687D01*
X111736053Y-136752662D01*
X111711844Y-136816163D01*
X111697556Y-136888394D01*
X111692794Y-136968562D01*
X111180164Y-136968562D01*
X111180164Y-136474850D01*
X111703906Y-136474850D01*
X111865831Y-136474850D01*
X111865831Y-136216087D01*
X112686569Y-136216087D01*
X112686569Y-136019237D01*
X111865831Y-136019237D01*
X111865831Y-135760475D01*
X111703906Y-135760475D01*
X111703906Y-136474850D01*
X111180164Y-136474850D01*
X111180164Y-135247845D01*
X113219836Y-135247845D01*
X113219836Y-146452155D01*
X111180164Y-146452155D01*
G37*
G36*
X112123800Y-142396225D02*
G01*
X112152970Y-142454566D01*
X112162694Y-142540688D01*
X112162694Y-142583550D01*
X111867419Y-142583550D01*
X111863450Y-142551800D01*
X111862656Y-142524813D01*
X111871784Y-142454566D01*
X111899169Y-142399400D01*
X111946000Y-142363681D01*
X112013469Y-142351775D01*
X112123800Y-142396225D01*
G37*
G36*
X112123800Y-136839975D02*
G01*
X112152970Y-136898316D01*
X112162694Y-136984437D01*
X112162694Y-137027300D01*
X111867419Y-137027300D01*
X111863450Y-136995550D01*
X111862656Y-136968562D01*
X111871784Y-136898316D01*
X111899169Y-136843150D01*
X111946000Y-136807431D01*
X112013469Y-136795525D01*
X112123800Y-136839975D01*
G37*
G36*
X112297631Y-137803587D02*
G01*
X112196031Y-137783744D01*
X112098400Y-137761519D01*
X111999975Y-137736119D01*
X111894406Y-137706750D01*
X111999975Y-137677381D01*
X112098400Y-137651981D01*
X112196031Y-137630550D01*
X112297631Y-137611500D01*
X112297631Y-137803587D01*
G37*
G36*
X112297631Y-140978588D02*
G01*
X112196031Y-140958744D01*
X112098400Y-140936519D01*
X111999975Y-140911119D01*
X111894406Y-140881750D01*
X111999975Y-140852381D01*
X112098400Y-140826981D01*
X112196031Y-140805550D01*
X112297631Y-140786500D01*
X112297631Y-140978588D01*
G37*
D10*
%TO.C,TP2*%
X160300000Y-99900000D02*
G75*
G03*
X160300000Y-99900000I-1400000J0D01*
G01*
D11*
%TO.C,J1*%
X143000000Y-131500000D02*
X143000000Y-132700000D01*
X152400000Y-104300000D02*
X146100000Y-104300000D01*
X146100000Y-134700000D02*
X152400000Y-134700000D01*
X152400000Y-107500000D02*
X152400000Y-104300000D01*
X152400000Y-134700000D02*
X152400000Y-131900000D01*
X143000000Y-113900000D02*
X143000000Y-116700000D01*
X143000000Y-106300000D02*
X143000000Y-107100000D01*
X152400000Y-117100000D02*
X152400000Y-114300000D01*
%TO.C,R22*%
X173720000Y-84053641D02*
X173720000Y-83746359D01*
X174480000Y-84053641D02*
X174480000Y-83746359D01*
%TO.C,C2*%
X119234420Y-117240000D02*
X119515580Y-117240000D01*
X119234420Y-118260000D02*
X119515580Y-118260000D01*
%TO.C,C22*%
X162553733Y-130990000D02*
X162846267Y-130990000D01*
X162553733Y-132010000D02*
X162846267Y-132010000D01*
%TO.C,C17*%
X122010000Y-131609420D02*
X122010000Y-131890580D01*
X120990000Y-131609420D02*
X120990000Y-131890580D01*
%TO.C,R15*%
X147722500Y-142145276D02*
X147722500Y-142654724D01*
X146677500Y-142145276D02*
X146677500Y-142654724D01*
%TO.C,C19*%
X117990000Y-131609420D02*
X117990000Y-131890580D01*
X119010000Y-131609420D02*
X119010000Y-131890580D01*
%TO.C,C11*%
X146159420Y-138510000D02*
X146440580Y-138510000D01*
X146159420Y-137490000D02*
X146440580Y-137490000D01*
%TO.C,R9*%
X122787258Y-140272500D02*
X122312742Y-140272500D01*
X122787258Y-139227500D02*
X122312742Y-139227500D01*
%TO.C,D7*%
X177100000Y-139450000D02*
X177100000Y-142750000D01*
X177100000Y-142750000D02*
X182500000Y-142750000D01*
X177100000Y-139450000D02*
X182500000Y-139450000D01*
%TO.C,C14*%
X114510000Y-131609420D02*
X114510000Y-131890580D01*
X113490000Y-131609420D02*
X113490000Y-131890580D01*
%TO.C,U3*%
X139185000Y-115700000D02*
X139185000Y-119560000D01*
X139185000Y-115700000D02*
X139185000Y-111840000D01*
X127415000Y-119560000D02*
X127660000Y-119560000D01*
X139185000Y-119560000D02*
X138940000Y-119560000D01*
X138940000Y-111840000D02*
X138940000Y-110025000D01*
X139185000Y-111840000D02*
X138940000Y-111840000D01*
X127415000Y-115700000D02*
X127415000Y-119560000D01*
X127415000Y-115700000D02*
X127415000Y-111840000D01*
X127415000Y-111840000D02*
X127660000Y-111840000D01*
%TO.C,Y1*%
X123550000Y-113200000D02*
X117800000Y-113200000D01*
X117800000Y-116800000D02*
X123550000Y-116800000D01*
X117800000Y-113200000D02*
X117800000Y-116800000D01*
D10*
%TO.C,TP1*%
X164500000Y-99900000D02*
G75*
G03*
X164500000Y-99900000I-1400000J0D01*
G01*
D11*
%TO.C,R25*%
X165362742Y-86877500D02*
X165837258Y-86877500D01*
X165362742Y-87922500D02*
X165837258Y-87922500D01*
%TO.C,C26*%
X181638748Y-80735000D02*
X182161252Y-80735000D01*
X181638748Y-79265000D02*
X182161252Y-79265000D01*
%TO.C,C25*%
X181910000Y-84840580D02*
X181910000Y-84559420D01*
X180890000Y-84840580D02*
X180890000Y-84559420D01*
%TO.C,C20*%
X162553733Y-133590000D02*
X162846267Y-133590000D01*
X162553733Y-134610000D02*
X162846267Y-134610000D01*
%TO.C,R2*%
X138237258Y-143022500D02*
X137762742Y-143022500D01*
X138237258Y-141977500D02*
X137762742Y-141977500D01*
%TO.C,D6*%
X118400000Y-107050000D02*
X118400000Y-105350000D01*
X118400000Y-105350000D02*
X115850000Y-105350000D01*
X118400000Y-107050000D02*
X115850000Y-107050000D01*
%TO.C,D9*%
X164800000Y-89935000D02*
X167085000Y-89935000D01*
X167085000Y-88465000D02*
X164800000Y-88465000D01*
X167085000Y-89935000D02*
X167085000Y-88465000D01*
%TO.C,J9*%
X108825000Y-122900000D02*
X109575000Y-122900000D01*
X109875000Y-120800000D02*
X108625000Y-120800000D01*
X109875000Y-122050000D02*
X109875000Y-120800000D01*
X109575000Y-122900000D02*
X109575000Y-121100000D01*
X109575000Y-130400000D02*
X109575000Y-124400000D01*
X108825000Y-130400000D02*
X109575000Y-130400000D01*
X109575000Y-133700000D02*
X109575000Y-131900000D01*
X109575000Y-131900000D02*
X108825000Y-131900000D01*
X103615000Y-121090000D02*
X103615000Y-133710000D01*
X109575000Y-124400000D02*
X108825000Y-124400000D01*
X107325000Y-121850000D02*
X104375000Y-121850000D01*
X104375000Y-132950000D02*
X104375000Y-127400000D01*
X108825000Y-131900000D02*
X108825000Y-133700000D01*
X103615000Y-133710000D02*
X109585000Y-133710000D01*
X108825000Y-133700000D02*
X109575000Y-133700000D01*
X107325000Y-121100000D02*
X107325000Y-121850000D01*
X107325000Y-133700000D02*
X107325000Y-132950000D01*
X108825000Y-121100000D02*
X108825000Y-122900000D01*
X109585000Y-133710000D02*
X109585000Y-121090000D01*
X109585000Y-121090000D02*
X103615000Y-121090000D01*
X104375000Y-121850000D02*
X104375000Y-127400000D01*
X109575000Y-121100000D02*
X108825000Y-121100000D01*
X107325000Y-132950000D02*
X104375000Y-132950000D01*
X108825000Y-124400000D02*
X108825000Y-130400000D01*
%TO.C,R17*%
X150362742Y-137252500D02*
X150837258Y-137252500D01*
X150362742Y-138297500D02*
X150837258Y-138297500D01*
%TO.C,U1*%
X133700000Y-83385000D02*
X131750000Y-83385000D01*
X133700000Y-78265000D02*
X135650000Y-78265000D01*
X133700000Y-78265000D02*
X130250000Y-78265000D01*
X133700000Y-83385000D02*
X135650000Y-83385000D01*
D13*
%TO.C,BT1*%
X188525000Y-55675000D02*
X111475000Y-55675000D01*
X110500000Y-64300000D02*
X109000000Y-64300000D01*
X190250000Y-65050000D02*
X190250000Y-63550000D01*
X188525000Y-76325000D02*
X188525000Y-55675000D01*
X111475000Y-55675000D02*
X111475000Y-76325000D01*
X111475000Y-76325000D02*
X188525000Y-76325000D01*
X189500000Y-64300000D02*
X191000000Y-64300000D01*
D11*
%TO.C,C18*%
X119490000Y-131609420D02*
X119490000Y-131890580D01*
X120510000Y-131609420D02*
X120510000Y-131890580D01*
%TO.C,R14*%
X162345276Y-119277500D02*
X162854724Y-119277500D01*
X162345276Y-120322500D02*
X162854724Y-120322500D01*
D14*
%TO.C,U2*%
X139269000Y-135942000D02*
G75*
G03*
X139269000Y-135942000I-127000J0D01*
G01*
D11*
X139015000Y-136831000D02*
X140031000Y-135815000D01*
X140031000Y-135815000D02*
X140031000Y-123369000D01*
X130050000Y-136831000D02*
X130050000Y-137212000D01*
X135050000Y-136831000D02*
X135050000Y-137212000D01*
X126569000Y-127350000D02*
X126315000Y-127350000D01*
X133050000Y-123369000D02*
X133050000Y-123115000D01*
X126569000Y-129850000D02*
X126188000Y-129850000D01*
X130550000Y-122988000D02*
X130550000Y-123369000D01*
X135550000Y-123369000D02*
X135550000Y-122988000D01*
X126569000Y-132350000D02*
X126315000Y-132350000D01*
X140031000Y-123369000D02*
X126569000Y-123369000D01*
X140031000Y-126850000D02*
X140285000Y-126850000D01*
X140031000Y-129350000D02*
X140412000Y-129350000D01*
X140031000Y-131850000D02*
X140285000Y-131850000D01*
X126569000Y-136831000D02*
X139015000Y-136831000D01*
X126569000Y-123369000D02*
X126569000Y-136831000D01*
X132550000Y-136831000D02*
X132550000Y-137085000D01*
%TO.C,C1*%
X150459420Y-139065000D02*
X150740580Y-139065000D01*
X150459420Y-140085000D02*
X150740580Y-140085000D01*
%TO.C,R19*%
X135362742Y-139577500D02*
X135837258Y-139577500D01*
X135362742Y-140622500D02*
X135837258Y-140622500D01*
%TO.C,JP1*%
X110100000Y-107100000D02*
X110100000Y-107700000D01*
X109400000Y-108400000D02*
X108000000Y-108400000D01*
X107300000Y-107700000D02*
X107300000Y-107100000D01*
X108000000Y-106400000D02*
X109400000Y-106400000D01*
X109400000Y-108400000D02*
G75*
G03*
X110100000Y-107700000I1J699999D01*
G01*
X110100000Y-107100000D02*
G75*
G03*
X109400000Y-106400000I-699999J1D01*
G01*
X107300000Y-107700000D02*
G75*
G03*
X108000000Y-108400000I700000J0D01*
G01*
X108000000Y-106400000D02*
G75*
G03*
X107300000Y-107100000I0J-700000D01*
G01*
%TO.C,C4*%
X146086000Y-97947500D02*
X141514000Y-97947500D01*
X141514000Y-97947500D02*
X141514000Y-99852500D01*
X140498000Y-99408000D02*
X141260000Y-99408000D01*
X146086000Y-99852500D02*
X146086000Y-97947500D01*
X140879000Y-99027000D02*
X140879000Y-99789000D01*
X141514000Y-99852500D02*
X146086000Y-99852500D01*
G36*
X143228500Y-100106500D02*
G01*
X142593500Y-100106500D01*
X142593500Y-99852500D01*
X143228500Y-99852500D01*
X143228500Y-100106500D01*
G37*
D12*
X143228500Y-100106500D02*
X142593500Y-100106500D01*
X142593500Y-99852500D01*
X143228500Y-99852500D01*
X143228500Y-100106500D01*
G36*
X143228500Y-97947500D02*
G01*
X142593500Y-97947500D01*
X142593500Y-97693500D01*
X143228500Y-97693500D01*
X143228500Y-97947500D01*
G37*
X143228500Y-97947500D02*
X142593500Y-97947500D01*
X142593500Y-97693500D01*
X143228500Y-97693500D01*
X143228500Y-97947500D01*
%TO.C,kibuzzard-61FFCBC3*%
G36*
X147344450Y-145795994D02*
G01*
X147409538Y-145869812D01*
X147442875Y-145976175D01*
X147452400Y-146100000D01*
X147449423Y-146170048D01*
X147440494Y-146234144D01*
X147400806Y-146339713D01*
X147327781Y-146409563D01*
X147215862Y-146434963D01*
X147198400Y-146434963D01*
X147180937Y-146433375D01*
X147180937Y-145772975D01*
X147209512Y-145769006D01*
X147238087Y-145768212D01*
X147344450Y-145795994D01*
G37*
G36*
X148909725Y-145772181D02*
G01*
X148954175Y-145788056D01*
X148984338Y-145821394D01*
X148995450Y-145877750D01*
X148957350Y-145967444D01*
X148844638Y-145999987D01*
X148768438Y-145999987D01*
X148768438Y-145774562D01*
X148811300Y-145769800D01*
X148857338Y-145768212D01*
X148909725Y-145772181D01*
G37*
G36*
X143275820Y-145074607D02*
G01*
X151324180Y-145074607D01*
X151324180Y-147125393D01*
X143275820Y-147125393D01*
X143275820Y-146538150D01*
X143788450Y-146538150D01*
X143897987Y-146586569D01*
X143983316Y-146606214D01*
X144093250Y-146612763D01*
X144204640Y-146604384D01*
X144295392Y-146579249D01*
X144365506Y-146537356D01*
X144432777Y-146446273D01*
X144455200Y-146323838D01*
X144448453Y-146249820D01*
X144428212Y-146189694D01*
X144359156Y-146100794D01*
X144267081Y-146043644D01*
X144171037Y-146004750D01*
X144109919Y-145980937D01*
X144054356Y-145951569D01*
X144013875Y-145913469D01*
X143998000Y-145863462D01*
X144015286Y-145800844D01*
X144067144Y-145763274D01*
X144153575Y-145750750D01*
X144265494Y-145766625D01*
X144353600Y-145804725D01*
X144410750Y-145653912D01*
X144301157Y-145609462D01*
X144555212Y-145609462D01*
X144558784Y-145730708D01*
X144563150Y-145856319D01*
X144568508Y-145983716D01*
X144575056Y-146110319D01*
X144582795Y-146235731D01*
X144591725Y-146359556D01*
X144602044Y-146479214D01*
X144613950Y-146592125D01*
X144775875Y-146592125D01*
X144809212Y-146487747D01*
X144845725Y-146374638D01*
X144883031Y-146261528D01*
X144918750Y-146157150D01*
X144953675Y-146264505D01*
X144988600Y-146377019D01*
X145023525Y-146488342D01*
X145058450Y-146592125D01*
X145220375Y-146592125D01*
X145221412Y-146581013D01*
X145398175Y-146581013D01*
X145505331Y-146599269D01*
X145607725Y-146604825D01*
X145703570Y-146597880D01*
X145774411Y-146581013D01*
X146985675Y-146581013D01*
X147092831Y-146599269D01*
X147195225Y-146604825D01*
X147291070Y-146597880D01*
X147315241Y-146592125D01*
X147793713Y-146592125D01*
X148423950Y-146592125D01*
X148423950Y-146576250D01*
X148573175Y-146576250D01*
X148641834Y-146588752D01*
X148711288Y-146597681D01*
X148779947Y-146603039D01*
X148846225Y-146604825D01*
X148924608Y-146601055D01*
X148997831Y-146589744D01*
X149063713Y-146569503D01*
X149120069Y-146538944D01*
X149201825Y-146443694D01*
X149224447Y-146376820D01*
X149231988Y-146295263D01*
X149224121Y-146236525D01*
X149343113Y-146236525D01*
X149347081Y-146318281D01*
X149358988Y-146392100D01*
X149380419Y-146456791D01*
X149412963Y-146511163D01*
X149515356Y-146586569D01*
X149587389Y-146606214D01*
X149674900Y-146612763D01*
X149763800Y-146606214D01*
X149836825Y-146586569D01*
X149895563Y-146554620D01*
X149941600Y-146511163D01*
X149975334Y-146456791D01*
X149997163Y-146392100D01*
X150009069Y-146318281D01*
X150013038Y-146236525D01*
X150013038Y-146100000D01*
X150117813Y-146100000D01*
X150124956Y-146219261D01*
X150146388Y-146323044D01*
X150180916Y-146411150D01*
X150227350Y-146483381D01*
X150285095Y-146539738D01*
X150353556Y-146580219D01*
X150431939Y-146604627D01*
X150519450Y-146612763D01*
X150616486Y-146608794D01*
X150698044Y-146596888D01*
X150806788Y-146568313D01*
X150806788Y-146077775D01*
X150611525Y-146077775D01*
X150611525Y-146436550D01*
X150573425Y-146441313D01*
X150535325Y-146442900D01*
X150440472Y-146422064D01*
X150371813Y-146359556D01*
X150340944Y-146293675D01*
X150322424Y-146207156D01*
X150316250Y-146100000D01*
X150319623Y-146027173D01*
X150329744Y-145961094D01*
X150374194Y-145853144D01*
X150452775Y-145782500D01*
X150570250Y-145757100D01*
X150675025Y-145774562D01*
X150760750Y-145814250D01*
X150811550Y-145658675D01*
X150779006Y-145639625D01*
X150724238Y-145615812D01*
X150645656Y-145595969D01*
X150543263Y-145587237D01*
X150457141Y-145595373D01*
X150376575Y-145619781D01*
X150303947Y-145660461D01*
X150241638Y-145717412D01*
X150190441Y-145790239D01*
X150151150Y-145878544D01*
X150126147Y-145981930D01*
X150117813Y-146100000D01*
X150013038Y-146100000D01*
X150013038Y-145609462D01*
X149817775Y-145609462D01*
X149817775Y-146222238D01*
X149811425Y-146326219D01*
X149789200Y-146394481D01*
X149746338Y-146431788D01*
X149678075Y-146442900D01*
X149609813Y-146431788D01*
X149567744Y-146395275D01*
X149546313Y-146327806D01*
X149539963Y-146223825D01*
X149539963Y-145609462D01*
X149343113Y-145609462D01*
X149343113Y-146236525D01*
X149224121Y-146236525D01*
X149223058Y-146228588D01*
X149196269Y-146165088D01*
X149144477Y-146109525D01*
X149060538Y-146066662D01*
X149151819Y-145980937D01*
X149177417Y-145922994D01*
X149185950Y-145857112D01*
X149171663Y-145765037D01*
X149117688Y-145681694D01*
X149008150Y-145621369D01*
X148927981Y-145604105D01*
X148827175Y-145598350D01*
X148695413Y-145605494D01*
X148573175Y-145622162D01*
X148573175Y-146576250D01*
X148423950Y-146576250D01*
X148423950Y-146430200D01*
X147988975Y-146430200D01*
X147988975Y-146153975D01*
X148336638Y-146153975D01*
X148336638Y-145992050D01*
X147988975Y-145992050D01*
X147988975Y-145771387D01*
X148389025Y-145771387D01*
X148389025Y-145609462D01*
X147793713Y-145609462D01*
X147793713Y-146592125D01*
X147315241Y-146592125D01*
X147378581Y-146577044D01*
X147456170Y-146541127D01*
X147522250Y-146488938D01*
X147576027Y-146419683D01*
X147616706Y-146332569D01*
X147642305Y-146226405D01*
X147650838Y-146100000D01*
X147643098Y-145976373D01*
X147619881Y-145872194D01*
X147582773Y-145786072D01*
X147533363Y-145716619D01*
X147471648Y-145663636D01*
X147397631Y-145626925D01*
X147313295Y-145605494D01*
X147220625Y-145598350D01*
X147111087Y-145603112D01*
X146985675Y-145622162D01*
X146985675Y-146581013D01*
X145774411Y-146581013D01*
X145791081Y-146577044D01*
X145868670Y-146541127D01*
X145934750Y-146488938D01*
X145988527Y-146419683D01*
X146029206Y-146332569D01*
X146054805Y-146226405D01*
X146063337Y-146100000D01*
X146055598Y-145976373D01*
X146032381Y-145872194D01*
X145995273Y-145786072D01*
X145945862Y-145716619D01*
X145884148Y-145663636D01*
X145810131Y-145626925D01*
X145725795Y-145605494D01*
X145633125Y-145598350D01*
X145523587Y-145603112D01*
X145398175Y-145622162D01*
X145398175Y-146581013D01*
X145221412Y-146581013D01*
X145230892Y-146479413D01*
X145240219Y-146360350D01*
X145248355Y-146237120D01*
X145255300Y-146111906D01*
X145261253Y-145985303D01*
X145266413Y-145857906D01*
X145271175Y-145731898D01*
X145275938Y-145609462D01*
X145094962Y-145609462D01*
X145095359Y-145704911D01*
X145096550Y-145803931D01*
X145098137Y-145904142D01*
X145099725Y-146003162D01*
X145101312Y-146100595D01*
X145102900Y-146196044D01*
X145104091Y-146287523D01*
X145104487Y-146373050D01*
X145068769Y-146246050D01*
X145035431Y-146130163D01*
X145007650Y-146031737D01*
X144988600Y-145957125D01*
X144845725Y-145957125D01*
X144823500Y-146034912D01*
X144792544Y-146142863D01*
X144757619Y-146261925D01*
X144725075Y-146373050D01*
X144725472Y-146287523D01*
X144726662Y-146196044D01*
X144728250Y-146100397D01*
X144729837Y-146002369D01*
X144731425Y-145902952D01*
X144733012Y-145803137D01*
X144734600Y-145704712D01*
X144736187Y-145609462D01*
X144555212Y-145609462D01*
X144301157Y-145609462D01*
X144297244Y-145607875D01*
X144224020Y-145592397D01*
X144139287Y-145587237D01*
X144042009Y-145595881D01*
X143959724Y-145621810D01*
X143892431Y-145665025D01*
X143825161Y-145757894D01*
X143802737Y-145880925D01*
X143828137Y-145997606D01*
X143892431Y-146076187D01*
X143978950Y-146128575D01*
X144071025Y-146165088D01*
X144137700Y-146192869D01*
X144198025Y-146226206D01*
X144242475Y-146268275D01*
X144259937Y-146322250D01*
X144252794Y-146369081D01*
X144226600Y-146410356D01*
X144175006Y-146438931D01*
X144093250Y-146449250D01*
X144014073Y-146443694D01*
X143947994Y-146427025D01*
X143845600Y-146379400D01*
X143788450Y-146538150D01*
X143275820Y-146538150D01*
X143275820Y-145074607D01*
G37*
G36*
X145756950Y-145795994D02*
G01*
X145822037Y-145869812D01*
X145855375Y-145976175D01*
X145864900Y-146100000D01*
X145861923Y-146170048D01*
X145852994Y-146234144D01*
X145813306Y-146339713D01*
X145740281Y-146409563D01*
X145628362Y-146434963D01*
X145610900Y-146434963D01*
X145593437Y-146433375D01*
X145593437Y-145772975D01*
X145622012Y-145769006D01*
X145650587Y-145768212D01*
X145756950Y-145795994D01*
G37*
G36*
X148994656Y-146192869D02*
G01*
X149039900Y-146295263D01*
X149024025Y-146365906D01*
X148983544Y-146408769D01*
X148927188Y-146429406D01*
X148862100Y-146434963D01*
X148813681Y-146433375D01*
X148768438Y-146428613D01*
X148768438Y-146161913D01*
X148873213Y-146161913D01*
X148994656Y-146192869D01*
G37*
%TO.C,kibuzzard-61FFCA2F*%
G36*
X169900682Y-100200000D02*
G01*
X170865529Y-98752729D01*
X197534471Y-98752729D01*
X198499318Y-100200000D01*
X197534471Y-101647271D01*
X170865529Y-101647271D01*
X169917351Y-100225003D01*
X171378159Y-100225003D01*
X171393935Y-100403895D01*
X171441262Y-100569094D01*
X171512998Y-100713159D01*
X171601997Y-100828650D01*
X171705879Y-100922114D01*
X171822262Y-101000100D01*
X171943111Y-101060227D01*
X172060387Y-101100113D01*
X172175283Y-101122437D01*
X172288987Y-101129878D01*
X172404180Y-101120353D01*
X172523541Y-101091778D01*
X172684275Y-101029866D01*
X172766428Y-100979859D01*
X172841437Y-100920328D01*
X172873584Y-100836984D01*
X172821197Y-100703634D01*
X172738448Y-100603622D01*
X172661653Y-100570284D01*
X172547353Y-100617909D01*
X172504491Y-100648866D01*
X172410431Y-100686966D01*
X172271128Y-100706016D01*
X172116942Y-100679822D01*
X171968709Y-100601241D01*
X171847266Y-100451222D01*
X171811547Y-100349721D01*
X171801009Y-100248816D01*
X172995028Y-100248816D01*
X173010878Y-100423540D01*
X173058429Y-100585763D01*
X173137680Y-100735484D01*
X173248631Y-100872703D01*
X173382204Y-100987301D01*
X173529321Y-101069156D01*
X173689981Y-101118270D01*
X173864184Y-101134641D01*
X174038016Y-101118046D01*
X174197559Y-101068263D01*
X174342816Y-100985292D01*
X174448278Y-100891753D01*
X174876216Y-100891753D01*
X174879787Y-100977478D01*
X174902409Y-101039391D01*
X174965512Y-101087611D01*
X175083384Y-101103684D01*
X175204828Y-101087611D01*
X175269122Y-101039391D01*
X175291744Y-100978669D01*
X175295316Y-100896516D01*
X175295316Y-100094034D01*
X175339369Y-100153268D01*
X175447716Y-100302394D01*
X175564992Y-100462830D01*
X175635834Y-100555997D01*
X175654884Y-100582191D01*
X175717987Y-100631006D01*
X175815619Y-100656009D01*
X175915631Y-100628625D01*
X175973972Y-100585763D01*
X176016834Y-100529803D01*
X176068627Y-100459259D01*
X176162091Y-100328588D01*
X176262698Y-100189582D01*
X176335922Y-100094034D01*
X176335922Y-100891753D01*
X176347828Y-101015578D01*
X176381166Y-101063203D01*
X176443078Y-101091778D01*
X176552616Y-101103684D01*
X176666916Y-101089397D01*
X176734781Y-101026889D01*
X176757403Y-100896516D01*
X176757403Y-100891753D01*
X176947903Y-100891753D01*
X176951475Y-100977478D01*
X176974097Y-101039391D01*
X177037200Y-101087611D01*
X177155072Y-101103684D01*
X177276516Y-101087611D01*
X177340809Y-101039391D01*
X177363431Y-100978669D01*
X177367003Y-100896516D01*
X177367003Y-100094034D01*
X177411056Y-100153268D01*
X177519403Y-100302394D01*
X177636680Y-100462830D01*
X177707522Y-100555997D01*
X177726572Y-100582191D01*
X177789675Y-100631006D01*
X177887306Y-100656009D01*
X177987319Y-100628625D01*
X178045659Y-100585763D01*
X178088522Y-100529803D01*
X178140314Y-100459259D01*
X178233778Y-100328588D01*
X178334386Y-100189582D01*
X178407609Y-100094034D01*
X178407609Y-100891753D01*
X178419516Y-101015578D01*
X178452853Y-101063203D01*
X178514766Y-101091778D01*
X178624303Y-101103684D01*
X178738603Y-101089397D01*
X178806469Y-101026889D01*
X178829091Y-100896516D01*
X178829091Y-100475034D01*
X179019591Y-100475034D01*
X179037185Y-100640796D01*
X179089970Y-100788830D01*
X179177944Y-100919138D01*
X179292641Y-101020341D01*
X179425594Y-101081063D01*
X179576803Y-101101303D01*
X179753016Y-101048916D01*
X179817309Y-100996528D01*
X179860172Y-100948903D01*
X179883984Y-101046534D01*
X179945302Y-101089397D01*
X180062578Y-101103684D01*
X180182236Y-101088206D01*
X180245934Y-101041772D01*
X180268556Y-100981050D01*
X180272128Y-100901278D01*
X180272128Y-100894134D01*
X180462628Y-100894134D01*
X180466200Y-100976288D01*
X180486441Y-101039391D01*
X180548948Y-101087611D01*
X180669797Y-101103684D01*
X180791836Y-101087611D01*
X180853153Y-101039391D01*
X180875775Y-100978669D01*
X180879347Y-100896516D01*
X180879347Y-100475034D01*
X180937687Y-100325016D01*
X181090087Y-100267866D01*
X181240106Y-100322634D01*
X181296066Y-100475034D01*
X181296066Y-100894134D01*
X181310353Y-101015578D01*
X181372266Y-101081658D01*
X181505616Y-101103684D01*
X181628250Y-101087611D01*
X181691353Y-101039391D01*
X181711594Y-100978669D01*
X181715166Y-100896516D01*
X181905666Y-100896516D01*
X181909237Y-100979859D01*
X181929478Y-101041772D01*
X181991986Y-101089992D01*
X182112834Y-101106066D01*
X182234873Y-101090588D01*
X182296191Y-101044153D01*
X182318812Y-100981050D01*
X182322384Y-100898897D01*
X182322384Y-100473844D01*
X182477166Y-100473844D01*
X182492644Y-100620886D01*
X182539078Y-100754831D01*
X182609920Y-100869429D01*
X182698622Y-100958428D01*
X182836999Y-101047064D01*
X182979080Y-101100245D01*
X183124866Y-101117972D01*
X183307031Y-101094159D01*
X183458241Y-101022722D01*
X183556467Y-100941164D01*
X183589209Y-100853653D01*
X183534441Y-100729828D01*
X183439786Y-100635173D01*
X183360609Y-100603622D01*
X183254644Y-100647675D01*
X183114150Y-100691728D01*
X182972466Y-100635769D01*
X182905791Y-100478606D01*
X182906829Y-100476225D01*
X183708272Y-100476225D01*
X183727851Y-100635372D01*
X183786589Y-100781025D01*
X183884484Y-100913184D01*
X184005267Y-101017695D01*
X184132664Y-101080401D01*
X184266675Y-101101303D01*
X184443185Y-101069752D01*
X184560759Y-100975097D01*
X184611956Y-101069156D01*
X184785788Y-101101303D01*
X184891455Y-101085825D01*
X184948903Y-101039391D01*
X184969144Y-100976288D01*
X184972716Y-100894134D01*
X184972716Y-100091653D01*
X185103684Y-100091653D01*
X185138213Y-100229766D01*
X185225128Y-100270247D01*
X185322759Y-100263103D01*
X185322759Y-100615528D01*
X185337047Y-100776130D01*
X185379909Y-100902336D01*
X185451347Y-100994147D01*
X185550301Y-101056324D01*
X185675714Y-101093630D01*
X185827584Y-101106066D01*
X185907356Y-101102494D01*
X185970459Y-101082253D01*
X186020466Y-101019745D01*
X186037134Y-100898897D01*
X186036317Y-100896516D01*
X186232397Y-100896516D01*
X186235969Y-100979859D01*
X186256209Y-101041772D01*
X186318717Y-101089992D01*
X186439566Y-101106066D01*
X186561605Y-101090588D01*
X186622922Y-101044153D01*
X186645544Y-100981050D01*
X186649116Y-100898897D01*
X186649116Y-100479797D01*
X186803897Y-100479797D01*
X186829198Y-100660474D01*
X186905100Y-100821506D01*
X187017912Y-100954261D01*
X187153941Y-101050106D01*
X187303959Y-101108149D01*
X187458741Y-101127497D01*
X187613224Y-101109340D01*
X187762350Y-101054869D01*
X187897784Y-100962000D01*
X187955500Y-100894134D01*
X188268366Y-100894134D01*
X188271937Y-100976288D01*
X188292178Y-101039391D01*
X188354686Y-101087611D01*
X188475534Y-101103684D01*
X188597573Y-101087611D01*
X188658891Y-101039391D01*
X188681513Y-100978669D01*
X188685084Y-100896516D01*
X188685084Y-100475034D01*
X188743425Y-100325016D01*
X188895825Y-100267866D01*
X189045844Y-100322634D01*
X189101803Y-100475034D01*
X189101803Y-100894134D01*
X189116091Y-101015578D01*
X189178003Y-101081658D01*
X189311353Y-101103684D01*
X189433988Y-101087611D01*
X189497091Y-101039391D01*
X189517331Y-100978669D01*
X189520903Y-100896516D01*
X189520903Y-100889372D01*
X190313859Y-100889372D01*
X190328147Y-101013197D01*
X190391250Y-101081063D01*
X190523409Y-101103684D01*
X191149678Y-101103684D01*
X191292950Y-101085825D01*
X191421141Y-101032247D01*
X191534250Y-100942950D01*
X191622753Y-100827195D01*
X191677125Y-100694242D01*
X191697366Y-100544091D01*
X191689854Y-100479797D01*
X191816428Y-100479797D01*
X191841729Y-100660474D01*
X191917631Y-100821506D01*
X192030443Y-100954261D01*
X192166472Y-101050106D01*
X192316491Y-101108149D01*
X192471272Y-101127497D01*
X192625755Y-101109340D01*
X192774881Y-101054869D01*
X192910315Y-100962000D01*
X193023722Y-100828650D01*
X193100517Y-100664046D01*
X193126116Y-100477416D01*
X193125970Y-100476225D01*
X193245178Y-100476225D01*
X193264757Y-100635372D01*
X193323495Y-100781025D01*
X193421391Y-100913184D01*
X193542173Y-101017695D01*
X193669570Y-101080401D01*
X193803581Y-101101303D01*
X193980091Y-101069752D01*
X194097666Y-100975097D01*
X194148863Y-101069156D01*
X194322694Y-101101303D01*
X194428362Y-101085825D01*
X194485809Y-101039391D01*
X194506050Y-100976288D01*
X194506619Y-100963191D01*
X194700122Y-100963191D01*
X194742984Y-101065584D01*
X194907291Y-101106066D01*
X195028734Y-101090588D01*
X195093028Y-101044153D01*
X195115650Y-100981050D01*
X195119222Y-100898897D01*
X195119222Y-100478606D01*
X195764541Y-100478606D01*
X195784120Y-100637621D01*
X195842857Y-100782877D01*
X195940753Y-100914375D01*
X196062461Y-101018224D01*
X196192636Y-101080533D01*
X196331278Y-101101303D01*
X196490227Y-101072728D01*
X196609884Y-100987003D01*
X196665546Y-101074514D01*
X196794431Y-101103684D01*
X196927484Y-101087611D01*
X196995647Y-101039391D01*
X197018269Y-100978669D01*
X197021841Y-100896516D01*
X197021841Y-99474909D01*
X197018269Y-99392756D01*
X196996838Y-99329653D01*
X196933734Y-99279647D01*
X196813481Y-99265359D01*
X196693228Y-99279647D01*
X196630125Y-99328462D01*
X196608694Y-99390375D01*
X196605122Y-99472528D01*
X196605122Y-99972591D01*
X196487845Y-99883294D01*
X196331278Y-99853528D01*
X196193827Y-99874430D01*
X196064049Y-99937136D01*
X195941944Y-100041647D01*
X195843386Y-100173806D01*
X195784252Y-100319459D01*
X195764541Y-100478606D01*
X195119222Y-100478606D01*
X195119222Y-100398834D01*
X195175181Y-100289297D01*
X195295434Y-100244053D01*
X195399019Y-100263103D01*
X195481172Y-100282153D01*
X195612141Y-100191666D01*
X195657384Y-100024978D01*
X195627619Y-99914250D01*
X195552609Y-99865434D01*
X195469266Y-99845194D01*
X195375206Y-99839241D01*
X195245428Y-99879722D01*
X195148988Y-99944016D01*
X195114459Y-99984497D01*
X195088266Y-99905916D01*
X195025758Y-99864839D01*
X194909672Y-99851147D01*
X194787038Y-99867220D01*
X194723934Y-99915441D01*
X194703694Y-99976162D01*
X194700122Y-100058316D01*
X194700122Y-100963191D01*
X194506619Y-100963191D01*
X194509622Y-100894134D01*
X194509622Y-100060697D01*
X194506050Y-99978544D01*
X194484619Y-99915441D01*
X194421516Y-99865434D01*
X194283403Y-99851147D01*
X194149458Y-99884484D01*
X194095284Y-99984497D01*
X194052422Y-99935681D01*
X193959553Y-99882103D01*
X193811916Y-99853528D01*
X193674465Y-99874298D01*
X193544686Y-99936607D01*
X193422581Y-100040456D01*
X193324024Y-100171954D01*
X193264890Y-100317210D01*
X193245178Y-100476225D01*
X193125970Y-100476225D01*
X193104155Y-100298160D01*
X193038274Y-100141395D01*
X192928472Y-100007119D01*
X192790095Y-99904593D01*
X192638489Y-99843077D01*
X192473653Y-99822572D01*
X192308553Y-99843209D01*
X192156153Y-99905122D01*
X192016453Y-100008309D01*
X191905328Y-100143247D01*
X191838653Y-100300409D01*
X191816428Y-100479797D01*
X191689854Y-100479797D01*
X191681755Y-100410476D01*
X191634924Y-100285857D01*
X191556872Y-100170234D01*
X191624738Y-100032717D01*
X191647359Y-99882103D01*
X191630161Y-99744520D01*
X191578568Y-99620695D01*
X191492578Y-99510628D01*
X191386216Y-99425961D01*
X191263978Y-99375161D01*
X191125866Y-99358228D01*
X190525791Y-99358228D01*
X190403156Y-99374302D01*
X190340053Y-99422522D01*
X190317431Y-99484434D01*
X190313859Y-99567778D01*
X190313859Y-100889372D01*
X189520903Y-100889372D01*
X189520903Y-100477416D01*
X189503308Y-100311654D01*
X189450524Y-100163620D01*
X189362550Y-100033312D01*
X189248118Y-99932109D01*
X189115958Y-99871387D01*
X188966072Y-99851147D01*
X188787478Y-99905916D01*
X188723184Y-99955922D01*
X188680322Y-100003547D01*
X188656509Y-99905916D01*
X188595192Y-99864839D01*
X188477916Y-99851147D01*
X188357067Y-99866030D01*
X188294559Y-99910678D01*
X188271937Y-99971400D01*
X188268366Y-100051172D01*
X188268366Y-100894134D01*
X187955500Y-100894134D01*
X188011191Y-100828650D01*
X188087986Y-100664046D01*
X188113584Y-100477416D01*
X188091624Y-100298160D01*
X188025743Y-100141395D01*
X187915941Y-100007119D01*
X187777564Y-99904593D01*
X187625957Y-99843077D01*
X187461122Y-99822572D01*
X187296022Y-99843209D01*
X187143622Y-99905122D01*
X187003922Y-100008309D01*
X186892797Y-100143247D01*
X186826122Y-100300409D01*
X186803897Y-100479797D01*
X186649116Y-100479797D01*
X186649116Y-100065459D01*
X186646734Y-99996403D01*
X186603872Y-99894009D01*
X186441947Y-99853528D01*
X186319313Y-99869006D01*
X186256209Y-99915441D01*
X186235969Y-99978544D01*
X186232397Y-100060697D01*
X186232397Y-100896516D01*
X186036317Y-100896516D01*
X185982366Y-100739353D01*
X185919263Y-100716731D01*
X185833538Y-100713159D01*
X185757338Y-100684584D01*
X185737097Y-100591716D01*
X185737097Y-100263103D01*
X185891878Y-100272628D01*
X185974031Y-100269056D01*
X186037134Y-100248816D01*
X186085355Y-100186308D01*
X186101428Y-100065459D01*
X186085950Y-99943420D01*
X186039516Y-99882103D01*
X185976413Y-99859481D01*
X185895450Y-99855909D01*
X185737097Y-99865434D01*
X185737097Y-99632072D01*
X185725191Y-99510628D01*
X185688464Y-99472528D01*
X186232397Y-99472528D01*
X186235969Y-99554681D01*
X186257400Y-99617784D01*
X186320503Y-99667791D01*
X186440756Y-99682078D01*
X186561009Y-99667791D01*
X186624113Y-99618975D01*
X186645544Y-99557062D01*
X186649116Y-99474909D01*
X186645544Y-99392756D01*
X186622922Y-99329653D01*
X186562200Y-99281433D01*
X186441947Y-99265359D01*
X186319313Y-99281433D01*
X186256209Y-99329653D01*
X186235969Y-99390375D01*
X186232397Y-99472528D01*
X185688464Y-99472528D01*
X185661492Y-99444548D01*
X185532309Y-99422522D01*
X185410270Y-99437405D01*
X185348953Y-99482053D01*
X185326331Y-99539203D01*
X185322759Y-99620166D01*
X185322759Y-99865434D01*
X185244178Y-99855909D01*
X185148928Y-99886866D01*
X185115591Y-99949969D01*
X185103684Y-100091653D01*
X184972716Y-100091653D01*
X184972716Y-100060697D01*
X184969144Y-99978544D01*
X184947713Y-99915441D01*
X184884609Y-99865434D01*
X184746497Y-99851147D01*
X184612552Y-99884484D01*
X184558378Y-99984497D01*
X184515516Y-99935681D01*
X184422647Y-99882103D01*
X184275009Y-99853528D01*
X184137558Y-99874298D01*
X184007780Y-99936607D01*
X183885675Y-100040456D01*
X183787118Y-100171954D01*
X183727983Y-100317210D01*
X183708272Y-100476225D01*
X182906829Y-100476225D01*
X182974847Y-100320253D01*
X183123675Y-100263103D01*
X183246309Y-100303584D01*
X183374897Y-100355972D01*
X183455264Y-100323230D01*
X183539203Y-100225003D01*
X183589209Y-100088081D01*
X183527297Y-99979734D01*
X183460622Y-99934491D01*
X183422522Y-99910678D01*
X183296316Y-99861862D01*
X183120103Y-99836859D01*
X182973789Y-99854322D01*
X182833295Y-99906709D01*
X182698622Y-99994022D01*
X182609920Y-100082426D01*
X182539078Y-100195237D01*
X182492644Y-100327397D01*
X182477166Y-100473844D01*
X182322384Y-100473844D01*
X182322384Y-100065459D01*
X182320003Y-99996403D01*
X182277141Y-99894009D01*
X182115216Y-99853528D01*
X181992581Y-99869006D01*
X181929478Y-99915441D01*
X181909237Y-99978544D01*
X181905666Y-100060697D01*
X181905666Y-100896516D01*
X181715166Y-100896516D01*
X181715166Y-100477416D01*
X181697571Y-100311654D01*
X181644786Y-100163620D01*
X181556812Y-100033312D01*
X181442380Y-99932109D01*
X181310221Y-99871387D01*
X181160334Y-99851147D01*
X180981741Y-99905916D01*
X180917447Y-99955922D01*
X180874584Y-100003547D01*
X180850772Y-99905916D01*
X180789455Y-99864839D01*
X180672178Y-99851147D01*
X180551330Y-99866030D01*
X180488822Y-99910678D01*
X180466200Y-99971400D01*
X180462628Y-100051172D01*
X180462628Y-100894134D01*
X180272128Y-100894134D01*
X180272128Y-100058316D01*
X180268556Y-99976162D01*
X180248316Y-99913059D01*
X180185808Y-99864839D01*
X180064959Y-99848766D01*
X179942920Y-99864244D01*
X179881603Y-99910678D01*
X179858981Y-99973781D01*
X179855409Y-100055934D01*
X179855409Y-100477416D01*
X179797069Y-100627434D01*
X179644669Y-100684584D01*
X179494650Y-100629816D01*
X179438691Y-100477416D01*
X179438691Y-100060697D01*
X179424403Y-99939253D01*
X179361300Y-99871387D01*
X179229141Y-99848766D01*
X179106506Y-99864839D01*
X179043403Y-99913059D01*
X179023162Y-99974972D01*
X179019591Y-100058316D01*
X179019591Y-100475034D01*
X178829091Y-100475034D01*
X178829091Y-99574922D01*
X178825519Y-99491578D01*
X178818816Y-99472528D01*
X181905666Y-99472528D01*
X181909237Y-99554681D01*
X181930669Y-99617784D01*
X181993772Y-99667791D01*
X182114025Y-99682078D01*
X182234278Y-99667791D01*
X182297381Y-99618975D01*
X182318812Y-99557062D01*
X182322384Y-99474909D01*
X182318812Y-99392756D01*
X182296191Y-99329653D01*
X182235469Y-99281433D01*
X182115216Y-99265359D01*
X181992581Y-99281433D01*
X181929478Y-99329653D01*
X181909237Y-99390375D01*
X181905666Y-99472528D01*
X178818816Y-99472528D01*
X178802897Y-99427284D01*
X178740091Y-99379064D01*
X178618350Y-99362991D01*
X178494823Y-99379064D01*
X178426659Y-99427284D01*
X178361604Y-99510438D01*
X178275021Y-99622737D01*
X178166913Y-99764184D01*
X178037277Y-99934776D01*
X177886116Y-100134516D01*
X177345572Y-99424903D01*
X177331284Y-99410616D01*
X177270562Y-99378469D01*
X177159834Y-99362991D01*
X177038391Y-99378469D01*
X176974097Y-99424903D01*
X176951475Y-99488006D01*
X176947903Y-99570159D01*
X176947903Y-100891753D01*
X176757403Y-100891753D01*
X176757403Y-99574922D01*
X176753831Y-99491578D01*
X176731209Y-99427284D01*
X176668404Y-99379064D01*
X176546662Y-99362991D01*
X176423135Y-99379064D01*
X176354972Y-99427284D01*
X176289916Y-99510438D01*
X176203334Y-99622737D01*
X176095225Y-99764184D01*
X175965590Y-99934776D01*
X175814428Y-100134516D01*
X175273884Y-99424903D01*
X175259597Y-99410616D01*
X175198875Y-99378469D01*
X175088147Y-99362991D01*
X174966703Y-99378469D01*
X174902409Y-99424903D01*
X174879787Y-99488006D01*
X174876216Y-99570159D01*
X174876216Y-100891753D01*
X174448278Y-100891753D01*
X174473784Y-100869131D01*
X174582131Y-100729382D01*
X174659522Y-100575642D01*
X174705956Y-100407913D01*
X174721434Y-100226194D01*
X174705212Y-100045144D01*
X174656545Y-99879424D01*
X174575434Y-99729033D01*
X174461878Y-99593972D01*
X174326296Y-99482500D01*
X174179105Y-99402877D01*
X174020305Y-99355103D01*
X173849897Y-99339178D01*
X173687972Y-99355847D01*
X173530809Y-99405853D01*
X173384958Y-99485030D01*
X173256966Y-99589209D01*
X173149809Y-99719880D01*
X173066466Y-99878531D01*
X173012887Y-100057423D01*
X172995028Y-100248816D01*
X171801009Y-100248816D01*
X171799641Y-100235719D01*
X171811547Y-100121716D01*
X171847266Y-100020216D01*
X171966328Y-99872578D01*
X172117537Y-99792211D01*
X172271128Y-99765422D01*
X172421147Y-99785662D01*
X172537828Y-99846384D01*
X172659272Y-99898772D01*
X172737853Y-99866625D01*
X172825959Y-99770184D01*
X172875966Y-99638025D01*
X172814053Y-99524916D01*
X172747378Y-99482053D01*
X172690228Y-99448716D01*
X172515206Y-99378469D01*
X172400609Y-99352573D01*
X172287797Y-99343941D01*
X172130899Y-99358228D01*
X171974530Y-99401091D01*
X171818691Y-99472528D01*
X171701712Y-99547240D01*
X171598425Y-99638025D01*
X171510616Y-99749944D01*
X171440072Y-99888056D01*
X171393637Y-100047898D01*
X171378159Y-100225003D01*
X169917351Y-100225003D01*
X169900682Y-100200000D01*
G37*
G36*
X174018073Y-99793402D02*
G01*
X174163031Y-99891628D01*
X174239099Y-99988466D01*
X174284740Y-100104353D01*
X174299953Y-100239291D01*
X174284872Y-100373964D01*
X174239628Y-100489057D01*
X174164222Y-100584572D01*
X174020156Y-100681013D01*
X173859422Y-100713159D01*
X173698390Y-100680120D01*
X173553431Y-100581000D01*
X173477364Y-100484030D01*
X173431723Y-100369333D01*
X173416509Y-100236909D01*
X173431591Y-100104485D01*
X173476834Y-99989789D01*
X173552241Y-99892819D01*
X173696306Y-99793699D01*
X173857041Y-99760659D01*
X174018073Y-99793402D01*
G37*
G36*
X187618284Y-100298822D02*
G01*
X187673648Y-100370855D01*
X187692103Y-100472653D01*
X187672458Y-100575047D01*
X187613522Y-100648866D01*
X187456359Y-100708397D01*
X187301578Y-100650056D01*
X187244428Y-100577428D01*
X187225378Y-100476225D01*
X187243833Y-100374724D01*
X187299197Y-100301203D01*
X187458741Y-100241672D01*
X187618284Y-100298822D01*
G37*
G36*
X196542019Y-100336922D02*
G01*
X196597978Y-100480988D01*
X196539638Y-100622672D01*
X196393191Y-100686966D01*
X196243172Y-100622672D01*
X196181259Y-100479797D01*
X196238409Y-100335731D01*
X196390809Y-100270247D01*
X196542019Y-100336922D01*
G37*
G36*
X192630816Y-100298822D02*
G01*
X192686180Y-100370855D01*
X192704634Y-100472653D01*
X192684989Y-100575047D01*
X192626053Y-100648866D01*
X192468891Y-100708397D01*
X192314109Y-100650056D01*
X192256959Y-100577428D01*
X192237909Y-100476225D01*
X192256364Y-100374724D01*
X192311728Y-100301203D01*
X192471272Y-100241672D01*
X192630816Y-100298822D01*
G37*
G36*
X194022656Y-100334541D02*
G01*
X194078616Y-100478606D01*
X194020275Y-100620291D01*
X193873828Y-100684584D01*
X193723809Y-100621481D01*
X193661897Y-100479797D01*
X193720238Y-100334541D01*
X193872638Y-100267866D01*
X194022656Y-100334541D01*
G37*
G36*
X191186588Y-99803522D02*
G01*
X191225878Y-99886866D01*
X191218734Y-99972591D01*
X191104434Y-100022597D01*
X190957988Y-100055934D01*
X190913934Y-100192856D01*
X190956797Y-100329778D01*
X191085384Y-100363116D01*
X191218734Y-100382166D01*
X191262788Y-100429791D01*
X191275884Y-100520278D01*
X191238380Y-100641722D01*
X191125866Y-100682203D01*
X190735341Y-100682203D01*
X190735341Y-99779709D01*
X191068716Y-99779709D01*
X191186588Y-99803522D01*
G37*
G36*
X184485750Y-100334541D02*
G01*
X184541709Y-100478606D01*
X184483369Y-100620291D01*
X184336922Y-100684584D01*
X184186903Y-100621481D01*
X184124991Y-100479797D01*
X184183331Y-100334541D01*
X184335731Y-100267866D01*
X184485750Y-100334541D01*
G37*
D11*
%TO.C,U4*%
X122500000Y-105340000D02*
X120550000Y-105340000D01*
X122500000Y-105340000D02*
X124450000Y-105340000D01*
X122500000Y-110460000D02*
X120550000Y-110460000D01*
X122500000Y-110460000D02*
X125950000Y-110460000D01*
%TO.C,J5*%
X189995489Y-148695489D02*
X189995489Y-150695489D01*
X180595489Y-154495489D02*
X189995489Y-154495489D01*
X180595489Y-148695489D02*
X180595489Y-150695489D01*
X189995489Y-152595489D02*
X189995489Y-154495489D01*
X180595489Y-152595489D02*
X180595489Y-154495489D01*
%TO.C,C24*%
X158310000Y-78615000D02*
X155960000Y-78615000D01*
X157245563Y-85435000D02*
X155960000Y-85435000D01*
X151490000Y-78615000D02*
X153840000Y-78615000D01*
X152554437Y-85435000D02*
X151490000Y-84370563D01*
X152658750Y-86068750D02*
X153446250Y-86068750D01*
X158310000Y-84370563D02*
X158310000Y-78615000D01*
X151490000Y-84370563D02*
X151490000Y-78615000D01*
X153052500Y-86462500D02*
X153052500Y-85675000D01*
X157245563Y-85435000D02*
X158310000Y-84370563D01*
X152554437Y-85435000D02*
X153840000Y-85435000D01*
%TO.C,C3*%
X122515580Y-117240000D02*
X122234420Y-117240000D01*
X122515580Y-118260000D02*
X122234420Y-118260000D01*
%TO.C,C27*%
X143088748Y-102310000D02*
X144511252Y-102310000D01*
X143088748Y-100490000D02*
X144511252Y-100490000D01*
%TO.C,C16*%
X116490000Y-131609420D02*
X116490000Y-131890580D01*
X117510000Y-131609420D02*
X117510000Y-131890580D01*
%TO.C,R18*%
X135362742Y-138077500D02*
X135837258Y-138077500D01*
X135362742Y-139122500D02*
X135837258Y-139122500D01*
%TO.C,C13*%
X116940580Y-126990000D02*
X116659420Y-126990000D01*
X116940580Y-128010000D02*
X116659420Y-128010000D01*
%TO.C,JP3*%
X117025000Y-122350000D02*
X116425000Y-122350000D01*
X117725000Y-120250000D02*
X117725000Y-121650000D01*
X115725000Y-121650000D02*
X115725000Y-120250000D01*
X116425000Y-119550000D02*
X117025000Y-119550000D01*
X115725000Y-121650000D02*
G75*
G03*
X116425000Y-122350000I700000J0D01*
G01*
X117725000Y-120250000D02*
G75*
G03*
X117025000Y-119550000I-699999J1D01*
G01*
X117025000Y-122350000D02*
G75*
G03*
X117725000Y-121650000I0J700000D01*
G01*
X116425000Y-119550000D02*
G75*
G03*
X115725000Y-120250000I-1J-699999D01*
G01*
%TO.C,J12*%
X109335000Y-115300000D02*
X109935000Y-115300000D01*
X109335000Y-116900000D02*
X109335000Y-115300000D01*
X108725000Y-110400000D02*
X104425000Y-110400000D01*
X110335000Y-119610000D02*
X110335000Y-116900000D01*
X110335000Y-109390000D02*
X103715000Y-109390000D01*
X109935000Y-115300000D02*
X109935000Y-113700000D01*
X103715000Y-109390000D02*
X103715000Y-119610000D01*
X103715000Y-119610000D02*
X110335000Y-119610000D01*
X109335000Y-113700000D02*
X109335000Y-112100000D01*
X104425000Y-118600000D02*
X108725000Y-118600000D01*
X110635000Y-109090000D02*
X109385000Y-109090000D01*
X107025000Y-119610000D02*
X107025000Y-118600000D01*
X110335000Y-112100000D02*
X110335000Y-109390000D01*
X104425000Y-110400000D02*
X104425000Y-118600000D01*
X108725000Y-118600000D02*
X108725000Y-110400000D01*
X110635000Y-110340000D02*
X110635000Y-109090000D01*
X107025000Y-109390000D02*
X107025000Y-110400000D01*
X109335000Y-112100000D02*
X110335000Y-112100000D01*
X109935000Y-113700000D02*
X109335000Y-113700000D01*
X110335000Y-116900000D02*
X109335000Y-116900000D01*
%TO.C,R30*%
X120437258Y-112222500D02*
X119962742Y-112222500D01*
X120437258Y-111177500D02*
X119962742Y-111177500D01*
%TO.C,R27*%
X149262742Y-98377500D02*
X149737258Y-98377500D01*
X149262742Y-99422500D02*
X149737258Y-99422500D01*
%TO.C,SW3*%
X116170000Y-147600000D02*
X116170000Y-147570000D01*
X116170000Y-154030000D02*
X122630000Y-154030000D01*
X116170000Y-147570000D02*
X122630000Y-147570000D01*
X122630000Y-147570000D02*
X122630000Y-147600000D01*
X116170000Y-149500000D02*
X116170000Y-152100000D01*
X116170000Y-154030000D02*
X116170000Y-154000000D01*
X122630000Y-149500000D02*
X122630000Y-152100000D01*
X122630000Y-154030000D02*
X122630000Y-154000000D01*
%TO.C,U10*%
X170700000Y-85940000D02*
X169900000Y-85940000D01*
X170700000Y-89060000D02*
X172500000Y-89060000D01*
X170700000Y-85940000D02*
X171500000Y-85940000D01*
X170700000Y-89060000D02*
X169900000Y-89060000D01*
%TO.C,C23*%
X159190000Y-83936252D02*
X159190000Y-82513748D01*
X161010000Y-83936252D02*
X161010000Y-82513748D01*
%TO.C,D8*%
X152950000Y-138510000D02*
X155235000Y-138510000D01*
X155235000Y-138510000D02*
X155235000Y-137040000D01*
X155235000Y-137040000D02*
X152950000Y-137040000D01*
%TO.C,kibuzzard-61FFCBAB*%
G36*
X133889138Y-146005531D02*
G01*
X133914537Y-146103956D01*
X133935969Y-146201588D01*
X133955019Y-146303188D01*
X133762931Y-146303188D01*
X133782775Y-146201588D01*
X133805000Y-146103956D01*
X133830400Y-146005531D01*
X133859769Y-145899962D01*
X133889138Y-146005531D01*
G37*
G36*
X134668203Y-145877341D02*
G01*
X134723369Y-145904725D01*
X134759088Y-145951556D01*
X134770994Y-146019025D01*
X134726544Y-146129356D01*
X134668203Y-146158527D01*
X134582081Y-146168250D01*
X134539219Y-146168250D01*
X134539219Y-145872975D01*
X134570969Y-145869006D01*
X134597956Y-145868212D01*
X134668203Y-145877341D01*
G37*
G36*
X129918006Y-145872181D02*
G01*
X129962456Y-145888056D01*
X129992619Y-145921394D01*
X130003731Y-145977750D01*
X129965631Y-146067444D01*
X129852919Y-146099987D01*
X129776719Y-146099987D01*
X129776719Y-145874562D01*
X129819581Y-145869800D01*
X129865619Y-145868212D01*
X129918006Y-145872181D01*
G37*
G36*
X127481326Y-145174607D02*
G01*
X136318674Y-145174607D01*
X136318674Y-147225393D01*
X127481326Y-147225393D01*
X127481326Y-146681013D01*
X127993956Y-146681013D01*
X128101112Y-146699269D01*
X128203506Y-146704825D01*
X128299352Y-146697880D01*
X128323523Y-146692125D01*
X128801994Y-146692125D01*
X129432231Y-146692125D01*
X129432231Y-146676250D01*
X129581456Y-146676250D01*
X129650116Y-146688752D01*
X129719569Y-146697681D01*
X129788228Y-146703039D01*
X129854506Y-146704825D01*
X129932889Y-146701055D01*
X130006112Y-146689744D01*
X130071994Y-146669503D01*
X130128350Y-146638944D01*
X130210106Y-146543694D01*
X130232728Y-146476820D01*
X130240269Y-146395263D01*
X130232402Y-146336525D01*
X130351394Y-146336525D01*
X130355362Y-146418281D01*
X130367269Y-146492100D01*
X130388700Y-146556791D01*
X130421244Y-146611163D01*
X130523637Y-146686569D01*
X130595670Y-146706214D01*
X130683181Y-146712763D01*
X130772081Y-146706214D01*
X130845106Y-146686569D01*
X130903844Y-146654620D01*
X130949881Y-146611163D01*
X130983616Y-146556791D01*
X131005444Y-146492100D01*
X131017350Y-146418281D01*
X131021319Y-146336525D01*
X131021319Y-146200000D01*
X131126094Y-146200000D01*
X131133237Y-146319261D01*
X131154669Y-146423044D01*
X131189197Y-146511150D01*
X131235631Y-146583381D01*
X131293377Y-146639738D01*
X131361837Y-146680219D01*
X131440220Y-146704627D01*
X131527731Y-146712763D01*
X131624767Y-146708794D01*
X131706325Y-146696888D01*
X131815069Y-146668313D01*
X131815069Y-146336525D01*
X132732644Y-146336525D01*
X132736613Y-146418281D01*
X132748519Y-146492100D01*
X132769950Y-146556791D01*
X132802494Y-146611163D01*
X132904887Y-146686569D01*
X132976920Y-146706214D01*
X133064431Y-146712763D01*
X133153331Y-146706214D01*
X133205703Y-146692125D01*
X133478769Y-146692125D01*
X133681969Y-146692125D01*
X133726419Y-146465113D01*
X133988356Y-146465113D01*
X134034394Y-146692125D01*
X134243944Y-146692125D01*
X134343956Y-146692125D01*
X134539219Y-146692125D01*
X134539219Y-146330175D01*
X134640819Y-146330175D01*
X134694595Y-146420067D01*
X134744800Y-146508769D01*
X134790242Y-146598661D01*
X134829731Y-146692125D01*
X135034519Y-146692125D01*
X134989275Y-146588144D01*
X134934506Y-146478606D01*
X134875769Y-146373831D01*
X134818619Y-146282550D01*
X134888072Y-146237703D01*
X134934506Y-146176187D01*
X134960700Y-146102369D01*
X134969431Y-146020612D01*
X134962883Y-145943420D01*
X134943238Y-145876944D01*
X134867831Y-145776137D01*
X134813856Y-145741609D01*
X134750356Y-145717400D01*
X134710227Y-145709462D01*
X135091669Y-145709462D01*
X135091669Y-145871387D01*
X135350431Y-145871387D01*
X135350431Y-146692125D01*
X135547281Y-146692125D01*
X135547281Y-145871387D01*
X135806044Y-145871387D01*
X135806044Y-145709462D01*
X135091669Y-145709462D01*
X134710227Y-145709462D01*
X134678125Y-145703112D01*
X134597956Y-145698350D01*
X134542394Y-145699938D01*
X134475719Y-145703906D01*
X134406663Y-145711844D01*
X134343956Y-145723750D01*
X134343956Y-146692125D01*
X134243944Y-146692125D01*
X134217750Y-146580714D01*
X134191239Y-146472542D01*
X134164410Y-146367608D01*
X134137264Y-146265913D01*
X134109800Y-146167456D01*
X134075222Y-146048046D01*
X134040545Y-145931911D01*
X134005769Y-145819050D01*
X133970894Y-145709462D01*
X133758169Y-145709462D01*
X133724534Y-145818157D01*
X133690303Y-145929927D01*
X133655477Y-146044772D01*
X133620056Y-146162694D01*
X133591545Y-146260325D01*
X133563160Y-146362084D01*
X133534903Y-146467970D01*
X133506772Y-146577984D01*
X133478769Y-146692125D01*
X133205703Y-146692125D01*
X133226356Y-146686569D01*
X133285094Y-146654620D01*
X133331131Y-146611163D01*
X133364866Y-146556791D01*
X133386694Y-146492100D01*
X133398600Y-146418281D01*
X133402569Y-146336525D01*
X133402569Y-145709462D01*
X133207306Y-145709462D01*
X133207306Y-146322238D01*
X133200956Y-146426219D01*
X133178731Y-146494481D01*
X133135869Y-146531788D01*
X133067606Y-146542900D01*
X132999344Y-146531788D01*
X132957275Y-146495275D01*
X132935844Y-146427806D01*
X132929494Y-146323825D01*
X132929494Y-145709462D01*
X132732644Y-145709462D01*
X132732644Y-146336525D01*
X131815069Y-146336525D01*
X131815069Y-146177775D01*
X131619806Y-146177775D01*
X131619806Y-146536550D01*
X131581706Y-146541313D01*
X131543606Y-146542900D01*
X131448753Y-146522064D01*
X131380094Y-146459556D01*
X131349226Y-146393675D01*
X131330705Y-146307156D01*
X131324531Y-146200000D01*
X131327905Y-146127173D01*
X131338025Y-146061094D01*
X131382475Y-145953144D01*
X131461056Y-145882500D01*
X131578531Y-145857100D01*
X131683306Y-145874562D01*
X131769031Y-145914250D01*
X131819831Y-145758675D01*
X131787287Y-145739625D01*
X131732519Y-145715812D01*
X131653937Y-145695969D01*
X131551544Y-145687237D01*
X131465422Y-145695373D01*
X131384856Y-145719781D01*
X131312228Y-145760461D01*
X131249919Y-145817412D01*
X131198722Y-145890239D01*
X131159431Y-145978544D01*
X131134428Y-146081930D01*
X131126094Y-146200000D01*
X131021319Y-146200000D01*
X131021319Y-145709462D01*
X130826056Y-145709462D01*
X130826056Y-146322238D01*
X130819706Y-146426219D01*
X130797481Y-146494481D01*
X130754619Y-146531788D01*
X130686356Y-146542900D01*
X130618094Y-146531788D01*
X130576025Y-146495275D01*
X130554594Y-146427806D01*
X130548244Y-146323825D01*
X130548244Y-145709462D01*
X130351394Y-145709462D01*
X130351394Y-146336525D01*
X130232402Y-146336525D01*
X130231339Y-146328588D01*
X130204550Y-146265088D01*
X130152758Y-146209525D01*
X130068819Y-146166662D01*
X130160100Y-146080937D01*
X130185698Y-146022994D01*
X130194231Y-145957112D01*
X130179944Y-145865037D01*
X130125969Y-145781694D01*
X130016431Y-145721369D01*
X129936262Y-145704105D01*
X129835456Y-145698350D01*
X129703694Y-145705494D01*
X129581456Y-145722162D01*
X129581456Y-146676250D01*
X129432231Y-146676250D01*
X129432231Y-146530200D01*
X128997256Y-146530200D01*
X128997256Y-146253975D01*
X129344919Y-146253975D01*
X129344919Y-146092050D01*
X128997256Y-146092050D01*
X128997256Y-145871387D01*
X129397306Y-145871387D01*
X129397306Y-145709462D01*
X128801994Y-145709462D01*
X128801994Y-146692125D01*
X128323523Y-146692125D01*
X128386862Y-146677044D01*
X128464452Y-146641127D01*
X128530531Y-146588938D01*
X128584308Y-146519683D01*
X128624987Y-146432569D01*
X128650586Y-146326405D01*
X128659119Y-146200000D01*
X128651380Y-146076373D01*
X128628162Y-145972194D01*
X128591055Y-145886072D01*
X128541644Y-145816619D01*
X128479930Y-145763636D01*
X128405912Y-145726925D01*
X128321577Y-145705494D01*
X128228906Y-145698350D01*
X128119369Y-145703112D01*
X127993956Y-145722162D01*
X127993956Y-146681013D01*
X127481326Y-146681013D01*
X127481326Y-145174607D01*
G37*
G36*
X130002937Y-146292869D02*
G01*
X130048181Y-146395263D01*
X130032306Y-146465906D01*
X129991825Y-146508769D01*
X129935469Y-146529406D01*
X129870381Y-146534963D01*
X129821962Y-146533375D01*
X129776719Y-146528613D01*
X129776719Y-146261913D01*
X129881494Y-146261913D01*
X130002937Y-146292869D01*
G37*
G36*
X128352731Y-145895994D02*
G01*
X128417819Y-145969812D01*
X128451156Y-146076175D01*
X128460681Y-146200000D01*
X128457705Y-146270048D01*
X128448775Y-146334144D01*
X128409087Y-146439713D01*
X128336062Y-146509563D01*
X128224144Y-146534963D01*
X128206681Y-146534963D01*
X128189219Y-146533375D01*
X128189219Y-145872975D01*
X128217794Y-145869006D01*
X128246369Y-145868212D01*
X128352731Y-145895994D01*
G37*
%TO.C,U8*%
X170100000Y-78815000D02*
X166500000Y-78815000D01*
X170100000Y-82035000D02*
X167900000Y-82035000D01*
X170100000Y-78815000D02*
X172300000Y-78815000D01*
X170100000Y-82035000D02*
X172300000Y-82035000D01*
%TO.C,R12*%
X160645276Y-129377500D02*
X161154724Y-129377500D01*
X160645276Y-130422500D02*
X161154724Y-130422500D01*
%TO.C,R20*%
X140062742Y-139122500D02*
X140537258Y-139122500D01*
X140062742Y-138077500D02*
X140537258Y-138077500D01*
%TO.C,R24*%
X116537258Y-140222500D02*
X116062742Y-140222500D01*
X116537258Y-139177500D02*
X116062742Y-139177500D01*
%TO.C,J6*%
X110710000Y-136490000D02*
X110710000Y-135240000D01*
X108800000Y-136550000D02*
X104500000Y-136550000D01*
X108800000Y-144750000D02*
X108800000Y-136550000D01*
X103790000Y-145760000D02*
X110410000Y-145760000D01*
X104500000Y-144750000D02*
X108800000Y-144750000D01*
X103790000Y-135540000D02*
X103790000Y-145760000D01*
X110010000Y-139850000D02*
X109410000Y-139850000D01*
X110410000Y-143050000D02*
X109410000Y-143050000D01*
X109410000Y-139850000D02*
X109410000Y-138250000D01*
X107100000Y-135540000D02*
X107100000Y-136550000D01*
X107100000Y-145760000D02*
X107100000Y-144750000D01*
X109410000Y-141450000D02*
X110010000Y-141450000D01*
X110410000Y-145760000D02*
X110410000Y-143050000D01*
X110710000Y-135240000D02*
X109460000Y-135240000D01*
X110010000Y-141450000D02*
X110010000Y-139850000D01*
X109410000Y-143050000D02*
X109410000Y-141450000D01*
X110410000Y-138250000D02*
X110410000Y-135540000D01*
X109410000Y-138250000D02*
X110410000Y-138250000D01*
X104500000Y-136550000D02*
X104500000Y-144750000D01*
X110410000Y-135540000D02*
X103790000Y-135540000D01*
%TO.C,JP2*%
X115725000Y-125150000D02*
X115725000Y-123750000D01*
X117025000Y-125850000D02*
X116425000Y-125850000D01*
X117725000Y-123750000D02*
X117725000Y-125150000D01*
X116425000Y-123050000D02*
X117025000Y-123050000D01*
X115725000Y-125150000D02*
G75*
G03*
X116425000Y-125850000I699999J-1D01*
G01*
X117725000Y-123750000D02*
G75*
G03*
X117025000Y-123050000I-700000J0D01*
G01*
X116425000Y-123050000D02*
G75*
G03*
X115725000Y-123750000I0J-700000D01*
G01*
X117025000Y-125850000D02*
G75*
G03*
X117725000Y-125150000I1J699999D01*
G01*
%TO.C,C8*%
X124890000Y-84411252D02*
X124890000Y-82988748D01*
X126710000Y-84411252D02*
X126710000Y-82988748D01*
%TO.C,J8*%
X155050000Y-149975000D02*
X154300000Y-149975000D01*
X155060000Y-147715000D02*
X139940000Y-147715000D01*
X140700000Y-152925000D02*
X147500000Y-152925000D01*
X141750000Y-147725000D02*
X139950000Y-147725000D01*
X154300000Y-149975000D02*
X154300000Y-152925000D01*
X140900000Y-147425000D02*
X139650000Y-147425000D01*
X153250000Y-148475000D02*
X155050000Y-148475000D01*
X139940000Y-147715000D02*
X139940000Y-153685000D01*
X153250000Y-147725000D02*
X153250000Y-148475000D01*
X151750000Y-147725000D02*
X143250000Y-147725000D01*
X151750000Y-148475000D02*
X151750000Y-147725000D01*
X139950000Y-147725000D02*
X139950000Y-148475000D01*
X140700000Y-149975000D02*
X140700000Y-152925000D01*
X143250000Y-148475000D02*
X151750000Y-148475000D01*
X141750000Y-148475000D02*
X141750000Y-147725000D01*
X139950000Y-148475000D02*
X141750000Y-148475000D01*
X139950000Y-149975000D02*
X140700000Y-149975000D01*
X139650000Y-147425000D02*
X139650000Y-148675000D01*
X139940000Y-153685000D02*
X155060000Y-153685000D01*
X143250000Y-147725000D02*
X143250000Y-148475000D01*
X155060000Y-153685000D02*
X155060000Y-147715000D01*
X155050000Y-148475000D02*
X155050000Y-147725000D01*
X155050000Y-147725000D02*
X153250000Y-147725000D01*
X154300000Y-152925000D02*
X147500000Y-152925000D01*
%TO.C,R28*%
X152462742Y-98377500D02*
X152937258Y-98377500D01*
X152462742Y-99422500D02*
X152937258Y-99422500D01*
%TO.C,J2*%
X112000000Y-80292500D02*
X112000000Y-79242500D01*
X111800000Y-88642500D02*
X109900000Y-88642500D01*
X111800000Y-79442500D02*
X111800000Y-82042500D01*
X97100000Y-79442500D02*
X111800000Y-79442500D01*
X110950000Y-79242500D02*
X112000000Y-79242500D01*
X111800000Y-85942500D02*
X111800000Y-88642500D01*
X97100000Y-88642500D02*
X97100000Y-79442500D01*
X105900000Y-88642500D02*
X97100000Y-88642500D01*
%TO.C,R23*%
X169562742Y-90722500D02*
X170037258Y-90722500D01*
X169562742Y-89677500D02*
X170037258Y-89677500D01*
%TO.C,R16*%
X148477500Y-142654724D02*
X148477500Y-142145276D01*
X149522500Y-142654724D02*
X149522500Y-142145276D01*
%TO.C,R21*%
X140062742Y-139577500D02*
X140537258Y-139577500D01*
X140062742Y-140622500D02*
X140537258Y-140622500D01*
%TO.C,kibuzzard-61FFCAF5*%
G36*
X118002578Y-145877341D02*
G01*
X118057744Y-145904725D01*
X118093462Y-145951556D01*
X118105369Y-146019025D01*
X118060919Y-146129356D01*
X118002578Y-146158527D01*
X117916456Y-146168250D01*
X117873594Y-146168250D01*
X117873594Y-145872975D01*
X117905344Y-145869006D01*
X117932331Y-145868212D01*
X118002578Y-145877341D01*
G37*
G36*
X117165701Y-145174607D02*
G01*
X122034299Y-145174607D01*
X122034299Y-147225393D01*
X117165701Y-147225393D01*
X117165701Y-146692125D01*
X117678331Y-146692125D01*
X117873594Y-146692125D01*
X117873594Y-146330175D01*
X117975194Y-146330175D01*
X118028970Y-146420067D01*
X118079175Y-146508769D01*
X118124617Y-146598661D01*
X118164106Y-146692125D01*
X118368894Y-146692125D01*
X118486369Y-146692125D01*
X119116606Y-146692125D01*
X119116606Y-146638150D01*
X119243606Y-146638150D01*
X119353144Y-146686569D01*
X119438472Y-146706214D01*
X119548406Y-146712763D01*
X119659796Y-146704384D01*
X119704058Y-146692125D01*
X120073869Y-146692125D01*
X120704106Y-146692125D01*
X120704106Y-146530200D01*
X120269131Y-146530200D01*
X120269131Y-146253975D01*
X120616794Y-146253975D01*
X120616794Y-146092050D01*
X120269131Y-146092050D01*
X120269131Y-145871387D01*
X120669181Y-145871387D01*
X120807294Y-145871387D01*
X121066056Y-145871387D01*
X121066056Y-146692125D01*
X121262906Y-146692125D01*
X121262906Y-145871387D01*
X121521669Y-145871387D01*
X121521669Y-145709462D01*
X120807294Y-145709462D01*
X120807294Y-145871387D01*
X120669181Y-145871387D01*
X120669181Y-145709462D01*
X120073869Y-145709462D01*
X120073869Y-146692125D01*
X119704058Y-146692125D01*
X119750548Y-146679249D01*
X119820663Y-146637356D01*
X119887933Y-146546273D01*
X119910356Y-146423838D01*
X119903609Y-146349820D01*
X119883369Y-146289694D01*
X119814313Y-146200794D01*
X119722238Y-146143644D01*
X119626194Y-146104750D01*
X119565075Y-146080937D01*
X119509512Y-146051569D01*
X119469031Y-146013469D01*
X119453156Y-145963462D01*
X119470442Y-145900844D01*
X119522301Y-145863274D01*
X119608731Y-145850750D01*
X119720650Y-145866625D01*
X119808756Y-145904725D01*
X119865906Y-145753912D01*
X119752400Y-145707875D01*
X119679177Y-145692397D01*
X119594444Y-145687237D01*
X119497165Y-145695881D01*
X119414880Y-145721810D01*
X119347588Y-145765025D01*
X119280317Y-145857894D01*
X119257894Y-145980925D01*
X119283294Y-146097606D01*
X119347588Y-146176187D01*
X119434106Y-146228575D01*
X119526181Y-146265088D01*
X119592856Y-146292869D01*
X119653181Y-146326206D01*
X119697631Y-146368275D01*
X119715094Y-146422250D01*
X119707950Y-146469081D01*
X119681756Y-146510356D01*
X119630163Y-146538931D01*
X119548406Y-146549250D01*
X119469230Y-146543694D01*
X119403150Y-146527025D01*
X119300756Y-146479400D01*
X119243606Y-146638150D01*
X119116606Y-146638150D01*
X119116606Y-146530200D01*
X118681631Y-146530200D01*
X118681631Y-146253975D01*
X119029294Y-146253975D01*
X119029294Y-146092050D01*
X118681631Y-146092050D01*
X118681631Y-145871387D01*
X119081681Y-145871387D01*
X119081681Y-145709462D01*
X118486369Y-145709462D01*
X118486369Y-146692125D01*
X118368894Y-146692125D01*
X118323650Y-146588144D01*
X118268881Y-146478606D01*
X118210144Y-146373831D01*
X118152994Y-146282550D01*
X118222447Y-146237703D01*
X118268881Y-146176187D01*
X118295075Y-146102369D01*
X118303806Y-146020612D01*
X118297258Y-145943420D01*
X118277612Y-145876944D01*
X118202206Y-145776137D01*
X118148231Y-145741609D01*
X118084731Y-145717400D01*
X118012500Y-145703112D01*
X117932331Y-145698350D01*
X117876769Y-145699938D01*
X117810094Y-145703906D01*
X117741037Y-145711844D01*
X117678331Y-145723750D01*
X117678331Y-146692125D01*
X117165701Y-146692125D01*
X117165701Y-145174607D01*
G37*
%TD*%
M02*
