%TF.GenerationSoftware,KiCad,Pcbnew,(6.0.6)*%
%TF.CreationDate,2022-10-20T14:17:53+09:00*%
%TF.ProjectId,LTE-base-H1,4c54452d-6261-4736-952d-48312e6b6963,rev?*%
%TF.SameCoordinates,Original*%
%TF.FileFunction,Paste,Top*%
%TF.FilePolarity,Positive*%
%FSLAX46Y46*%
G04 Gerber Fmt 4.6, Leading zero omitted, Abs format (unit mm)*
G04 Created by KiCad (PCBNEW (6.0.6)) date 2022-10-20 14:17:53*
%MOMM*%
%LPD*%
G01*
G04 APERTURE LIST*
G04 Aperture macros list*
%AMRoundRect*
0 Rectangle with rounded corners*
0 $1 Rounding radius*
0 $2 $3 $4 $5 $6 $7 $8 $9 X,Y pos of 4 corners*
0 Add a 4 corners polygon primitive as box body*
4,1,4,$2,$3,$4,$5,$6,$7,$8,$9,$2,$3,0*
0 Add four circle primitives for the rounded corners*
1,1,$1+$1,$2,$3*
1,1,$1+$1,$4,$5*
1,1,$1+$1,$6,$7*
1,1,$1+$1,$8,$9*
0 Add four rect primitives between the rounded corners*
20,1,$1+$1,$2,$3,$4,$5,0*
20,1,$1+$1,$4,$5,$6,$7,0*
20,1,$1+$1,$6,$7,$8,$9,0*
20,1,$1+$1,$8,$9,$2,$3,0*%
G04 Aperture macros list end*
%ADD10RoundRect,0.225000X-0.225000X-0.250000X0.225000X-0.250000X0.225000X0.250000X-0.225000X0.250000X0*%
%ADD11RoundRect,0.250000X0.550000X-1.500000X0.550000X1.500000X-0.550000X1.500000X-0.550000X-1.500000X0*%
%ADD12RoundRect,0.250000X-0.450000X-0.425000X0.450000X-0.425000X0.450000X0.425000X-0.450000X0.425000X0*%
%ADD13RoundRect,0.200000X0.275000X-0.200000X0.275000X0.200000X-0.275000X0.200000X-0.275000X-0.200000X0*%
%ADD14RoundRect,0.200000X0.200000X0.275000X-0.200000X0.275000X-0.200000X-0.275000X0.200000X-0.275000X0*%
%ADD15R,4.550000X5.250000*%
%ADD16R,4.600000X1.100000*%
%ADD17R,0.900000X1.350000*%
%ADD18R,1.100000X2.600000*%
%ADD19RoundRect,0.218750X0.218750X0.256250X-0.218750X0.256250X-0.218750X-0.256250X0.218750X-0.256250X0*%
%ADD20R,2.500000X1.800000*%
%ADD21R,0.600000X0.450000*%
%ADD22RoundRect,0.237500X-0.300000X-0.237500X0.300000X-0.237500X0.300000X0.237500X-0.300000X0.237500X0*%
%ADD23R,2.000000X2.400000*%
%ADD24RoundRect,0.237500X-0.250000X-0.237500X0.250000X-0.237500X0.250000X0.237500X-0.250000X0.237500X0*%
%ADD25RoundRect,0.200000X-0.275000X0.200000X-0.275000X-0.200000X0.275000X-0.200000X0.275000X0.200000X0*%
%ADD26RoundRect,0.150000X-0.587500X-0.150000X0.587500X-0.150000X0.587500X0.150000X-0.587500X0.150000X0*%
%ADD27RoundRect,0.250000X-0.450000X0.262500X-0.450000X-0.262500X0.450000X-0.262500X0.450000X0.262500X0*%
%ADD28RoundRect,0.250000X0.650000X-0.325000X0.650000X0.325000X-0.650000X0.325000X-0.650000X-0.325000X0*%
%ADD29RoundRect,0.225000X-0.250000X0.225000X-0.250000X-0.225000X0.250000X-0.225000X0.250000X0.225000X0*%
%ADD30R,5.400000X2.900000*%
%ADD31RoundRect,0.150000X-0.512500X-0.150000X0.512500X-0.150000X0.512500X0.150000X-0.512500X0.150000X0*%
%ADD32R,2.000000X0.600000*%
%ADD33R,3.200000X2.300000*%
%ADD34RoundRect,0.135000X0.185000X-0.135000X0.185000X0.135000X-0.185000X0.135000X-0.185000X-0.135000X0*%
%ADD35RoundRect,0.237500X-0.237500X0.250000X-0.237500X-0.250000X0.237500X-0.250000X0.237500X0.250000X0*%
%ADD36RoundRect,0.150000X-0.150000X0.875000X-0.150000X-0.875000X0.150000X-0.875000X0.150000X0.875000X0*%
%ADD37RoundRect,0.200000X-0.200000X-0.275000X0.200000X-0.275000X0.200000X0.275000X-0.200000X0.275000X0*%
%ADD38RoundRect,0.250000X-0.250000X-0.475000X0.250000X-0.475000X0.250000X0.475000X-0.250000X0.475000X0*%
%ADD39RoundRect,0.225000X0.250000X-0.225000X0.250000X0.225000X-0.250000X0.225000X-0.250000X-0.225000X0*%
%ADD40RoundRect,0.150000X-0.675000X-0.150000X0.675000X-0.150000X0.675000X0.150000X-0.675000X0.150000X0*%
%ADD41RoundRect,0.237500X0.250000X0.237500X-0.250000X0.237500X-0.250000X-0.237500X0.250000X-0.237500X0*%
%ADD42RoundRect,0.075000X0.700000X0.075000X-0.700000X0.075000X-0.700000X-0.075000X0.700000X-0.075000X0*%
%ADD43RoundRect,0.075000X0.075000X0.700000X-0.075000X0.700000X-0.075000X-0.700000X0.075000X-0.700000X0*%
%ADD44RoundRect,0.150000X0.825000X0.150000X-0.825000X0.150000X-0.825000X-0.150000X0.825000X-0.150000X0*%
%ADD45R,0.600000X1.450000*%
%ADD46R,0.300000X1.450000*%
%ADD47RoundRect,0.225000X0.225000X0.250000X-0.225000X0.250000X-0.225000X-0.250000X0.225000X-0.250000X0*%
%ADD48RoundRect,0.250000X-0.325000X-0.650000X0.325000X-0.650000X0.325000X0.650000X-0.325000X0.650000X0*%
%ADD49R,1.550000X1.300000*%
%ADD50RoundRect,0.150000X0.512500X0.150000X-0.512500X0.150000X-0.512500X-0.150000X0.512500X-0.150000X0*%
%ADD51RoundRect,0.100000X-0.637500X-0.100000X0.637500X-0.100000X0.637500X0.100000X-0.637500X0.100000X0*%
%ADD52RoundRect,0.237500X0.237500X-0.250000X0.237500X0.250000X-0.237500X0.250000X-0.237500X-0.250000X0*%
G04 APERTURE END LIST*
D10*
%TO.C,C10*%
X137125000Y-107500000D03*
X138675000Y-107500000D03*
%TD*%
D11*
%TO.C,C7*%
X120500000Y-86525000D03*
X120500000Y-81125000D03*
%TD*%
D12*
%TO.C,C5*%
X134650000Y-99350000D03*
X137350000Y-99350000D03*
%TD*%
D13*
%TO.C,R5*%
X111400000Y-114275000D03*
X111400000Y-112625000D03*
%TD*%
D14*
%TO.C,R6*%
X147125000Y-139550000D03*
X145475000Y-139550000D03*
%TD*%
%TO.C,R8*%
X120500000Y-123800000D03*
X118850000Y-123800000D03*
%TD*%
D15*
%TO.C,U5*%
X122025000Y-100825000D03*
X122025000Y-95275000D03*
X117175000Y-100825000D03*
X117175000Y-95275000D03*
D16*
X128750000Y-101450000D03*
X128750000Y-99750000D03*
X128750000Y-98050000D03*
X128750000Y-96350000D03*
X128750000Y-94650000D03*
%TD*%
D17*
%TO.C,U6*%
X161270000Y-137800000D03*
X163780000Y-137800000D03*
X166300000Y-137800000D03*
X160000000Y-137800000D03*
X162520000Y-137800000D03*
X165040000Y-137800000D03*
D18*
X174650000Y-140250000D03*
X158000000Y-140250000D03*
X158000000Y-152799999D03*
X174650000Y-152800000D03*
%TD*%
D19*
%TO.C,D5*%
X118643500Y-139522000D03*
X117068500Y-139522000D03*
%TD*%
D20*
%TO.C,D3*%
X135500000Y-85425000D03*
X131500000Y-85425000D03*
%TD*%
D14*
%TO.C,R31*%
X120500000Y-121600000D03*
X118850000Y-121600000D03*
%TD*%
D20*
%TO.C,D10*%
X142450000Y-94800000D03*
X146450000Y-94800000D03*
%TD*%
D14*
%TO.C,R29*%
X153625000Y-90200000D03*
X151975000Y-90200000D03*
%TD*%
D13*
%TO.C,R3*%
X134700000Y-96325000D03*
X134700000Y-94675000D03*
%TD*%
D14*
%TO.C,R7*%
X121881000Y-137922000D03*
X120231000Y-137922000D03*
%TD*%
D10*
%TO.C,C6*%
X137125000Y-106000000D03*
X138675000Y-106000000D03*
%TD*%
D21*
%TO.C,D1*%
X115850000Y-108500000D03*
X117950000Y-108500000D03*
%TD*%
D19*
%TO.C,D2*%
X121843500Y-139522000D03*
X120268500Y-139522000D03*
%TD*%
D13*
%TO.C,R26*%
X183200000Y-85525000D03*
X183200000Y-83875000D03*
%TD*%
D22*
%TO.C,C21*%
X166837500Y-131500000D03*
X168562500Y-131500000D03*
%TD*%
D23*
%TO.C,Y2*%
X131450000Y-106800000D03*
X135150000Y-106800000D03*
%TD*%
D24*
%TO.C,R13*%
X125087500Y-141700000D03*
X126912500Y-141700000D03*
%TD*%
D25*
%TO.C,R4*%
X136200000Y-94675000D03*
X136200000Y-96325000D03*
%TD*%
D26*
%TO.C,Q1*%
X151162500Y-93850000D03*
X151162500Y-95750000D03*
X153037500Y-94800000D03*
%TD*%
D27*
%TO.C,R11*%
X188800000Y-140487500D03*
X188800000Y-142312500D03*
%TD*%
%TO.C,R10*%
X186200000Y-140487500D03*
X186200000Y-142312500D03*
%TD*%
D28*
%TO.C,C9*%
X128300000Y-85175000D03*
X128300000Y-82225000D03*
%TD*%
D14*
%TO.C,R1*%
X113347000Y-139622000D03*
X111697000Y-139622000D03*
%TD*%
D29*
%TO.C,C12*%
X115500000Y-130975000D03*
X115500000Y-132525000D03*
%TD*%
D30*
%TO.C,L2*%
X144300000Y-89175000D03*
X144300000Y-79275000D03*
%TD*%
D31*
%TO.C,U9*%
X175862500Y-84050000D03*
X175862500Y-85000000D03*
X175862500Y-85950000D03*
X178137500Y-85950000D03*
X178137500Y-85000000D03*
X178137500Y-84050000D03*
%TD*%
D32*
%TO.C,J1*%
X143600000Y-107700000D03*
X151800000Y-108100000D03*
X143600000Y-108500000D03*
X151800000Y-108900000D03*
X143600000Y-109300000D03*
X151800000Y-109700000D03*
X143600000Y-110100000D03*
X151800000Y-110500000D03*
X143600000Y-110900000D03*
X151800000Y-111300000D03*
X143600000Y-111700000D03*
X151800000Y-112100000D03*
X143600000Y-112500000D03*
X151800000Y-112900000D03*
X143600000Y-113300000D03*
X151800000Y-113700000D03*
X143600000Y-117300000D03*
X151800000Y-117700000D03*
X143600000Y-118100000D03*
X151800000Y-118500000D03*
X143600000Y-118900000D03*
X151800000Y-119300000D03*
X143600000Y-119700000D03*
X151800000Y-120100000D03*
X143600000Y-120500000D03*
X151800000Y-120900000D03*
X143600000Y-121300000D03*
X151800000Y-121700000D03*
X143600000Y-122100000D03*
X151800000Y-122500000D03*
X143600000Y-122900000D03*
X151800000Y-123300000D03*
X143600000Y-123700000D03*
X151800000Y-124100000D03*
X143600000Y-124500000D03*
X151800000Y-124900000D03*
X143600000Y-125300000D03*
X151800000Y-125700000D03*
X143600000Y-126100000D03*
X151800000Y-126500000D03*
X143600000Y-126900000D03*
X151800000Y-127300000D03*
X143600000Y-127700000D03*
X151800000Y-128100000D03*
X143600000Y-128500000D03*
X151800000Y-128900000D03*
X143600000Y-129300000D03*
X151800000Y-129700000D03*
X143600000Y-130100000D03*
X151800000Y-130500000D03*
X143600000Y-130900000D03*
X151800000Y-131300000D03*
D33*
X144200000Y-134150000D03*
X144200000Y-104850000D03*
%TD*%
D34*
%TO.C,R22*%
X174100000Y-84410000D03*
X174100000Y-83390000D03*
%TD*%
D10*
%TO.C,C2*%
X118600000Y-117750000D03*
X120150000Y-117750000D03*
%TD*%
D22*
%TO.C,C22*%
X161837500Y-131500000D03*
X163562500Y-131500000D03*
%TD*%
D29*
%TO.C,C17*%
X121500000Y-130975000D03*
X121500000Y-132525000D03*
%TD*%
D35*
%TO.C,R15*%
X147200000Y-141487500D03*
X147200000Y-143312500D03*
%TD*%
D29*
%TO.C,C19*%
X118500000Y-130975000D03*
X118500000Y-132525000D03*
%TD*%
D10*
%TO.C,C11*%
X145525000Y-138000000D03*
X147075000Y-138000000D03*
%TD*%
D14*
%TO.C,R9*%
X118681000Y-137922000D03*
X117031000Y-137922000D03*
%TD*%
D20*
%TO.C,D7*%
X178300000Y-141100000D03*
X182300000Y-141100000D03*
%TD*%
D29*
%TO.C,C14*%
X114000000Y-130975000D03*
X114000000Y-132525000D03*
%TD*%
D36*
%TO.C,U3*%
X138380000Y-111050000D03*
X137110000Y-111050000D03*
X135840000Y-111050000D03*
X134570000Y-111050000D03*
X133300000Y-111050000D03*
X132030000Y-111050000D03*
X130760000Y-111050000D03*
X129490000Y-111050000D03*
X128220000Y-111050000D03*
X128220000Y-120350000D03*
X129490000Y-120350000D03*
X130760000Y-120350000D03*
X132030000Y-120350000D03*
X133300000Y-120350000D03*
X134570000Y-120350000D03*
X135840000Y-120350000D03*
X137110000Y-120350000D03*
X138380000Y-120350000D03*
%TD*%
D23*
%TO.C,Y1*%
X119000000Y-115000000D03*
X122700000Y-115000000D03*
%TD*%
D37*
%TO.C,R25*%
X164775000Y-87400000D03*
X166425000Y-87400000D03*
%TD*%
D38*
%TO.C,C26*%
X180950000Y-80000000D03*
X182850000Y-80000000D03*
%TD*%
D39*
%TO.C,C25*%
X181400000Y-85475000D03*
X181400000Y-83925000D03*
%TD*%
D22*
%TO.C,C20*%
X161837500Y-134100000D03*
X163562500Y-134100000D03*
%TD*%
D14*
%TO.C,R2*%
X138825000Y-142500000D03*
X137175000Y-142500000D03*
%TD*%
D21*
%TO.C,D6*%
X115850000Y-106200000D03*
X117950000Y-106200000D03*
%TD*%
D19*
%TO.C,D9*%
X166387500Y-89200000D03*
X164812500Y-89200000D03*
%TD*%
D37*
%TO.C,R17*%
X149775000Y-137775000D03*
X151425000Y-137775000D03*
%TD*%
D40*
%TO.C,U1*%
X131075000Y-78920000D03*
X131075000Y-80190000D03*
X131075000Y-81460000D03*
X131075000Y-82730000D03*
X136325000Y-82730000D03*
X136325000Y-81460000D03*
X136325000Y-80190000D03*
X136325000Y-78920000D03*
%TD*%
D29*
%TO.C,C18*%
X120000000Y-130975000D03*
X120000000Y-132525000D03*
%TD*%
D41*
%TO.C,R14*%
X126912500Y-143300000D03*
X125087500Y-143300000D03*
%TD*%
D42*
%TO.C,U2*%
X138975000Y-133850000D03*
X138975000Y-133350000D03*
X138975000Y-132850000D03*
X138975000Y-132350000D03*
X138975000Y-131850000D03*
X138975000Y-131350000D03*
X138975000Y-130850000D03*
X138975000Y-130350000D03*
X138975000Y-129850000D03*
X138975000Y-129350000D03*
X138975000Y-128850000D03*
X138975000Y-128350000D03*
X138975000Y-127850000D03*
X138975000Y-127350000D03*
X138975000Y-126850000D03*
X138975000Y-126350000D03*
D43*
X137050000Y-124425000D03*
X136550000Y-124425000D03*
X136050000Y-124425000D03*
X135550000Y-124425000D03*
X135050000Y-124425000D03*
X134550000Y-124425000D03*
X134050000Y-124425000D03*
X133550000Y-124425000D03*
X133050000Y-124425000D03*
X132550000Y-124425000D03*
X132050000Y-124425000D03*
X131550000Y-124425000D03*
X131050000Y-124425000D03*
X130550000Y-124425000D03*
X130050000Y-124425000D03*
X129550000Y-124425000D03*
D42*
X127625000Y-126350000D03*
X127625000Y-126850000D03*
X127625000Y-127350000D03*
X127625000Y-127850000D03*
X127625000Y-128350000D03*
X127625000Y-128850000D03*
X127625000Y-129350000D03*
X127625000Y-129850000D03*
X127625000Y-130350000D03*
X127625000Y-130850000D03*
X127625000Y-131350000D03*
X127625000Y-131850000D03*
X127625000Y-132350000D03*
X127625000Y-132850000D03*
X127625000Y-133350000D03*
X127625000Y-133850000D03*
D43*
X129550000Y-135775000D03*
X130050000Y-135775000D03*
X130550000Y-135775000D03*
X131050000Y-135775000D03*
X131550000Y-135775000D03*
X132050000Y-135775000D03*
X132550000Y-135775000D03*
X133050000Y-135775000D03*
X133550000Y-135775000D03*
X134050000Y-135775000D03*
X134550000Y-135775000D03*
X135050000Y-135775000D03*
X135550000Y-135775000D03*
X136050000Y-135775000D03*
X136550000Y-135775000D03*
X137050000Y-135775000D03*
%TD*%
D10*
%TO.C,C1*%
X149825000Y-139575000D03*
X151375000Y-139575000D03*
%TD*%
D37*
%TO.C,R19*%
X134775000Y-140100000D03*
X136425000Y-140100000D03*
%TD*%
D12*
%TO.C,C4*%
X142450000Y-98900000D03*
X145150000Y-98900000D03*
%TD*%
D44*
%TO.C,U4*%
X124975000Y-109805000D03*
X124975000Y-108535000D03*
X124975000Y-107265000D03*
X124975000Y-105995000D03*
X120025000Y-105995000D03*
X120025000Y-107265000D03*
X120025000Y-108535000D03*
X120025000Y-109805000D03*
%TD*%
D45*
%TO.C,J5*%
X182045489Y-146550489D03*
X182845489Y-146550489D03*
D46*
X184045489Y-146550489D03*
X185045489Y-146550489D03*
X185545489Y-146550489D03*
X186545489Y-146550489D03*
D45*
X187745489Y-146550489D03*
X188545489Y-146550489D03*
X188545489Y-146550489D03*
X187745489Y-146550489D03*
D46*
X187045489Y-146550489D03*
X186045489Y-146550489D03*
X184545489Y-146550489D03*
X183545489Y-146550489D03*
D45*
X182845489Y-146550489D03*
X182045489Y-146550489D03*
%TD*%
D11*
%TO.C,C24*%
X154900000Y-84725000D03*
X154900000Y-79325000D03*
%TD*%
D47*
%TO.C,C3*%
X123150000Y-117750000D03*
X121600000Y-117750000D03*
%TD*%
D48*
%TO.C,C27*%
X142325000Y-101450000D03*
X145275000Y-101450000D03*
%TD*%
D29*
%TO.C,C16*%
X117000000Y-130975000D03*
X117000000Y-132525000D03*
%TD*%
D37*
%TO.C,R18*%
X134775000Y-138600000D03*
X136425000Y-138600000D03*
%TD*%
D47*
%TO.C,C13*%
X117575000Y-127500000D03*
X116025000Y-127500000D03*
%TD*%
D14*
%TO.C,R30*%
X121025000Y-111700000D03*
X119375000Y-111700000D03*
%TD*%
D37*
%TO.C,R27*%
X148225000Y-98900000D03*
X149875000Y-98900000D03*
%TD*%
D49*
%TO.C,SW3*%
X115420000Y-148550000D03*
X123380000Y-148550000D03*
X115420000Y-153050000D03*
X123380000Y-153050000D03*
%TD*%
D47*
%TO.C,C15*%
X117575000Y-129000000D03*
X116025000Y-129000000D03*
%TD*%
D50*
%TO.C,U10*%
X171837500Y-88450000D03*
X171837500Y-87500000D03*
X171837500Y-86550000D03*
X169562500Y-86550000D03*
X169562500Y-88450000D03*
%TD*%
D28*
%TO.C,C23*%
X160100000Y-84700000D03*
X160100000Y-81750000D03*
%TD*%
D19*
%TO.C,D8*%
X154537500Y-137775000D03*
X152962500Y-137775000D03*
%TD*%
D51*
%TO.C,U8*%
X167237500Y-79450000D03*
X167237500Y-80100000D03*
X167237500Y-80750000D03*
X167237500Y-81400000D03*
X172962500Y-81400000D03*
X172962500Y-80750000D03*
X172962500Y-80100000D03*
X172962500Y-79450000D03*
%TD*%
D24*
%TO.C,R12*%
X159987500Y-129900000D03*
X161812500Y-129900000D03*
%TD*%
D37*
%TO.C,R20*%
X139475000Y-138600000D03*
X141125000Y-138600000D03*
%TD*%
D14*
%TO.C,R24*%
X113347000Y-137922000D03*
X111697000Y-137922000D03*
%TD*%
D28*
%TO.C,C8*%
X125800000Y-85175000D03*
X125800000Y-82225000D03*
%TD*%
D37*
%TO.C,R28*%
X151425000Y-98900000D03*
X153075000Y-98900000D03*
%TD*%
%TO.C,R23*%
X168975000Y-90200000D03*
X170625000Y-90200000D03*
%TD*%
D52*
%TO.C,R16*%
X149000000Y-143312500D03*
X149000000Y-141487500D03*
%TD*%
D37*
%TO.C,R21*%
X139475000Y-140100000D03*
X141125000Y-140100000D03*
%TD*%
M02*
