M48
; DRILL file {KiCad (6.0.6)} date Thu Oct 20 14:17:53 2022
; FORMAT={-:-/ absolute / inch / decimal}
; #@! TF.CreationDate,2022-10-20T14:17:53+09:00
; #@! TF.GenerationSoftware,Kicad,Pcbnew,(6.0.6)
; #@! TF.FileFunction,Plated,1,4,PTH
FMAT,2
INCH
; #@! TA.AperFunction,Plated,PTH,ViaDrill
T1C0.0157
; #@! TA.AperFunction,Plated,PTH,ComponentDrill
T2C0.0197
; #@! TA.AperFunction,Plated,PTH,ComponentDrill
T3C0.0236
; #@! TA.AperFunction,Plated,PTH,ComponentDrill
T4C0.0374
; #@! TA.AperFunction,Plated,PTH,ComponentDrill
T5C0.0394
; #@! TA.AperFunction,Plated,PTH,ComponentDrill
T6C0.0520
; #@! TA.AperFunction,Plated,PTH,ComponentDrill
T7C0.1260
; #@! TA.AperFunction,Plated,PTH,ComponentDrill
T8C0.1661
%
G90
G05
T1
X4.1339Y-2.5591
X4.1339Y-2.7559
X4.1339Y-2.9528
X4.1339Y-3.1496
X4.1339Y-3.5433
X4.1339Y-4.1339
X4.1339Y-4.7244
X4.1339Y-5.1181
X4.1339Y-5.315
X4.1339Y-5.7087
X4.3307Y-2.3622
X4.3307Y-2.5591
X4.3307Y-2.7559
X4.3307Y-2.9528
X4.3307Y-3.1496
X4.3307Y-3.7402
X4.3307Y-3.937
X4.3307Y-4.1339
X4.3307Y-4.3307
X4.3307Y-4.5276
X4.3307Y-4.7244
X4.3307Y-4.9213
X4.3307Y-5.1181
X4.3307Y-5.315
X4.3307Y-5.5118
X4.3307Y-5.7087
X4.3307Y-5.9055
X4.5197Y-5.0787
X4.52Y-5.39
X4.52Y-5.45
X4.5276Y-2.3622
X4.5276Y-2.7559
X4.5276Y-2.9528
X4.5276Y-3.1496
X4.5276Y-3.5433
X4.5276Y-4.1339
X4.5276Y-4.3307
X4.5276Y-4.5276
X4.5276Y-4.7244
X4.5276Y-4.9213
X4.5276Y-5.315
X4.5276Y-5.7087
X4.5276Y-5.9055
X4.6693Y-4.6929
X4.687Y-5.0197
X4.7244Y-2.3622
X4.7244Y-2.5591
X4.7244Y-2.7559
X4.7244Y-2.9528
X4.7244Y-3.5433
X4.7244Y-4.1339
X4.7244Y-5.315
X4.7244Y-5.7087
X4.7244Y-5.9055
X4.7835Y-4.689
X4.7913Y-4.9193
X4.8661Y-5.5787
X4.9173Y-5.0945
X4.9173Y-5.1378
X4.9193Y-4.1004
X4.9213Y-2.3622
X4.9213Y-2.5591
X4.9213Y-2.7559
X4.9213Y-2.9528
X4.9213Y-3.1496
X4.9213Y-3.5433
X4.9213Y-3.7402
X4.9213Y-3.937
X4.9213Y-4.5276
X4.9213Y-4.7244
X4.9213Y-5.315
X4.9213Y-5.5118
X4.9213Y-5.7087
X4.9213Y-5.9055
X4.9252Y-5.8484
X4.9567Y-4.4685
X4.9567Y-5.252
X4.9959Y-4.173
X5.0197Y-4.9134
X5.0354Y-4.8169
X5.0787Y-4.8031
X5.0787Y-5.4055
X5.1142Y-4.6614
X5.1181Y-2.3622
X5.1181Y-2.5591
X5.1181Y-2.7559
X5.1181Y-2.9528
X5.1181Y-3.5433
X5.1181Y-4.1339
X5.1181Y-4.5276
X5.1299Y-5.6693
X5.1339Y-5.0925
X5.1435Y-4.816
X5.1634Y-4.5492
X5.1654Y-5.1535
X5.1693Y-5.4331
X5.1772Y-4.9606
X5.1772Y-5.2717
X5.1791Y-4.8327
X5.1811Y-5.0
X5.1909Y-3.9941
X5.1975Y-5.6709
X5.198Y-4.6654
X5.2276Y-4.552
X5.2633Y-5.6737
X5.2795Y-4.5512
X5.2874Y-5.1417
X5.3031Y-5.063
X5.311Y-4.9921
X5.315Y-2.3622
X5.315Y-2.5591
X5.315Y-2.7559
X5.315Y-2.9528
X5.315Y-3.5433
X5.315Y-4.5276
X5.3189Y-4.811
X5.3543Y-5.6102
X5.374Y-4.2953
X5.378Y-5.2244
X5.3976Y-5.2677
X5.4016Y-5.0315
X5.4094Y-5.4646
X5.4134Y-5.126
X5.4173Y-5.5276
X5.4291Y-4.4685
X5.4409Y-5.3622
X5.448Y-4.8181
X5.4764Y-4.9094
X5.5118Y-2.3622
X5.5118Y-2.5591
X5.5118Y-2.7559
X5.5118Y-2.9528
X5.5118Y-3.1496
X5.5118Y-3.3465
X5.5118Y-3.5433
X5.5118Y-3.7402
X5.5118Y-3.937
X5.5118Y-4.1339
X5.5118Y-4.3307
X5.5118Y-4.5276
X5.5118Y-4.7244
X5.5118Y-5.7087
X5.5118Y-5.9055
X5.5384Y-5.189
X5.5433Y-4.9764
X5.5512Y-3.9941
X5.5669Y-5.0827
X5.5866Y-4.9567
X5.5876Y-4.7756
X5.5906Y-5.5984
X5.5945Y-4.3976
X5.6083Y-3.8346
X5.6181Y-5.4764
X5.6535Y-4.5512
X5.6535Y-5.4331
X5.7087Y-2.3622
X5.7087Y-2.5591
X5.7087Y-2.7559
X5.7087Y-2.9528
X5.7087Y-4.3661
X5.7087Y-4.5276
X5.7175Y-5.0325
X5.7205Y-4.6811
X5.7244Y-4.8819
X5.7274Y-5.5482
X5.7343Y-4.2087
X5.7362Y-4.7559
X5.7717Y-4.7323
X5.8386Y-5.4331
X5.8504Y-5.5384
X5.8543Y-4.6496
X5.8583Y-5.0039
X5.8583Y-5.2638
X5.888Y-3.8329
X5.8898Y-3.9961
X5.8976Y-4.7598
X5.9055Y-2.3622
X5.9055Y-2.5591
X5.9055Y-2.7559
X5.9055Y-2.9528
X5.9055Y-3.3465
X5.9055Y-3.5433
X5.9055Y-4.1339
X5.9055Y-4.3307
X5.9055Y-4.5276
X5.9055Y-5.1181
X5.9055Y-5.2992
X5.9055Y-5.8228
X5.924Y-4.9803
X5.9606Y-3.502
X5.9616Y-3.9793
X5.9764Y-4.2165
X5.9764Y-4.5906
X6.0039Y-5.7795
X6.0315Y-4.5571
X6.0472Y-5.0236
X6.0512Y-4.2874
X6.0512Y-4.6969
X6.0591Y-4.8661
X6.0842Y-5.3164
X6.0906Y-5.1378
X6.0945Y-5.189
X6.0984Y-4.4094
X6.1024Y-2.3622
X6.1024Y-2.5591
X6.1024Y-2.7559
X6.1024Y-2.9528
X6.1024Y-3.7402
X6.1024Y-3.937
X6.1024Y-4.1339
X6.1024Y-5.5118
X6.1024Y-5.7087
X6.1024Y-5.9055
X6.1299Y-4.6535
X6.1476Y-3.0709
X6.1654Y-4.3937
X6.2992Y-2.3622
X6.2992Y-2.5591
X6.2992Y-2.7559
X6.2992Y-2.9528
X6.2992Y-3.1496
X6.2992Y-3.5433
X6.2992Y-3.7402
X6.2992Y-4.1339
X6.2992Y-4.3307
X6.2992Y-4.5276
X6.2992Y-4.7244
X6.2992Y-4.9213
X6.2992Y-5.0591
X6.2992Y-5.5118
X6.2992Y-5.7087
X6.2992Y-5.9104
X6.3425Y-5.0591
X6.42Y-5.328
X6.437Y-5.1142
X6.4803Y-3.1545
X6.4803Y-3.1821
X6.4961Y-2.3622
X6.4961Y-2.5591
X6.4961Y-2.9528
X6.4961Y-3.7402
X6.4961Y-3.937
X6.4961Y-4.1339
X6.4961Y-4.3307
X6.4961Y-4.5276
X6.4961Y-4.7244
X6.4961Y-4.9213
X6.4961Y-5.1181
X6.4961Y-5.5118
X6.4961Y-5.7087
X6.4961Y-5.9104
X6.4976Y-5.337
X6.5118Y-3.1545
X6.5118Y-3.1821
X6.5709Y-4.8819
X6.6929Y-2.3622
X6.6929Y-2.5591
X6.6929Y-2.7559
X6.6929Y-2.9528
X6.6929Y-3.7402
X6.6929Y-3.937
X6.6929Y-4.1339
X6.6929Y-4.3307
X6.6929Y-4.5276
X6.6929Y-4.7244
X6.6929Y-4.9213
X6.6929Y-5.1181
X6.6929Y-5.315
X6.6929Y-5.5118
X6.6929Y-5.7087
X6.6929Y-5.9104
X6.7283Y-3.4449
X6.7298Y-3.5177
X6.7624Y-3.2573
X6.8898Y-2.3622
X6.8898Y-2.5591
X6.8898Y-2.7559
X6.8898Y-2.9528
X6.8898Y-3.1496
X6.8898Y-3.7402
X6.8898Y-3.937
X6.8898Y-4.1339
X6.8898Y-4.3307
X6.8898Y-4.5276
X6.8898Y-4.7244
X6.8898Y-4.9213
X6.8898Y-5.1181
X6.8898Y-5.315
X6.8898Y-5.7087
X6.8898Y-5.9104
X6.9921Y-5.4252
X7.0866Y-2.3622
X7.0866Y-2.5591
X7.0866Y-2.7559
X7.0866Y-2.9528
X7.0866Y-3.5433
X7.0866Y-3.7402
X7.0866Y-3.937
X7.0866Y-4.1339
X7.0866Y-4.3307
X7.0866Y-4.5276
X7.0866Y-4.7244
X7.0866Y-4.9213
X7.0866Y-5.1181
X7.0866Y-5.315
X7.0866Y-5.7087
X7.1496Y-5.689
X7.1963Y-5.6856
X7.2835Y-2.3622
X7.2835Y-2.7559
X7.2835Y-3.1496
X7.2835Y-3.5433
X7.2835Y-3.7402
X7.2835Y-3.937
X7.2835Y-4.1339
X7.2835Y-4.3307
X7.2835Y-4.5276
X7.2835Y-4.7244
X7.2835Y-4.9213
X7.2835Y-5.1181
X7.2835Y-5.315
X7.2835Y-5.5118
X7.2835Y-5.9055
X7.4109Y-5.6995
X7.4488Y-5.689
X7.4803Y-2.3622
X7.4803Y-2.5591
X7.4803Y-2.7559
X7.4803Y-2.9528
X7.4803Y-3.1496
X7.4803Y-3.3465
X7.4803Y-3.5433
X7.4803Y-3.7402
X7.4803Y-3.937
X7.4803Y-4.1339
X7.4803Y-4.3307
X7.4803Y-4.5276
X7.4803Y-4.7244
X7.4803Y-4.9213
X7.4803Y-5.1181
X7.4803Y-5.315
X7.4803Y-5.5118
X7.4803Y-5.7087
X7.6772Y-2.5591
X7.6772Y-2.7559
X7.6772Y-2.9528
X7.6772Y-3.1496
X7.6772Y-3.3465
X7.6772Y-3.5433
X7.6772Y-3.7402
X7.6772Y-3.937
X7.6772Y-4.5276
X7.6772Y-4.7244
X7.6772Y-4.9213
X7.6772Y-5.5118
X7.6772Y-5.7087
T2
X4.0394Y-2.3622
X4.0394Y-5.9055
X4.067Y-2.2954
X4.067Y-2.429
X4.067Y-5.8387
X4.067Y-5.9723
X4.1339Y-2.2677
X4.1339Y-2.4567
X4.1339Y-5.811
X4.1339Y-6.0
X4.2007Y-2.2954
X4.2007Y-2.429
X4.2007Y-5.8387
X4.2007Y-5.9723
X4.2283Y-2.3622
X4.2283Y-5.9055
X7.5827Y-2.3622
X7.5827Y-5.9055
X7.6104Y-2.2954
X7.6104Y-2.429
X7.6104Y-5.8387
X7.6104Y-5.9723
X7.6772Y-2.2677
X7.6772Y-2.4567
X7.6772Y-5.811
X7.6772Y-6.0
X7.744Y-2.2954
X7.744Y-2.429
X7.744Y-5.8387
X7.744Y-5.9723
X7.7717Y-2.3622
X7.7717Y-5.9055
T4
X4.0827Y-4.3642
X4.0827Y-4.4626
X4.0827Y-4.561
X4.0866Y-3.7106
X4.0866Y-3.8091
X4.0866Y-3.9075
X4.0866Y-4.0059
X4.0906Y-5.439
X4.0906Y-5.5374
X4.0906Y-5.6358
X4.0994Y-4.8681
X4.0994Y-4.9665
X4.0994Y-5.065
X4.0994Y-5.1634
X5.0984Y-5.9163
X5.1969Y-5.9163
X5.2953Y-5.9163
X5.6102Y-5.9124
X5.7087Y-5.9124
X5.8071Y-5.9124
X5.9055Y-5.9124
X6.0039Y-5.9124
T5
X6.1969Y-3.937
X6.3976Y-3.9331
T6
X4.4839Y-2.5984
X7.3272Y-2.5984
T7
X4.1339Y-2.3622
X4.1339Y-5.9055
X7.6772Y-2.3622
X7.6772Y-5.9055
T8
X7.7047Y-4.2283
X7.7067Y-5.1811
T3
G00X7.125Y-5.7841
M15
G01X7.125Y-5.8274
M16
G05
G00X7.125Y-5.9585
M15
G01X7.125Y-5.9821
M16
G05
G00X7.4652Y-5.7841
M15
G01X7.4652Y-5.8274
M16
G05
G00X7.4652Y-5.9585
M15
G01X7.4652Y-5.9821
M16
G05
T5
G00X4.1299Y-3.2694
M15
G01X4.1299Y-3.3481
M16
G05
G00X4.2087Y-3.4938
M15
G01X4.2874Y-3.4938
M16
G05
G00X4.3661Y-3.2694
M15
G01X4.3661Y-3.3481
M16
G05
T0
M30
