%TF.GenerationSoftware,KiCad,Pcbnew,(6.0.6)*%
%TF.CreationDate,2022-09-15T15:55:45+09:00*%
%TF.ProjectId,LSM6DS3-breakout,4c534d36-4453-4332-9d62-7265616b6f75,rev?*%
%TF.SameCoordinates,Original*%
%TF.FileFunction,Copper,L1,Top*%
%TF.FilePolarity,Positive*%
%FSLAX46Y46*%
G04 Gerber Fmt 4.6, Leading zero omitted, Abs format (unit mm)*
G04 Created by KiCad (PCBNEW (6.0.6)) date 2022-09-15 15:55:45*
%MOMM*%
%LPD*%
G01*
G04 APERTURE LIST*
G04 Aperture macros list*
%AMRoundRect*
0 Rectangle with rounded corners*
0 $1 Rounding radius*
0 $2 $3 $4 $5 $6 $7 $8 $9 X,Y pos of 4 corners*
0 Add a 4 corners polygon primitive as box body*
4,1,4,$2,$3,$4,$5,$6,$7,$8,$9,$2,$3,0*
0 Add four circle primitives for the rounded corners*
1,1,$1+$1,$2,$3*
1,1,$1+$1,$4,$5*
1,1,$1+$1,$6,$7*
1,1,$1+$1,$8,$9*
0 Add four rect primitives between the rounded corners*
20,1,$1+$1,$2,$3,$4,$5,0*
20,1,$1+$1,$4,$5,$6,$7,0*
20,1,$1+$1,$6,$7,$8,$9,0*
20,1,$1+$1,$8,$9,$2,$3,0*%
%AMFreePoly0*
4,1,48,0.036020,0.199191,0.037970,0.199714,0.040958,0.198321,0.057086,0.195477,0.069630,0.184951,0.084467,0.178033,0.290533,-0.028033,0.293203,-0.031847,0.294953,-0.032857,0.296081,-0.035957,0.305473,-0.049370,0.306900,-0.065680,0.312500,-0.081066,0.312500,-0.125000,0.310782,-0.134742,0.311361,-0.138024,0.309695,-0.140910,0.307977,-0.150652,0.295451,-0.165579,0.285709,-0.182453,
0.279350,-0.184767,0.275000,-0.189952,0.255809,-0.193336,0.237500,-0.200000,-0.237500,-0.200000,-0.247242,-0.198282,-0.250524,-0.198861,-0.253410,-0.197195,-0.263152,-0.195477,-0.278079,-0.182951,-0.294953,-0.173209,-0.297267,-0.166850,-0.302452,-0.162500,-0.305836,-0.143309,-0.312500,-0.125000,-0.312500,0.125000,-0.310782,0.134742,-0.311361,0.138024,-0.309695,0.140910,-0.307977,0.150652,
-0.295451,0.165579,-0.285709,0.182453,-0.279350,0.184767,-0.275000,0.189952,-0.255809,0.193336,-0.237500,0.200000,0.031434,0.200000,0.036020,0.199191,0.036020,0.199191,$1*%
%AMFreePoly1*
4,1,48,0.247242,0.198282,0.250524,0.198861,0.253410,0.197195,0.263152,0.195477,0.278079,0.182951,0.294953,0.173209,0.297267,0.166850,0.302452,0.162500,0.305836,0.143309,0.312500,0.125000,0.312500,0.081066,0.311691,0.076480,0.312214,0.074529,0.310820,0.071540,0.307977,0.055414,0.297452,0.042871,0.290533,0.028033,0.084467,-0.178033,0.080653,-0.180703,0.079643,-0.182453,
0.076543,-0.183581,0.063130,-0.192973,0.046819,-0.194400,0.031434,-0.200000,-0.237500,-0.200000,-0.247242,-0.198282,-0.250524,-0.198861,-0.253410,-0.197195,-0.263152,-0.195477,-0.278079,-0.182951,-0.294953,-0.173209,-0.297267,-0.166850,-0.302452,-0.162500,-0.305836,-0.143309,-0.312500,-0.125000,-0.312500,0.125000,-0.310782,0.134742,-0.311361,0.138024,-0.309695,0.140910,-0.307977,0.150652,
-0.295451,0.165579,-0.285709,0.182453,-0.279350,0.184767,-0.275000,0.189952,-0.255809,0.193336,-0.237500,0.200000,0.237500,0.200000,0.247242,0.198282,0.247242,0.198282,$1*%
%AMFreePoly2*
4,1,48,0.134742,0.310782,0.138024,0.311361,0.140910,0.309695,0.150652,0.307977,0.165579,0.295451,0.182453,0.285709,0.184767,0.279350,0.189952,0.275000,0.193336,0.255809,0.200000,0.237500,0.200000,-0.237500,0.198282,-0.247242,0.198861,-0.250524,0.197195,-0.253410,0.195477,-0.263152,0.182951,-0.278079,0.173209,-0.294953,0.166850,-0.297267,0.162500,-0.302452,0.143309,-0.305836,
0.125000,-0.312500,-0.125000,-0.312500,-0.134742,-0.310782,-0.138024,-0.311361,-0.140910,-0.309695,-0.150652,-0.307977,-0.165579,-0.295451,-0.182453,-0.285709,-0.184767,-0.279350,-0.189952,-0.275000,-0.193336,-0.255809,-0.200000,-0.237500,-0.200000,0.031434,-0.199191,0.036020,-0.199714,0.037970,-0.198321,0.040958,-0.195477,0.057086,-0.184951,0.069630,-0.178033,0.084467,0.028033,0.290533,
0.031847,0.293203,0.032857,0.294953,0.035957,0.296081,0.049370,0.305473,0.065680,0.306900,0.081066,0.312500,0.125000,0.312500,0.134742,0.310782,0.134742,0.310782,$1*%
%AMFreePoly3*
4,1,48,-0.076480,0.311691,-0.074530,0.312214,-0.071542,0.310821,-0.055414,0.307977,-0.042870,0.297451,-0.028033,0.290533,0.178033,0.084467,0.180703,0.080653,0.182453,0.079643,0.183581,0.076543,0.192973,0.063130,0.194400,0.046820,0.200000,0.031434,0.200000,-0.237500,0.198282,-0.247242,0.198861,-0.250524,0.197195,-0.253410,0.195477,-0.263152,0.182951,-0.278079,0.173209,-0.294953,
0.166850,-0.297267,0.162500,-0.302452,0.143309,-0.305836,0.125000,-0.312500,-0.125000,-0.312500,-0.134742,-0.310782,-0.138024,-0.311361,-0.140910,-0.309695,-0.150652,-0.307977,-0.165579,-0.295451,-0.182453,-0.285709,-0.184767,-0.279350,-0.189952,-0.275000,-0.193336,-0.255809,-0.200000,-0.237500,-0.200000,0.237500,-0.198282,0.247242,-0.198861,0.250524,-0.197195,0.253410,-0.195477,0.263152,
-0.182951,0.278079,-0.173209,0.294953,-0.166850,0.297267,-0.162500,0.302452,-0.143309,0.305836,-0.125000,0.312500,-0.081066,0.312500,-0.076480,0.311691,-0.076480,0.311691,$1*%
%AMFreePoly4*
4,1,48,0.247242,0.198282,0.250524,0.198861,0.253410,0.197195,0.263152,0.195477,0.278079,0.182951,0.294953,0.173209,0.297267,0.166850,0.302452,0.162500,0.305836,0.143309,0.312500,0.125000,0.312500,-0.125000,0.310782,-0.134742,0.311361,-0.138024,0.309695,-0.140910,0.307977,-0.150652,0.295451,-0.165579,0.285709,-0.182453,0.279350,-0.184767,0.275000,-0.189952,0.255809,-0.193336,
0.237500,-0.200000,-0.031434,-0.200000,-0.036020,-0.199191,-0.037971,-0.199714,-0.040960,-0.198320,-0.057086,-0.195477,-0.069629,-0.184952,-0.084467,-0.178033,-0.290533,0.028033,-0.293203,0.031847,-0.294953,0.032857,-0.296081,0.035957,-0.305473,0.049370,-0.306900,0.065681,-0.312500,0.081066,-0.312500,0.125000,-0.310782,0.134742,-0.311361,0.138024,-0.309695,0.140910,-0.307977,0.150652,
-0.295451,0.165579,-0.285709,0.182453,-0.279350,0.184767,-0.275000,0.189952,-0.255809,0.193336,-0.237500,0.200000,0.237500,0.200000,0.247242,0.198282,0.247242,0.198282,$1*%
%AMFreePoly5*
4,1,48,0.247242,0.198282,0.250524,0.198861,0.253410,0.197195,0.263152,0.195477,0.278079,0.182951,0.294953,0.173209,0.297267,0.166850,0.302452,0.162500,0.305836,0.143309,0.312500,0.125000,0.312500,-0.125000,0.310782,-0.134742,0.311361,-0.138024,0.309695,-0.140910,0.307977,-0.150652,0.295451,-0.165579,0.285709,-0.182453,0.279350,-0.184767,0.275000,-0.189952,0.255809,-0.193336,
0.237500,-0.200000,-0.237500,-0.200000,-0.247242,-0.198282,-0.250524,-0.198861,-0.253410,-0.197195,-0.263152,-0.195477,-0.278079,-0.182951,-0.294953,-0.173209,-0.297267,-0.166850,-0.302452,-0.162500,-0.305836,-0.143309,-0.312500,-0.125000,-0.312500,-0.081066,-0.311691,-0.076480,-0.312214,-0.074530,-0.310821,-0.071542,-0.307977,-0.055414,-0.297451,-0.042870,-0.290533,-0.028033,-0.084467,0.178033,
-0.080653,0.180703,-0.079643,0.182453,-0.076543,0.183581,-0.063130,0.192973,-0.046820,0.194400,-0.031434,0.200000,0.237500,0.200000,0.247242,0.198282,0.247242,0.198282,$1*%
%AMFreePoly6*
4,1,48,0.134742,0.310782,0.138024,0.311361,0.140910,0.309695,0.150652,0.307977,0.165579,0.295451,0.182453,0.285709,0.184767,0.279350,0.189952,0.275000,0.193336,0.255809,0.200000,0.237500,0.200000,-0.031434,0.199191,-0.036020,0.199714,-0.037971,0.198320,-0.040960,0.195477,-0.057086,0.184952,-0.069629,0.178033,-0.084467,-0.028033,-0.290533,-0.031847,-0.293203,-0.032857,-0.294953,
-0.035957,-0.296081,-0.049370,-0.305473,-0.065681,-0.306900,-0.081066,-0.312500,-0.125000,-0.312500,-0.134742,-0.310782,-0.138024,-0.311361,-0.140910,-0.309695,-0.150652,-0.307977,-0.165579,-0.295451,-0.182453,-0.285709,-0.184767,-0.279350,-0.189952,-0.275000,-0.193336,-0.255809,-0.200000,-0.237500,-0.200000,0.237500,-0.198282,0.247242,-0.198861,0.250524,-0.197195,0.253410,-0.195477,0.263152,
-0.182951,0.278079,-0.173209,0.294953,-0.166850,0.297267,-0.162500,0.302452,-0.143309,0.305836,-0.125000,0.312500,0.125000,0.312500,0.134742,0.310782,0.134742,0.310782,$1*%
%AMFreePoly7*
4,1,48,0.134742,0.310782,0.138024,0.311361,0.140910,0.309695,0.150652,0.307977,0.165579,0.295451,0.182453,0.285709,0.184767,0.279350,0.189952,0.275000,0.193336,0.255809,0.200000,0.237500,0.200000,-0.237500,0.198282,-0.247242,0.198861,-0.250524,0.197195,-0.253410,0.195477,-0.263152,0.182951,-0.278079,0.173209,-0.294953,0.166850,-0.297267,0.162500,-0.302452,0.143309,-0.305836,
0.125000,-0.312500,0.081066,-0.312500,0.076480,-0.311691,0.074529,-0.312214,0.071540,-0.310820,0.055414,-0.307977,0.042871,-0.297452,0.028033,-0.290533,-0.178033,-0.084467,-0.180703,-0.080653,-0.182453,-0.079643,-0.183581,-0.076543,-0.192973,-0.063130,-0.194400,-0.046819,-0.200000,-0.031434,-0.200000,0.237500,-0.198282,0.247242,-0.198861,0.250524,-0.197195,0.253410,-0.195477,0.263152,
-0.182951,0.278079,-0.173209,0.294953,-0.166850,0.297267,-0.162500,0.302452,-0.143309,0.305836,-0.125000,0.312500,0.125000,0.312500,0.134742,0.310782,0.134742,0.310782,$1*%
%AMFreePoly8*
4,1,22,0.500000,-0.750000,0.000000,-0.750000,0.000000,-0.745033,-0.079941,-0.743568,-0.215256,-0.701293,-0.333266,-0.622738,-0.424486,-0.514219,-0.481581,-0.384460,-0.499164,-0.250000,-0.500000,-0.250000,-0.500000,0.250000,-0.499164,0.250000,-0.499963,0.256109,-0.478152,0.396186,-0.417904,0.524511,-0.324060,0.630769,-0.204165,0.706417,-0.067858,0.745374,0.000000,0.744959,0.000000,0.750000,
0.500000,0.750000,0.500000,-0.750000,0.500000,-0.750000,$1*%
%AMFreePoly9*
4,1,20,0.000000,0.744959,0.073905,0.744508,0.209726,0.703889,0.328688,0.626782,0.421226,0.519385,0.479903,0.390333,0.500000,0.250000,0.500000,-0.250000,0.499851,-0.262216,0.476331,-0.402017,0.414519,-0.529596,0.319384,-0.634700,0.198574,-0.708877,0.061801,-0.746166,0.000000,-0.745033,0.000000,-0.750000,-0.500000,-0.750000,-0.500000,0.750000,0.000000,0.750000,0.000000,0.744959,
0.000000,0.744959,$1*%
G04 Aperture macros list end*
%TA.AperFunction,ComponentPad*%
%ADD10C,0.800000*%
%TD*%
%TA.AperFunction,ComponentPad*%
%ADD11C,6.400000*%
%TD*%
%TA.AperFunction,SMDPad,CuDef*%
%ADD12RoundRect,0.250000X-0.250000X-0.475000X0.250000X-0.475000X0.250000X0.475000X-0.250000X0.475000X0*%
%TD*%
%TA.AperFunction,SMDPad,CuDef*%
%ADD13RoundRect,0.250000X0.262500X0.450000X-0.262500X0.450000X-0.262500X-0.450000X0.262500X-0.450000X0*%
%TD*%
%TA.AperFunction,SMDPad,CuDef*%
%ADD14RoundRect,0.250000X0.450000X-0.262500X0.450000X0.262500X-0.450000X0.262500X-0.450000X-0.262500X0*%
%TD*%
%TA.AperFunction,ComponentPad*%
%ADD15C,2.000000*%
%TD*%
%TA.AperFunction,ComponentPad*%
%ADD16RoundRect,0.250000X-0.600000X-0.725000X0.600000X-0.725000X0.600000X0.725000X-0.600000X0.725000X0*%
%TD*%
%TA.AperFunction,ComponentPad*%
%ADD17O,1.700000X1.950000*%
%TD*%
%TA.AperFunction,SMDPad,CuDef*%
%ADD18FreePoly0,0.000000*%
%TD*%
%TA.AperFunction,SMDPad,CuDef*%
%ADD19RoundRect,0.100000X-0.212500X-0.100000X0.212500X-0.100000X0.212500X0.100000X-0.212500X0.100000X0*%
%TD*%
%TA.AperFunction,SMDPad,CuDef*%
%ADD20FreePoly1,0.000000*%
%TD*%
%TA.AperFunction,SMDPad,CuDef*%
%ADD21FreePoly2,0.000000*%
%TD*%
%TA.AperFunction,SMDPad,CuDef*%
%ADD22RoundRect,0.100000X-0.100000X-0.212500X0.100000X-0.212500X0.100000X0.212500X-0.100000X0.212500X0*%
%TD*%
%TA.AperFunction,SMDPad,CuDef*%
%ADD23FreePoly3,0.000000*%
%TD*%
%TA.AperFunction,SMDPad,CuDef*%
%ADD24FreePoly4,0.000000*%
%TD*%
%TA.AperFunction,SMDPad,CuDef*%
%ADD25FreePoly5,0.000000*%
%TD*%
%TA.AperFunction,SMDPad,CuDef*%
%ADD26FreePoly6,0.000000*%
%TD*%
%TA.AperFunction,SMDPad,CuDef*%
%ADD27FreePoly7,0.000000*%
%TD*%
%TA.AperFunction,SMDPad,CuDef*%
%ADD28RoundRect,0.250000X-0.450000X0.262500X-0.450000X-0.262500X0.450000X-0.262500X0.450000X0.262500X0*%
%TD*%
%TA.AperFunction,SMDPad,CuDef*%
%ADD29FreePoly8,180.000000*%
%TD*%
%TA.AperFunction,SMDPad,CuDef*%
%ADD30FreePoly9,180.000000*%
%TD*%
%TA.AperFunction,SMDPad,CuDef*%
%ADD31FreePoly8,270.000000*%
%TD*%
%TA.AperFunction,SMDPad,CuDef*%
%ADD32FreePoly9,270.000000*%
%TD*%
%TA.AperFunction,ComponentPad*%
%ADD33RoundRect,0.250000X-0.725000X0.600000X-0.725000X-0.600000X0.725000X-0.600000X0.725000X0.600000X0*%
%TD*%
%TA.AperFunction,ComponentPad*%
%ADD34O,1.950000X1.700000*%
%TD*%
%TA.AperFunction,SMDPad,CuDef*%
%ADD35RoundRect,0.250000X-0.262500X-0.450000X0.262500X-0.450000X0.262500X0.450000X-0.262500X0.450000X0*%
%TD*%
%TA.AperFunction,SMDPad,CuDef*%
%ADD36RoundRect,0.243750X0.243750X0.456250X-0.243750X0.456250X-0.243750X-0.456250X0.243750X-0.456250X0*%
%TD*%
%TA.AperFunction,SMDPad,CuDef*%
%ADD37RoundRect,0.250000X-0.475000X0.250000X-0.475000X-0.250000X0.475000X-0.250000X0.475000X0.250000X0*%
%TD*%
%TA.AperFunction,ViaPad*%
%ADD38C,0.800000*%
%TD*%
%TA.AperFunction,Conductor*%
%ADD39C,0.200000*%
%TD*%
%TA.AperFunction,Conductor*%
%ADD40C,0.800000*%
%TD*%
%TA.AperFunction,Conductor*%
%ADD41C,0.250000*%
%TD*%
%TA.AperFunction,Conductor*%
%ADD42C,0.300000*%
%TD*%
G04 APERTURE END LIST*
%TO.C,JP1*%
G36*
X119650000Y-86100000D02*
G01*
X119150000Y-86100000D01*
X119150000Y-85500000D01*
X119650000Y-85500000D01*
X119650000Y-86100000D01*
G37*
%TO.C,JP3*%
G36*
X122900000Y-86250000D02*
G01*
X122300000Y-86250000D01*
X122300000Y-85750000D01*
X122900000Y-85750000D01*
X122900000Y-86250000D01*
G37*
%TO.C,JP2*%
G36*
X125500000Y-86250000D02*
G01*
X124900000Y-86250000D01*
X124900000Y-85750000D01*
X125500000Y-85750000D01*
X125500000Y-86250000D01*
G37*
%TD*%
D10*
%TO.P,H3,1*%
%TO.N,N/C*%
X105697056Y-92697056D03*
X104000000Y-88600000D03*
X102302944Y-92697056D03*
X102302944Y-89302944D03*
D11*
X104000000Y-91000000D03*
D10*
X106400000Y-91000000D03*
X105697056Y-89302944D03*
X101600000Y-91000000D03*
X104000000Y-93400000D03*
%TD*%
D12*
%TO.P,C1,1*%
%TO.N,+3.3V*%
X129850000Y-84600000D03*
%TO.P,C1,2*%
%TO.N,GND*%
X131750000Y-84600000D03*
%TD*%
D13*
%TO.P,R3,1*%
%TO.N,+3.3V*%
X128512500Y-76200000D03*
%TO.P,R3,2*%
%TO.N,CS*%
X126687500Y-76200000D03*
%TD*%
D14*
%TO.P,FB1,1*%
%TO.N,+3.3V*%
X130000000Y-82712500D03*
%TO.P,FB1,2*%
%TO.N,Net-(C2-Pad1)*%
X130000000Y-80887500D03*
%TD*%
D15*
%TO.P,TP2,1,1*%
%TO.N,INT2*%
X137200000Y-80600000D03*
%TD*%
D16*
%TO.P,J2,1,Pin_1*%
%TO.N,SCL*%
X121000000Y-68000000D03*
D17*
%TO.P,J2,2,Pin_2*%
%TO.N,SDA*%
X123500000Y-68000000D03*
%TO.P,J2,3,Pin_3*%
%TO.N,+3.3V*%
X126000000Y-68000000D03*
%TO.P,J2,4,Pin_4*%
%TO.N,GND*%
X128500000Y-68000000D03*
%TD*%
D18*
%TO.P,U1,1,SDO/SA0*%
%TO.N,SDO{slash}SA0*%
X123837500Y-79250000D03*
D19*
%TO.P,U1,2,SDX*%
%TO.N,SDX*%
X123837500Y-79750000D03*
%TO.P,U1,3,SCX*%
%TO.N,SCX*%
X123837500Y-80250000D03*
D20*
%TO.P,U1,4,INT1*%
%TO.N,INT1*%
X123837500Y-80750000D03*
D21*
%TO.P,U1,5,VDDIO*%
%TO.N,+3.3V*%
X124500000Y-80912500D03*
D22*
%TO.P,U1,6,GND*%
%TO.N,GND*%
X125000000Y-80912500D03*
D23*
%TO.P,U1,7,GND*%
X125500000Y-80912500D03*
D24*
%TO.P,U1,8,VDD*%
%TO.N,Net-(C2-Pad1)*%
X126162500Y-80750000D03*
D19*
%TO.P,U1,9,INT2*%
%TO.N,INT2*%
X126162500Y-80250000D03*
%TO.P,U1,10,NC*%
%TO.N,unconnected-(U1-Pad10)*%
X126162500Y-79750000D03*
D25*
%TO.P,U1,11,NC*%
%TO.N,unconnected-(U1-Pad11)*%
X126162500Y-79250000D03*
D26*
%TO.P,U1,12,CS*%
%TO.N,CS*%
X125500000Y-79087500D03*
D22*
%TO.P,U1,13,SCL*%
%TO.N,SCL*%
X125000000Y-79087500D03*
D27*
%TO.P,U1,14,SDA*%
%TO.N,SDA*%
X124500000Y-79087500D03*
%TD*%
D28*
%TO.P,R6,1*%
%TO.N,SDO{slash}SA0*%
X120400000Y-79487500D03*
%TO.P,R6,2*%
%TO.N,GND*%
X120400000Y-81312500D03*
%TD*%
%TO.P,R2,1*%
%TO.N,+3.3V*%
X115200000Y-74087500D03*
%TO.P,R2,2*%
%TO.N,SCL*%
X115200000Y-75912500D03*
%TD*%
D10*
%TO.P,H4,1*%
%TO.N,N/C*%
X102302944Y-70697056D03*
X104000000Y-71400000D03*
D11*
X104000000Y-69000000D03*
D10*
X101600000Y-69000000D03*
X102302944Y-67302944D03*
X104000000Y-66600000D03*
X105697056Y-67302944D03*
X105697056Y-70697056D03*
X106400000Y-69000000D03*
%TD*%
D29*
%TO.P,JP1,1,A*%
%TO.N,Net-(D1-Pad1)*%
X120050000Y-85800000D03*
D30*
%TO.P,JP1,2,B*%
%TO.N,GND*%
X118750000Y-85800000D03*
%TD*%
D31*
%TO.P,JP3,1,A*%
%TO.N,SDX*%
X122600000Y-85350000D03*
D32*
%TO.P,JP3,2,B*%
%TO.N,GND*%
X122600000Y-86650000D03*
%TD*%
D33*
%TO.P,J1,1,Pin_1*%
%TO.N,SCL*%
X103600000Y-76000000D03*
D34*
%TO.P,J1,2,Pin_2*%
%TO.N,SDA*%
X103600000Y-78500000D03*
%TO.P,J1,3,Pin_3*%
%TO.N,+3.3V*%
X103600000Y-81000000D03*
%TO.P,J1,4,Pin_4*%
%TO.N,GND*%
X103600000Y-83500000D03*
%TD*%
D35*
%TO.P,R1,1*%
%TO.N,+3.3V*%
X115087500Y-83400000D03*
%TO.P,R1,2*%
%TO.N,Net-(D1-Pad2)*%
X116912500Y-83400000D03*
%TD*%
D36*
%TO.P,D1,1,K*%
%TO.N,Net-(D1-Pad1)*%
X120337500Y-83400000D03*
%TO.P,D1,2,A*%
%TO.N,Net-(D1-Pad2)*%
X118462500Y-83400000D03*
%TD*%
D31*
%TO.P,JP2,1,A*%
%TO.N,SCX*%
X125200000Y-85350000D03*
D32*
%TO.P,JP2,2,B*%
%TO.N,GND*%
X125200000Y-86650000D03*
%TD*%
D11*
%TO.P,H2,1*%
%TO.N,N/C*%
X146000000Y-91000000D03*
D10*
X146000000Y-93400000D03*
X144302944Y-92697056D03*
X147697056Y-92697056D03*
X148400000Y-91000000D03*
X143600000Y-91000000D03*
X144302944Y-89302944D03*
X147697056Y-89302944D03*
X146000000Y-88600000D03*
%TD*%
%TO.P,H1,1*%
%TO.N,N/C*%
X143600000Y-69000000D03*
X146000000Y-66600000D03*
X148400000Y-69000000D03*
X147697056Y-67302944D03*
X144302944Y-70697056D03*
X144302944Y-67302944D03*
X147697056Y-70697056D03*
X146000000Y-71400000D03*
D11*
X146000000Y-69000000D03*
%TD*%
D14*
%TO.P,R4,1*%
%TO.N,+3.3V*%
X115200000Y-80312500D03*
%TO.P,R4,2*%
%TO.N,SDA*%
X115200000Y-78487500D03*
%TD*%
D37*
%TO.P,C2,1*%
%TO.N,Net-(C2-Pad1)*%
X132000000Y-80850000D03*
%TO.P,C2,2*%
%TO.N,GND*%
X132000000Y-82750000D03*
%TD*%
D15*
%TO.P,TP1,1,1*%
%TO.N,INT1*%
X137200000Y-84000000D03*
%TD*%
D14*
%TO.P,R5,1*%
%TO.N,+3.3V*%
X118400000Y-81312500D03*
%TO.P,R5,2*%
%TO.N,SDO{slash}SA0*%
X118400000Y-79487500D03*
%TD*%
D38*
%TO.N,+3.3V*%
X128500000Y-74600000D03*
X115200000Y-72600000D03*
X115200000Y-81600000D03*
%TO.N,GND*%
X140000000Y-70000000D03*
X140000000Y-75000000D03*
X121000000Y-81000000D03*
X127600000Y-81900000D03*
X145000000Y-85000000D03*
X145000000Y-80000000D03*
X110000000Y-70000000D03*
X135000000Y-75000000D03*
X110000000Y-90000000D03*
X135000000Y-90000000D03*
X145000000Y-75000000D03*
X140000000Y-85000000D03*
X113000000Y-86000000D03*
X115000000Y-86000000D03*
X125000000Y-75000000D03*
X110000000Y-75000000D03*
X135000000Y-70000000D03*
X128500000Y-81900000D03*
X128000000Y-86000000D03*
X130000000Y-90000000D03*
X140000000Y-90000000D03*
%TO.N,SCL*%
X118000000Y-76000000D03*
%TO.N,SDA*%
X116500000Y-78500000D03*
%TO.N,INT1*%
X124044622Y-83955378D03*
%TD*%
D39*
%TO.N,+3.3V*%
X124500000Y-82500000D02*
X127000000Y-85000000D01*
D40*
X112000000Y-89000000D02*
X127200000Y-89000000D01*
D39*
X127000000Y-85000000D02*
X127000000Y-89000000D01*
D40*
X109800000Y-81000000D02*
X110600000Y-81800000D01*
X110600000Y-81800000D02*
X110600000Y-87600000D01*
D39*
X128512500Y-74612500D02*
X128500000Y-74600000D01*
D40*
X129850000Y-86350000D02*
X129850000Y-84600000D01*
D41*
X118112500Y-81600000D02*
X115200000Y-81600000D01*
D40*
X110600000Y-87600000D02*
X112000000Y-89000000D01*
D39*
X115087500Y-83400000D02*
X115087500Y-81712500D01*
D40*
X129850000Y-84600000D02*
X129850000Y-82862500D01*
D39*
X128512500Y-76200000D02*
X128512500Y-74612500D01*
X115087500Y-81712500D02*
X115200000Y-81600000D01*
D40*
X127200000Y-89000000D02*
X129600000Y-86600000D01*
X103600000Y-81000000D02*
X109800000Y-81000000D01*
X129600000Y-86600000D02*
X129850000Y-86350000D01*
X115000000Y-81800000D02*
X115200000Y-81600000D01*
X129850000Y-82862500D02*
X130000000Y-82712500D01*
X115200000Y-80312500D02*
X115200000Y-81600000D01*
D41*
X118400000Y-81312500D02*
X118112500Y-81600000D01*
D39*
X124500000Y-80912500D02*
X124500000Y-82500000D01*
D40*
X115200000Y-72600000D02*
X115200000Y-74087500D01*
X110600000Y-81800000D02*
X115000000Y-81800000D01*
D39*
%TO.N,GND*%
X120687500Y-81312500D02*
X121000000Y-81000000D01*
X120400000Y-81312500D02*
X120687500Y-81312500D01*
D42*
%TO.N,Net-(C2-Pad1)*%
X130000000Y-80887500D02*
X131962500Y-80887500D01*
X129912500Y-80800000D02*
X126162500Y-80800000D01*
X131962500Y-80887500D02*
X132000000Y-80850000D01*
X130000000Y-80887500D02*
X129912500Y-80800000D01*
D39*
%TO.N,Net-(D1-Pad1)*%
X120050000Y-83687500D02*
X120337500Y-83400000D01*
X120050000Y-85800000D02*
X120050000Y-83687500D01*
%TO.N,Net-(D1-Pad2)*%
X116912500Y-83400000D02*
X118462500Y-83400000D01*
%TO.N,SCL*%
X118200000Y-76000000D02*
X118000000Y-76000000D01*
X125000000Y-77500000D02*
X124250000Y-76750000D01*
X118200000Y-76000000D02*
X118950000Y-76750000D01*
X125000000Y-79087500D02*
X125000000Y-77500000D01*
X118000000Y-76000000D02*
X103600000Y-76000000D01*
X118950000Y-76750000D02*
X124250000Y-76750000D01*
%TO.N,SDA*%
X116500000Y-78500000D02*
X103600000Y-78500000D01*
X124500000Y-79087500D02*
X123912500Y-78500000D01*
X123912500Y-78500000D02*
X116500000Y-78500000D01*
%TO.N,SCX*%
X122800000Y-80894670D02*
X122800000Y-83700000D01*
X123444670Y-80250000D02*
X122800000Y-80894670D01*
X123837500Y-80250000D02*
X123444670Y-80250000D01*
X122800000Y-83700000D02*
X124450000Y-85350000D01*
X124450000Y-85350000D02*
X125200000Y-85350000D01*
%TO.N,SDX*%
X122400000Y-85150000D02*
X122600000Y-85350000D01*
X122650000Y-79750000D02*
X122400000Y-80000000D01*
X122400000Y-80000000D02*
X122400000Y-85150000D01*
X123837500Y-79750000D02*
X122650000Y-79750000D01*
%TO.N,CS*%
X125500000Y-77387500D02*
X126687500Y-76200000D01*
X125500000Y-79087500D02*
X125500000Y-77387500D01*
%TO.N,SDO{slash}SA0*%
X120400000Y-79400000D02*
X120400000Y-79487500D01*
X120550000Y-79250000D02*
X120400000Y-79400000D01*
D41*
X118400000Y-79487500D02*
X120400000Y-79487500D01*
D39*
X123837500Y-79250000D02*
X120550000Y-79250000D01*
%TO.N,INT1*%
X124044622Y-83955378D02*
X123837500Y-83748256D01*
X123837500Y-83748256D02*
X123837500Y-80750000D01*
%TO.N,INT2*%
X127550000Y-80250000D02*
X128200000Y-79600000D01*
X128200000Y-79600000D02*
X136200000Y-79600000D01*
X126162500Y-80250000D02*
X127550000Y-80250000D01*
X136200000Y-79600000D02*
X137200000Y-80600000D01*
%TD*%
%TA.AperFunction,Conductor*%
%TO.N,GND*%
G36*
X125762924Y-80862924D02*
G01*
X125773002Y-80926555D01*
X125800000Y-80979541D01*
X125800000Y-81500000D01*
X128800000Y-81500000D01*
X128800000Y-82300000D01*
X125100000Y-82300000D01*
X124854500Y-81972667D01*
X124854500Y-80883049D01*
X124840025Y-80796083D01*
X124819079Y-80757263D01*
X124804253Y-80695747D01*
X124900000Y-80600000D01*
X125500000Y-80600000D01*
X125762924Y-80862924D01*
G37*
%TD.AperFunction*%
%TD*%
%TA.AperFunction,Conductor*%
%TO.N,GND*%
G36*
X144227076Y-65528502D02*
G01*
X144273569Y-65582158D01*
X144283673Y-65652432D01*
X144254179Y-65717012D01*
X144216158Y-65746767D01*
X144146147Y-65782439D01*
X144146140Y-65782443D01*
X144143206Y-65783938D01*
X143817207Y-65995643D01*
X143515124Y-66240266D01*
X143240266Y-66515124D01*
X143238194Y-66517682D01*
X143238191Y-66517686D01*
X143185394Y-66582885D01*
X142995643Y-66817207D01*
X142993848Y-66819970D01*
X142993848Y-66819971D01*
X142789455Y-67134711D01*
X142783938Y-67143206D01*
X142782443Y-67146140D01*
X142782439Y-67146147D01*
X142644216Y-67417425D01*
X142607468Y-67489547D01*
X142468167Y-67852438D01*
X142367562Y-68227901D01*
X142306754Y-68611824D01*
X142286411Y-69000000D01*
X142306754Y-69388176D01*
X142307267Y-69391416D01*
X142307268Y-69391424D01*
X142321800Y-69483172D01*
X142367562Y-69772099D01*
X142468167Y-70147562D01*
X142607468Y-70510453D01*
X142608966Y-70513393D01*
X142720468Y-70732227D01*
X142783938Y-70856794D01*
X142995643Y-71182793D01*
X143240266Y-71484876D01*
X143515124Y-71759734D01*
X143817207Y-72004357D01*
X144143205Y-72216062D01*
X144146139Y-72217557D01*
X144146146Y-72217561D01*
X144486607Y-72391034D01*
X144489547Y-72392532D01*
X144852438Y-72531833D01*
X145227901Y-72632438D01*
X145431793Y-72664732D01*
X145608576Y-72692732D01*
X145608584Y-72692733D01*
X145611824Y-72693246D01*
X146000000Y-72713589D01*
X146388176Y-72693246D01*
X146391416Y-72692733D01*
X146391424Y-72692732D01*
X146568207Y-72664732D01*
X146772099Y-72632438D01*
X147147562Y-72531833D01*
X147510453Y-72392532D01*
X147513393Y-72391034D01*
X147853854Y-72217561D01*
X147853861Y-72217557D01*
X147856795Y-72216062D01*
X148182793Y-72004357D01*
X148484876Y-71759734D01*
X148759734Y-71484876D01*
X149004357Y-71182793D01*
X149216062Y-70856794D01*
X149253233Y-70783842D01*
X149301981Y-70732227D01*
X149370896Y-70715161D01*
X149438098Y-70738062D01*
X149482250Y-70793659D01*
X149491500Y-70841045D01*
X149491500Y-89158955D01*
X149471498Y-89227076D01*
X149417842Y-89273569D01*
X149347568Y-89283673D01*
X149282988Y-89254179D01*
X149253233Y-89216158D01*
X149217561Y-89146147D01*
X149217557Y-89146140D01*
X149216062Y-89143206D01*
X149004357Y-88817207D01*
X148759734Y-88515124D01*
X148484876Y-88240266D01*
X148469780Y-88228041D01*
X148301166Y-88091500D01*
X148182793Y-87995643D01*
X148096967Y-87939907D01*
X147859564Y-87785736D01*
X147859561Y-87785734D01*
X147856795Y-87783938D01*
X147853861Y-87782443D01*
X147853854Y-87782439D01*
X147513393Y-87608966D01*
X147510453Y-87607468D01*
X147147562Y-87468167D01*
X146772099Y-87367562D01*
X146568207Y-87335268D01*
X146391424Y-87307268D01*
X146391416Y-87307267D01*
X146388176Y-87306754D01*
X146000000Y-87286411D01*
X145611824Y-87306754D01*
X145608584Y-87307267D01*
X145608576Y-87307268D01*
X145431793Y-87335268D01*
X145227901Y-87367562D01*
X144852438Y-87468167D01*
X144489547Y-87607468D01*
X144486607Y-87608966D01*
X144146147Y-87782439D01*
X144146140Y-87782443D01*
X144143206Y-87783938D01*
X144140440Y-87785734D01*
X144140437Y-87785736D01*
X143863623Y-87965500D01*
X143817207Y-87995643D01*
X143698834Y-88091500D01*
X143530221Y-88228041D01*
X143515124Y-88240266D01*
X143240266Y-88515124D01*
X142995643Y-88817207D01*
X142783938Y-89143206D01*
X142782443Y-89146140D01*
X142782439Y-89146147D01*
X142712366Y-89283673D01*
X142607468Y-89489547D01*
X142536764Y-89673736D01*
X142474259Y-89836569D01*
X142468167Y-89852438D01*
X142367562Y-90227901D01*
X142306754Y-90611824D01*
X142286411Y-91000000D01*
X142306754Y-91388176D01*
X142367562Y-91772099D01*
X142468167Y-92147562D01*
X142607468Y-92510453D01*
X142608966Y-92513393D01*
X142720468Y-92732227D01*
X142783938Y-92856794D01*
X142995643Y-93182793D01*
X143240266Y-93484876D01*
X143515124Y-93759734D01*
X143817207Y-94004357D01*
X144143205Y-94216062D01*
X144146139Y-94217557D01*
X144146146Y-94217561D01*
X144216157Y-94253233D01*
X144267772Y-94301981D01*
X144284838Y-94370896D01*
X144261937Y-94438098D01*
X144206340Y-94482250D01*
X144158954Y-94491500D01*
X105841046Y-94491500D01*
X105772925Y-94471498D01*
X105726432Y-94417842D01*
X105716328Y-94347568D01*
X105745822Y-94282988D01*
X105783843Y-94253233D01*
X105853854Y-94217561D01*
X105853861Y-94217557D01*
X105856795Y-94216062D01*
X106182793Y-94004357D01*
X106484876Y-93759734D01*
X106759734Y-93484876D01*
X107004357Y-93182793D01*
X107216062Y-92856794D01*
X107279533Y-92732227D01*
X107391034Y-92513393D01*
X107392532Y-92510453D01*
X107531833Y-92147562D01*
X107632438Y-91772099D01*
X107693246Y-91388176D01*
X107713589Y-91000000D01*
X107693246Y-90611824D01*
X107632438Y-90227901D01*
X107531833Y-89852438D01*
X107525742Y-89836569D01*
X107463236Y-89673736D01*
X107392532Y-89489547D01*
X107287634Y-89283673D01*
X107217561Y-89146147D01*
X107217557Y-89146140D01*
X107216062Y-89143206D01*
X107004357Y-88817207D01*
X106759734Y-88515124D01*
X106484876Y-88240266D01*
X106469780Y-88228041D01*
X106301166Y-88091500D01*
X106182793Y-87995643D01*
X106096967Y-87939907D01*
X105859564Y-87785736D01*
X105859561Y-87785734D01*
X105856795Y-87783938D01*
X105853861Y-87782443D01*
X105853854Y-87782439D01*
X105513393Y-87608966D01*
X105510453Y-87607468D01*
X105147562Y-87468167D01*
X104772099Y-87367562D01*
X104568207Y-87335268D01*
X104391424Y-87307268D01*
X104391416Y-87307267D01*
X104388176Y-87306754D01*
X104000000Y-87286411D01*
X103611824Y-87306754D01*
X103608584Y-87307267D01*
X103608576Y-87307268D01*
X103431793Y-87335268D01*
X103227901Y-87367562D01*
X102852438Y-87468167D01*
X102489547Y-87607468D01*
X102486607Y-87608966D01*
X102146147Y-87782439D01*
X102146140Y-87782443D01*
X102143206Y-87783938D01*
X102140440Y-87785734D01*
X102140437Y-87785736D01*
X101863623Y-87965500D01*
X101817207Y-87995643D01*
X101698834Y-88091500D01*
X101530221Y-88228041D01*
X101515124Y-88240266D01*
X101240266Y-88515124D01*
X100995643Y-88817207D01*
X100783938Y-89143206D01*
X100782443Y-89146140D01*
X100782439Y-89146147D01*
X100746767Y-89216158D01*
X100698019Y-89267773D01*
X100629104Y-89284839D01*
X100561902Y-89261938D01*
X100517750Y-89206341D01*
X100508500Y-89158955D01*
X100508500Y-83768580D01*
X102143752Y-83768580D01*
X102168477Y-83886421D01*
X102171537Y-83896617D01*
X102252263Y-84101029D01*
X102256994Y-84110561D01*
X102371016Y-84298462D01*
X102377280Y-84307052D01*
X102521327Y-84473052D01*
X102528958Y-84480472D01*
X102698911Y-84619826D01*
X102707678Y-84625850D01*
X102898682Y-84734576D01*
X102908346Y-84739041D01*
X103114941Y-84814031D01*
X103125208Y-84816802D01*
X103328174Y-84853504D01*
X103341414Y-84852085D01*
X103346000Y-84837450D01*
X103346000Y-84833849D01*
X103854000Y-84833849D01*
X103858310Y-84848527D01*
X103870193Y-84850590D01*
X103949325Y-84843876D01*
X103959797Y-84842086D01*
X104172535Y-84786870D01*
X104182575Y-84783335D01*
X104382970Y-84693063D01*
X104392256Y-84687894D01*
X104574575Y-84565150D01*
X104582870Y-84558481D01*
X104741900Y-84406772D01*
X104748941Y-84398814D01*
X104880141Y-84222475D01*
X104885745Y-84213438D01*
X104985357Y-84017516D01*
X104989357Y-84007665D01*
X105054534Y-83797760D01*
X105056817Y-83787376D01*
X105058861Y-83771957D01*
X105056665Y-83757793D01*
X105043478Y-83754000D01*
X103872115Y-83754000D01*
X103856876Y-83758475D01*
X103855671Y-83759865D01*
X103854000Y-83767548D01*
X103854000Y-84833849D01*
X103346000Y-84833849D01*
X103346000Y-83772115D01*
X103341525Y-83756876D01*
X103340135Y-83755671D01*
X103332452Y-83754000D01*
X102158808Y-83754000D01*
X102145277Y-83757973D01*
X102143752Y-83768580D01*
X100508500Y-83768580D01*
X100508500Y-80935774D01*
X102113102Y-80935774D01*
X102113302Y-80941103D01*
X102113302Y-80941105D01*
X102115498Y-80999600D01*
X102121751Y-81166158D01*
X102169093Y-81391791D01*
X102171051Y-81396750D01*
X102171052Y-81396752D01*
X102242822Y-81578483D01*
X102253776Y-81606221D01*
X102256543Y-81610780D01*
X102256544Y-81610783D01*
X102333916Y-81738287D01*
X102373377Y-81803317D01*
X102376874Y-81807347D01*
X102500779Y-81950135D01*
X102524477Y-81977445D01*
X102528608Y-81980832D01*
X102698627Y-82120240D01*
X102698633Y-82120244D01*
X102702755Y-82123624D01*
X102707398Y-82126267D01*
X102734735Y-82141829D01*
X102784041Y-82192912D01*
X102797902Y-82262542D01*
X102771918Y-82328613D01*
X102742768Y-82355851D01*
X102625422Y-82434852D01*
X102617130Y-82441519D01*
X102458100Y-82593228D01*
X102451059Y-82601186D01*
X102319859Y-82777525D01*
X102314255Y-82786562D01*
X102214643Y-82982484D01*
X102210643Y-82992335D01*
X102145466Y-83202240D01*
X102143183Y-83212624D01*
X102141139Y-83228043D01*
X102143335Y-83242207D01*
X102156522Y-83246000D01*
X105041192Y-83246000D01*
X105054723Y-83242027D01*
X105056248Y-83231420D01*
X105031523Y-83113579D01*
X105028463Y-83103383D01*
X104947737Y-82898971D01*
X104943006Y-82889439D01*
X104828984Y-82701538D01*
X104822720Y-82692948D01*
X104678673Y-82526948D01*
X104671042Y-82519528D01*
X104501089Y-82380174D01*
X104492326Y-82374152D01*
X104465289Y-82358762D01*
X104415982Y-82307680D01*
X104402120Y-82238049D01*
X104428103Y-82171978D01*
X104457253Y-82144739D01*
X104533539Y-82093380D01*
X104579319Y-82062559D01*
X104602695Y-82040260D01*
X104704303Y-81943330D01*
X104767400Y-81910783D01*
X104791275Y-81908500D01*
X109371497Y-81908500D01*
X109439618Y-81928502D01*
X109460592Y-81945405D01*
X109654595Y-82139408D01*
X109688621Y-82201720D01*
X109691500Y-82228503D01*
X109691500Y-87518583D01*
X109689949Y-87538292D01*
X109687748Y-87552190D01*
X109688093Y-87558777D01*
X109688093Y-87558782D01*
X109691327Y-87620480D01*
X109691500Y-87627074D01*
X109691500Y-87647610D01*
X109691844Y-87650882D01*
X109691844Y-87650884D01*
X109693647Y-87668042D01*
X109694164Y-87674616D01*
X109697743Y-87742903D01*
X109699453Y-87749284D01*
X109699453Y-87749286D01*
X109701383Y-87756491D01*
X109704985Y-87775925D01*
X109705766Y-87783354D01*
X109705768Y-87783363D01*
X109706458Y-87789928D01*
X109727600Y-87854997D01*
X109729467Y-87861299D01*
X109747171Y-87927370D01*
X109753559Y-87939907D01*
X109761125Y-87958173D01*
X109765473Y-87971556D01*
X109768776Y-87977278D01*
X109768777Y-87977279D01*
X109799667Y-88030782D01*
X109802814Y-88036577D01*
X109833871Y-88097530D01*
X109838024Y-88102658D01*
X109838025Y-88102660D01*
X109842727Y-88108466D01*
X109853927Y-88124763D01*
X109857657Y-88131224D01*
X109857660Y-88131228D01*
X109860960Y-88136944D01*
X109865377Y-88141850D01*
X109865381Y-88141855D01*
X109906722Y-88187769D01*
X109911006Y-88192784D01*
X109923928Y-88208741D01*
X109938443Y-88223256D01*
X109942984Y-88228041D01*
X109988747Y-88278866D01*
X109994086Y-88282745D01*
X109994087Y-88282746D01*
X110000135Y-88287140D01*
X110015168Y-88299981D01*
X111300019Y-89584832D01*
X111312860Y-89599865D01*
X111321134Y-89611253D01*
X111326043Y-89615673D01*
X111371959Y-89657016D01*
X111376744Y-89661557D01*
X111391259Y-89676072D01*
X111393823Y-89678148D01*
X111407216Y-89688994D01*
X111412231Y-89693278D01*
X111458145Y-89734619D01*
X111458150Y-89734623D01*
X111463056Y-89739040D01*
X111468772Y-89742340D01*
X111468776Y-89742343D01*
X111475237Y-89746073D01*
X111491533Y-89757273D01*
X111502470Y-89766129D01*
X111563421Y-89797185D01*
X111569215Y-89800331D01*
X111628444Y-89834527D01*
X111634726Y-89836568D01*
X111634728Y-89836569D01*
X111641826Y-89838875D01*
X111660092Y-89846440D01*
X111672630Y-89852829D01*
X111738701Y-89870533D01*
X111745003Y-89872400D01*
X111810072Y-89893542D01*
X111816637Y-89894232D01*
X111816646Y-89894234D01*
X111824075Y-89895015D01*
X111843509Y-89898617D01*
X111850714Y-89900547D01*
X111850716Y-89900547D01*
X111857097Y-89902257D01*
X111863688Y-89902602D01*
X111863692Y-89902603D01*
X111925384Y-89905836D01*
X111931958Y-89906353D01*
X111949116Y-89908156D01*
X111949118Y-89908156D01*
X111952390Y-89908500D01*
X111972926Y-89908500D01*
X111979520Y-89908673D01*
X112041218Y-89911907D01*
X112041223Y-89911907D01*
X112047810Y-89912252D01*
X112061708Y-89910051D01*
X112081417Y-89908500D01*
X127118583Y-89908500D01*
X127138292Y-89910051D01*
X127152190Y-89912252D01*
X127158777Y-89911907D01*
X127158782Y-89911907D01*
X127220480Y-89908673D01*
X127227074Y-89908500D01*
X127247610Y-89908500D01*
X127250882Y-89908156D01*
X127250884Y-89908156D01*
X127268042Y-89906353D01*
X127274616Y-89905836D01*
X127336308Y-89902603D01*
X127336312Y-89902602D01*
X127342903Y-89902257D01*
X127349284Y-89900547D01*
X127349286Y-89900547D01*
X127356491Y-89898617D01*
X127375925Y-89895015D01*
X127383354Y-89894234D01*
X127383363Y-89894232D01*
X127389928Y-89893542D01*
X127454997Y-89872400D01*
X127461299Y-89870533D01*
X127527370Y-89852829D01*
X127539908Y-89846440D01*
X127558174Y-89838875D01*
X127565272Y-89836569D01*
X127565274Y-89836568D01*
X127571556Y-89834527D01*
X127630785Y-89800331D01*
X127636579Y-89797185D01*
X127697530Y-89766129D01*
X127708467Y-89757273D01*
X127724763Y-89746073D01*
X127731224Y-89742343D01*
X127731228Y-89742340D01*
X127736944Y-89739040D01*
X127741850Y-89734623D01*
X127741855Y-89734619D01*
X127787769Y-89693278D01*
X127792784Y-89688994D01*
X127806177Y-89678148D01*
X127808741Y-89676072D01*
X127823256Y-89661557D01*
X127828041Y-89657016D01*
X127873957Y-89615673D01*
X127878866Y-89611253D01*
X127887140Y-89599865D01*
X127899981Y-89584832D01*
X130434832Y-87049981D01*
X130449865Y-87037140D01*
X130455913Y-87032746D01*
X130455914Y-87032745D01*
X130461253Y-87028866D01*
X130507016Y-86978041D01*
X130511557Y-86973256D01*
X130526072Y-86958741D01*
X130538997Y-86942780D01*
X130543269Y-86937779D01*
X130584619Y-86891855D01*
X130584623Y-86891850D01*
X130589040Y-86886944D01*
X130596073Y-86874763D01*
X130607267Y-86858474D01*
X130616129Y-86847531D01*
X130647189Y-86786572D01*
X130650336Y-86780777D01*
X130681223Y-86727279D01*
X130681223Y-86727278D01*
X130684527Y-86721556D01*
X130688875Y-86708173D01*
X130696441Y-86689907D01*
X130699832Y-86683252D01*
X130702829Y-86677370D01*
X130720529Y-86611315D01*
X130722402Y-86604991D01*
X130741500Y-86546212D01*
X130743542Y-86539928D01*
X130745012Y-86525939D01*
X130748617Y-86506486D01*
X130750547Y-86499285D01*
X130752257Y-86492904D01*
X130755836Y-86424615D01*
X130756353Y-86418040D01*
X130758156Y-86400882D01*
X130758500Y-86397610D01*
X130758500Y-86377075D01*
X130758673Y-86370481D01*
X130761907Y-86308783D01*
X130761907Y-86308778D01*
X130762252Y-86302191D01*
X130760051Y-86288293D01*
X130758500Y-86268584D01*
X130758500Y-85709685D01*
X130778502Y-85641564D01*
X130832158Y-85595071D01*
X130902432Y-85584967D01*
X130967012Y-85614461D01*
X130973518Y-85620512D01*
X131021829Y-85668739D01*
X131033240Y-85677751D01*
X131171243Y-85762816D01*
X131184424Y-85768963D01*
X131338710Y-85820138D01*
X131352086Y-85823005D01*
X131446438Y-85832672D01*
X131452854Y-85833000D01*
X131477885Y-85833000D01*
X131493124Y-85828525D01*
X131494329Y-85827135D01*
X131496000Y-85819452D01*
X131496000Y-85814884D01*
X132004000Y-85814884D01*
X132008475Y-85830123D01*
X132009865Y-85831328D01*
X132017548Y-85832999D01*
X132047095Y-85832999D01*
X132053614Y-85832662D01*
X132149206Y-85822743D01*
X132162600Y-85819851D01*
X132316784Y-85768412D01*
X132329962Y-85762239D01*
X132467807Y-85676937D01*
X132479208Y-85667901D01*
X132593739Y-85553171D01*
X132602751Y-85541760D01*
X132687816Y-85403757D01*
X132693963Y-85390576D01*
X132745138Y-85236290D01*
X132748005Y-85222914D01*
X132757672Y-85128562D01*
X132758000Y-85122146D01*
X132758000Y-84872115D01*
X132753525Y-84856876D01*
X132752135Y-84855671D01*
X132744452Y-84854000D01*
X132022115Y-84854000D01*
X132006876Y-84858475D01*
X132005671Y-84859865D01*
X132004000Y-84867548D01*
X132004000Y-85814884D01*
X131496000Y-85814884D01*
X131496000Y-84327885D01*
X132004000Y-84327885D01*
X132008475Y-84343124D01*
X132009865Y-84344329D01*
X132017548Y-84346000D01*
X132739884Y-84346000D01*
X132755123Y-84341525D01*
X132756328Y-84340135D01*
X132757999Y-84332452D01*
X132757999Y-84077905D01*
X132757662Y-84071386D01*
X132750255Y-84000000D01*
X135686835Y-84000000D01*
X135705465Y-84236711D01*
X135706619Y-84241518D01*
X135706620Y-84241524D01*
X135731012Y-84343124D01*
X135760895Y-84467594D01*
X135762788Y-84472165D01*
X135762789Y-84472167D01*
X135843510Y-84667045D01*
X135851760Y-84686963D01*
X135854346Y-84691183D01*
X135973241Y-84885202D01*
X135973245Y-84885208D01*
X135975824Y-84889416D01*
X136130031Y-85069969D01*
X136133787Y-85073177D01*
X136142085Y-85080264D01*
X136310584Y-85224176D01*
X136314792Y-85226755D01*
X136314798Y-85226759D01*
X136504865Y-85343232D01*
X136513037Y-85348240D01*
X136517607Y-85350133D01*
X136517611Y-85350135D01*
X136690828Y-85421883D01*
X136732406Y-85439105D01*
X136812609Y-85458360D01*
X136958476Y-85493380D01*
X136958482Y-85493381D01*
X136963289Y-85494535D01*
X137200000Y-85513165D01*
X137436711Y-85494535D01*
X137441518Y-85493381D01*
X137441524Y-85493380D01*
X137587391Y-85458360D01*
X137667594Y-85439105D01*
X137709172Y-85421883D01*
X137882389Y-85350135D01*
X137882393Y-85350133D01*
X137886963Y-85348240D01*
X137895135Y-85343232D01*
X138085202Y-85226759D01*
X138085208Y-85226755D01*
X138089416Y-85224176D01*
X138257915Y-85080264D01*
X138266213Y-85073177D01*
X138269969Y-85069969D01*
X138424176Y-84889416D01*
X138426755Y-84885208D01*
X138426759Y-84885202D01*
X138545654Y-84691183D01*
X138548240Y-84686963D01*
X138556491Y-84667045D01*
X138637211Y-84472167D01*
X138637212Y-84472165D01*
X138639105Y-84467594D01*
X138668988Y-84343124D01*
X138693380Y-84241524D01*
X138693381Y-84241518D01*
X138694535Y-84236711D01*
X138713165Y-84000000D01*
X138694535Y-83763289D01*
X138693380Y-83758475D01*
X138655798Y-83601937D01*
X138639105Y-83532406D01*
X138637211Y-83527833D01*
X138550135Y-83317611D01*
X138550133Y-83317607D01*
X138548240Y-83313037D01*
X138535347Y-83291998D01*
X138426759Y-83114798D01*
X138426755Y-83114792D01*
X138424176Y-83110584D01*
X138269969Y-82930031D01*
X138089416Y-82775824D01*
X138085208Y-82773245D01*
X138085202Y-82773241D01*
X137891183Y-82654346D01*
X137886963Y-82651760D01*
X137882393Y-82649867D01*
X137882389Y-82649865D01*
X137672167Y-82562789D01*
X137672165Y-82562788D01*
X137667594Y-82560895D01*
X137587391Y-82541640D01*
X137441524Y-82506620D01*
X137441518Y-82506619D01*
X137436711Y-82505465D01*
X137200000Y-82486835D01*
X136963289Y-82505465D01*
X136958482Y-82506619D01*
X136958476Y-82506620D01*
X136812609Y-82541640D01*
X136732406Y-82560895D01*
X136727835Y-82562788D01*
X136727833Y-82562789D01*
X136517611Y-82649865D01*
X136517607Y-82649867D01*
X136513037Y-82651760D01*
X136508817Y-82654346D01*
X136314798Y-82773241D01*
X136314792Y-82773245D01*
X136310584Y-82775824D01*
X136130031Y-82930031D01*
X135975824Y-83110584D01*
X135973245Y-83114792D01*
X135973241Y-83114798D01*
X135864653Y-83291998D01*
X135851760Y-83313037D01*
X135849867Y-83317607D01*
X135849865Y-83317611D01*
X135762789Y-83527833D01*
X135760895Y-83532406D01*
X135744202Y-83601937D01*
X135706621Y-83758475D01*
X135705465Y-83763289D01*
X135686835Y-84000000D01*
X132750255Y-84000000D01*
X132747743Y-83975794D01*
X132744851Y-83962400D01*
X132708675Y-83853967D01*
X132706091Y-83783018D01*
X132742274Y-83721934D01*
X132788320Y-83694568D01*
X132791783Y-83693413D01*
X132804962Y-83687239D01*
X132942807Y-83601937D01*
X132954208Y-83592901D01*
X133068739Y-83478171D01*
X133077751Y-83466760D01*
X133162816Y-83328757D01*
X133168963Y-83315576D01*
X133220138Y-83161290D01*
X133223005Y-83147914D01*
X133232672Y-83053562D01*
X133233000Y-83047146D01*
X133233000Y-83022115D01*
X133228525Y-83006876D01*
X133227135Y-83005671D01*
X133219452Y-83004000D01*
X132272115Y-83004000D01*
X132256876Y-83008475D01*
X132255671Y-83009865D01*
X132254000Y-83017548D01*
X132254000Y-83672000D01*
X132233998Y-83740121D01*
X132180342Y-83786614D01*
X132128000Y-83798000D01*
X132022115Y-83798000D01*
X132006876Y-83802475D01*
X132005671Y-83803865D01*
X132004000Y-83811548D01*
X132004000Y-84327885D01*
X131496000Y-84327885D01*
X131496000Y-83453000D01*
X131516002Y-83384879D01*
X131569658Y-83338386D01*
X131622000Y-83327000D01*
X131727885Y-83327000D01*
X131743124Y-83322525D01*
X131744329Y-83321135D01*
X131746000Y-83313452D01*
X131746000Y-82622000D01*
X131766002Y-82553879D01*
X131819658Y-82507386D01*
X131872000Y-82496000D01*
X133214884Y-82496000D01*
X133230123Y-82491525D01*
X133231328Y-82490135D01*
X133232999Y-82482452D01*
X133232999Y-82452905D01*
X133232662Y-82446386D01*
X133222743Y-82350794D01*
X133219851Y-82337400D01*
X133168412Y-82183216D01*
X133162239Y-82170038D01*
X133076937Y-82032193D01*
X133067901Y-82020792D01*
X132953172Y-81906262D01*
X132944238Y-81899206D01*
X132903177Y-81841288D01*
X132899947Y-81770365D01*
X132935574Y-81708954D01*
X132943407Y-81702154D01*
X132949348Y-81698478D01*
X133074305Y-81573303D01*
X133108274Y-81518196D01*
X133163275Y-81428968D01*
X133163276Y-81428966D01*
X133167115Y-81422738D01*
X133212149Y-81286963D01*
X133220632Y-81261389D01*
X133220632Y-81261387D01*
X133222797Y-81254861D01*
X133233500Y-81150400D01*
X133233500Y-80549600D01*
X133231540Y-80530708D01*
X133223238Y-80450692D01*
X133223237Y-80450688D01*
X133222526Y-80443834D01*
X133217006Y-80427287D01*
X133199353Y-80374376D01*
X133196769Y-80303427D01*
X133232952Y-80242343D01*
X133296417Y-80210518D01*
X133318877Y-80208500D01*
X135582847Y-80208500D01*
X135650968Y-80228502D01*
X135697461Y-80282158D01*
X135707296Y-80354211D01*
X135706621Y-80358475D01*
X135705465Y-80363289D01*
X135686835Y-80600000D01*
X135705465Y-80836711D01*
X135706619Y-80841518D01*
X135706620Y-80841524D01*
X135741640Y-80987391D01*
X135760895Y-81067594D01*
X135762788Y-81072165D01*
X135762789Y-81072167D01*
X135793862Y-81147183D01*
X135851760Y-81286963D01*
X135854346Y-81291183D01*
X135973241Y-81485202D01*
X135973245Y-81485208D01*
X135975824Y-81489416D01*
X136130031Y-81669969D01*
X136310584Y-81824176D01*
X136314792Y-81826755D01*
X136314798Y-81826759D01*
X136505025Y-81943330D01*
X136513037Y-81948240D01*
X136517607Y-81950133D01*
X136517611Y-81950135D01*
X136727833Y-82037211D01*
X136732406Y-82039105D01*
X136812609Y-82058360D01*
X136958476Y-82093380D01*
X136958482Y-82093381D01*
X136963289Y-82094535D01*
X137200000Y-82113165D01*
X137436711Y-82094535D01*
X137441518Y-82093381D01*
X137441524Y-82093380D01*
X137587391Y-82058360D01*
X137667594Y-82039105D01*
X137672167Y-82037211D01*
X137882389Y-81950135D01*
X137882393Y-81950133D01*
X137886963Y-81948240D01*
X137894975Y-81943330D01*
X138085202Y-81826759D01*
X138085208Y-81826755D01*
X138089416Y-81824176D01*
X138269969Y-81669969D01*
X138424176Y-81489416D01*
X138426755Y-81485208D01*
X138426759Y-81485202D01*
X138545654Y-81291183D01*
X138548240Y-81286963D01*
X138606139Y-81147183D01*
X138637211Y-81072167D01*
X138637212Y-81072165D01*
X138639105Y-81067594D01*
X138658360Y-80987391D01*
X138693380Y-80841524D01*
X138693381Y-80841518D01*
X138694535Y-80836711D01*
X138713165Y-80600000D01*
X138694535Y-80363289D01*
X138692898Y-80356467D01*
X138642650Y-80147171D01*
X138639105Y-80132406D01*
X138637112Y-80127595D01*
X138550135Y-79917611D01*
X138550133Y-79917607D01*
X138548240Y-79913037D01*
X138525774Y-79876376D01*
X138426759Y-79714798D01*
X138426755Y-79714792D01*
X138424176Y-79710584D01*
X138269969Y-79530031D01*
X138089416Y-79375824D01*
X138085208Y-79373245D01*
X138085202Y-79373241D01*
X137891183Y-79254346D01*
X137886963Y-79251760D01*
X137882393Y-79249867D01*
X137882389Y-79249865D01*
X137672167Y-79162789D01*
X137672165Y-79162788D01*
X137667594Y-79160895D01*
X137586904Y-79141523D01*
X137441524Y-79106620D01*
X137441518Y-79106619D01*
X137436711Y-79105465D01*
X137200000Y-79086835D01*
X136963289Y-79105465D01*
X136958482Y-79106619D01*
X136958476Y-79106620D01*
X136773071Y-79151132D01*
X136732406Y-79160895D01*
X136727843Y-79162785D01*
X136723122Y-79164319D01*
X136722463Y-79162290D01*
X136660739Y-79168907D01*
X136606451Y-79144884D01*
X136602075Y-79141526D01*
X136602072Y-79141523D01*
X136583478Y-79127255D01*
X136513429Y-79073504D01*
X136513427Y-79073503D01*
X136506876Y-79068476D01*
X136358851Y-79007162D01*
X136350664Y-79006084D01*
X136350663Y-79006084D01*
X136339458Y-79004609D01*
X136308262Y-79000502D01*
X136239885Y-78991500D01*
X136239882Y-78991500D01*
X136239874Y-78991499D01*
X136208189Y-78987328D01*
X136200000Y-78986250D01*
X136168307Y-78990422D01*
X136151864Y-78991500D01*
X128248136Y-78991500D01*
X128231693Y-78990422D01*
X128200000Y-78986250D01*
X128191811Y-78987328D01*
X128160126Y-78991499D01*
X128160117Y-78991500D01*
X128160115Y-78991500D01*
X128160109Y-78991501D01*
X128160107Y-78991501D01*
X128060543Y-79004609D01*
X128049336Y-79006084D01*
X128049334Y-79006085D01*
X128041149Y-79007162D01*
X127893124Y-79068476D01*
X127849381Y-79102041D01*
X127797937Y-79141515D01*
X127797921Y-79141529D01*
X127772566Y-79160984D01*
X127772563Y-79160987D01*
X127766013Y-79166013D01*
X127760983Y-79172568D01*
X127746548Y-79191379D01*
X127735681Y-79203770D01*
X127334856Y-79604595D01*
X127272544Y-79638621D01*
X127245761Y-79641500D01*
X126674320Y-79641500D01*
X126606199Y-79621498D01*
X126560775Y-79567142D01*
X126557024Y-79561528D01*
X126549445Y-79491002D01*
X126560628Y-79461469D01*
X126559956Y-79461208D01*
X126563952Y-79450933D01*
X126569669Y-79441511D01*
X126571819Y-79430702D01*
X126573781Y-79425658D01*
X126574645Y-79421312D01*
X126578640Y-79411038D01*
X126579512Y-79371066D01*
X126578437Y-79364970D01*
X126577965Y-79358798D01*
X126578371Y-79358767D01*
X126577469Y-79348455D01*
X126577469Y-79169522D01*
X126578190Y-79162194D01*
X126578640Y-79161038D01*
X126579512Y-79121066D01*
X126575912Y-79100649D01*
X126575712Y-79100684D01*
X126575283Y-79099377D01*
X126573557Y-79089587D01*
X126573433Y-79087754D01*
X126573633Y-79087719D01*
X126571890Y-79077835D01*
X126570868Y-79072038D01*
X126570867Y-79072034D01*
X126570032Y-79067299D01*
X126560010Y-79037776D01*
X126553109Y-79029178D01*
X126550505Y-79024432D01*
X126547735Y-79020981D01*
X126542434Y-79011318D01*
X126534148Y-79004051D01*
X126517036Y-78989043D01*
X126517031Y-78989040D01*
X126512375Y-78984956D01*
X126507012Y-78981859D01*
X126501979Y-78978253D01*
X126502217Y-78977920D01*
X126501001Y-78977069D01*
X126500763Y-78977401D01*
X126496851Y-78974598D01*
X126493164Y-78971504D01*
X126466511Y-78955331D01*
X126455702Y-78953181D01*
X126450658Y-78951219D01*
X126446312Y-78950355D01*
X126436038Y-78946360D01*
X126402979Y-78945639D01*
X126402255Y-78945623D01*
X126396066Y-78945488D01*
X126389970Y-78946563D01*
X126383798Y-78947035D01*
X126383767Y-78946629D01*
X126373455Y-78947531D01*
X126234500Y-78947531D01*
X126166379Y-78927529D01*
X126119886Y-78873873D01*
X126108500Y-78821531D01*
X126108500Y-77691739D01*
X126128502Y-77623618D01*
X126145405Y-77602644D01*
X126302644Y-77445405D01*
X126364956Y-77411379D01*
X126391739Y-77408500D01*
X127000400Y-77408500D01*
X127003646Y-77408163D01*
X127003650Y-77408163D01*
X127099308Y-77398238D01*
X127099312Y-77398237D01*
X127106166Y-77397526D01*
X127112702Y-77395345D01*
X127112704Y-77395345D01*
X127246931Y-77350563D01*
X127273946Y-77341550D01*
X127424348Y-77248478D01*
X127510784Y-77161891D01*
X127573066Y-77127812D01*
X127643886Y-77132815D01*
X127688975Y-77161736D01*
X127711265Y-77183987D01*
X127776697Y-77249305D01*
X127782927Y-77253145D01*
X127782928Y-77253146D01*
X127920090Y-77337694D01*
X127927262Y-77342115D01*
X127953426Y-77350793D01*
X128088611Y-77395632D01*
X128088613Y-77395632D01*
X128095139Y-77397797D01*
X128101975Y-77398497D01*
X128101978Y-77398498D01*
X128145031Y-77402909D01*
X128199600Y-77408500D01*
X128825400Y-77408500D01*
X128828646Y-77408163D01*
X128828650Y-77408163D01*
X128924308Y-77398238D01*
X128924312Y-77398237D01*
X128931166Y-77397526D01*
X128937702Y-77395345D01*
X128937704Y-77395345D01*
X129071931Y-77350563D01*
X129098946Y-77341550D01*
X129249348Y-77248478D01*
X129374305Y-77123303D01*
X129401933Y-77078483D01*
X129463275Y-76978968D01*
X129463276Y-76978966D01*
X129467115Y-76972738D01*
X129501567Y-76868868D01*
X129520632Y-76811389D01*
X129520632Y-76811387D01*
X129522797Y-76804861D01*
X129526013Y-76773478D01*
X129533172Y-76703598D01*
X129533500Y-76700400D01*
X129533500Y-75699600D01*
X129533163Y-75696350D01*
X129523238Y-75600692D01*
X129523237Y-75600688D01*
X129522526Y-75593834D01*
X129466550Y-75426054D01*
X129373478Y-75275652D01*
X129349763Y-75251978D01*
X129305877Y-75208168D01*
X129271798Y-75145885D01*
X129276801Y-75075065D01*
X129285776Y-75055995D01*
X129331223Y-74977279D01*
X129331224Y-74977278D01*
X129334527Y-74971556D01*
X129393542Y-74789928D01*
X129413504Y-74600000D01*
X129393542Y-74410072D01*
X129334527Y-74228444D01*
X129239040Y-74063056D01*
X129111253Y-73921134D01*
X128956752Y-73808882D01*
X128950724Y-73806198D01*
X128950722Y-73806197D01*
X128788319Y-73733891D01*
X128788318Y-73733891D01*
X128782288Y-73731206D01*
X128688888Y-73711353D01*
X128601944Y-73692872D01*
X128601939Y-73692872D01*
X128595487Y-73691500D01*
X128404513Y-73691500D01*
X128398061Y-73692872D01*
X128398056Y-73692872D01*
X128311112Y-73711353D01*
X128217712Y-73731206D01*
X128211682Y-73733891D01*
X128211681Y-73733891D01*
X128049278Y-73806197D01*
X128049276Y-73806198D01*
X128043248Y-73808882D01*
X127888747Y-73921134D01*
X127760960Y-74063056D01*
X127665473Y-74228444D01*
X127606458Y-74410072D01*
X127586496Y-74600000D01*
X127606458Y-74789928D01*
X127665473Y-74971556D01*
X127668776Y-74977278D01*
X127668777Y-74977279D01*
X127684417Y-75004368D01*
X127711642Y-75051522D01*
X127723378Y-75071850D01*
X127740116Y-75140845D01*
X127716896Y-75207937D01*
X127703433Y-75223867D01*
X127689217Y-75238108D01*
X127626934Y-75272188D01*
X127556114Y-75267185D01*
X127511025Y-75238264D01*
X127428483Y-75155866D01*
X127423303Y-75150695D01*
X127409384Y-75142115D01*
X127278968Y-75061725D01*
X127278966Y-75061724D01*
X127272738Y-75057885D01*
X127112254Y-75004655D01*
X127111389Y-75004368D01*
X127111387Y-75004368D01*
X127104861Y-75002203D01*
X127098025Y-75001503D01*
X127098022Y-75001502D01*
X127054969Y-74997091D01*
X127000400Y-74991500D01*
X126374600Y-74991500D01*
X126371354Y-74991837D01*
X126371350Y-74991837D01*
X126275692Y-75001762D01*
X126275688Y-75001763D01*
X126268834Y-75002474D01*
X126262298Y-75004655D01*
X126262296Y-75004655D01*
X126144707Y-75043886D01*
X126101054Y-75058450D01*
X125950652Y-75151522D01*
X125825695Y-75276697D01*
X125821855Y-75282927D01*
X125821854Y-75282928D01*
X125767259Y-75371498D01*
X125732885Y-75427262D01*
X125677203Y-75595139D01*
X125676503Y-75601975D01*
X125676502Y-75601978D01*
X125673147Y-75634729D01*
X125666500Y-75699600D01*
X125666500Y-76308261D01*
X125646498Y-76376382D01*
X125629595Y-76397356D01*
X125282845Y-76744106D01*
X125220533Y-76778132D01*
X125149718Y-76773067D01*
X125104655Y-76744106D01*
X124714315Y-76353766D01*
X124703448Y-76341375D01*
X124689013Y-76322563D01*
X124683987Y-76316013D01*
X124652075Y-76291526D01*
X124652072Y-76291523D01*
X124556876Y-76218476D01*
X124408851Y-76157162D01*
X124400664Y-76156084D01*
X124400663Y-76156084D01*
X124389458Y-76154609D01*
X124358262Y-76150502D01*
X124289885Y-76141500D01*
X124289882Y-76141500D01*
X124289874Y-76141499D01*
X124258189Y-76137328D01*
X124250000Y-76136250D01*
X124218307Y-76140422D01*
X124201864Y-76141500D01*
X119254239Y-76141500D01*
X119186118Y-76121498D01*
X119165144Y-76104595D01*
X118925225Y-75864676D01*
X118895270Y-75809511D01*
X118893542Y-75810072D01*
X118836569Y-75634729D01*
X118834527Y-75628444D01*
X118739040Y-75463056D01*
X118701202Y-75421032D01*
X118615675Y-75326045D01*
X118615674Y-75326044D01*
X118611253Y-75321134D01*
X118456752Y-75208882D01*
X118450724Y-75206198D01*
X118450722Y-75206197D01*
X118288319Y-75133891D01*
X118288318Y-75133891D01*
X118282288Y-75131206D01*
X118188888Y-75111353D01*
X118101944Y-75092872D01*
X118101939Y-75092872D01*
X118095487Y-75091500D01*
X117904513Y-75091500D01*
X117898061Y-75092872D01*
X117898056Y-75092872D01*
X117811112Y-75111353D01*
X117717712Y-75131206D01*
X117711682Y-75133891D01*
X117711681Y-75133891D01*
X117549278Y-75206197D01*
X117549276Y-75206198D01*
X117543248Y-75208882D01*
X117537907Y-75212762D01*
X117537906Y-75212763D01*
X117503022Y-75238108D01*
X117388747Y-75321134D01*
X117384334Y-75326036D01*
X117384332Y-75326037D01*
X117362926Y-75349811D01*
X117302480Y-75387050D01*
X117269290Y-75391500D01*
X116451387Y-75391500D01*
X116383266Y-75371498D01*
X116342816Y-75325270D01*
X116341550Y-75326054D01*
X116252332Y-75181880D01*
X116248478Y-75175652D01*
X116161891Y-75089216D01*
X116127812Y-75026934D01*
X116132815Y-74956114D01*
X116161736Y-74911025D01*
X116244134Y-74828483D01*
X116249305Y-74823303D01*
X116259537Y-74806704D01*
X116338275Y-74678968D01*
X116338276Y-74678966D01*
X116342115Y-74672738D01*
X116397797Y-74504861D01*
X116408500Y-74400400D01*
X116408500Y-73774600D01*
X116403998Y-73731206D01*
X116398238Y-73675692D01*
X116398237Y-73675688D01*
X116397526Y-73668834D01*
X116341550Y-73501054D01*
X116248478Y-73350652D01*
X116145482Y-73247835D01*
X116111403Y-73185552D01*
X116108500Y-73158662D01*
X116108500Y-72654216D01*
X116109190Y-72641045D01*
X116110185Y-72631583D01*
X116113504Y-72600000D01*
X116106429Y-72532688D01*
X116094232Y-72416635D01*
X116094232Y-72416633D01*
X116093542Y-72410072D01*
X116034527Y-72228444D01*
X115939040Y-72063056D01*
X115887804Y-72006152D01*
X115815675Y-71926045D01*
X115815674Y-71926044D01*
X115811253Y-71921134D01*
X115656752Y-71808882D01*
X115650724Y-71806198D01*
X115650722Y-71806197D01*
X115488319Y-71733891D01*
X115488318Y-71733891D01*
X115482288Y-71731206D01*
X115388888Y-71711353D01*
X115301944Y-71692872D01*
X115301939Y-71692872D01*
X115295487Y-71691500D01*
X115104513Y-71691500D01*
X115098061Y-71692872D01*
X115098056Y-71692872D01*
X115011112Y-71711353D01*
X114917712Y-71731206D01*
X114911682Y-71733891D01*
X114911681Y-71733891D01*
X114749278Y-71806197D01*
X114749276Y-71806198D01*
X114743248Y-71808882D01*
X114588747Y-71921134D01*
X114584326Y-71926044D01*
X114584325Y-71926045D01*
X114512197Y-72006152D01*
X114460960Y-72063056D01*
X114365473Y-72228444D01*
X114306458Y-72410072D01*
X114305768Y-72416633D01*
X114305768Y-72416635D01*
X114293571Y-72532688D01*
X114286496Y-72600000D01*
X114289816Y-72631583D01*
X114290810Y-72641045D01*
X114291500Y-72654216D01*
X114291500Y-73158520D01*
X114271498Y-73226641D01*
X114254675Y-73247536D01*
X114150695Y-73351697D01*
X114057885Y-73502262D01*
X114002203Y-73670139D01*
X113991500Y-73774600D01*
X113991500Y-74400400D01*
X113991837Y-74403646D01*
X113991837Y-74403650D01*
X113993185Y-74416635D01*
X114002474Y-74506166D01*
X114058450Y-74673946D01*
X114151522Y-74824348D01*
X114156704Y-74829521D01*
X114238109Y-74910784D01*
X114272188Y-74973066D01*
X114267185Y-75043886D01*
X114238264Y-75088975D01*
X114185217Y-75142115D01*
X114150695Y-75176697D01*
X114146855Y-75182927D01*
X114146854Y-75182928D01*
X114105084Y-75250692D01*
X114057885Y-75327262D01*
X114056205Y-75326226D01*
X114015879Y-75372031D01*
X113948595Y-75391500D01*
X105201450Y-75391500D01*
X105133329Y-75371498D01*
X105086836Y-75317842D01*
X105076123Y-75278503D01*
X105073238Y-75250692D01*
X105073237Y-75250688D01*
X105072526Y-75243834D01*
X105065865Y-75223867D01*
X105018868Y-75083002D01*
X105016550Y-75076054D01*
X104923478Y-74925652D01*
X104908826Y-74911025D01*
X104803483Y-74805866D01*
X104798303Y-74800695D01*
X104770189Y-74783365D01*
X104653968Y-74711725D01*
X104653966Y-74711724D01*
X104647738Y-74707885D01*
X104567995Y-74681436D01*
X104486389Y-74654368D01*
X104486387Y-74654368D01*
X104479861Y-74652203D01*
X104473025Y-74651503D01*
X104473022Y-74651502D01*
X104429969Y-74647091D01*
X104375400Y-74641500D01*
X102824600Y-74641500D01*
X102821354Y-74641837D01*
X102821350Y-74641837D01*
X102725692Y-74651762D01*
X102725688Y-74651763D01*
X102718834Y-74652474D01*
X102712298Y-74654655D01*
X102712296Y-74654655D01*
X102639422Y-74678968D01*
X102551054Y-74708450D01*
X102400652Y-74801522D01*
X102275695Y-74926697D01*
X102271855Y-74932927D01*
X102271854Y-74932928D01*
X102230505Y-75000009D01*
X102182885Y-75077262D01*
X102158254Y-75151522D01*
X102134259Y-75223867D01*
X102127203Y-75245139D01*
X102126503Y-75251975D01*
X102126502Y-75251978D01*
X102123331Y-75282928D01*
X102116500Y-75349600D01*
X102116500Y-76650400D01*
X102116837Y-76653646D01*
X102116837Y-76653650D01*
X102126629Y-76748021D01*
X102127474Y-76756166D01*
X102129655Y-76762702D01*
X102129655Y-76762704D01*
X102169380Y-76881774D01*
X102183450Y-76923946D01*
X102276522Y-77074348D01*
X102401697Y-77199305D01*
X102407927Y-77203145D01*
X102407928Y-77203146D01*
X102443637Y-77225157D01*
X102547340Y-77289081D01*
X102594832Y-77341852D01*
X102606256Y-77411924D01*
X102577982Y-77477048D01*
X102568195Y-77487510D01*
X102453865Y-77596576D01*
X102316246Y-77781542D01*
X102313830Y-77786293D01*
X102313828Y-77786297D01*
X102291168Y-77830866D01*
X102211760Y-77987051D01*
X102143393Y-78207227D01*
X102113102Y-78435774D01*
X102121751Y-78666158D01*
X102169093Y-78891791D01*
X102171051Y-78896750D01*
X102171052Y-78896752D01*
X102238870Y-79068476D01*
X102253776Y-79106221D01*
X102256543Y-79110780D01*
X102256544Y-79110783D01*
X102297858Y-79178866D01*
X102373377Y-79303317D01*
X102376874Y-79307347D01*
X102510614Y-79461469D01*
X102524477Y-79477445D01*
X102538539Y-79488975D01*
X102698627Y-79620240D01*
X102698633Y-79620244D01*
X102702755Y-79623624D01*
X102734250Y-79641552D01*
X102783555Y-79692632D01*
X102797417Y-79762262D01*
X102771434Y-79828333D01*
X102742284Y-79855573D01*
X102620681Y-79937441D01*
X102616824Y-79941120D01*
X102616822Y-79941122D01*
X102596907Y-79960120D01*
X102453865Y-80096576D01*
X102450682Y-80100854D01*
X102446428Y-80106572D01*
X102316246Y-80281542D01*
X102313830Y-80286293D01*
X102313828Y-80286297D01*
X102279299Y-80354211D01*
X102211760Y-80487051D01*
X102210178Y-80492145D01*
X102210177Y-80492148D01*
X102169815Y-80622134D01*
X102143393Y-80707227D01*
X102142692Y-80712516D01*
X102118488Y-80895139D01*
X102113102Y-80935774D01*
X100508500Y-80935774D01*
X100508500Y-70841045D01*
X100528502Y-70772924D01*
X100582158Y-70726431D01*
X100652432Y-70716327D01*
X100717012Y-70745821D01*
X100746767Y-70783842D01*
X100783938Y-70856794D01*
X100995643Y-71182793D01*
X101240266Y-71484876D01*
X101515124Y-71759734D01*
X101817207Y-72004357D01*
X102143205Y-72216062D01*
X102146139Y-72217557D01*
X102146146Y-72217561D01*
X102486607Y-72391034D01*
X102489547Y-72392532D01*
X102852438Y-72531833D01*
X103227901Y-72632438D01*
X103431793Y-72664732D01*
X103608576Y-72692732D01*
X103608584Y-72692733D01*
X103611824Y-72693246D01*
X104000000Y-72713589D01*
X104388176Y-72693246D01*
X104391416Y-72692733D01*
X104391424Y-72692732D01*
X104568207Y-72664732D01*
X104772099Y-72632438D01*
X105147562Y-72531833D01*
X105510453Y-72392532D01*
X105513393Y-72391034D01*
X105853854Y-72217561D01*
X105853861Y-72217557D01*
X105856795Y-72216062D01*
X106182793Y-72004357D01*
X106484876Y-71759734D01*
X106759734Y-71484876D01*
X107004357Y-71182793D01*
X107216062Y-70856794D01*
X107279533Y-70732227D01*
X107391034Y-70513393D01*
X107392532Y-70510453D01*
X107531833Y-70147562D01*
X107632438Y-69772099D01*
X107678200Y-69483172D01*
X107692732Y-69391424D01*
X107692733Y-69391416D01*
X107693246Y-69388176D01*
X107713589Y-69000000D01*
X107701818Y-68775400D01*
X119641500Y-68775400D01*
X119641837Y-68778646D01*
X119641837Y-68778650D01*
X119650875Y-68865752D01*
X119652474Y-68881166D01*
X119654655Y-68887702D01*
X119654655Y-68887704D01*
X119686405Y-68982870D01*
X119708450Y-69048946D01*
X119801522Y-69199348D01*
X119926697Y-69324305D01*
X119932927Y-69328145D01*
X119932928Y-69328146D01*
X120070090Y-69412694D01*
X120077262Y-69417115D01*
X120112938Y-69428948D01*
X120238611Y-69470632D01*
X120238613Y-69470632D01*
X120245139Y-69472797D01*
X120251975Y-69473497D01*
X120251978Y-69473498D01*
X120287663Y-69477154D01*
X120349600Y-69483500D01*
X121650400Y-69483500D01*
X121653646Y-69483163D01*
X121653650Y-69483163D01*
X121749308Y-69473238D01*
X121749312Y-69473237D01*
X121756166Y-69472526D01*
X121762702Y-69470345D01*
X121762704Y-69470345D01*
X121894806Y-69426272D01*
X121923946Y-69416550D01*
X122074348Y-69323478D01*
X122199305Y-69198303D01*
X122289081Y-69052660D01*
X122341852Y-69005168D01*
X122411924Y-68993744D01*
X122477048Y-69022018D01*
X122487510Y-69031805D01*
X122529215Y-69075523D01*
X122596576Y-69146135D01*
X122781542Y-69283754D01*
X122786293Y-69286170D01*
X122786297Y-69286172D01*
X122849481Y-69318296D01*
X122987051Y-69388240D01*
X122992145Y-69389822D01*
X122992148Y-69389823D01*
X123157583Y-69441192D01*
X123207227Y-69456607D01*
X123212516Y-69457308D01*
X123430489Y-69486198D01*
X123430494Y-69486198D01*
X123435774Y-69486898D01*
X123441103Y-69486698D01*
X123441105Y-69486698D01*
X123550966Y-69482574D01*
X123666158Y-69478249D01*
X123688802Y-69473498D01*
X123886572Y-69432002D01*
X123891791Y-69430907D01*
X123896750Y-69428949D01*
X123896752Y-69428948D01*
X124101256Y-69348185D01*
X124101258Y-69348184D01*
X124106221Y-69346224D01*
X124111525Y-69343006D01*
X124298757Y-69229390D01*
X124298756Y-69229390D01*
X124303317Y-69226623D01*
X124343134Y-69192072D01*
X124473412Y-69079023D01*
X124473414Y-69079021D01*
X124477445Y-69075523D01*
X124535133Y-69005168D01*
X124620240Y-68901373D01*
X124620244Y-68901367D01*
X124623624Y-68897245D01*
X124641552Y-68865750D01*
X124692632Y-68816445D01*
X124762262Y-68802583D01*
X124828333Y-68828566D01*
X124855573Y-68857716D01*
X124937441Y-68979319D01*
X124941120Y-68983176D01*
X124941122Y-68983178D01*
X124957170Y-69000000D01*
X125096576Y-69146135D01*
X125281542Y-69283754D01*
X125286293Y-69286170D01*
X125286297Y-69286172D01*
X125349481Y-69318296D01*
X125487051Y-69388240D01*
X125492145Y-69389822D01*
X125492148Y-69389823D01*
X125657583Y-69441192D01*
X125707227Y-69456607D01*
X125712516Y-69457308D01*
X125930489Y-69486198D01*
X125930494Y-69486198D01*
X125935774Y-69486898D01*
X125941103Y-69486698D01*
X125941105Y-69486698D01*
X126050966Y-69482574D01*
X126166158Y-69478249D01*
X126188802Y-69473498D01*
X126386572Y-69432002D01*
X126391791Y-69430907D01*
X126396750Y-69428949D01*
X126396752Y-69428948D01*
X126601256Y-69348185D01*
X126601258Y-69348184D01*
X126606221Y-69346224D01*
X126611525Y-69343006D01*
X126798757Y-69229390D01*
X126798756Y-69229390D01*
X126803317Y-69226623D01*
X126843134Y-69192072D01*
X126973412Y-69079023D01*
X126973414Y-69079021D01*
X126977445Y-69075523D01*
X127035133Y-69005168D01*
X127120240Y-68901373D01*
X127120244Y-68901367D01*
X127123624Y-68897245D01*
X127136681Y-68874308D01*
X127141829Y-68865265D01*
X127192912Y-68815959D01*
X127262542Y-68802098D01*
X127328613Y-68828082D01*
X127355851Y-68857232D01*
X127434852Y-68974578D01*
X127441519Y-68982870D01*
X127593228Y-69141900D01*
X127601186Y-69148941D01*
X127777525Y-69280141D01*
X127786562Y-69285745D01*
X127982484Y-69385357D01*
X127992335Y-69389357D01*
X128202240Y-69454534D01*
X128212624Y-69456817D01*
X128228043Y-69458861D01*
X128242207Y-69456665D01*
X128246000Y-69443478D01*
X128246000Y-69441192D01*
X128754000Y-69441192D01*
X128757973Y-69454723D01*
X128768580Y-69456248D01*
X128886421Y-69431523D01*
X128896617Y-69428463D01*
X129101029Y-69347737D01*
X129110561Y-69343006D01*
X129298462Y-69228984D01*
X129307052Y-69222720D01*
X129473052Y-69078673D01*
X129480472Y-69071042D01*
X129619826Y-68901089D01*
X129625850Y-68892322D01*
X129734576Y-68701318D01*
X129739041Y-68691654D01*
X129814031Y-68485059D01*
X129816802Y-68474792D01*
X129853504Y-68271826D01*
X129852085Y-68258586D01*
X129837450Y-68254000D01*
X128772115Y-68254000D01*
X128756876Y-68258475D01*
X128755671Y-68259865D01*
X128754000Y-68267548D01*
X128754000Y-69441192D01*
X128246000Y-69441192D01*
X128246000Y-67727885D01*
X128754000Y-67727885D01*
X128758475Y-67743124D01*
X128759865Y-67744329D01*
X128767548Y-67746000D01*
X129833849Y-67746000D01*
X129848527Y-67741690D01*
X129850590Y-67729807D01*
X129843876Y-67650675D01*
X129842086Y-67640203D01*
X129786870Y-67427465D01*
X129783335Y-67417425D01*
X129693063Y-67217030D01*
X129687894Y-67207744D01*
X129565150Y-67025425D01*
X129558481Y-67017130D01*
X129406772Y-66858100D01*
X129398814Y-66851059D01*
X129222475Y-66719859D01*
X129213438Y-66714255D01*
X129017516Y-66614643D01*
X129007665Y-66610643D01*
X128797760Y-66545466D01*
X128787376Y-66543183D01*
X128771957Y-66541139D01*
X128757793Y-66543335D01*
X128754000Y-66556522D01*
X128754000Y-67727885D01*
X128246000Y-67727885D01*
X128246000Y-66558808D01*
X128242027Y-66545277D01*
X128231420Y-66543752D01*
X128113579Y-66568477D01*
X128103383Y-66571537D01*
X127898971Y-66652263D01*
X127889439Y-66656994D01*
X127701538Y-66771016D01*
X127692948Y-66777280D01*
X127526948Y-66921327D01*
X127519528Y-66928958D01*
X127380174Y-67098911D01*
X127374152Y-67107674D01*
X127358762Y-67134711D01*
X127307680Y-67184018D01*
X127238049Y-67197880D01*
X127171978Y-67171897D01*
X127144739Y-67142747D01*
X127108869Y-67089468D01*
X127062559Y-67020681D01*
X127003918Y-66959209D01*
X126974725Y-66928608D01*
X126903424Y-66853865D01*
X126718458Y-66716246D01*
X126713707Y-66713830D01*
X126713703Y-66713828D01*
X126595588Y-66653776D01*
X126512949Y-66611760D01*
X126507855Y-66610178D01*
X126507852Y-66610177D01*
X126297871Y-66544976D01*
X126292773Y-66543393D01*
X126287484Y-66542692D01*
X126069511Y-66513802D01*
X126069506Y-66513802D01*
X126064226Y-66513102D01*
X126058897Y-66513302D01*
X126058895Y-66513302D01*
X125949034Y-66517427D01*
X125833842Y-66521751D01*
X125828623Y-66522846D01*
X125806566Y-66527474D01*
X125608209Y-66569093D01*
X125603250Y-66571051D01*
X125603248Y-66571052D01*
X125398744Y-66651815D01*
X125398742Y-66651816D01*
X125393779Y-66653776D01*
X125389220Y-66656543D01*
X125389217Y-66656544D01*
X125294113Y-66714255D01*
X125196683Y-66773377D01*
X125192653Y-66776874D01*
X125099484Y-66857722D01*
X125022555Y-66924477D01*
X125019168Y-66928608D01*
X124879760Y-67098627D01*
X124879756Y-67098633D01*
X124876376Y-67102755D01*
X124858448Y-67134250D01*
X124807368Y-67183555D01*
X124737738Y-67197417D01*
X124671667Y-67171434D01*
X124644427Y-67142284D01*
X124617814Y-67102755D01*
X124562559Y-67020681D01*
X124503918Y-66959209D01*
X124474725Y-66928608D01*
X124403424Y-66853865D01*
X124218458Y-66716246D01*
X124213707Y-66713830D01*
X124213703Y-66713828D01*
X124095588Y-66653776D01*
X124012949Y-66611760D01*
X124007855Y-66610178D01*
X124007852Y-66610177D01*
X123797871Y-66544976D01*
X123792773Y-66543393D01*
X123787484Y-66542692D01*
X123569511Y-66513802D01*
X123569506Y-66513802D01*
X123564226Y-66513102D01*
X123558897Y-66513302D01*
X123558895Y-66513302D01*
X123449034Y-66517427D01*
X123333842Y-66521751D01*
X123328623Y-66522846D01*
X123306566Y-66527474D01*
X123108209Y-66569093D01*
X123103250Y-66571051D01*
X123103248Y-66571052D01*
X122898744Y-66651815D01*
X122898742Y-66651816D01*
X122893779Y-66653776D01*
X122889220Y-66656543D01*
X122889217Y-66656544D01*
X122794113Y-66714255D01*
X122696683Y-66773377D01*
X122692653Y-66776874D01*
X122599484Y-66857722D01*
X122522555Y-66924477D01*
X122493330Y-66960120D01*
X122434671Y-67000114D01*
X122363701Y-67002046D01*
X122302952Y-66965302D01*
X122288752Y-66946532D01*
X122202332Y-66806880D01*
X122198478Y-66800652D01*
X122073303Y-66675695D01*
X122042965Y-66656994D01*
X121928968Y-66586725D01*
X121928966Y-66586724D01*
X121922738Y-66582885D01*
X121809353Y-66545277D01*
X121761389Y-66529368D01*
X121761387Y-66529368D01*
X121754861Y-66527203D01*
X121748025Y-66526503D01*
X121748022Y-66526502D01*
X121704969Y-66522091D01*
X121650400Y-66516500D01*
X120349600Y-66516500D01*
X120346354Y-66516837D01*
X120346350Y-66516837D01*
X120250692Y-66526762D01*
X120250688Y-66526763D01*
X120243834Y-66527474D01*
X120237298Y-66529655D01*
X120237296Y-66529655D01*
X120105194Y-66573728D01*
X120076054Y-66583450D01*
X119925652Y-66676522D01*
X119800695Y-66801697D01*
X119796855Y-66807927D01*
X119796854Y-66807928D01*
X119722466Y-66928608D01*
X119707885Y-66952262D01*
X119686472Y-67016822D01*
X119656432Y-67107390D01*
X119652203Y-67120139D01*
X119651503Y-67126975D01*
X119651502Y-67126978D01*
X119649538Y-67146147D01*
X119641500Y-67224600D01*
X119641500Y-68775400D01*
X107701818Y-68775400D01*
X107693246Y-68611824D01*
X107632438Y-68227901D01*
X107531833Y-67852438D01*
X107392532Y-67489547D01*
X107355784Y-67417425D01*
X107217561Y-67146147D01*
X107217557Y-67146140D01*
X107216062Y-67143206D01*
X107210546Y-67134711D01*
X107006152Y-66819971D01*
X107006152Y-66819970D01*
X107004357Y-66817207D01*
X106814606Y-66582885D01*
X106761809Y-66517686D01*
X106761806Y-66517682D01*
X106759734Y-66515124D01*
X106484876Y-66240266D01*
X106182793Y-65995643D01*
X105856795Y-65783938D01*
X105853861Y-65782443D01*
X105853854Y-65782439D01*
X105783843Y-65746767D01*
X105732228Y-65698019D01*
X105715162Y-65629104D01*
X105738063Y-65561902D01*
X105793660Y-65517750D01*
X105841046Y-65508500D01*
X144158955Y-65508500D01*
X144227076Y-65528502D01*
G37*
%TD.AperFunction*%
%TA.AperFunction,Conductor*%
G36*
X121721784Y-81811653D02*
G01*
X121773796Y-81859978D01*
X121791500Y-81924383D01*
X121791500Y-84436430D01*
X121771498Y-84504551D01*
X121746576Y-84532880D01*
X121716120Y-84558481D01*
X121657018Y-84608161D01*
X121642869Y-84620054D01*
X121545782Y-84728639D01*
X121543297Y-84732372D01*
X121543294Y-84732376D01*
X121468901Y-84844135D01*
X121466419Y-84847864D01*
X121403711Y-84979333D01*
X121402374Y-84983612D01*
X121402373Y-84983615D01*
X121384795Y-85039880D01*
X121361001Y-85116039D01*
X121337713Y-85259821D01*
X121335088Y-85403020D01*
X121335641Y-85407465D01*
X121335878Y-85411944D01*
X121335751Y-85411951D01*
X121336271Y-85420339D01*
X121336271Y-85850000D01*
X121341500Y-85923111D01*
X121358726Y-85981777D01*
X121376913Y-86043715D01*
X121382696Y-86063411D01*
X121387567Y-86070990D01*
X121456878Y-86178841D01*
X121456880Y-86178844D01*
X121461750Y-86186421D01*
X121468560Y-86192322D01*
X121565445Y-86276274D01*
X121565448Y-86276276D01*
X121572257Y-86282176D01*
X121580454Y-86285920D01*
X121580455Y-86285920D01*
X121601818Y-86295676D01*
X121705266Y-86342919D01*
X121850000Y-86363729D01*
X122270519Y-86363729D01*
X122281778Y-86364233D01*
X122331373Y-86368682D01*
X122333795Y-86368712D01*
X122333802Y-86368712D01*
X122337116Y-86368752D01*
X122343715Y-86368833D01*
X122418035Y-86363995D01*
X122426221Y-86363729D01*
X122770519Y-86363729D01*
X122781778Y-86364233D01*
X122831373Y-86368682D01*
X122833795Y-86368712D01*
X122833802Y-86368712D01*
X122837116Y-86368752D01*
X122843715Y-86368833D01*
X122918035Y-86363995D01*
X122926221Y-86363729D01*
X123350000Y-86363729D01*
X123381986Y-86361441D01*
X123416373Y-86358982D01*
X123416374Y-86358982D01*
X123423111Y-86358500D01*
X123502618Y-86335155D01*
X123554765Y-86319843D01*
X123554767Y-86319842D01*
X123563411Y-86317304D01*
X123639221Y-86268584D01*
X123678841Y-86243122D01*
X123678844Y-86243120D01*
X123686421Y-86238250D01*
X123731331Y-86186421D01*
X123776274Y-86134555D01*
X123776276Y-86134552D01*
X123782176Y-86127743D01*
X123785920Y-86119544D01*
X123785923Y-86119540D01*
X123786794Y-86117633D01*
X123788167Y-86116049D01*
X123790792Y-86111964D01*
X123791379Y-86112341D01*
X123833288Y-86063978D01*
X123901409Y-86043978D01*
X123969529Y-86063982D01*
X124007404Y-86101857D01*
X124061750Y-86186421D01*
X124068560Y-86192322D01*
X124165445Y-86276274D01*
X124165448Y-86276276D01*
X124172257Y-86282176D01*
X124180454Y-86285920D01*
X124180455Y-86285920D01*
X124201818Y-86295676D01*
X124305266Y-86342919D01*
X124450000Y-86363729D01*
X124870519Y-86363729D01*
X124881778Y-86364233D01*
X124931373Y-86368682D01*
X124933795Y-86368712D01*
X124933802Y-86368712D01*
X124937116Y-86368752D01*
X124943715Y-86368833D01*
X125018035Y-86363995D01*
X125026221Y-86363729D01*
X125370519Y-86363729D01*
X125381778Y-86364233D01*
X125431373Y-86368682D01*
X125433795Y-86368712D01*
X125433802Y-86368712D01*
X125437116Y-86368752D01*
X125443715Y-86368833D01*
X125518035Y-86363995D01*
X125526221Y-86363729D01*
X125950000Y-86363729D01*
X125981986Y-86361441D01*
X126016373Y-86358982D01*
X126016374Y-86358982D01*
X126023111Y-86358500D01*
X126102618Y-86335155D01*
X126154765Y-86319843D01*
X126154767Y-86319842D01*
X126163411Y-86317304D01*
X126197379Y-86295474D01*
X126265500Y-86275472D01*
X126333621Y-86295474D01*
X126380114Y-86349129D01*
X126391500Y-86401472D01*
X126391500Y-87965500D01*
X126371498Y-88033621D01*
X126317842Y-88080114D01*
X126265500Y-88091500D01*
X112428503Y-88091500D01*
X112360382Y-88071498D01*
X112339408Y-88054595D01*
X111545405Y-87260592D01*
X111511379Y-87198280D01*
X111508500Y-87171497D01*
X111508500Y-82834500D01*
X111528502Y-82766379D01*
X111582158Y-82719886D01*
X111634500Y-82708500D01*
X113946510Y-82708500D01*
X114014631Y-82728502D01*
X114061124Y-82782158D01*
X114071854Y-82847342D01*
X114066500Y-82899600D01*
X114066500Y-83900400D01*
X114066837Y-83903646D01*
X114066837Y-83903650D01*
X114076323Y-83995070D01*
X114077474Y-84006166D01*
X114079655Y-84012702D01*
X114079655Y-84012704D01*
X114100305Y-84074600D01*
X114133450Y-84173946D01*
X114226522Y-84324348D01*
X114351697Y-84449305D01*
X114357927Y-84453145D01*
X114357928Y-84453146D01*
X114495090Y-84537694D01*
X114502262Y-84542115D01*
X114559151Y-84560984D01*
X114663611Y-84595632D01*
X114663613Y-84595632D01*
X114670139Y-84597797D01*
X114676975Y-84598497D01*
X114676978Y-84598498D01*
X114720031Y-84602909D01*
X114774600Y-84608500D01*
X115400400Y-84608500D01*
X115403646Y-84608163D01*
X115403650Y-84608163D01*
X115499308Y-84598238D01*
X115499312Y-84598237D01*
X115506166Y-84597526D01*
X115512702Y-84595345D01*
X115512704Y-84595345D01*
X115663707Y-84544966D01*
X115673946Y-84541550D01*
X115824348Y-84448478D01*
X115910784Y-84361891D01*
X115973066Y-84327812D01*
X116043886Y-84332815D01*
X116088976Y-84361736D01*
X116176697Y-84449305D01*
X116182927Y-84453145D01*
X116182928Y-84453146D01*
X116320090Y-84537694D01*
X116327262Y-84542115D01*
X116384151Y-84560984D01*
X116488611Y-84595632D01*
X116488613Y-84595632D01*
X116495139Y-84597797D01*
X116501975Y-84598497D01*
X116501978Y-84598498D01*
X116545031Y-84602909D01*
X116599600Y-84608500D01*
X117225400Y-84608500D01*
X117228646Y-84608163D01*
X117228650Y-84608163D01*
X117324308Y-84598238D01*
X117324312Y-84598237D01*
X117331166Y-84597526D01*
X117337702Y-84595345D01*
X117337704Y-84595345D01*
X117488707Y-84544966D01*
X117498946Y-84541550D01*
X117505178Y-84537694D01*
X117567652Y-84499033D01*
X117631345Y-84459619D01*
X117699796Y-84440781D01*
X117763763Y-84459503D01*
X117898671Y-84542661D01*
X117905619Y-84544966D01*
X117905620Y-84544966D01*
X118058634Y-84595719D01*
X118058636Y-84595719D01*
X118065165Y-84597885D01*
X118168769Y-84608500D01*
X118460234Y-84608500D01*
X118756230Y-84608499D01*
X118861129Y-84597616D01*
X118867660Y-84595437D01*
X118867665Y-84595436D01*
X118998778Y-84551693D01*
X119069728Y-84549109D01*
X119130811Y-84585293D01*
X119162636Y-84648757D01*
X119155097Y-84719352D01*
X119133879Y-84753729D01*
X119117824Y-84772257D01*
X119114080Y-84780454D01*
X119114080Y-84780455D01*
X119097481Y-84816802D01*
X119057081Y-84905266D01*
X119036271Y-85050000D01*
X119036271Y-85470519D01*
X119035767Y-85481777D01*
X119031318Y-85531373D01*
X119031167Y-85543715D01*
X119031325Y-85546137D01*
X119036005Y-85618036D01*
X119036271Y-85626221D01*
X119036271Y-85970519D01*
X119035767Y-85981777D01*
X119035419Y-85985662D01*
X119031318Y-86031373D01*
X119031167Y-86043715D01*
X119034952Y-86101857D01*
X119036005Y-86118036D01*
X119036271Y-86126221D01*
X119036271Y-86550000D01*
X119041500Y-86623111D01*
X119055559Y-86670990D01*
X119072087Y-86727279D01*
X119082696Y-86763411D01*
X119095698Y-86783642D01*
X119156878Y-86878841D01*
X119156880Y-86878844D01*
X119161750Y-86886421D01*
X119168560Y-86892322D01*
X119265445Y-86976274D01*
X119265448Y-86976276D01*
X119272257Y-86982176D01*
X119405266Y-87042919D01*
X119550000Y-87063729D01*
X120040008Y-87063729D01*
X120040778Y-87063731D01*
X120110931Y-87064160D01*
X120110937Y-87064160D01*
X120115417Y-87064187D01*
X120219129Y-87049981D01*
X120255276Y-87045030D01*
X120255280Y-87045029D01*
X120259727Y-87044420D01*
X120397436Y-87005063D01*
X120530398Y-86945586D01*
X120534180Y-86943200D01*
X120534187Y-86943196D01*
X120632399Y-86881228D01*
X120651526Y-86869160D01*
X120762452Y-86774754D01*
X120780106Y-86754765D01*
X120854297Y-86670758D01*
X120857260Y-86667403D01*
X120937226Y-86545666D01*
X120998095Y-86416021D01*
X121002724Y-86400882D01*
X121039372Y-86281011D01*
X121040683Y-86276723D01*
X121041951Y-86268584D01*
X121055923Y-86178841D01*
X121062717Y-86135205D01*
X121062809Y-86127743D01*
X121064240Y-86010592D01*
X121064497Y-85989562D01*
X121063937Y-85985277D01*
X121063729Y-85978240D01*
X121063729Y-85588953D01*
X121063727Y-85588953D01*
X121063318Y-85585984D01*
X121064496Y-85489562D01*
X121062744Y-85476159D01*
X121046508Y-85351998D01*
X121046508Y-85351996D01*
X121045926Y-85347548D01*
X121006755Y-85207252D01*
X120949072Y-85076159D01*
X120876844Y-84960120D01*
X120874470Y-84956306D01*
X120874467Y-84956302D01*
X120872103Y-84952504D01*
X120819073Y-84889416D01*
X120782831Y-84846301D01*
X120782830Y-84846300D01*
X120779946Y-84842869D01*
X120730152Y-84798348D01*
X120692703Y-84738033D01*
X120693806Y-84667045D01*
X120733114Y-84607923D01*
X120774260Y-84584895D01*
X120895578Y-84544420D01*
X120902526Y-84542102D01*
X121051689Y-84449797D01*
X121175617Y-84325653D01*
X121180261Y-84318120D01*
X121200051Y-84286014D01*
X121267661Y-84176329D01*
X121277951Y-84145306D01*
X121320719Y-84016366D01*
X121320719Y-84016364D01*
X121322885Y-84009835D01*
X121333500Y-83906231D01*
X121333499Y-82893770D01*
X121322616Y-82788871D01*
X121320437Y-82782340D01*
X121320436Y-82782335D01*
X121269420Y-82629422D01*
X121267102Y-82622474D01*
X121174797Y-82473311D01*
X121158956Y-82457498D01*
X121124877Y-82395217D01*
X121129879Y-82324397D01*
X121172376Y-82267524D01*
X121181671Y-82261181D01*
X121317807Y-82176937D01*
X121329208Y-82167901D01*
X121443739Y-82053171D01*
X121452751Y-82041760D01*
X121537816Y-81903757D01*
X121543963Y-81890576D01*
X121545907Y-81884715D01*
X121586338Y-81826355D01*
X121651903Y-81799119D01*
X121721784Y-81811653D01*
G37*
%TD.AperFunction*%
%TA.AperFunction,Conductor*%
G36*
X128846810Y-81478502D02*
G01*
X128885833Y-81518196D01*
X128951522Y-81624348D01*
X128956704Y-81629521D01*
X129038109Y-81710784D01*
X129072188Y-81773066D01*
X129067185Y-81843886D01*
X129038264Y-81888975D01*
X128981684Y-81945654D01*
X128950695Y-81976697D01*
X128946855Y-81982927D01*
X128946854Y-81982928D01*
X128866575Y-82113165D01*
X128857885Y-82127262D01*
X128842556Y-82173478D01*
X128805614Y-82284856D01*
X128802203Y-82295139D01*
X128791500Y-82399600D01*
X128791500Y-83025400D01*
X128791837Y-83028646D01*
X128791837Y-83028650D01*
X128800776Y-83114798D01*
X128802474Y-83131166D01*
X128804655Y-83137702D01*
X128804655Y-83137704D01*
X128812524Y-83161290D01*
X128858450Y-83298946D01*
X128911627Y-83384879D01*
X128922644Y-83402682D01*
X128941500Y-83468985D01*
X128941500Y-83712015D01*
X128922759Y-83778132D01*
X128911726Y-83796030D01*
X128911724Y-83796033D01*
X128907885Y-83802262D01*
X128905581Y-83809209D01*
X128876418Y-83897134D01*
X128852203Y-83970139D01*
X128851503Y-83976975D01*
X128851502Y-83976978D01*
X128849214Y-83999308D01*
X128841500Y-84074600D01*
X128841500Y-85125400D01*
X128841837Y-85128646D01*
X128841837Y-85128650D01*
X128851749Y-85224176D01*
X128852474Y-85231166D01*
X128908450Y-85398946D01*
X128921689Y-85420339D01*
X128922644Y-85421883D01*
X128941500Y-85488186D01*
X128941500Y-85921497D01*
X128921498Y-85989618D01*
X128904595Y-86010592D01*
X127823595Y-87091592D01*
X127761283Y-87125618D01*
X127690468Y-87120553D01*
X127633632Y-87078006D01*
X127608821Y-87011486D01*
X127608500Y-87002497D01*
X127608500Y-85048136D01*
X127609578Y-85031690D01*
X127612672Y-85008188D01*
X127613750Y-85000000D01*
X127608500Y-84960120D01*
X127608500Y-84960115D01*
X127599687Y-84893175D01*
X127594891Y-84856741D01*
X127594890Y-84856739D01*
X127592838Y-84841150D01*
X127592838Y-84841149D01*
X127553336Y-84745782D01*
X127534684Y-84700752D01*
X127534683Y-84700750D01*
X127531524Y-84693124D01*
X127507450Y-84661750D01*
X127458477Y-84597929D01*
X127458476Y-84597927D01*
X127439017Y-84572567D01*
X127439013Y-84572563D01*
X127433987Y-84566013D01*
X127427437Y-84560987D01*
X127427434Y-84560984D01*
X127408620Y-84546548D01*
X127396229Y-84535681D01*
X125160549Y-82300000D01*
X128800000Y-82300000D01*
X128800000Y-81500000D01*
X126102808Y-81500000D01*
X126151378Y-81465424D01*
X126192571Y-81458500D01*
X128778689Y-81458500D01*
X128846810Y-81478502D01*
G37*
%TD.AperFunction*%
%TD*%
M02*
