M48
; DRILL file {KiCad (6.0.6)} date Thu Sep 15 15:55:43 2022
; FORMAT={-:-/ absolute / inch / decimal}
; #@! TF.CreationDate,2022-09-15T15:55:43+09:00
; #@! TF.GenerationSoftware,Kicad,Pcbnew,(6.0.6)
; #@! TF.FileFunction,MixedPlating,1,2
FMAT,2
INCH
; #@! TA.AperFunction,Plated,PTH,ViaDrill
T1C0.0157
; #@! TA.AperFunction,Plated,PTH,ComponentDrill
T2C0.0197
; #@! TA.AperFunction,Plated,PTH,ComponentDrill
T3C0.0374
; #@! TA.AperFunction,Plated,PTH,ComponentDrill
T4C0.0394
; #@! TA.AperFunction,Plated,PTH,ComponentDrill
T5C0.1260
%
G90
G05
T1
X4.3307Y-2.7559
X4.3307Y-2.9528
X4.3307Y-3.5433
X4.4488Y-3.3858
X4.5276Y-3.3858
X4.5354Y-2.8583
X4.5354Y-3.2126
X4.5866Y-3.0906
X4.6457Y-2.9921
X4.7638Y-3.189
X4.8836Y-3.3053
X4.9213Y-2.9528
X5.0236Y-3.2244
X5.0394Y-3.3858
X5.0591Y-2.937
X5.0591Y-3.2244
X5.1181Y-3.5433
X5.315Y-2.7559
X5.315Y-2.9528
X5.315Y-3.5433
X5.5118Y-2.7559
X5.5118Y-2.9528
X5.5118Y-3.3465
X5.5118Y-3.5433
X5.7087Y-2.9528
X5.7087Y-3.1496
X5.7087Y-3.3465
T2
X4.0Y-2.7165
X4.0Y-3.5827
X4.0277Y-2.6497
X4.0277Y-2.7833
X4.0277Y-3.5159
X4.0277Y-3.6495
X4.0945Y-2.622
X4.0945Y-2.811
X4.0945Y-3.4882
X4.0945Y-3.6772
X4.1613Y-2.6497
X4.1613Y-2.7833
X4.1613Y-3.5159
X4.1613Y-3.6495
X4.189Y-2.7165
X4.189Y-3.5827
X5.6535Y-2.7165
X5.6535Y-3.5827
X5.6812Y-2.6497
X5.6812Y-2.7833
X5.6812Y-3.5159
X5.6812Y-3.6495
X5.748Y-2.622
X5.748Y-2.811
X5.748Y-3.4882
X5.748Y-3.6772
X5.8148Y-2.6497
X5.8148Y-2.7833
X5.8148Y-3.5159
X5.8148Y-3.6495
X5.8425Y-2.7165
X5.8425Y-3.5827
T3
X4.0787Y-2.9921
X4.0787Y-3.0906
X4.0787Y-3.189
X4.0787Y-3.2874
X4.7638Y-2.6772
X4.8622Y-2.6772
X4.9606Y-2.6772
X5.0591Y-2.6772
T4
X5.4016Y-3.1732
X5.4016Y-3.3071
T5
X4.0945Y-2.7165
X4.0945Y-3.5827
X5.748Y-2.7165
X5.748Y-3.5827
T0
M30
